<?xml version="1.0" encoding="utf-8" standalone="no"?>
<!DOCTYPE svg PUBLIC "-//W3C//DTD SVG 1.1//EN"
  "http://www.w3.org/Graphics/SVG/1.1/DTD/svg11.dtd">
<svg xmlns:xlink="http://www.w3.org/1999/xlink" width="1058.94126pt" height="751.263791pt" viewBox="0 0 1058.94126 751.263791" xmlns="http://www.w3.org/2000/svg" version="1.1">
 <metadata>
  <rdf:RDF xmlns:dc="http://purl.org/dc/elements/1.1/" xmlns:cc="http://creativecommons.org/ns#" xmlns:rdf="http://www.w3.org/1999/02/22-rdf-syntax-ns#">
   <cc:Work>
    <dc:type rdf:resource="http://purl.org/dc/dcmitype/StillImage"/>
    <dc:date>2026-05-20T19:03:11.168001</dc:date>
    <dc:format>image/svg+xml</dc:format>
    <dc:creator>
     <cc:Agent>
      <dc:title>Matplotlib v3.9.4, https://matplotlib.org/</dc:title>
     </cc:Agent>
    </dc:creator>
   </cc:Work>
  </rdf:RDF>
 </metadata>
 <defs>
  <style type="text/css">*{stroke-linejoin: round; stroke-linecap: butt}</style>
 </defs>
 <g id="figure_1">
  <g id="patch_1">
   <path d="M 0 751.263791 
L 1058.94126 751.263791 
L 1058.94126 0 
L 0 0 
z
" style="fill: #ffffff"/>
  </g>
  <g id="axes_1">
   <g id="patch_2">
    <path d="M 33.82 668.293712 
L 956.497165 668.293712 
L 956.497165 20.038594 
L 33.82 20.038594 
z
" style="fill: #ffffff"/>
   </g>
   <g id="matplotlib.axis_1">
    <g id="xtick_1">
     <g id="line2d_1">
      <path d="M 106.868677 668.293712 
L 106.868677 20.038594 
" clip-path="url(#p30ea3f0f51)" style="fill: none; stroke: #aaaaaa; stroke-width: 0.5; stroke-linecap: square"/>
     </g>
     <g id="line2d_2">
      <defs>
       <path id="m890a46ad97" d="M 0 0 
L 0 3.5 
" style="stroke: #000000; stroke-width: 0.8"/>
      </defs>
      <g>
       <use xlink:href="#m890a46ad97" x="106.868677" y="668.293712" style="stroke: #000000; stroke-width: 0.8"/>
      </g>
     </g>
     <g id="text_1">
      <!-- −10 -->
      <g transform="translate(100.53727 679.852774) scale(0.06 -0.06)">
       <defs>
        <path id="DejaVuSans-2212" d="M 678 2272 
L 4684 2272 
L 4684 1741 
L 678 1741 
L 678 2272 
z
" transform="scale(0.015625)"/>
        <path id="DejaVuSans-31" d="M 794 531 
L 1825 531 
L 1825 4091 
L 703 3866 
L 703 4441 
L 1819 4666 
L 2450 4666 
L 2450 531 
L 3481 531 
L 3481 0 
L 794 0 
L 794 531 
z
" transform="scale(0.015625)"/>
        <path id="DejaVuSans-30" d="M 2034 4250 
Q 1547 4250 1301 3770 
Q 1056 3291 1056 2328 
Q 1056 1369 1301 889 
Q 1547 409 2034 409 
Q 2525 409 2770 889 
Q 3016 1369 3016 2328 
Q 3016 3291 2770 3770 
Q 2525 4250 2034 4250 
z
M 2034 4750 
Q 2819 4750 3233 4129 
Q 3647 3509 3647 2328 
Q 3647 1150 3233 529 
Q 2819 -91 2034 -91 
Q 1250 -91 836 529 
Q 422 1150 422 2328 
Q 422 3509 836 4129 
Q 1250 4750 2034 4750 
z
" transform="scale(0.015625)"/>
       </defs>
       <use xlink:href="#DejaVuSans-2212"/>
       <use xlink:href="#DejaVuSans-31" x="83.789062"/>
       <use xlink:href="#DejaVuSans-30" x="147.412109"/>
      </g>
     </g>
    </g>
    <g id="xtick_2">
     <g id="line2d_3">
      <path d="M 303.083661 668.293712 
L 303.083661 20.038594 
" clip-path="url(#p30ea3f0f51)" style="fill: none; stroke: #aaaaaa; stroke-width: 0.5; stroke-linecap: square"/>
     </g>
     <g id="line2d_4">
      <g>
       <use xlink:href="#m890a46ad97" x="303.083661" y="668.293712" style="stroke: #000000; stroke-width: 0.8"/>
      </g>
     </g>
     <g id="text_2">
      <!-- −5 -->
      <g transform="translate(298.661004 679.852774) scale(0.06 -0.06)">
       <defs>
        <path id="DejaVuSans-35" d="M 691 4666 
L 3169 4666 
L 3169 4134 
L 1269 4134 
L 1269 2991 
Q 1406 3038 1543 3061 
Q 1681 3084 1819 3084 
Q 2600 3084 3056 2656 
Q 3513 2228 3513 1497 
Q 3513 744 3044 326 
Q 2575 -91 1722 -91 
Q 1428 -91 1123 -41 
Q 819 9 494 109 
L 494 744 
Q 775 591 1075 516 
Q 1375 441 1709 441 
Q 2250 441 2565 725 
Q 2881 1009 2881 1497 
Q 2881 1984 2565 2268 
Q 2250 2553 1709 2553 
Q 1456 2553 1204 2497 
Q 953 2441 691 2322 
L 691 4666 
z
" transform="scale(0.015625)"/>
       </defs>
       <use xlink:href="#DejaVuSans-2212"/>
       <use xlink:href="#DejaVuSans-35" x="83.789062"/>
      </g>
     </g>
    </g>
    <g id="xtick_3">
     <g id="line2d_5">
      <path d="M 499.298645 668.293712 
L 499.298645 20.038594 
" clip-path="url(#p30ea3f0f51)" style="fill: none; stroke: #aaaaaa; stroke-width: 0.5; stroke-linecap: square"/>
     </g>
     <g id="line2d_6">
      <g>
       <use xlink:href="#m890a46ad97" x="499.298645" y="668.293712" style="stroke: #000000; stroke-width: 0.8"/>
      </g>
     </g>
     <g id="text_3">
      <!-- 0 -->
      <g transform="translate(497.389895 679.852774) scale(0.06 -0.06)">
       <use xlink:href="#DejaVuSans-30"/>
      </g>
     </g>
    </g>
    <g id="xtick_4">
     <g id="line2d_7">
      <path d="M 695.513629 668.293712 
L 695.513629 20.038594 
" clip-path="url(#p30ea3f0f51)" style="fill: none; stroke: #aaaaaa; stroke-width: 0.5; stroke-linecap: square"/>
     </g>
     <g id="line2d_8">
      <g>
       <use xlink:href="#m890a46ad97" x="695.513629" y="668.293712" style="stroke: #000000; stroke-width: 0.8"/>
      </g>
     </g>
     <g id="text_4">
      <!-- 5 -->
      <g transform="translate(693.604879 679.852774) scale(0.06 -0.06)">
       <use xlink:href="#DejaVuSans-35"/>
      </g>
     </g>
    </g>
    <g id="xtick_5">
     <g id="line2d_9">
      <path d="M 891.728613 668.293712 
L 891.728613 20.038594 
" clip-path="url(#p30ea3f0f51)" style="fill: none; stroke: #aaaaaa; stroke-width: 0.5; stroke-linecap: square"/>
     </g>
     <g id="line2d_10">
      <g>
       <use xlink:href="#m890a46ad97" x="891.728613" y="668.293712" style="stroke: #000000; stroke-width: 0.8"/>
      </g>
     </g>
     <g id="text_5">
      <!-- 10 -->
      <g transform="translate(887.911113 679.852774) scale(0.06 -0.06)">
       <use xlink:href="#DejaVuSans-31"/>
       <use xlink:href="#DejaVuSans-30" x="63.623047"/>
      </g>
     </g>
    </g>
    <g id="xtick_6">
     <g id="line2d_11">
      <path d="M 67.62568 668.293712 
L 67.62568 20.038594 
" clip-path="url(#p30ea3f0f51)" style="fill: none; stroke: #dddddd; stroke-width: 0.25; stroke-linecap: square"/>
     </g>
     <g id="line2d_12">
      <defs>
       <path id="md420d31fe1" d="M 0 0 
L 0 2 
" style="stroke: #000000; stroke-width: 0.6"/>
      </defs>
      <g>
       <use xlink:href="#md420d31fe1" x="67.62568" y="668.293712" style="stroke: #000000; stroke-width: 0.6"/>
      </g>
     </g>
    </g>
    <g id="xtick_7">
     <g id="line2d_13">
      <path d="M 146.111674 668.293712 
L 146.111674 20.038594 
" clip-path="url(#p30ea3f0f51)" style="fill: none; stroke: #dddddd; stroke-width: 0.25; stroke-linecap: square"/>
     </g>
     <g id="line2d_14">
      <g>
       <use xlink:href="#md420d31fe1" x="146.111674" y="668.293712" style="stroke: #000000; stroke-width: 0.6"/>
      </g>
     </g>
    </g>
    <g id="xtick_8">
     <g id="line2d_15">
      <path d="M 185.35467 668.293712 
L 185.35467 20.038594 
" clip-path="url(#p30ea3f0f51)" style="fill: none; stroke: #dddddd; stroke-width: 0.25; stroke-linecap: square"/>
     </g>
     <g id="line2d_16">
      <g>
       <use xlink:href="#md420d31fe1" x="185.35467" y="668.293712" style="stroke: #000000; stroke-width: 0.6"/>
      </g>
     </g>
    </g>
    <g id="xtick_9">
     <g id="line2d_17">
      <path d="M 224.597667 668.293712 
L 224.597667 20.038594 
" clip-path="url(#p30ea3f0f51)" style="fill: none; stroke: #dddddd; stroke-width: 0.25; stroke-linecap: square"/>
     </g>
     <g id="line2d_18">
      <g>
       <use xlink:href="#md420d31fe1" x="224.597667" y="668.293712" style="stroke: #000000; stroke-width: 0.6"/>
      </g>
     </g>
    </g>
    <g id="xtick_10">
     <g id="line2d_19">
      <path d="M 263.840664 668.293712 
L 263.840664 20.038594 
" clip-path="url(#p30ea3f0f51)" style="fill: none; stroke: #dddddd; stroke-width: 0.25; stroke-linecap: square"/>
     </g>
     <g id="line2d_20">
      <g>
       <use xlink:href="#md420d31fe1" x="263.840664" y="668.293712" style="stroke: #000000; stroke-width: 0.6"/>
      </g>
     </g>
    </g>
    <g id="xtick_11">
     <g id="line2d_21">
      <path d="M 342.326658 668.293712 
L 342.326658 20.038594 
" clip-path="url(#p30ea3f0f51)" style="fill: none; stroke: #dddddd; stroke-width: 0.25; stroke-linecap: square"/>
     </g>
     <g id="line2d_22">
      <g>
       <use xlink:href="#md420d31fe1" x="342.326658" y="668.293712" style="stroke: #000000; stroke-width: 0.6"/>
      </g>
     </g>
    </g>
    <g id="xtick_12">
     <g id="line2d_23">
      <path d="M 381.569654 668.293712 
L 381.569654 20.038594 
" clip-path="url(#p30ea3f0f51)" style="fill: none; stroke: #dddddd; stroke-width: 0.25; stroke-linecap: square"/>
     </g>
     <g id="line2d_24">
      <g>
       <use xlink:href="#md420d31fe1" x="381.569654" y="668.293712" style="stroke: #000000; stroke-width: 0.6"/>
      </g>
     </g>
    </g>
    <g id="xtick_13">
     <g id="line2d_25">
      <path d="M 420.812651 668.293712 
L 420.812651 20.038594 
" clip-path="url(#p30ea3f0f51)" style="fill: none; stroke: #dddddd; stroke-width: 0.25; stroke-linecap: square"/>
     </g>
     <g id="line2d_26">
      <g>
       <use xlink:href="#md420d31fe1" x="420.812651" y="668.293712" style="stroke: #000000; stroke-width: 0.6"/>
      </g>
     </g>
    </g>
    <g id="xtick_14">
     <g id="line2d_27">
      <path d="M 460.055648 668.293712 
L 460.055648 20.038594 
" clip-path="url(#p30ea3f0f51)" style="fill: none; stroke: #dddddd; stroke-width: 0.25; stroke-linecap: square"/>
     </g>
     <g id="line2d_28">
      <g>
       <use xlink:href="#md420d31fe1" x="460.055648" y="668.293712" style="stroke: #000000; stroke-width: 0.6"/>
      </g>
     </g>
    </g>
    <g id="xtick_15">
     <g id="line2d_29">
      <path d="M 538.541642 668.293712 
L 538.541642 20.038594 
" clip-path="url(#p30ea3f0f51)" style="fill: none; stroke: #dddddd; stroke-width: 0.25; stroke-linecap: square"/>
     </g>
     <g id="line2d_30">
      <g>
       <use xlink:href="#md420d31fe1" x="538.541642" y="668.293712" style="stroke: #000000; stroke-width: 0.6"/>
      </g>
     </g>
    </g>
    <g id="xtick_16">
     <g id="line2d_31">
      <path d="M 577.784638 668.293712 
L 577.784638 20.038594 
" clip-path="url(#p30ea3f0f51)" style="fill: none; stroke: #dddddd; stroke-width: 0.25; stroke-linecap: square"/>
     </g>
     <g id="line2d_32">
      <g>
       <use xlink:href="#md420d31fe1" x="577.784638" y="668.293712" style="stroke: #000000; stroke-width: 0.6"/>
      </g>
     </g>
    </g>
    <g id="xtick_17">
     <g id="line2d_33">
      <path d="M 617.027635 668.293712 
L 617.027635 20.038594 
" clip-path="url(#p30ea3f0f51)" style="fill: none; stroke: #dddddd; stroke-width: 0.25; stroke-linecap: square"/>
     </g>
     <g id="line2d_34">
      <g>
       <use xlink:href="#md420d31fe1" x="617.027635" y="668.293712" style="stroke: #000000; stroke-width: 0.6"/>
      </g>
     </g>
    </g>
    <g id="xtick_18">
     <g id="line2d_35">
      <path d="M 656.270632 668.293712 
L 656.270632 20.038594 
" clip-path="url(#p30ea3f0f51)" style="fill: none; stroke: #dddddd; stroke-width: 0.25; stroke-linecap: square"/>
     </g>
     <g id="line2d_36">
      <g>
       <use xlink:href="#md420d31fe1" x="656.270632" y="668.293712" style="stroke: #000000; stroke-width: 0.6"/>
      </g>
     </g>
    </g>
    <g id="xtick_19">
     <g id="line2d_37">
      <path d="M 734.756626 668.293712 
L 734.756626 20.038594 
" clip-path="url(#p30ea3f0f51)" style="fill: none; stroke: #dddddd; stroke-width: 0.25; stroke-linecap: square"/>
     </g>
     <g id="line2d_38">
      <g>
       <use xlink:href="#md420d31fe1" x="734.756626" y="668.293712" style="stroke: #000000; stroke-width: 0.6"/>
      </g>
     </g>
    </g>
    <g id="xtick_20">
     <g id="line2d_39">
      <path d="M 773.999622 668.293712 
L 773.999622 20.038594 
" clip-path="url(#p30ea3f0f51)" style="fill: none; stroke: #dddddd; stroke-width: 0.25; stroke-linecap: square"/>
     </g>
     <g id="line2d_40">
      <g>
       <use xlink:href="#md420d31fe1" x="773.999622" y="668.293712" style="stroke: #000000; stroke-width: 0.6"/>
      </g>
     </g>
    </g>
    <g id="xtick_21">
     <g id="line2d_41">
      <path d="M 813.242619 668.293712 
L 813.242619 20.038594 
" clip-path="url(#p30ea3f0f51)" style="fill: none; stroke: #dddddd; stroke-width: 0.25; stroke-linecap: square"/>
     </g>
     <g id="line2d_42">
      <g>
       <use xlink:href="#md420d31fe1" x="813.242619" y="668.293712" style="stroke: #000000; stroke-width: 0.6"/>
      </g>
     </g>
    </g>
    <g id="xtick_22">
     <g id="line2d_43">
      <path d="M 852.485616 668.293712 
L 852.485616 20.038594 
" clip-path="url(#p30ea3f0f51)" style="fill: none; stroke: #dddddd; stroke-width: 0.25; stroke-linecap: square"/>
     </g>
     <g id="line2d_44">
      <g>
       <use xlink:href="#md420d31fe1" x="852.485616" y="668.293712" style="stroke: #000000; stroke-width: 0.6"/>
      </g>
     </g>
    </g>
    <g id="xtick_23">
     <g id="line2d_45">
      <path d="M 930.97161 668.293712 
L 930.97161 20.038594 
" clip-path="url(#p30ea3f0f51)" style="fill: none; stroke: #dddddd; stroke-width: 0.25; stroke-linecap: square"/>
     </g>
     <g id="line2d_46">
      <g>
       <use xlink:href="#md420d31fe1" x="930.97161" y="668.293712" style="stroke: #000000; stroke-width: 0.6"/>
      </g>
     </g>
    </g>
    <g id="text_6">
     <!-- Avstand fra senterlinje (m) -->
     <g transform="translate(448.376708 690.419493) scale(0.07 -0.07)">
      <defs>
       <path id="DejaVuSans-41" d="M 2188 4044 
L 1331 1722 
L 3047 1722 
L 2188 4044 
z
M 1831 4666 
L 2547 4666 
L 4325 0 
L 3669 0 
L 3244 1197 
L 1141 1197 
L 716 0 
L 50 0 
L 1831 4666 
z
" transform="scale(0.015625)"/>
       <path id="DejaVuSans-76" d="M 191 3500 
L 800 3500 
L 1894 563 
L 2988 3500 
L 3597 3500 
L 2284 0 
L 1503 0 
L 191 3500 
z
" transform="scale(0.015625)"/>
       <path id="DejaVuSans-73" d="M 2834 3397 
L 2834 2853 
Q 2591 2978 2328 3040 
Q 2066 3103 1784 3103 
Q 1356 3103 1142 2972 
Q 928 2841 928 2578 
Q 928 2378 1081 2264 
Q 1234 2150 1697 2047 
L 1894 2003 
Q 2506 1872 2764 1633 
Q 3022 1394 3022 966 
Q 3022 478 2636 193 
Q 2250 -91 1575 -91 
Q 1294 -91 989 -36 
Q 684 19 347 128 
L 347 722 
Q 666 556 975 473 
Q 1284 391 1588 391 
Q 1994 391 2212 530 
Q 2431 669 2431 922 
Q 2431 1156 2273 1281 
Q 2116 1406 1581 1522 
L 1381 1569 
Q 847 1681 609 1914 
Q 372 2147 372 2553 
Q 372 3047 722 3315 
Q 1072 3584 1716 3584 
Q 2034 3584 2315 3537 
Q 2597 3491 2834 3397 
z
" transform="scale(0.015625)"/>
       <path id="DejaVuSans-74" d="M 1172 4494 
L 1172 3500 
L 2356 3500 
L 2356 3053 
L 1172 3053 
L 1172 1153 
Q 1172 725 1289 603 
Q 1406 481 1766 481 
L 2356 481 
L 2356 0 
L 1766 0 
Q 1100 0 847 248 
Q 594 497 594 1153 
L 594 3053 
L 172 3053 
L 172 3500 
L 594 3500 
L 594 4494 
L 1172 4494 
z
" transform="scale(0.015625)"/>
       <path id="DejaVuSans-61" d="M 2194 1759 
Q 1497 1759 1228 1600 
Q 959 1441 959 1056 
Q 959 750 1161 570 
Q 1363 391 1709 391 
Q 2188 391 2477 730 
Q 2766 1069 2766 1631 
L 2766 1759 
L 2194 1759 
z
M 3341 1997 
L 3341 0 
L 2766 0 
L 2766 531 
Q 2569 213 2275 61 
Q 1981 -91 1556 -91 
Q 1019 -91 701 211 
Q 384 513 384 1019 
Q 384 1609 779 1909 
Q 1175 2209 1959 2209 
L 2766 2209 
L 2766 2266 
Q 2766 2663 2505 2880 
Q 2244 3097 1772 3097 
Q 1472 3097 1187 3025 
Q 903 2953 641 2809 
L 641 3341 
Q 956 3463 1253 3523 
Q 1550 3584 1831 3584 
Q 2591 3584 2966 3190 
Q 3341 2797 3341 1997 
z
" transform="scale(0.015625)"/>
       <path id="DejaVuSans-6e" d="M 3513 2113 
L 3513 0 
L 2938 0 
L 2938 2094 
Q 2938 2591 2744 2837 
Q 2550 3084 2163 3084 
Q 1697 3084 1428 2787 
Q 1159 2491 1159 1978 
L 1159 0 
L 581 0 
L 581 3500 
L 1159 3500 
L 1159 2956 
Q 1366 3272 1645 3428 
Q 1925 3584 2291 3584 
Q 2894 3584 3203 3211 
Q 3513 2838 3513 2113 
z
" transform="scale(0.015625)"/>
       <path id="DejaVuSans-64" d="M 2906 2969 
L 2906 4863 
L 3481 4863 
L 3481 0 
L 2906 0 
L 2906 525 
Q 2725 213 2448 61 
Q 2172 -91 1784 -91 
Q 1150 -91 751 415 
Q 353 922 353 1747 
Q 353 2572 751 3078 
Q 1150 3584 1784 3584 
Q 2172 3584 2448 3432 
Q 2725 3281 2906 2969 
z
M 947 1747 
Q 947 1113 1208 752 
Q 1469 391 1925 391 
Q 2381 391 2643 752 
Q 2906 1113 2906 1747 
Q 2906 2381 2643 2742 
Q 2381 3103 1925 3103 
Q 1469 3103 1208 2742 
Q 947 2381 947 1747 
z
" transform="scale(0.015625)"/>
       <path id="DejaVuSans-20" transform="scale(0.015625)"/>
       <path id="DejaVuSans-66" d="M 2375 4863 
L 2375 4384 
L 1825 4384 
Q 1516 4384 1395 4259 
Q 1275 4134 1275 3809 
L 1275 3500 
L 2222 3500 
L 2222 3053 
L 1275 3053 
L 1275 0 
L 697 0 
L 697 3053 
L 147 3053 
L 147 3500 
L 697 3500 
L 697 3744 
Q 697 4328 969 4595 
Q 1241 4863 1831 4863 
L 2375 4863 
z
" transform="scale(0.015625)"/>
       <path id="DejaVuSans-72" d="M 2631 2963 
Q 2534 3019 2420 3045 
Q 2306 3072 2169 3072 
Q 1681 3072 1420 2755 
Q 1159 2438 1159 1844 
L 1159 0 
L 581 0 
L 581 3500 
L 1159 3500 
L 1159 2956 
Q 1341 3275 1631 3429 
Q 1922 3584 2338 3584 
Q 2397 3584 2469 3576 
Q 2541 3569 2628 3553 
L 2631 2963 
z
" transform="scale(0.015625)"/>
       <path id="DejaVuSans-65" d="M 3597 1894 
L 3597 1613 
L 953 1613 
Q 991 1019 1311 708 
Q 1631 397 2203 397 
Q 2534 397 2845 478 
Q 3156 559 3463 722 
L 3463 178 
Q 3153 47 2828 -22 
Q 2503 -91 2169 -91 
Q 1331 -91 842 396 
Q 353 884 353 1716 
Q 353 2575 817 3079 
Q 1281 3584 2069 3584 
Q 2775 3584 3186 3129 
Q 3597 2675 3597 1894 
z
M 3022 2063 
Q 3016 2534 2758 2815 
Q 2500 3097 2075 3097 
Q 1594 3097 1305 2825 
Q 1016 2553 972 2059 
L 3022 2063 
z
" transform="scale(0.015625)"/>
       <path id="DejaVuSans-6c" d="M 603 4863 
L 1178 4863 
L 1178 0 
L 603 0 
L 603 4863 
z
" transform="scale(0.015625)"/>
       <path id="DejaVuSans-69" d="M 603 3500 
L 1178 3500 
L 1178 0 
L 603 0 
L 603 3500 
z
M 603 4863 
L 1178 4863 
L 1178 4134 
L 603 4134 
L 603 4863 
z
" transform="scale(0.015625)"/>
       <path id="DejaVuSans-6a" d="M 603 3500 
L 1178 3500 
L 1178 -63 
Q 1178 -731 923 -1031 
Q 669 -1331 103 -1331 
L -116 -1331 
L -116 -844 
L 38 -844 
Q 366 -844 484 -692 
Q 603 -541 603 -63 
L 603 3500 
z
M 603 4863 
L 1178 4863 
L 1178 4134 
L 603 4134 
L 603 4863 
z
" transform="scale(0.015625)"/>
       <path id="DejaVuSans-28" d="M 1984 4856 
Q 1566 4138 1362 3434 
Q 1159 2731 1159 2009 
Q 1159 1288 1364 580 
Q 1569 -128 1984 -844 
L 1484 -844 
Q 1016 -109 783 600 
Q 550 1309 550 2009 
Q 550 2706 781 3412 
Q 1013 4119 1484 4856 
L 1984 4856 
z
" transform="scale(0.015625)"/>
       <path id="DejaVuSans-6d" d="M 3328 2828 
Q 3544 3216 3844 3400 
Q 4144 3584 4550 3584 
Q 5097 3584 5394 3201 
Q 5691 2819 5691 2113 
L 5691 0 
L 5113 0 
L 5113 2094 
Q 5113 2597 4934 2840 
Q 4756 3084 4391 3084 
Q 3944 3084 3684 2787 
Q 3425 2491 3425 1978 
L 3425 0 
L 2847 0 
L 2847 2094 
Q 2847 2600 2669 2842 
Q 2491 3084 2119 3084 
Q 1678 3084 1418 2786 
Q 1159 2488 1159 1978 
L 1159 0 
L 581 0 
L 581 3500 
L 1159 3500 
L 1159 2956 
Q 1356 3278 1631 3431 
Q 1906 3584 2284 3584 
Q 2666 3584 2933 3390 
Q 3200 3197 3328 2828 
z
" transform="scale(0.015625)"/>
       <path id="DejaVuSans-29" d="M 513 4856 
L 1013 4856 
Q 1481 4119 1714 3412 
Q 1947 2706 1947 2009 
Q 1947 1309 1714 600 
Q 1481 -109 1013 -844 
L 513 -844 
Q 928 -128 1133 580 
Q 1338 1288 1338 2009 
Q 1338 2731 1133 3434 
Q 928 4138 513 4856 
z
" transform="scale(0.015625)"/>
      </defs>
      <use xlink:href="#DejaVuSans-41"/>
      <use xlink:href="#DejaVuSans-76" x="62.533203"/>
      <use xlink:href="#DejaVuSans-73" x="121.712891"/>
      <use xlink:href="#DejaVuSans-74" x="173.8125"/>
      <use xlink:href="#DejaVuSans-61" x="213.021484"/>
      <use xlink:href="#DejaVuSans-6e" x="274.300781"/>
      <use xlink:href="#DejaVuSans-64" x="337.679688"/>
      <use xlink:href="#DejaVuSans-20" x="401.15625"/>
      <use xlink:href="#DejaVuSans-66" x="432.943359"/>
      <use xlink:href="#DejaVuSans-72" x="468.148438"/>
      <use xlink:href="#DejaVuSans-61" x="509.261719"/>
      <use xlink:href="#DejaVuSans-20" x="570.541016"/>
      <use xlink:href="#DejaVuSans-73" x="602.328125"/>
      <use xlink:href="#DejaVuSans-65" x="654.427734"/>
      <use xlink:href="#DejaVuSans-6e" x="715.951172"/>
      <use xlink:href="#DejaVuSans-74" x="779.330078"/>
      <use xlink:href="#DejaVuSans-65" x="818.539062"/>
      <use xlink:href="#DejaVuSans-72" x="880.0625"/>
      <use xlink:href="#DejaVuSans-6c" x="921.175781"/>
      <use xlink:href="#DejaVuSans-69" x="948.958984"/>
      <use xlink:href="#DejaVuSans-6e" x="976.742188"/>
      <use xlink:href="#DejaVuSans-6a" x="1040.121094"/>
      <use xlink:href="#DejaVuSans-65" x="1067.904297"/>
      <use xlink:href="#DejaVuSans-20" x="1129.427734"/>
      <use xlink:href="#DejaVuSans-28" x="1161.214844"/>
      <use xlink:href="#DejaVuSans-6d" x="1200.228516"/>
      <use xlink:href="#DejaVuSans-29" x="1297.640625"/>
     </g>
    </g>
   </g>
   <g id="matplotlib.axis_2">
    <g id="ytick_1">
     <g id="line2d_47">
      <path d="M 33.82 626.459931 
L 956.497165 626.459931 
" clip-path="url(#p30ea3f0f51)" style="fill: none; stroke: #aaaaaa; stroke-width: 0.5; stroke-linecap: square"/>
     </g>
     <g id="line2d_48">
      <defs>
       <path id="m988ca2e91c" d="M 0 0 
L -3.5 0 
" style="stroke: #000000; stroke-width: 0.8"/>
      </defs>
      <g>
       <use xlink:href="#m988ca2e91c" x="33.82" y="626.459931" style="stroke: #000000; stroke-width: 0.8"/>
      </g>
     </g>
     <g id="text_7">
      <!-- −3 -->
      <g transform="translate(17.974688 628.739462) scale(0.06 -0.06)">
       <defs>
        <path id="DejaVuSans-33" d="M 2597 2516 
Q 3050 2419 3304 2112 
Q 3559 1806 3559 1356 
Q 3559 666 3084 287 
Q 2609 -91 1734 -91 
Q 1441 -91 1130 -33 
Q 819 25 488 141 
L 488 750 
Q 750 597 1062 519 
Q 1375 441 1716 441 
Q 2309 441 2620 675 
Q 2931 909 2931 1356 
Q 2931 1769 2642 2001 
Q 2353 2234 1838 2234 
L 1294 2234 
L 1294 2753 
L 1863 2753 
Q 2328 2753 2575 2939 
Q 2822 3125 2822 3475 
Q 2822 3834 2567 4026 
Q 2313 4219 1838 4219 
Q 1578 4219 1281 4162 
Q 984 4106 628 3988 
L 628 4550 
Q 988 4650 1302 4700 
Q 1616 4750 1894 4750 
Q 2613 4750 3031 4423 
Q 3450 4097 3450 3541 
Q 3450 3153 3228 2886 
Q 3006 2619 2597 2516 
z
" transform="scale(0.015625)"/>
       </defs>
       <use xlink:href="#DejaVuSans-2212"/>
       <use xlink:href="#DejaVuSans-33" x="83.789062"/>
      </g>
     </g>
    </g>
    <g id="ytick_2">
     <g id="line2d_49">
      <path d="M 33.82 576.472987 
L 956.497165 576.472987 
" clip-path="url(#p30ea3f0f51)" style="fill: none; stroke: #aaaaaa; stroke-width: 0.5; stroke-linecap: square"/>
     </g>
     <g id="line2d_50">
      <g>
       <use xlink:href="#m988ca2e91c" x="33.82" y="576.472987" style="stroke: #000000; stroke-width: 0.8"/>
      </g>
     </g>
     <g id="text_8">
      <!-- −2 -->
      <g transform="translate(17.974688 578.752519) scale(0.06 -0.06)">
       <defs>
        <path id="DejaVuSans-32" d="M 1228 531 
L 3431 531 
L 3431 0 
L 469 0 
L 469 531 
Q 828 903 1448 1529 
Q 2069 2156 2228 2338 
Q 2531 2678 2651 2914 
Q 2772 3150 2772 3378 
Q 2772 3750 2511 3984 
Q 2250 4219 1831 4219 
Q 1534 4219 1204 4116 
Q 875 4013 500 3803 
L 500 4441 
Q 881 4594 1212 4672 
Q 1544 4750 1819 4750 
Q 2544 4750 2975 4387 
Q 3406 4025 3406 3419 
Q 3406 3131 3298 2873 
Q 3191 2616 2906 2266 
Q 2828 2175 2409 1742 
Q 1991 1309 1228 531 
z
" transform="scale(0.015625)"/>
       </defs>
       <use xlink:href="#DejaVuSans-2212"/>
       <use xlink:href="#DejaVuSans-32" x="83.789062"/>
      </g>
     </g>
    </g>
    <g id="ytick_3">
     <g id="line2d_51">
      <path d="M 33.82 526.486043 
L 956.497165 526.486043 
" clip-path="url(#p30ea3f0f51)" style="fill: none; stroke: #aaaaaa; stroke-width: 0.5; stroke-linecap: square"/>
     </g>
     <g id="line2d_52">
      <g>
       <use xlink:href="#m988ca2e91c" x="33.82" y="526.486043" style="stroke: #000000; stroke-width: 0.8"/>
      </g>
     </g>
     <g id="text_9">
      <!-- −1 -->
      <g transform="translate(17.974688 528.765575) scale(0.06 -0.06)">
       <use xlink:href="#DejaVuSans-2212"/>
       <use xlink:href="#DejaVuSans-31" x="83.789062"/>
      </g>
     </g>
    </g>
    <g id="ytick_4">
     <g id="line2d_53">
      <path d="M 33.82 476.4991 
L 956.497165 476.4991 
" clip-path="url(#p30ea3f0f51)" style="fill: none; stroke: #aaaaaa; stroke-width: 0.5; stroke-linecap: square"/>
     </g>
     <g id="line2d_54">
      <g>
       <use xlink:href="#m988ca2e91c" x="33.82" y="476.4991" style="stroke: #000000; stroke-width: 0.8"/>
      </g>
     </g>
     <g id="text_10">
      <!-- 0 -->
      <g transform="translate(23.0025 478.778631) scale(0.06 -0.06)">
       <use xlink:href="#DejaVuSans-30"/>
      </g>
     </g>
    </g>
    <g id="ytick_5">
     <g id="line2d_55">
      <path d="M 33.82 426.512156 
L 956.497165 426.512156 
" clip-path="url(#p30ea3f0f51)" style="fill: none; stroke: #aaaaaa; stroke-width: 0.5; stroke-linecap: square"/>
     </g>
     <g id="line2d_56">
      <g>
       <use xlink:href="#m988ca2e91c" x="33.82" y="426.512156" style="stroke: #000000; stroke-width: 0.8"/>
      </g>
     </g>
     <g id="text_11">
      <!-- 1 -->
      <g transform="translate(23.0025 428.791687) scale(0.06 -0.06)">
       <use xlink:href="#DejaVuSans-31"/>
      </g>
     </g>
    </g>
    <g id="ytick_6">
     <g id="line2d_57">
      <path d="M 33.82 376.525212 
L 956.497165 376.525212 
" clip-path="url(#p30ea3f0f51)" style="fill: none; stroke: #aaaaaa; stroke-width: 0.5; stroke-linecap: square"/>
     </g>
     <g id="line2d_58">
      <g>
       <use xlink:href="#m988ca2e91c" x="33.82" y="376.525212" style="stroke: #000000; stroke-width: 0.8"/>
      </g>
     </g>
     <g id="text_12">
      <!-- 2 -->
      <g transform="translate(23.0025 378.804743) scale(0.06 -0.06)">
       <use xlink:href="#DejaVuSans-32"/>
      </g>
     </g>
    </g>
    <g id="ytick_7">
     <g id="line2d_59">
      <path d="M 33.82 326.538268 
L 956.497165 326.538268 
" clip-path="url(#p30ea3f0f51)" style="fill: none; stroke: #aaaaaa; stroke-width: 0.5; stroke-linecap: square"/>
     </g>
     <g id="line2d_60">
      <g>
       <use xlink:href="#m988ca2e91c" x="33.82" y="326.538268" style="stroke: #000000; stroke-width: 0.8"/>
      </g>
     </g>
     <g id="text_13">
      <!-- 3 -->
      <g transform="translate(23.0025 328.817799) scale(0.06 -0.06)">
       <use xlink:href="#DejaVuSans-33"/>
      </g>
     </g>
    </g>
    <g id="ytick_8">
     <g id="line2d_61">
      <path d="M 33.82 276.551324 
L 956.497165 276.551324 
" clip-path="url(#p30ea3f0f51)" style="fill: none; stroke: #aaaaaa; stroke-width: 0.5; stroke-linecap: square"/>
     </g>
     <g id="line2d_62">
      <g>
       <use xlink:href="#m988ca2e91c" x="33.82" y="276.551324" style="stroke: #000000; stroke-width: 0.8"/>
      </g>
     </g>
     <g id="text_14">
      <!-- 4 -->
      <g transform="translate(23.0025 278.830856) scale(0.06 -0.06)">
       <defs>
        <path id="DejaVuSans-34" d="M 2419 4116 
L 825 1625 
L 2419 1625 
L 2419 4116 
z
M 2253 4666 
L 3047 4666 
L 3047 1625 
L 3713 1625 
L 3713 1100 
L 3047 1100 
L 3047 0 
L 2419 0 
L 2419 1100 
L 313 1100 
L 313 1709 
L 2253 4666 
z
" transform="scale(0.015625)"/>
       </defs>
       <use xlink:href="#DejaVuSans-34"/>
      </g>
     </g>
    </g>
    <g id="ytick_9">
     <g id="line2d_63">
      <path d="M 33.82 226.564381 
L 956.497165 226.564381 
" clip-path="url(#p30ea3f0f51)" style="fill: none; stroke: #aaaaaa; stroke-width: 0.5; stroke-linecap: square"/>
     </g>
     <g id="line2d_64">
      <g>
       <use xlink:href="#m988ca2e91c" x="33.82" y="226.564381" style="stroke: #000000; stroke-width: 0.8"/>
      </g>
     </g>
     <g id="text_15">
      <!-- 5 -->
      <g transform="translate(23.0025 228.843912) scale(0.06 -0.06)">
       <use xlink:href="#DejaVuSans-35"/>
      </g>
     </g>
    </g>
    <g id="ytick_10">
     <g id="line2d_65">
      <path d="M 33.82 176.577437 
L 956.497165 176.577437 
" clip-path="url(#p30ea3f0f51)" style="fill: none; stroke: #aaaaaa; stroke-width: 0.5; stroke-linecap: square"/>
     </g>
     <g id="line2d_66">
      <g>
       <use xlink:href="#m988ca2e91c" x="33.82" y="176.577437" style="stroke: #000000; stroke-width: 0.8"/>
      </g>
     </g>
     <g id="text_16">
      <!-- 6 -->
      <g transform="translate(23.0025 178.856968) scale(0.06 -0.06)">
       <defs>
        <path id="DejaVuSans-36" d="M 2113 2584 
Q 1688 2584 1439 2293 
Q 1191 2003 1191 1497 
Q 1191 994 1439 701 
Q 1688 409 2113 409 
Q 2538 409 2786 701 
Q 3034 994 3034 1497 
Q 3034 2003 2786 2293 
Q 2538 2584 2113 2584 
z
M 3366 4563 
L 3366 3988 
Q 3128 4100 2886 4159 
Q 2644 4219 2406 4219 
Q 1781 4219 1451 3797 
Q 1122 3375 1075 2522 
Q 1259 2794 1537 2939 
Q 1816 3084 2150 3084 
Q 2853 3084 3261 2657 
Q 3669 2231 3669 1497 
Q 3669 778 3244 343 
Q 2819 -91 2113 -91 
Q 1303 -91 875 529 
Q 447 1150 447 2328 
Q 447 3434 972 4092 
Q 1497 4750 2381 4750 
Q 2619 4750 2861 4703 
Q 3103 4656 3366 4563 
z
" transform="scale(0.015625)"/>
       </defs>
       <use xlink:href="#DejaVuSans-36"/>
      </g>
     </g>
    </g>
    <g id="ytick_11">
     <g id="line2d_67">
      <path d="M 33.82 126.590493 
L 956.497165 126.590493 
" clip-path="url(#p30ea3f0f51)" style="fill: none; stroke: #aaaaaa; stroke-width: 0.5; stroke-linecap: square"/>
     </g>
     <g id="line2d_68">
      <g>
       <use xlink:href="#m988ca2e91c" x="33.82" y="126.590493" style="stroke: #000000; stroke-width: 0.8"/>
      </g>
     </g>
     <g id="text_17">
      <!-- 7 -->
      <g transform="translate(23.0025 128.870024) scale(0.06 -0.06)">
       <defs>
        <path id="DejaVuSans-37" d="M 525 4666 
L 3525 4666 
L 3525 4397 
L 1831 0 
L 1172 0 
L 2766 4134 
L 525 4134 
L 525 4666 
z
" transform="scale(0.015625)"/>
       </defs>
       <use xlink:href="#DejaVuSans-37"/>
      </g>
     </g>
    </g>
    <g id="ytick_12">
     <g id="line2d_69">
      <path d="M 33.82 76.603549 
L 956.497165 76.603549 
" clip-path="url(#p30ea3f0f51)" style="fill: none; stroke: #aaaaaa; stroke-width: 0.5; stroke-linecap: square"/>
     </g>
     <g id="line2d_70">
      <g>
       <use xlink:href="#m988ca2e91c" x="33.82" y="76.603549" style="stroke: #000000; stroke-width: 0.8"/>
      </g>
     </g>
     <g id="text_18">
      <!-- 8 -->
      <g transform="translate(23.0025 78.88308) scale(0.06 -0.06)">
       <defs>
        <path id="DejaVuSans-38" d="M 2034 2216 
Q 1584 2216 1326 1975 
Q 1069 1734 1069 1313 
Q 1069 891 1326 650 
Q 1584 409 2034 409 
Q 2484 409 2743 651 
Q 3003 894 3003 1313 
Q 3003 1734 2745 1975 
Q 2488 2216 2034 2216 
z
M 1403 2484 
Q 997 2584 770 2862 
Q 544 3141 544 3541 
Q 544 4100 942 4425 
Q 1341 4750 2034 4750 
Q 2731 4750 3128 4425 
Q 3525 4100 3525 3541 
Q 3525 3141 3298 2862 
Q 3072 2584 2669 2484 
Q 3125 2378 3379 2068 
Q 3634 1759 3634 1313 
Q 3634 634 3220 271 
Q 2806 -91 2034 -91 
Q 1263 -91 848 271 
Q 434 634 434 1313 
Q 434 1759 690 2068 
Q 947 2378 1403 2484 
z
M 1172 3481 
Q 1172 3119 1398 2916 
Q 1625 2713 2034 2713 
Q 2441 2713 2670 2916 
Q 2900 3119 2900 3481 
Q 2900 3844 2670 4047 
Q 2441 4250 2034 4250 
Q 1625 4250 1398 4047 
Q 1172 3844 1172 3481 
z
" transform="scale(0.015625)"/>
       </defs>
       <use xlink:href="#DejaVuSans-38"/>
      </g>
     </g>
    </g>
    <g id="ytick_13">
     <g id="line2d_71">
      <path d="M 33.82 26.616605 
L 956.497165 26.616605 
" clip-path="url(#p30ea3f0f51)" style="fill: none; stroke: #aaaaaa; stroke-width: 0.5; stroke-linecap: square"/>
     </g>
     <g id="line2d_72">
      <g>
       <use xlink:href="#m988ca2e91c" x="33.82" y="26.616605" style="stroke: #000000; stroke-width: 0.8"/>
      </g>
     </g>
     <g id="text_19">
      <!-- 9 -->
      <g transform="translate(23.0025 28.896136) scale(0.06 -0.06)">
       <defs>
        <path id="DejaVuSans-39" d="M 703 97 
L 703 672 
Q 941 559 1184 500 
Q 1428 441 1663 441 
Q 2288 441 2617 861 
Q 2947 1281 2994 2138 
Q 2813 1869 2534 1725 
Q 2256 1581 1919 1581 
Q 1219 1581 811 2004 
Q 403 2428 403 3163 
Q 403 3881 828 4315 
Q 1253 4750 1959 4750 
Q 2769 4750 3195 4129 
Q 3622 3509 3622 2328 
Q 3622 1225 3098 567 
Q 2575 -91 1691 -91 
Q 1453 -91 1209 -44 
Q 966 3 703 97 
z
M 1959 2075 
Q 2384 2075 2632 2365 
Q 2881 2656 2881 3163 
Q 2881 3666 2632 3958 
Q 2384 4250 1959 4250 
Q 1534 4250 1286 3958 
Q 1038 3666 1038 3163 
Q 1038 2656 1286 2365 
Q 1534 2075 1959 2075 
z
" transform="scale(0.015625)"/>
       </defs>
       <use xlink:href="#DejaVuSans-39"/>
      </g>
     </g>
    </g>
    <g id="text_20">
     <!-- Høyde (m) -->
     <g transform="translate(12.518906 362.63959) rotate(-90) scale(0.07 -0.07)">
      <defs>
       <path id="DejaVuSans-48" d="M 628 4666 
L 1259 4666 
L 1259 2753 
L 3553 2753 
L 3553 4666 
L 4184 4666 
L 4184 0 
L 3553 0 
L 3553 2222 
L 1259 2222 
L 1259 0 
L 628 0 
L 628 4666 
z
" transform="scale(0.015625)"/>
       <path id="DejaVuSans-f8" d="M 2828 2503 
L 1306 653 
Q 1434 522 1595 459 
Q 1756 397 1959 397 
Q 2419 397 2687 759 
Q 2956 1122 2956 1747 
Q 2956 1994 2925 2176 
Q 2894 2359 2828 2503 
z
M 2606 2841 
Q 2475 2969 2314 3033 
Q 2153 3097 1959 3097 
Q 1488 3097 1223 2730 
Q 959 2363 959 1703 
Q 959 1478 989 1306 
Q 1019 1134 1081 991 
L 2606 2841 
z
M 691 519 
Q 522 759 437 1067 
Q 353 1375 353 1747 
Q 353 2609 779 3096 
Q 1206 3584 1959 3584 
Q 2250 3584 2498 3504 
Q 2747 3425 2956 3263 
L 3391 3788 
L 3688 3541 
L 3231 2981 
Q 3397 2741 3481 2431 
Q 3566 2122 3566 1747 
Q 3566 888 3137 398 
Q 2709 -91 1959 -91 
Q 1659 -91 1407 -9 
Q 1156 72 959 231 
L 525 -294 
L 225 -50 
L 691 519 
z
" transform="scale(0.015625)"/>
       <path id="DejaVuSans-79" d="M 2059 -325 
Q 1816 -950 1584 -1140 
Q 1353 -1331 966 -1331 
L 506 -1331 
L 506 -850 
L 844 -850 
Q 1081 -850 1212 -737 
Q 1344 -625 1503 -206 
L 1606 56 
L 191 3500 
L 800 3500 
L 1894 763 
L 2988 3500 
L 3597 3500 
L 2059 -325 
z
" transform="scale(0.015625)"/>
      </defs>
      <use xlink:href="#DejaVuSans-48"/>
      <use xlink:href="#DejaVuSans-f8" x="75.195312"/>
      <use xlink:href="#DejaVuSans-79" x="136.376953"/>
      <use xlink:href="#DejaVuSans-64" x="195.556641"/>
      <use xlink:href="#DejaVuSans-65" x="259.033203"/>
      <use xlink:href="#DejaVuSans-20" x="320.556641"/>
      <use xlink:href="#DejaVuSans-28" x="352.34375"/>
      <use xlink:href="#DejaVuSans-6d" x="391.357422"/>
      <use xlink:href="#DejaVuSans-29" x="488.769531"/>
     </g>
    </g>
   </g>
   <g id="line2d_73">
    <path d="M 499.298645 668.293712 
L 499.298645 20.038594 
" clip-path="url(#p30ea3f0f51)" style="fill: none; stroke-dasharray: 0.5,0.825; stroke-dashoffset: 0; stroke: #000000; stroke-width: 0.5"/>
   </g>
   <g id="line2d_74">
    <path d="M 33.82 523.162477 
L 956.497165 523.162477 
" clip-path="url(#p30ea3f0f51)" style="fill: none; stroke: #000000; stroke-width: 0.8; stroke-linecap: square"/>
   </g>
   <g id="cs:terreng">
    <path d="M -1 576.210174 
L 28.382683 575.648768 
L 106.868677 580.647463 
L 185.35467 563.152032 
L 263.840664 519.163522 
L 342.326658 496.669397 
L 420.812651 494.17005 
L 499.298645 491.170833 
L 577.784638 486.172139 
L 656.270632 484.672531 
L 734.756626 485.1724 
L 813.242619 486.172139 
L 891.728613 485.672269 
L 970.214606 484.672531 
L 1048.7006 481.673314 
L 1059.94126 481.24377 
" clip-path="url(#p30ea3f0f51)" style="fill: none; stroke: #000000; stroke-width: 0.8; stroke-linecap: square"/>
   </g>
   <g id="line2d_75">
    <path clip-path="url(#p30ea3f0f51)" style="fill: none; stroke: #000000; stroke-width: 0.6; stroke-linecap: square"/>
   </g>
   <g id="line2d_76">
    <path clip-path="url(#p30ea3f0f51)" style="fill: none; stroke: #000000; stroke-width: 0.6; stroke-linecap: square"/>
   </g>
   <g id="line2d_77">
    <path clip-path="url(#p30ea3f0f51)" style="fill: none; stroke: #000000; stroke-width: 0.6; stroke-linecap: square"/>
   </g>
   <g id="line2d_78">
    <path clip-path="url(#p30ea3f0f51)" style="fill: none; stroke: #000000; stroke-width: 0.6; stroke-linecap: square"/>
   </g>
   <g id="line2d_79">
    <path clip-path="url(#p30ea3f0f51)" style="fill: none; stroke: #000000; stroke-width: 0.6; stroke-linecap: square"/>
   </g>
   <g id="line2d_80">
    <path clip-path="url(#p30ea3f0f51)" style="fill: none; stroke: #000000; stroke-width: 0.6; stroke-linecap: square"/>
   </g>
   <g id="line2d_81">
    <path clip-path="url(#p30ea3f0f51)" style="fill: none; stroke: #000000; stroke-width: 0.6; stroke-linecap: square"/>
   </g>
   <g id="line2d_82">
    <path clip-path="url(#p30ea3f0f51)" style="fill: none; stroke: #000000; stroke-width: 0.6; stroke-linecap: square"/>
   </g>
   <g id="line2d_83">
    <path clip-path="url(#p30ea3f0f51)" style="fill: none; stroke: #000000; stroke-width: 0.6; stroke-linecap: square"/>
   </g>
   <g id="line2d_84">
    <path clip-path="url(#p30ea3f0f51)" style="fill: none; stroke: #000000; stroke-width: 0.6; stroke-linecap: square"/>
   </g>
   <g id="line2d_85">
    <path clip-path="url(#p30ea3f0f51)" style="fill: none; stroke: #000000; stroke-width: 0.6; stroke-linecap: square"/>
   </g>
   <g id="line2d_86">
    <path clip-path="url(#p30ea3f0f51)" style="fill: none; stroke: #000000; stroke-width: 0.6; stroke-linecap: square"/>
   </g>
   <g id="line2d_87">
    <path clip-path="url(#p30ea3f0f51)" style="fill: none; stroke: #000000; stroke-width: 0.6; stroke-linecap: square"/>
   </g>
   <g id="line2d_88">
    <path clip-path="url(#p30ea3f0f51)" style="fill: none; stroke: #000000; stroke-width: 0.6; stroke-linecap: square"/>
   </g>
   <g id="line2d_89">
    <path clip-path="url(#p30ea3f0f51)" style="fill: none; stroke: #000000; stroke-width: 0.6; stroke-linecap: square"/>
   </g>
   <g id="line2d_90">
    <path clip-path="url(#p30ea3f0f51)" style="fill: none; stroke: #000000; stroke-width: 0.6; stroke-linecap: square"/>
   </g>
   <g id="line2d_91">
    <path clip-path="url(#p30ea3f0f51)" style="fill: none; stroke: #000000; stroke-width: 0.6; stroke-linecap: square"/>
   </g>
   <g id="line2d_92">
    <path clip-path="url(#p30ea3f0f51)" style="fill: none; stroke: #000000; stroke-width: 0.6; stroke-linecap: square"/>
   </g>
   <g id="line2d_93">
    <path clip-path="url(#p30ea3f0f51)" style="fill: none; stroke: #000000; stroke-width: 0.6; stroke-linecap: square"/>
   </g>
   <g id="line2d_94">
    <path clip-path="url(#p30ea3f0f51)" style="fill: none; stroke: #000000; stroke-width: 0.6; stroke-linecap: square"/>
   </g>
   <g id="line2d_95">
    <path clip-path="url(#p30ea3f0f51)" style="fill: none; stroke: #000000; stroke-width: 0.6; stroke-linecap: square"/>
   </g>
   <g id="line2d_96">
    <path clip-path="url(#p30ea3f0f51)" style="fill: none; stroke: #000000; stroke-width: 0.6; stroke-linecap: square"/>
   </g>
   <g id="line2d_97">
    <path clip-path="url(#p30ea3f0f51)" style="fill: none; stroke: #000000; stroke-width: 0.6; stroke-linecap: square"/>
   </g>
   <g id="line2d_98">
    <path clip-path="url(#p30ea3f0f51)" style="fill: none; stroke: #000000; stroke-width: 0.6; stroke-linecap: square"/>
   </g>
   <g id="line2d_99">
    <path clip-path="url(#p30ea3f0f51)" style="fill: none; stroke: #000000; stroke-width: 0.6; stroke-linecap: square"/>
   </g>
   <g id="line2d_100">
    <path clip-path="url(#p30ea3f0f51)" style="fill: none; stroke: #000000; stroke-width: 0.6; stroke-linecap: square"/>
   </g>
   <g id="line2d_101">
    <path clip-path="url(#p30ea3f0f51)" style="fill: none; stroke: #000000; stroke-width: 0.6; stroke-linecap: square"/>
   </g>
   <g id="line2d_102">
    <path clip-path="url(#p30ea3f0f51)" style="fill: none; stroke: #000000; stroke-width: 0.6; stroke-linecap: square"/>
   </g>
   <g id="line2d_103">
    <path d="M 18.124721 575.844764 
L 14.769247 564.101674 
" clip-path="url(#p30ea3f0f51)" style="fill: none; stroke: #000000; stroke-width: 0.6; stroke-linecap: square"/>
   </g>
   <g id="line2d_104">
    <path d="M 57.357805 577.494165 
L 54.002331 565.751074 
" clip-path="url(#p30ea3f0f51)" style="fill: none; stroke: #000000; stroke-width: 0.6; stroke-linecap: square"/>
   </g>
   <g id="line2d_105">
    <path d="M 96.579242 579.992139 
L 93.223768 568.249048 
" clip-path="url(#p30ea3f0f51)" style="fill: none; stroke: #000000; stroke-width: 0.6; stroke-linecap: square"/>
   </g>
   <g id="line2d_106">
    <path d="M 135.403183 574.286793 
L 132.047709 562.543703 
" clip-path="url(#p30ea3f0f51)" style="fill: none; stroke: #000000; stroke-width: 0.6; stroke-linecap: square"/>
   </g>
   <g id="line2d_107">
    <path d="M 174.085756 565.664003 
L 170.730282 553.920912 
" clip-path="url(#p30ea3f0f51)" style="fill: none; stroke: #000000; stroke-width: 0.6; stroke-linecap: square"/>
   </g>
   <g id="line2d_108">
    <path d="M 210.828131 548.875095 
L 207.472657 537.132005 
" clip-path="url(#p30ea3f0f51)" style="fill: none; stroke: #000000; stroke-width: 0.6; stroke-linecap: square"/>
   </g>
   <g id="line2d_109">
    <path d="M 246.772949 528.729348 
L 243.417475 516.986257 
" clip-path="url(#p30ea3f0f51)" style="fill: none; stroke: #000000; stroke-width: 0.6; stroke-linecap: square"/>
   </g>
   <g id="line2d_110">
    <path d="M 283.961262 513.396948 
L 280.605789 501.653858 
" clip-path="url(#p30ea3f0f51)" style="fill: none; stroke: #000000; stroke-width: 0.6; stroke-linecap: square"/>
   </g>
   <g id="line2d_111">
    <path d="M 322.273881 502.416533 
L 318.918407 490.673442 
" clip-path="url(#p30ea3f0f51)" style="fill: none; stroke: #000000; stroke-width: 0.6; stroke-linecap: square"/>
   </g>
   <g id="line2d_112">
    <path d="M 361.037149 496.073571 
L 357.681675 484.33048 
" clip-path="url(#p30ea3f0f51)" style="fill: none; stroke: #000000; stroke-width: 0.6; stroke-linecap: square"/>
   </g>
   <g id="line2d_113">
    <path d="M 400.295316 494.823414 
L 396.939842 483.080324 
" clip-path="url(#p30ea3f0f51)" style="fill: none; stroke: #000000; stroke-width: 0.6; stroke-linecap: square"/>
   </g>
   <g id="line2d_114">
    <path d="M 439.550909 493.453997 
L 436.195435 481.710907 
" clip-path="url(#p30ea3f0f51)" style="fill: none; stroke: #000000; stroke-width: 0.6; stroke-linecap: square"/>
   </g>
   <g id="line2d_115">
    <path d="M 478.803683 491.954015 
L 475.448209 480.210925 
" clip-path="url(#p30ea3f0f51)" style="fill: none; stroke: #000000; stroke-width: 0.6; stroke-linecap: square"/>
   </g>
   <g id="line2d_116">
    <path d="M 518.041482 489.977121 
L 514.686008 478.23403 
" clip-path="url(#p30ea3f0f51)" style="fill: none; stroke: #000000; stroke-width: 0.6; stroke-linecap: square"/>
   </g>
   <g id="line2d_117">
    <path d="M 557.26292 487.479147 
L 553.907446 475.736056 
" clip-path="url(#p30ea3f0f51)" style="fill: none; stroke: #000000; stroke-width: 0.6; stroke-linecap: square"/>
   </g>
   <g id="line2d_118">
    <path d="M 596.505611 485.814443 
L 593.150137 474.071352 
" clip-path="url(#p30ea3f0f51)" style="fill: none; stroke: #000000; stroke-width: 0.6; stroke-linecap: square"/>
   </g>
   <g id="line2d_119">
    <path d="M 635.771628 485.064199 
L 632.416154 473.321108 
" clip-path="url(#p30ea3f0f51)" style="fill: none; stroke: #000000; stroke-width: 0.6; stroke-linecap: square"/>
   </g>
   <g id="line2d_120">
    <path d="M 675.039521 484.792068 
L 671.684047 473.048977 
" clip-path="url(#p30ea3f0f51)" style="fill: none; stroke: #000000; stroke-width: 0.6; stroke-linecap: square"/>
   </g>
   <g id="line2d_121">
    <path d="M 714.309464 485.042174 
L 710.95399 473.299083 
" clip-path="url(#p30ea3f0f51)" style="fill: none; stroke: #000000; stroke-width: 0.6; stroke-linecap: square"/>
   </g>
   <g id="line2d_122">
    <path d="M 753.578701 485.412152 
L 750.223227 473.669061 
" clip-path="url(#p30ea3f0f51)" style="fill: none; stroke: #000000; stroke-width: 0.6; stroke-linecap: square"/>
   </g>
   <g id="line2d_123">
    <path d="M 792.847171 485.912346 
L 789.491697 474.169255 
" clip-path="url(#p30ea3f0f51)" style="fill: none; stroke: #000000; stroke-width: 0.6; stroke-linecap: square"/>
   </g>
   <g id="line2d_124">
    <path d="M 832.116349 486.051934 
L 828.760875 474.308843 
" clip-path="url(#p30ea3f0f51)" style="fill: none; stroke: #000000; stroke-width: 0.6; stroke-linecap: square"/>
   </g>
   <g id="line2d_125">
    <path d="M 871.386292 485.801828 
L 868.030818 474.058737 
" clip-path="url(#p30ea3f0f51)" style="fill: none; stroke: #000000; stroke-width: 0.6; stroke-linecap: square"/>
   </g>
   <g id="line2d_126">
    <path d="M 910.655525 485.431182 
L 907.300051 473.688092 
" clip-path="url(#p30ea3f0f51)" style="fill: none; stroke: #000000; stroke-width: 0.6; stroke-linecap: square"/>
   </g>
   <g id="line2d_127">
    <path d="M 949.923995 484.930988 
L 946.568521 473.187898 
" clip-path="url(#p30ea3f0f51)" style="fill: none; stroke: #000000; stroke-width: 0.6; stroke-linecap: square"/>
   </g>
   <g id="line2d_128">
    <path d="M 989.18488 483.947612 
L 985.829406 472.204521 
" clip-path="url(#p30ea3f0f51)" style="fill: none; stroke: #000000; stroke-width: 0.6; stroke-linecap: square"/>
   </g>
   <g id="line2d_129">
    <path d="M 1028.437654 482.44763 
L 1025.08218 470.704539 
" clip-path="url(#p30ea3f0f51)" style="fill: none; stroke: #000000; stroke-width: 0.6; stroke-linecap: square"/>
   </g>
   <g id="line2d_130">
    <path clip-path="url(#p30ea3f0f51)" style="fill: none; stroke: #000000; stroke-width: 0.6; stroke-linecap: square"/>
   </g>
   <g id="line2d_131">
    <path clip-path="url(#p30ea3f0f51)" style="fill: none; stroke: #000000; stroke-width: 0.6; stroke-linecap: square"/>
   </g>
   <g id="line2d_132">
    <path clip-path="url(#p30ea3f0f51)" style="fill: none; stroke: #000000; stroke-width: 0.6; stroke-linecap: square"/>
   </g>
   <g id="line2d_133">
    <path clip-path="url(#p30ea3f0f51)" style="fill: none; stroke: #000000; stroke-width: 0.6; stroke-linecap: square"/>
   </g>
   <g id="line2d_134">
    <path clip-path="url(#p30ea3f0f51)" style="fill: none; stroke: #000000; stroke-width: 0.6; stroke-linecap: square"/>
   </g>
   <g id="line2d_135">
    <path clip-path="url(#p30ea3f0f51)" style="fill: none; stroke: #000000; stroke-width: 0.6; stroke-linecap: square"/>
   </g>
   <g id="line2d_136">
    <path clip-path="url(#p30ea3f0f51)" style="fill: none; stroke: #000000; stroke-width: 0.6; stroke-linecap: square"/>
   </g>
   <g id="line2d_137">
    <path clip-path="url(#p30ea3f0f51)" style="fill: none; stroke: #000000; stroke-width: 0.6; stroke-linecap: square"/>
   </g>
   <g id="line2d_138">
    <path clip-path="url(#p30ea3f0f51)" style="fill: none; stroke: #000000; stroke-width: 0.6; stroke-linecap: square"/>
   </g>
   <g id="line2d_139">
    <path clip-path="url(#p30ea3f0f51)" style="fill: none; stroke: #000000; stroke-width: 0.6; stroke-linecap: square"/>
   </g>
   <g id="line2d_140">
    <path clip-path="url(#p30ea3f0f51)" style="fill: none; stroke: #000000; stroke-width: 0.6; stroke-linecap: square"/>
   </g>
   <g id="line2d_141">
    <path clip-path="url(#p30ea3f0f51)" style="fill: none; stroke: #000000; stroke-width: 0.6; stroke-linecap: square"/>
   </g>
   <g id="line2d_142">
    <path clip-path="url(#p30ea3f0f51)" style="fill: none; stroke: #000000; stroke-width: 0.6; stroke-linecap: square"/>
   </g>
   <g id="line2d_143">
    <path clip-path="url(#p30ea3f0f51)" style="fill: none; stroke: #000000; stroke-width: 0.6; stroke-linecap: square"/>
   </g>
   <g id="line2d_144">
    <path clip-path="url(#p30ea3f0f51)" style="fill: none; stroke: #000000; stroke-width: 0.6; stroke-linecap: square"/>
   </g>
   <g id="line2d_145">
    <path clip-path="url(#p30ea3f0f51)" style="fill: none; stroke: #000000; stroke-width: 0.6; stroke-linecap: square"/>
   </g>
   <g id="line2d_146">
    <path clip-path="url(#p30ea3f0f51)" style="fill: none; stroke: #000000; stroke-width: 0.6; stroke-linecap: square"/>
   </g>
   <g id="line2d_147">
    <path clip-path="url(#p30ea3f0f51)" style="fill: none; stroke: #000000; stroke-width: 0.6; stroke-linecap: square"/>
   </g>
   <g id="line2d_148">
    <path clip-path="url(#p30ea3f0f51)" style="fill: none; stroke: #000000; stroke-width: 0.6; stroke-linecap: square"/>
   </g>
   <g id="line2d_149">
    <path clip-path="url(#p30ea3f0f51)" style="fill: none; stroke: #000000; stroke-width: 0.6; stroke-linecap: square"/>
   </g>
   <g id="line2d_150">
    <path clip-path="url(#p30ea3f0f51)" style="fill: none; stroke: #000000; stroke-width: 0.6; stroke-linecap: square"/>
   </g>
   <g id="line2d_151">
    <path clip-path="url(#p30ea3f0f51)" style="fill: none; stroke: #000000; stroke-width: 0.6; stroke-linecap: square"/>
   </g>
   <g id="line2d_152">
    <path clip-path="url(#p30ea3f0f51)" style="fill: none; stroke: #000000; stroke-width: 0.6; stroke-linecap: square"/>
   </g>
   <g id="line2d_153">
    <path clip-path="url(#p30ea3f0f51)" style="fill: none; stroke: #000000; stroke-width: 0.6; stroke-linecap: square"/>
   </g>
   <g id="line2d_154">
    <path clip-path="url(#p30ea3f0f51)" style="fill: none; stroke: #000000; stroke-width: 0.6; stroke-linecap: square"/>
   </g>
   <g id="line2d_155">
    <path clip-path="url(#p30ea3f0f51)" style="fill: none; stroke: #000000; stroke-width: 0.6; stroke-linecap: square"/>
   </g>
   <g id="patch_3">
    <path d="M 33.82 668.293712 
L 33.82 20.038594 
" style="fill: none; stroke: #000000; stroke-width: 0.8; stroke-linejoin: miter; stroke-linecap: square"/>
   </g>
   <g id="patch_4">
    <path d="M 956.497165 668.293712 
L 956.497165 20.038594 
" style="fill: none; stroke: #000000; stroke-width: 0.8; stroke-linejoin: miter; stroke-linecap: square"/>
   </g>
   <g id="patch_5">
    <path d="M 33.82 668.293712 
L 956.497165 668.293712 
" style="fill: none; stroke: #000000; stroke-width: 0.8; stroke-linejoin: miter; stroke-linecap: square"/>
   </g>
   <g id="patch_6">
    <path d="M 33.82 20.038594 
L 956.497165 20.038594 
" style="fill: none; stroke: #000000; stroke-width: 0.8; stroke-linejoin: miter; stroke-linecap: square"/>
   </g>
   <g id="text_21">
    <!-- 90 -->
    <g transform="translate(43.845106 525.112634) scale(0.07 -0.07)">
     <defs>
      <path id="DejaVuSansMono-39" d="M 1863 2069 
Q 2266 2069 2495 2359 
Q 2725 2650 2725 3163 
Q 2725 3675 2495 3965 
Q 2266 4256 1863 4256 
Q 1444 4256 1231 3979 
Q 1019 3703 1019 3163 
Q 1019 2619 1230 2344 
Q 1441 2069 1863 2069 
z
M 738 97 
L 738 678 
Q 934 563 1156 502 
Q 1378 441 1619 441 
Q 2219 441 2526 892 
Q 2834 1344 2834 2222 
Q 2688 1909 2422 1742 
Q 2156 1575 1813 1575 
Q 1138 1575 767 1990 
Q 397 2406 397 3169 
Q 397 3922 776 4336 
Q 1156 4750 1850 4750 
Q 2663 4750 3041 4165 
Q 3419 3581 3419 2328 
Q 3419 1150 2964 529 
Q 2509 -91 1644 -91 
Q 1416 -91 1184 -42 
Q 953 6 738 97 
z
" transform="scale(0.015625)"/>
      <path id="DejaVuSansMono-30" d="M 1509 2344 
Q 1509 2516 1629 2641 
Q 1750 2766 1919 2766 
Q 2094 2766 2219 2641 
Q 2344 2516 2344 2344 
Q 2344 2169 2220 2047 
Q 2097 1925 1919 1925 
Q 1744 1925 1626 2044 
Q 1509 2163 1509 2344 
z
M 1925 4250 
Q 1484 4250 1267 3775 
Q 1050 3300 1050 2328 
Q 1050 1359 1267 884 
Q 1484 409 1925 409 
Q 2369 409 2586 884 
Q 2803 1359 2803 2328 
Q 2803 3300 2586 3775 
Q 2369 4250 1925 4250 
z
M 1925 4750 
Q 2672 4750 3055 4137 
Q 3438 3525 3438 2328 
Q 3438 1134 3055 521 
Q 2672 -91 1925 -91 
Q 1178 -91 797 521 
Q 416 1134 416 2328 
Q 416 3525 797 4137 
Q 1178 4750 1925 4750 
z
" transform="scale(0.015625)"/>
     </defs>
     <use xlink:href="#DejaVuSansMono-39"/>
     <use xlink:href="#DejaVuSansMono-30" x="60.205078"/>
    </g>
   </g>
   <g id="text_22">
    <!-- SL -->
    <g style="fill: #333333" transform="translate(495.722551 51.203537) scale(0.06 -0.06)">
     <defs>
      <path id="DejaVuSans-53" d="M 3425 4513 
L 3425 3897 
Q 3066 4069 2747 4153 
Q 2428 4238 2131 4238 
Q 1616 4238 1336 4038 
Q 1056 3838 1056 3469 
Q 1056 3159 1242 3001 
Q 1428 2844 1947 2747 
L 2328 2669 
Q 3034 2534 3370 2195 
Q 3706 1856 3706 1288 
Q 3706 609 3251 259 
Q 2797 -91 1919 -91 
Q 1588 -91 1214 -16 
Q 841 59 441 206 
L 441 856 
Q 825 641 1194 531 
Q 1563 422 1919 422 
Q 2459 422 2753 634 
Q 3047 847 3047 1241 
Q 3047 1584 2836 1778 
Q 2625 1972 2144 2069 
L 1759 2144 
Q 1053 2284 737 2584 
Q 422 2884 422 3419 
Q 422 4038 858 4394 
Q 1294 4750 2059 4750 
Q 2388 4750 2728 4690 
Q 3069 4631 3425 4513 
z
" transform="scale(0.015625)"/>
      <path id="DejaVuSans-4c" d="M 628 4666 
L 1259 4666 
L 1259 531 
L 3531 531 
L 3531 0 
L 628 0 
L 628 4666 
z
" transform="scale(0.015625)"/>
     </defs>
     <use xlink:href="#DejaVuSans-53"/>
     <use xlink:href="#DejaVuSans-4c" x="63.476562"/>
    </g>
   </g>
   <g id="cs:named">
    <path d="M 426.249968 473.817176 
L 430.077898 473.962815 
L 433.905828 474.108047 
L 437.733758 474.25328 
L 441.561688 474.398512 
L 445.389618 474.543745 
L 449.217548 474.688977 
L 453.045478 474.83421 
L 456.873408 474.979357 
L 460.701338 475.124363 
L 464.529268 475.26937 
L 468.357199 475.414376 
L 472.185129 475.559383 
L 476.013059 475.70439 
L 479.840989 475.849378 
L 483.668919 475.994251 
L 487.496849 476.139124 
L 491.324779 476.283997 
L 495.152709 476.42887 
L 498.980639 476.573824 
L 502.808569 476.718777 
L 506.636499 476.863731 
L 510.464429 477.008684 
L 514.292359 477.153637 
L 518.120289 477.298591 
L 521.948219 477.443432 
L 525.776149 477.588238 
L 529.604079 477.733043 
L 533.432009 477.877849 
L 537.259939 478.022654 
L 541.087869 478.16746 
L 544.915799 478.312265 
L 548.743729 478.457021 
L 552.571659 478.601637 
L 556.399589 478.746254 
L 560.227519 478.89087 
L 564.05545 480.53478 
" clip-path="url(#p30ea3f0f51)" style="fill: none; stroke: #333333; stroke-width: 1.8; stroke-linecap: square"/>
   </g>
   <g id="cs:named">
    <path d="M 426.250215 475.316774 
L 430.078162 475.462413 
L 433.906109 475.607646 
L 437.734056 475.752879 
L 441.562003 475.898112 
L 445.38995 476.043345 
L 449.217897 476.188578 
L 453.045844 476.333811 
L 456.873791 476.478956 
L 460.701738 476.623963 
L 464.529685 476.76897 
L 468.357632 476.913978 
L 472.185579 477.058985 
L 476.013526 477.203992 
L 479.841473 477.348981 
L 483.66942 477.493854 
L 487.497367 477.638728 
L 491.325314 477.783601 
L 495.153261 477.928475 
L 498.981208 478.07343 
L 502.809155 478.218384 
L 506.637102 478.363338 
L 510.46505 478.508292 
L 514.292997 478.653246 
L 518.120944 478.7982 
L 521.948891 478.943041 
L 525.776838 479.087847 
L 529.604785 479.232653 
L 533.432732 479.37746 
L 537.260679 479.522266 
L 541.088626 479.667072 
L 544.916573 479.811878 
L 548.74452 479.956632 
L 552.572467 480.101249 
L 556.400414 480.245866 
L 560.228361 480.390483 
L 564.056308 483.533972 
" clip-path="url(#p30ea3f0f51)" style="fill: none; stroke: #555555; stroke-width: 0.5; stroke-linecap: square"/>
   </g>
   <g id="cs:named">
    <path d="M 426.250708 478.31597 
L 430.078665 478.461608 
L 433.906622 478.606841 
L 437.734579 478.752075 
L 441.562537 478.897308 
L 445.390494 479.042542 
L 449.218451 479.187775 
L 453.046408 479.333009 
L 456.874365 479.478148 
L 460.702322 479.623155 
L 464.53028 479.768163 
L 468.358237 479.91317 
L 472.186194 480.058178 
L 476.014151 480.203186 
L 479.842108 480.348173 
L 483.670066 480.493047 
L 487.498023 480.637921 
L 491.32598 480.782795 
L 495.153937 480.927669 
L 498.981894 481.072624 
L 502.809852 481.217578 
L 506.637809 481.362533 
L 510.465766 481.507487 
L 514.293723 481.652442 
L 518.12168 481.797396 
L 521.949638 481.942236 
L 525.777595 482.087043 
L 529.605552 482.231849 
L 533.433509 482.376656 
L 537.261466 482.521462 
L 541.089423 482.666269 
L 544.917381 482.811075 
L 548.745338 482.955825 
L 552.573295 483.100442 
L 556.401252 483.24506 
L 560.229209 483.389677 
L 564.057167 486.533165 
" clip-path="url(#p30ea3f0f51)" style="fill: none; stroke: #555555; stroke-width: 0.5; stroke-linecap: square"/>
   </g>
   <g id="cs:named">
    <path d="M 426.256954 516.305787 
L 430.085017 516.451409 
L 433.913079 516.596647 
L 437.741141 516.741884 
L 441.569203 516.887122 
L 445.397266 517.032359 
L 449.225328 517.177597 
L 453.05339 517.322834 
L 456.881453 517.4679 
L 460.709515 517.612911 
L 464.537577 517.757923 
L 468.36564 517.902935 
L 472.193702 518.047946 
L 476.021764 518.192958 
L 479.849827 518.337931 
L 483.677889 518.482809 
L 487.505951 518.627687 
L 491.334013 518.772564 
L 495.162076 518.917443 
L 498.990138 519.062402 
L 502.8182 519.20736 
L 506.646263 519.352318 
L 510.474325 519.497277 
L 514.302387 519.642235 
L 518.13045 519.787194 
L 521.958512 519.932017 
L 525.786574 520.076827 
L 529.614637 520.221638 
L 533.442699 520.366448 
L 537.270761 520.511259 
L 541.098823 520.656069 
L 544.926886 520.80088 
L 548.754948 520.945574 
L 552.58301 521.090195 
L 556.411073 521.234817 
L 560.239135 521.379438 
L 564.067197 521.573735 
" clip-path="url(#p30ea3f0f51)" style="fill: none; stroke: #aaaaaa; stroke-width: 0.5; stroke-linecap: square"/>
   </g>
   <g id="cs:named">
    <path d="M 426.251201 481.315166 
L 430.079423 481.460812 
L 433.907644 481.606056 
L 437.735866 481.751299 
L 441.564088 481.896543 
L 445.39231 482.041786 
L 449.220531 482.18703 
L 453.048753 482.332273 
L 456.876975 482.477416 
L 460.705196 482.622434 
L 464.533418 482.767451 
L 468.36164 482.912469 
L 472.189862 483.057487 
L 476.018083 483.202504 
L 479.846305 483.3475 
L 483.674527 483.492384 
L 487.502749 483.637268 
L 491.33097 483.782152 
L 495.159192 483.927037 
L 498.987414 484.072001 
L 502.815635 484.216966 
L 506.643857 484.36193 
L 510.472079 484.506894 
L 514.300301 484.651859 
L 518.128522 484.796823 
L 521.956744 484.941672 
L 525.784966 485.086488 
L 529.613187 485.231305 
L 533.441409 485.376121 
L 537.269631 485.520938 
L 541.097853 485.665754 
L 544.926074 485.810571 
L 548.754296 485.955325 
L 552.582518 486.099953 
L 556.41074 486.24458 
L 560.238961 486.389207 
L 564.067183 521.523748 
" clip-path="url(#p30ea3f0f51)" style="fill: none; stroke: #888888; stroke-width: 0.5; stroke-linecap: square"/>
   </g>
   <g id="patch_7">
    <path d="M 497.327236 455.258057 
Q 497.327236 465.217708 497.327236 475.177359 
" style="fill: none; stroke: #333333; stroke-width: 0.5; stroke-linecap: round"/>
   </g>
   <g id="text_23">
    <g id="patch_8">
     <path d="M 484.36915 453.007506 
L 510.285322 453.007506 
Q 511.110322 453.007506 511.110322 452.182506 
L 511.110322 446.859537 
Q 511.110322 446.034537 510.285322 446.034537 
L 484.36915 446.034537 
Q 483.54415 446.034537 483.54415 446.859537 
L 483.54415 452.182506 
Q 483.54415 453.007506 484.36915 453.007506 
z
" style="fill: #ffffff; opacity: 0.9; stroke: #333333; stroke-width: 0.5; stroke-linejoin: miter"/>
    </g>
    <!-- Bindlag 1 -->
    <g style="fill: #333333" transform="translate(484.36915 451.038678) scale(0.055 -0.055)">
     <defs>
      <path id="DejaVuSans-42" d="M 1259 2228 
L 1259 519 
L 2272 519 
Q 2781 519 3026 730 
Q 3272 941 3272 1375 
Q 3272 1813 3026 2020 
Q 2781 2228 2272 2228 
L 1259 2228 
z
M 1259 4147 
L 1259 2741 
L 2194 2741 
Q 2656 2741 2882 2914 
Q 3109 3088 3109 3444 
Q 3109 3797 2882 3972 
Q 2656 4147 2194 4147 
L 1259 4147 
z
M 628 4666 
L 2241 4666 
Q 2963 4666 3353 4366 
Q 3744 4066 3744 3513 
Q 3744 3084 3544 2831 
Q 3344 2578 2956 2516 
Q 3422 2416 3680 2098 
Q 3938 1781 3938 1306 
Q 3938 681 3513 340 
Q 3088 0 2303 0 
L 628 0 
L 628 4666 
z
" transform="scale(0.015625)"/>
      <path id="DejaVuSans-67" d="M 2906 1791 
Q 2906 2416 2648 2759 
Q 2391 3103 1925 3103 
Q 1463 3103 1205 2759 
Q 947 2416 947 1791 
Q 947 1169 1205 825 
Q 1463 481 1925 481 
Q 2391 481 2648 825 
Q 2906 1169 2906 1791 
z
M 3481 434 
Q 3481 -459 3084 -895 
Q 2688 -1331 1869 -1331 
Q 1566 -1331 1297 -1286 
Q 1028 -1241 775 -1147 
L 775 -588 
Q 1028 -725 1275 -790 
Q 1522 -856 1778 -856 
Q 2344 -856 2625 -561 
Q 2906 -266 2906 331 
L 2906 616 
Q 2728 306 2450 153 
Q 2172 0 1784 0 
Q 1141 0 747 490 
Q 353 981 353 1791 
Q 353 2603 747 3093 
Q 1141 3584 1784 3584 
Q 2172 3584 2450 3431 
Q 2728 3278 2906 2969 
L 2906 3500 
L 3481 3500 
L 3481 434 
z
" transform="scale(0.015625)"/>
     </defs>
     <use xlink:href="#DejaVuSans-42"/>
     <use xlink:href="#DejaVuSans-69" x="68.603516"/>
     <use xlink:href="#DejaVuSans-6e" x="96.386719"/>
     <use xlink:href="#DejaVuSans-64" x="159.765625"/>
     <use xlink:href="#DejaVuSans-6c" x="223.242188"/>
     <use xlink:href="#DejaVuSans-61" x="251.025391"/>
     <use xlink:href="#DejaVuSans-67" x="312.304688"/>
     <use xlink:href="#DejaVuSans-20" x="375.78125"/>
     <use xlink:href="#DejaVuSans-31" x="407.568359"/>
    </g>
   </g>
   <g id="patch_9">
    <path d="M 497.304422 427.508804 
Q 497.304422 452.467353 497.304422 477.425901 
" style="fill: none; stroke: #555555; stroke-width: 0.5; stroke-linecap: round"/>
   </g>
   <g id="text_24">
    <g id="patch_10">
     <path d="M 483.138055 425.264735 
L 511.47079 425.264735 
Q 512.29579 425.264735 512.29579 424.439735 
L 512.29579 419.116766 
Q 512.29579 418.291766 511.47079 418.291766 
L 483.138055 418.291766 
Q 482.313055 418.291766 482.313055 419.116766 
L 482.313055 424.439735 
Q 482.313055 425.264735 483.138055 425.264735 
z
" style="fill: #ffffff; opacity: 0.9; stroke: #555555; stroke-width: 0.5; stroke-linejoin: miter"/>
    </g>
    <!-- Bærelag 1 -->
    <g style="fill: #555555" transform="translate(483.138055 423.295907) scale(0.055 -0.055)">
     <defs>
      <path id="DejaVuSans-e6" d="M 5369 2063 
Q 5366 2534 5108 2815 
Q 4850 3097 4422 3097 
Q 3944 3097 3655 2825 
Q 3366 2553 3322 2059 
L 5369 2063 
z
M 3109 3009 
Q 3341 3291 3672 3437 
Q 4003 3584 4416 3584 
Q 5122 3584 5534 3129 
Q 5947 2675 5947 1894 
L 5947 1613 
L 3303 1613 
Q 3341 1016 3659 703 
Q 3978 391 4550 391 
Q 4875 391 5187 473 
Q 5500 556 5813 722 
L 5813 178 
Q 5500 47 5175 -22 
Q 4850 -91 4519 -91 
Q 3997 -91 3609 98 
Q 3222 288 2981 659 
Q 2753 284 2415 96 
Q 2078 -91 1631 -91 
Q 1041 -91 712 201 
Q 384 494 384 1019 
Q 384 1609 779 1909 
Q 1175 2209 1959 2209 
L 2766 2209 
L 2766 2266 
Q 2766 2663 2505 2880 
Q 2244 3097 1772 3097 
Q 1472 3097 1187 3025 
Q 903 2953 641 2809 
L 641 3341 
Q 956 3463 1253 3523 
Q 1550 3584 1831 3584 
Q 2275 3584 2608 3434 
Q 2941 3284 3109 3009 
z
M 2194 1759 
Q 1497 1759 1228 1600 
Q 959 1441 959 1056 
Q 959 750 1161 570 
Q 1363 391 1709 391 
Q 2188 391 2477 730 
Q 2766 1069 2766 1631 
L 2766 1759 
L 2194 1759 
z
" transform="scale(0.015625)"/>
     </defs>
     <use xlink:href="#DejaVuSans-42"/>
     <use xlink:href="#DejaVuSans-e6" x="68.603516"/>
     <use xlink:href="#DejaVuSans-72" x="166.796875"/>
     <use xlink:href="#DejaVuSans-65" x="205.660156"/>
     <use xlink:href="#DejaVuSans-6c" x="267.183594"/>
     <use xlink:href="#DejaVuSans-61" x="294.966797"/>
     <use xlink:href="#DejaVuSans-67" x="356.246094"/>
     <use xlink:href="#DejaVuSans-20" x="419.722656"/>
     <use xlink:href="#DejaVuSans-31" x="451.509766"/>
    </g>
   </g>
   <g id="patch_11">
    <path d="M 497.27401 400.521372 
Q 497.27401 440.470676 497.27401 480.419979 
" style="fill: none; stroke: #555555; stroke-width: 0.5; stroke-linecap: round"/>
   </g>
   <g id="text_25">
    <g id="patch_12">
     <path d="M 483.107643 398.271763 
L 511.440377 398.271763 
Q 512.265377 398.271763 512.265377 397.446763 
L 512.265377 392.123795 
Q 512.265377 391.298795 511.440377 391.298795 
L 483.107643 391.298795 
Q 482.282643 391.298795 482.282643 392.123795 
L 482.282643 397.446763 
Q 482.282643 398.271763 483.107643 398.271763 
z
" style="fill: #ffffff; opacity: 0.9; stroke: #555555; stroke-width: 0.5; stroke-linejoin: miter"/>
    </g>
    <!-- Bærelag 2 -->
    <g style="fill: #555555" transform="translate(483.107643 396.302935) scale(0.055 -0.055)">
     <use xlink:href="#DejaVuSans-42"/>
     <use xlink:href="#DejaVuSans-e6" x="68.603516"/>
     <use xlink:href="#DejaVuSans-72" x="166.796875"/>
     <use xlink:href="#DejaVuSans-65" x="205.660156"/>
     <use xlink:href="#DejaVuSans-6c" x="267.183594"/>
     <use xlink:href="#DejaVuSans-61" x="294.966797"/>
     <use xlink:href="#DejaVuSans-67" x="356.246094"/>
     <use xlink:href="#DejaVuSans-20" x="419.722656"/>
     <use xlink:href="#DejaVuSans-32" x="451.509766"/>
    </g>
   </g>
   <g id="patch_13">
    <path d="M 497.081307 479.501536 
Q 497.081307 489.461187 497.081307 499.420838 
" style="fill: none; stroke: #888888; stroke-width: 0.5; stroke-linecap: round"/>
   </g>
   <g id="text_26">
    <g id="patch_14">
     <path d="M 471.613729 477.250985 
L 522.548885 477.250985 
Q 523.373885 477.250985 523.373885 476.425985 
L 523.373885 471.103017 
Q 523.373885 470.278017 522.548885 470.278017 
L 471.613729 470.278017 
Q 470.788729 470.278017 470.788729 471.103017 
L 470.788729 476.425985 
Q 470.788729 477.250985 471.613729 477.250985 
z
" style="fill: #ffffff; opacity: 0.9; stroke: #888888; stroke-width: 0.5; stroke-linejoin: miter"/>
    </g>
    <!-- Forsterkningslag 1 -->
    <g style="fill: #888888" transform="translate(471.613729 475.282157) scale(0.055 -0.055)">
     <defs>
      <path id="DejaVuSans-46" d="M 628 4666 
L 3309 4666 
L 3309 4134 
L 1259 4134 
L 1259 2759 
L 3109 2759 
L 3109 2228 
L 1259 2228 
L 1259 0 
L 628 0 
L 628 4666 
z
" transform="scale(0.015625)"/>
      <path id="DejaVuSans-6f" d="M 1959 3097 
Q 1497 3097 1228 2736 
Q 959 2375 959 1747 
Q 959 1119 1226 758 
Q 1494 397 1959 397 
Q 2419 397 2687 759 
Q 2956 1122 2956 1747 
Q 2956 2369 2687 2733 
Q 2419 3097 1959 3097 
z
M 1959 3584 
Q 2709 3584 3137 3096 
Q 3566 2609 3566 1747 
Q 3566 888 3137 398 
Q 2709 -91 1959 -91 
Q 1206 -91 779 398 
Q 353 888 353 1747 
Q 353 2609 779 3096 
Q 1206 3584 1959 3584 
z
" transform="scale(0.015625)"/>
      <path id="DejaVuSans-6b" d="M 581 4863 
L 1159 4863 
L 1159 1991 
L 2875 3500 
L 3609 3500 
L 1753 1863 
L 3688 0 
L 2938 0 
L 1159 1709 
L 1159 0 
L 581 0 
L 581 4863 
z
" transform="scale(0.015625)"/>
     </defs>
     <use xlink:href="#DejaVuSans-46"/>
     <use xlink:href="#DejaVuSans-6f" x="53.894531"/>
     <use xlink:href="#DejaVuSans-72" x="115.076172"/>
     <use xlink:href="#DejaVuSans-73" x="156.189453"/>
     <use xlink:href="#DejaVuSans-74" x="208.289062"/>
     <use xlink:href="#DejaVuSans-65" x="247.498047"/>
     <use xlink:href="#DejaVuSans-72" x="309.021484"/>
     <use xlink:href="#DejaVuSans-6b" x="350.134766"/>
     <use xlink:href="#DejaVuSans-6e" x="408.044922"/>
     <use xlink:href="#DejaVuSans-69" x="471.423828"/>
     <use xlink:href="#DejaVuSans-6e" x="499.207031"/>
     <use xlink:href="#DejaVuSans-67" x="562.585938"/>
     <use xlink:href="#DejaVuSans-73" x="626.0625"/>
     <use xlink:href="#DejaVuSans-6c" x="678.162109"/>
     <use xlink:href="#DejaVuSans-61" x="705.945312"/>
     <use xlink:href="#DejaVuSans-67" x="767.224609"/>
     <use xlink:href="#DejaVuSans-20" x="830.701172"/>
     <use xlink:href="#DejaVuSans-31" x="862.488281"/>
    </g>
   </g>
   <g id="patch_15">
    <path d="M 497.33916 377.048849 
Q 497.33916 446.996201 497.33916 516.943554 
" style="fill: none; stroke: #aaaaaa; stroke-width: 0.5; stroke-linecap: round"/>
   </g>
   <g id="text_27">
    <g id="patch_16">
     <path d="M 486.333144 374.802624 
L 508.345176 374.802624 
Q 509.170176 374.802624 509.170176 373.977624 
L 509.170176 368.654655 
Q 509.170176 367.829655 508.345176 367.829655 
L 486.333144 367.829655 
Q 485.508144 367.829655 485.508144 368.654655 
L 485.508144 373.977624 
Q 485.508144 374.802624 486.333144 374.802624 
z
" style="fill: #ffffff; opacity: 0.9; stroke: #aaaaaa; stroke-width: 0.5; stroke-linejoin: miter"/>
    </g>
    <!-- Filterlag -->
    <g style="fill: #aaaaaa" transform="translate(486.333144 372.833795) scale(0.055 -0.055)">
     <use xlink:href="#DejaVuSans-46"/>
     <use xlink:href="#DejaVuSans-69" x="50.269531"/>
     <use xlink:href="#DejaVuSans-6c" x="78.052734"/>
     <use xlink:href="#DejaVuSans-74" x="105.835938"/>
     <use xlink:href="#DejaVuSans-65" x="145.044922"/>
     <use xlink:href="#DejaVuSans-72" x="206.568359"/>
     <use xlink:href="#DejaVuSans-6c" x="247.681641"/>
     <use xlink:href="#DejaVuSans-61" x="275.464844"/>
     <use xlink:href="#DejaVuSans-67" x="336.744141"/>
    </g>
   </g>
   <g id="text_28">
    <!-- Profil 110.00 -->
    <g transform="translate(33.82 14.038594) scale(0.09 -0.09)">
     <defs>
      <path id="DejaVuSans-Bold-50" d="M 588 4666 
L 2584 4666 
Q 3475 4666 3951 4270 
Q 4428 3875 4428 3144 
Q 4428 2409 3951 2014 
Q 3475 1619 2584 1619 
L 1791 1619 
L 1791 0 
L 588 0 
L 588 4666 
z
M 1791 3794 
L 1791 2491 
L 2456 2491 
Q 2806 2491 2997 2661 
Q 3188 2831 3188 3144 
Q 3188 3456 2997 3625 
Q 2806 3794 2456 3794 
L 1791 3794 
z
" transform="scale(0.015625)"/>
      <path id="DejaVuSans-Bold-72" d="M 3138 2547 
Q 2991 2616 2845 2648 
Q 2700 2681 2553 2681 
Q 2122 2681 1889 2404 
Q 1656 2128 1656 1613 
L 1656 0 
L 538 0 
L 538 3500 
L 1656 3500 
L 1656 2925 
Q 1872 3269 2151 3426 
Q 2431 3584 2822 3584 
Q 2878 3584 2943 3579 
Q 3009 3575 3134 3559 
L 3138 2547 
z
" transform="scale(0.015625)"/>
      <path id="DejaVuSans-Bold-6f" d="M 2203 2784 
Q 1831 2784 1636 2517 
Q 1441 2250 1441 1747 
Q 1441 1244 1636 976 
Q 1831 709 2203 709 
Q 2569 709 2762 976 
Q 2956 1244 2956 1747 
Q 2956 2250 2762 2517 
Q 2569 2784 2203 2784 
z
M 2203 3584 
Q 3106 3584 3614 3096 
Q 4122 2609 4122 1747 
Q 4122 884 3614 396 
Q 3106 -91 2203 -91 
Q 1297 -91 786 396 
Q 275 884 275 1747 
Q 275 2609 786 3096 
Q 1297 3584 2203 3584 
z
" transform="scale(0.015625)"/>
      <path id="DejaVuSans-Bold-66" d="M 2841 4863 
L 2841 4128 
L 2222 4128 
Q 1984 4128 1890 4042 
Q 1797 3956 1797 3744 
L 1797 3500 
L 2753 3500 
L 2753 2700 
L 1797 2700 
L 1797 0 
L 678 0 
L 678 2700 
L 122 2700 
L 122 3500 
L 678 3500 
L 678 3744 
Q 678 4316 997 4589 
Q 1316 4863 1984 4863 
L 2841 4863 
z
" transform="scale(0.015625)"/>
      <path id="DejaVuSans-Bold-69" d="M 538 3500 
L 1656 3500 
L 1656 0 
L 538 0 
L 538 3500 
z
M 538 4863 
L 1656 4863 
L 1656 3950 
L 538 3950 
L 538 4863 
z
" transform="scale(0.015625)"/>
      <path id="DejaVuSans-Bold-6c" d="M 538 4863 
L 1656 4863 
L 1656 0 
L 538 0 
L 538 4863 
z
" transform="scale(0.015625)"/>
      <path id="DejaVuSans-Bold-20" transform="scale(0.015625)"/>
      <path id="DejaVuSans-Bold-31" d="M 750 831 
L 1813 831 
L 1813 3847 
L 722 3622 
L 722 4441 
L 1806 4666 
L 2950 4666 
L 2950 831 
L 4013 831 
L 4013 0 
L 750 0 
L 750 831 
z
" transform="scale(0.015625)"/>
      <path id="DejaVuSans-Bold-30" d="M 2944 2338 
Q 2944 3213 2780 3570 
Q 2616 3928 2228 3928 
Q 1841 3928 1675 3570 
Q 1509 3213 1509 2338 
Q 1509 1453 1675 1090 
Q 1841 728 2228 728 
Q 2613 728 2778 1090 
Q 2944 1453 2944 2338 
z
M 4147 2328 
Q 4147 1169 3647 539 
Q 3147 -91 2228 -91 
Q 1306 -91 806 539 
Q 306 1169 306 2328 
Q 306 3491 806 4120 
Q 1306 4750 2228 4750 
Q 3147 4750 3647 4120 
Q 4147 3491 4147 2328 
z
" transform="scale(0.015625)"/>
      <path id="DejaVuSans-Bold-2e" d="M 653 1209 
L 1778 1209 
L 1778 0 
L 653 0 
L 653 1209 
z
" transform="scale(0.015625)"/>
     </defs>
     <use xlink:href="#DejaVuSans-Bold-50"/>
     <use xlink:href="#DejaVuSans-Bold-72" x="73.291016"/>
     <use xlink:href="#DejaVuSans-Bold-6f" x="122.607422"/>
     <use xlink:href="#DejaVuSans-Bold-66" x="191.308594"/>
     <use xlink:href="#DejaVuSans-Bold-69" x="234.814453"/>
     <use xlink:href="#DejaVuSans-Bold-6c" x="269.091797"/>
     <use xlink:href="#DejaVuSans-Bold-20" x="303.369141"/>
     <use xlink:href="#DejaVuSans-Bold-31" x="338.183594"/>
     <use xlink:href="#DejaVuSans-Bold-31" x="407.763672"/>
     <use xlink:href="#DejaVuSans-Bold-30" x="477.34375"/>
     <use xlink:href="#DejaVuSans-Bold-2e" x="546.923828"/>
     <use xlink:href="#DejaVuSans-Bold-30" x="584.912109"/>
     <use xlink:href="#DejaVuSans-Bold-30" x="654.492188"/>
    </g>
   </g>
   <g id="cs:kjørefelt">
    <path d="M 426.249968 473.817176 
L 430.078224 473.962827 
L 433.906481 474.108072 
L 437.734737 474.253317 
L 441.562994 474.398562 
L 445.39125 474.543807 
L 449.219506 474.689051 
L 453.047763 474.834296 
L 456.876019 474.979456 
L 460.704275 475.124474 
L 464.532532 475.269493 
L 468.360788 475.414512 
L 472.189044 475.559531 
L 476.017301 475.70455 
L 479.845557 475.849551 
L 483.673814 475.994436 
L 487.50207 476.139321 
L 491.330326 476.284207 
L 495.158583 476.429093 
L 498.986839 476.574059 
L 502.815095 476.719024 
L 506.643352 476.86399 
L 510.471608 477.008956 
L 514.299865 477.153922 
L 518.128121 477.298887 
L 521.956377 477.443741 
L 525.784634 477.588559 
L 529.61289 477.733377 
L 533.441146 477.878195 
L 537.269403 478.023012 
L 541.097659 478.16783 
L 544.925915 478.312648 
L 548.754172 478.457415 
L 552.582428 478.602044 
L 556.410685 478.746673 
L 560.238941 478.891302 
L 564.067197 521.573735 
" clip-path="url(#p30ea3f0f51)" style="fill: none; stroke: #000000; stroke-width: 2; stroke-linecap: square"/>
   </g>
  </g>
  <g id="text_29">
   <!-- SVV · R700 · 1:200 · Stasjon 110.00 m · xlim=[-12,12] -->
   <g style="fill: #555555" transform="translate(916.449072 743.023947) scale(0.05 -0.05)">
    <defs>
     <path id="DejaVuSans-56" d="M 1831 0 
L 50 4666 
L 709 4666 
L 2188 738 
L 3669 4666 
L 4325 4666 
L 2547 0 
L 1831 0 
z
" transform="scale(0.015625)"/>
     <path id="DejaVuSans-b7" d="M 684 2619 
L 1344 2619 
L 1344 1825 
L 684 1825 
L 684 2619 
z
" transform="scale(0.015625)"/>
     <path id="DejaVuSans-52" d="M 2841 2188 
Q 3044 2119 3236 1894 
Q 3428 1669 3622 1275 
L 4263 0 
L 3584 0 
L 2988 1197 
Q 2756 1666 2539 1819 
Q 2322 1972 1947 1972 
L 1259 1972 
L 1259 0 
L 628 0 
L 628 4666 
L 2053 4666 
Q 2853 4666 3247 4331 
Q 3641 3997 3641 3322 
Q 3641 2881 3436 2590 
Q 3231 2300 2841 2188 
z
M 1259 4147 
L 1259 2491 
L 2053 2491 
Q 2509 2491 2742 2702 
Q 2975 2913 2975 3322 
Q 2975 3731 2742 3939 
Q 2509 4147 2053 4147 
L 1259 4147 
z
" transform="scale(0.015625)"/>
     <path id="DejaVuSans-3a" d="M 750 794 
L 1409 794 
L 1409 0 
L 750 0 
L 750 794 
z
M 750 3309 
L 1409 3309 
L 1409 2516 
L 750 2516 
L 750 3309 
z
" transform="scale(0.015625)"/>
     <path id="DejaVuSans-2e" d="M 684 794 
L 1344 794 
L 1344 0 
L 684 0 
L 684 794 
z
" transform="scale(0.015625)"/>
     <path id="DejaVuSans-78" d="M 3513 3500 
L 2247 1797 
L 3578 0 
L 2900 0 
L 1881 1375 
L 863 0 
L 184 0 
L 1544 1831 
L 300 3500 
L 978 3500 
L 1906 2253 
L 2834 3500 
L 3513 3500 
z
" transform="scale(0.015625)"/>
     <path id="DejaVuSans-3d" d="M 678 2906 
L 4684 2906 
L 4684 2381 
L 678 2381 
L 678 2906 
z
M 678 1631 
L 4684 1631 
L 4684 1100 
L 678 1100 
L 678 1631 
z
" transform="scale(0.015625)"/>
     <path id="DejaVuSans-5b" d="M 550 4863 
L 1875 4863 
L 1875 4416 
L 1125 4416 
L 1125 -397 
L 1875 -397 
L 1875 -844 
L 550 -844 
L 550 4863 
z
" transform="scale(0.015625)"/>
     <path id="DejaVuSans-2d" d="M 313 2009 
L 1997 2009 
L 1997 1497 
L 313 1497 
L 313 2009 
z
" transform="scale(0.015625)"/>
     <path id="DejaVuSans-2c" d="M 750 794 
L 1409 794 
L 1409 256 
L 897 -744 
L 494 -744 
L 750 256 
L 750 794 
z
" transform="scale(0.015625)"/>
     <path id="DejaVuSans-5d" d="M 1947 4863 
L 1947 -844 
L 622 -844 
L 622 -397 
L 1369 -397 
L 1369 4416 
L 622 4416 
L 622 4863 
L 1947 4863 
z
" transform="scale(0.015625)"/>
    </defs>
    <use xlink:href="#DejaVuSans-53"/>
    <use xlink:href="#DejaVuSans-56" x="63.476562"/>
    <use xlink:href="#DejaVuSans-56" x="131.884766"/>
    <use xlink:href="#DejaVuSans-20" x="200.292969"/>
    <use xlink:href="#DejaVuSans-b7" x="232.080078"/>
    <use xlink:href="#DejaVuSans-20" x="263.867188"/>
    <use xlink:href="#DejaVuSans-52" x="295.654297"/>
    <use xlink:href="#DejaVuSans-37" x="365.136719"/>
    <use xlink:href="#DejaVuSans-30" x="428.759766"/>
    <use xlink:href="#DejaVuSans-30" x="492.382812"/>
    <use xlink:href="#DejaVuSans-20" x="556.005859"/>
    <use xlink:href="#DejaVuSans-b7" x="587.792969"/>
    <use xlink:href="#DejaVuSans-20" x="619.580078"/>
    <use xlink:href="#DejaVuSans-31" x="651.367188"/>
    <use xlink:href="#DejaVuSans-3a" x="714.990234"/>
    <use xlink:href="#DejaVuSans-32" x="748.681641"/>
    <use xlink:href="#DejaVuSans-30" x="812.304688"/>
    <use xlink:href="#DejaVuSans-30" x="875.927734"/>
    <use xlink:href="#DejaVuSans-20" x="939.550781"/>
    <use xlink:href="#DejaVuSans-b7" x="971.337891"/>
    <use xlink:href="#DejaVuSans-20" x="1003.125"/>
    <use xlink:href="#DejaVuSans-53" x="1034.912109"/>
    <use xlink:href="#DejaVuSans-74" x="1098.388672"/>
    <use xlink:href="#DejaVuSans-61" x="1137.597656"/>
    <use xlink:href="#DejaVuSans-73" x="1198.876953"/>
    <use xlink:href="#DejaVuSans-6a" x="1250.976562"/>
    <use xlink:href="#DejaVuSans-6f" x="1278.759766"/>
    <use xlink:href="#DejaVuSans-6e" x="1339.941406"/>
    <use xlink:href="#DejaVuSans-20" x="1403.320312"/>
    <use xlink:href="#DejaVuSans-31" x="1435.107422"/>
    <use xlink:href="#DejaVuSans-31" x="1498.730469"/>
    <use xlink:href="#DejaVuSans-30" x="1562.353516"/>
    <use xlink:href="#DejaVuSans-2e" x="1625.976562"/>
    <use xlink:href="#DejaVuSans-30" x="1657.763672"/>
    <use xlink:href="#DejaVuSans-30" x="1721.386719"/>
    <use xlink:href="#DejaVuSans-20" x="1785.009766"/>
    <use xlink:href="#DejaVuSans-6d" x="1816.796875"/>
    <use xlink:href="#DejaVuSans-20" x="1914.208984"/>
    <use xlink:href="#DejaVuSans-b7" x="1945.996094"/>
    <use xlink:href="#DejaVuSans-20" x="1977.783203"/>
    <use xlink:href="#DejaVuSans-78" x="2009.570312"/>
    <use xlink:href="#DejaVuSans-6c" x="2068.75"/>
    <use xlink:href="#DejaVuSans-69" x="2096.533203"/>
    <use xlink:href="#DejaVuSans-6d" x="2124.316406"/>
    <use xlink:href="#DejaVuSans-3d" x="2221.728516"/>
    <use xlink:href="#DejaVuSans-5b" x="2305.517578"/>
    <use xlink:href="#DejaVuSans-2d" x="2344.53125"/>
    <use xlink:href="#DejaVuSans-31" x="2380.615234"/>
    <use xlink:href="#DejaVuSans-32" x="2444.238281"/>
    <use xlink:href="#DejaVuSans-2c" x="2507.861328"/>
    <use xlink:href="#DejaVuSans-31" x="2539.648438"/>
    <use xlink:href="#DejaVuSans-32" x="2603.271484"/>
    <use xlink:href="#DejaVuSans-5d" x="2666.894531"/>
   </g>
  </g>
 </g>
 <defs>
  <clipPath id="p30ea3f0f51">
   <rect x="33.82" y="20.038594" width="922.677165" height="648.255118"/>
  </clipPath>
 </defs>
</svg>
