<?xml version="1.0" encoding="utf-8" standalone="no"?>
<!DOCTYPE svg PUBLIC "-//W3C//DTD SVG 1.1//EN"
  "http://www.w3.org/Graphics/SVG/1.1/DTD/svg11.dtd">
<svg xmlns:xlink="http://www.w3.org/1999/xlink" width="1058.94126pt" height="751.263791pt" viewBox="0 0 1058.94126 751.263791" xmlns="http://www.w3.org/2000/svg" version="1.1">
 <metadata>
  <rdf:RDF xmlns:dc="http://purl.org/dc/elements/1.1/" xmlns:cc="http://creativecommons.org/ns#" xmlns:rdf="http://www.w3.org/1999/02/22-rdf-syntax-ns#">
   <cc:Work>
    <dc:type rdf:resource="http://purl.org/dc/dcmitype/StillImage"/>
    <dc:date>2026-05-20T19:03:08.376928</dc:date>
    <dc:format>image/svg+xml</dc:format>
    <dc:creator>
     <cc:Agent>
      <dc:title>Matplotlib v3.9.4, https://matplotlib.org/</dc:title>
     </cc:Agent>
    </dc:creator>
   </cc:Work>
  </rdf:RDF>
 </metadata>
 <defs>
  <style type="text/css">*{stroke-linejoin: round; stroke-linecap: butt}</style>
 </defs>
 <g id="figure_1">
  <g id="patch_1">
   <path d="M 0 751.263791 
L 1058.94126 751.263791 
L 1058.94126 0 
L 0 0 
z
" style="fill: #ffffff"/>
  </g>
  <g id="axes_1">
   <g id="patch_2">
    <path d="M 33.82 668.293712 
L 956.497165 668.293712 
L 956.497165 20.038594 
L 33.82 20.038594 
z
" style="fill: #ffffff"/>
   </g>
   <g id="matplotlib.axis_1">
    <g id="xtick_1">
     <g id="line2d_1">
      <path d="M 153.57866 668.293712 
L 153.57866 20.038594 
" clip-path="url(#p6910ed4a77)" style="fill: none; stroke: #aaaaaa; stroke-width: 0.5; stroke-linecap: square"/>
     </g>
     <g id="line2d_2">
      <defs>
       <path id="m075fe91626" d="M 0 0 
L 0 3.5 
" style="stroke: #000000; stroke-width: 0.8"/>
      </defs>
      <g>
       <use xlink:href="#m075fe91626" x="153.57866" y="668.293712" style="stroke: #000000; stroke-width: 0.8"/>
      </g>
     </g>
     <g id="text_1">
      <!-- −15 -->
      <g transform="translate(147.247253 679.852774) scale(0.06 -0.06)">
       <defs>
        <path id="DejaVuSans-2212" d="M 678 2272 
L 4684 2272 
L 4684 1741 
L 678 1741 
L 678 2272 
z
" transform="scale(0.015625)"/>
        <path id="DejaVuSans-31" d="M 794 531 
L 1825 531 
L 1825 4091 
L 703 3866 
L 703 4441 
L 1819 4666 
L 2450 4666 
L 2450 531 
L 3481 531 
L 3481 0 
L 794 0 
L 794 531 
z
" transform="scale(0.015625)"/>
        <path id="DejaVuSans-35" d="M 691 4666 
L 3169 4666 
L 3169 4134 
L 1269 4134 
L 1269 2991 
Q 1406 3038 1543 3061 
Q 1681 3084 1819 3084 
Q 2600 3084 3056 2656 
Q 3513 2228 3513 1497 
Q 3513 744 3044 326 
Q 2575 -91 1722 -91 
Q 1428 -91 1123 -41 
Q 819 9 494 109 
L 494 744 
Q 775 591 1075 516 
Q 1375 441 1709 441 
Q 2250 441 2565 725 
Q 2881 1009 2881 1497 
Q 2881 1984 2565 2268 
Q 2250 2553 1709 2553 
Q 1456 2553 1204 2497 
Q 953 2441 691 2322 
L 691 4666 
z
" transform="scale(0.015625)"/>
       </defs>
       <use xlink:href="#DejaVuSans-2212"/>
       <use xlink:href="#DejaVuSans-31" x="83.789062"/>
       <use xlink:href="#DejaVuSans-35" x="147.412109"/>
      </g>
     </g>
    </g>
    <g id="xtick_2">
     <g id="line2d_3">
      <path d="M 296.956074 668.293712 
L 296.956074 20.038594 
" clip-path="url(#p6910ed4a77)" style="fill: none; stroke: #aaaaaa; stroke-width: 0.5; stroke-linecap: square"/>
     </g>
     <g id="line2d_4">
      <g>
       <use xlink:href="#m075fe91626" x="296.956074" y="668.293712" style="stroke: #000000; stroke-width: 0.8"/>
      </g>
     </g>
     <g id="text_2">
      <!-- −10 -->
      <g transform="translate(290.624668 679.852774) scale(0.06 -0.06)">
       <defs>
        <path id="DejaVuSans-30" d="M 2034 4250 
Q 1547 4250 1301 3770 
Q 1056 3291 1056 2328 
Q 1056 1369 1301 889 
Q 1547 409 2034 409 
Q 2525 409 2770 889 
Q 3016 1369 3016 2328 
Q 3016 3291 2770 3770 
Q 2525 4250 2034 4250 
z
M 2034 4750 
Q 2819 4750 3233 4129 
Q 3647 3509 3647 2328 
Q 3647 1150 3233 529 
Q 2819 -91 2034 -91 
Q 1250 -91 836 529 
Q 422 1150 422 2328 
Q 422 3509 836 4129 
Q 1250 4750 2034 4750 
z
" transform="scale(0.015625)"/>
       </defs>
       <use xlink:href="#DejaVuSans-2212"/>
       <use xlink:href="#DejaVuSans-31" x="83.789062"/>
       <use xlink:href="#DejaVuSans-30" x="147.412109"/>
      </g>
     </g>
    </g>
    <g id="xtick_3">
     <g id="line2d_5">
      <path d="M 440.333488 668.293712 
L 440.333488 20.038594 
" clip-path="url(#p6910ed4a77)" style="fill: none; stroke: #aaaaaa; stroke-width: 0.5; stroke-linecap: square"/>
     </g>
     <g id="line2d_6">
      <g>
       <use xlink:href="#m075fe91626" x="440.333488" y="668.293712" style="stroke: #000000; stroke-width: 0.8"/>
      </g>
     </g>
     <g id="text_3">
      <!-- −5 -->
      <g transform="translate(435.910832 679.852774) scale(0.06 -0.06)">
       <use xlink:href="#DejaVuSans-2212"/>
       <use xlink:href="#DejaVuSans-35" x="83.789062"/>
      </g>
     </g>
    </g>
    <g id="xtick_4">
     <g id="line2d_7">
      <path d="M 583.710902 668.293712 
L 583.710902 20.038594 
" clip-path="url(#p6910ed4a77)" style="fill: none; stroke: #aaaaaa; stroke-width: 0.5; stroke-linecap: square"/>
     </g>
     <g id="line2d_8">
      <g>
       <use xlink:href="#m075fe91626" x="583.710902" y="668.293712" style="stroke: #000000; stroke-width: 0.8"/>
      </g>
     </g>
     <g id="text_4">
      <!-- 0 -->
      <g transform="translate(581.802152 679.852774) scale(0.06 -0.06)">
       <use xlink:href="#DejaVuSans-30"/>
      </g>
     </g>
    </g>
    <g id="xtick_5">
     <g id="line2d_9">
      <path d="M 727.088317 668.293712 
L 727.088317 20.038594 
" clip-path="url(#p6910ed4a77)" style="fill: none; stroke: #aaaaaa; stroke-width: 0.5; stroke-linecap: square"/>
     </g>
     <g id="line2d_10">
      <g>
       <use xlink:href="#m075fe91626" x="727.088317" y="668.293712" style="stroke: #000000; stroke-width: 0.8"/>
      </g>
     </g>
     <g id="text_5">
      <!-- 5 -->
      <g transform="translate(725.179567 679.852774) scale(0.06 -0.06)">
       <use xlink:href="#DejaVuSans-35"/>
      </g>
     </g>
    </g>
    <g id="xtick_6">
     <g id="line2d_11">
      <path d="M 870.465731 668.293712 
L 870.465731 20.038594 
" clip-path="url(#p6910ed4a77)" style="fill: none; stroke: #aaaaaa; stroke-width: 0.5; stroke-linecap: square"/>
     </g>
     <g id="line2d_12">
      <g>
       <use xlink:href="#m075fe91626" x="870.465731" y="668.293712" style="stroke: #000000; stroke-width: 0.8"/>
      </g>
     </g>
     <g id="text_6">
      <!-- 10 -->
      <g transform="translate(866.648231 679.852774) scale(0.06 -0.06)">
       <use xlink:href="#DejaVuSans-31"/>
       <use xlink:href="#DejaVuSans-30" x="63.623047"/>
      </g>
     </g>
    </g>
    <g id="xtick_7">
     <g id="line2d_13">
      <path d="M 38.876728 668.293712 
L 38.876728 20.038594 
" clip-path="url(#p6910ed4a77)" style="fill: none; stroke: #dddddd; stroke-width: 0.25; stroke-linecap: square"/>
     </g>
     <g id="line2d_14">
      <defs>
       <path id="mc9d64a8a12" d="M 0 0 
L 0 2 
" style="stroke: #000000; stroke-width: 0.6"/>
      </defs>
      <g>
       <use xlink:href="#mc9d64a8a12" x="38.876728" y="668.293712" style="stroke: #000000; stroke-width: 0.6"/>
      </g>
     </g>
    </g>
    <g id="xtick_8">
     <g id="line2d_15">
      <path d="M 67.552211 668.293712 
L 67.552211 20.038594 
" clip-path="url(#p6910ed4a77)" style="fill: none; stroke: #dddddd; stroke-width: 0.25; stroke-linecap: square"/>
     </g>
     <g id="line2d_16">
      <g>
       <use xlink:href="#mc9d64a8a12" x="67.552211" y="668.293712" style="stroke: #000000; stroke-width: 0.6"/>
      </g>
     </g>
    </g>
    <g id="xtick_9">
     <g id="line2d_17">
      <path d="M 96.227694 668.293712 
L 96.227694 20.038594 
" clip-path="url(#p6910ed4a77)" style="fill: none; stroke: #dddddd; stroke-width: 0.25; stroke-linecap: square"/>
     </g>
     <g id="line2d_18">
      <g>
       <use xlink:href="#mc9d64a8a12" x="96.227694" y="668.293712" style="stroke: #000000; stroke-width: 0.6"/>
      </g>
     </g>
    </g>
    <g id="xtick_10">
     <g id="line2d_19">
      <path d="M 124.903177 668.293712 
L 124.903177 20.038594 
" clip-path="url(#p6910ed4a77)" style="fill: none; stroke: #dddddd; stroke-width: 0.25; stroke-linecap: square"/>
     </g>
     <g id="line2d_20">
      <g>
       <use xlink:href="#mc9d64a8a12" x="124.903177" y="668.293712" style="stroke: #000000; stroke-width: 0.6"/>
      </g>
     </g>
    </g>
    <g id="xtick_11">
     <g id="line2d_21">
      <path d="M 182.254142 668.293712 
L 182.254142 20.038594 
" clip-path="url(#p6910ed4a77)" style="fill: none; stroke: #dddddd; stroke-width: 0.25; stroke-linecap: square"/>
     </g>
     <g id="line2d_22">
      <g>
       <use xlink:href="#mc9d64a8a12" x="182.254142" y="668.293712" style="stroke: #000000; stroke-width: 0.6"/>
      </g>
     </g>
    </g>
    <g id="xtick_12">
     <g id="line2d_23">
      <path d="M 210.929625 668.293712 
L 210.929625 20.038594 
" clip-path="url(#p6910ed4a77)" style="fill: none; stroke: #dddddd; stroke-width: 0.25; stroke-linecap: square"/>
     </g>
     <g id="line2d_24">
      <g>
       <use xlink:href="#mc9d64a8a12" x="210.929625" y="668.293712" style="stroke: #000000; stroke-width: 0.6"/>
      </g>
     </g>
    </g>
    <g id="xtick_13">
     <g id="line2d_25">
      <path d="M 239.605108 668.293712 
L 239.605108 20.038594 
" clip-path="url(#p6910ed4a77)" style="fill: none; stroke: #dddddd; stroke-width: 0.25; stroke-linecap: square"/>
     </g>
     <g id="line2d_26">
      <g>
       <use xlink:href="#mc9d64a8a12" x="239.605108" y="668.293712" style="stroke: #000000; stroke-width: 0.6"/>
      </g>
     </g>
    </g>
    <g id="xtick_14">
     <g id="line2d_27">
      <path d="M 268.280591 668.293712 
L 268.280591 20.038594 
" clip-path="url(#p6910ed4a77)" style="fill: none; stroke: #dddddd; stroke-width: 0.25; stroke-linecap: square"/>
     </g>
     <g id="line2d_28">
      <g>
       <use xlink:href="#mc9d64a8a12" x="268.280591" y="668.293712" style="stroke: #000000; stroke-width: 0.6"/>
      </g>
     </g>
    </g>
    <g id="xtick_15">
     <g id="line2d_29">
      <path d="M 325.631557 668.293712 
L 325.631557 20.038594 
" clip-path="url(#p6910ed4a77)" style="fill: none; stroke: #dddddd; stroke-width: 0.25; stroke-linecap: square"/>
     </g>
     <g id="line2d_30">
      <g>
       <use xlink:href="#mc9d64a8a12" x="325.631557" y="668.293712" style="stroke: #000000; stroke-width: 0.6"/>
      </g>
     </g>
    </g>
    <g id="xtick_16">
     <g id="line2d_31">
      <path d="M 354.30704 668.293712 
L 354.30704 20.038594 
" clip-path="url(#p6910ed4a77)" style="fill: none; stroke: #dddddd; stroke-width: 0.25; stroke-linecap: square"/>
     </g>
     <g id="line2d_32">
      <g>
       <use xlink:href="#mc9d64a8a12" x="354.30704" y="668.293712" style="stroke: #000000; stroke-width: 0.6"/>
      </g>
     </g>
    </g>
    <g id="xtick_17">
     <g id="line2d_33">
      <path d="M 382.982522 668.293712 
L 382.982522 20.038594 
" clip-path="url(#p6910ed4a77)" style="fill: none; stroke: #dddddd; stroke-width: 0.25; stroke-linecap: square"/>
     </g>
     <g id="line2d_34">
      <g>
       <use xlink:href="#mc9d64a8a12" x="382.982522" y="668.293712" style="stroke: #000000; stroke-width: 0.6"/>
      </g>
     </g>
    </g>
    <g id="xtick_18">
     <g id="line2d_35">
      <path d="M 411.658005 668.293712 
L 411.658005 20.038594 
" clip-path="url(#p6910ed4a77)" style="fill: none; stroke: #dddddd; stroke-width: 0.25; stroke-linecap: square"/>
     </g>
     <g id="line2d_36">
      <g>
       <use xlink:href="#mc9d64a8a12" x="411.658005" y="668.293712" style="stroke: #000000; stroke-width: 0.6"/>
      </g>
     </g>
    </g>
    <g id="xtick_19">
     <g id="line2d_37">
      <path d="M 469.008971 668.293712 
L 469.008971 20.038594 
" clip-path="url(#p6910ed4a77)" style="fill: none; stroke: #dddddd; stroke-width: 0.25; stroke-linecap: square"/>
     </g>
     <g id="line2d_38">
      <g>
       <use xlink:href="#mc9d64a8a12" x="469.008971" y="668.293712" style="stroke: #000000; stroke-width: 0.6"/>
      </g>
     </g>
    </g>
    <g id="xtick_20">
     <g id="line2d_39">
      <path d="M 497.684454 668.293712 
L 497.684454 20.038594 
" clip-path="url(#p6910ed4a77)" style="fill: none; stroke: #dddddd; stroke-width: 0.25; stroke-linecap: square"/>
     </g>
     <g id="line2d_40">
      <g>
       <use xlink:href="#mc9d64a8a12" x="497.684454" y="668.293712" style="stroke: #000000; stroke-width: 0.6"/>
      </g>
     </g>
    </g>
    <g id="xtick_21">
     <g id="line2d_41">
      <path d="M 526.359937 668.293712 
L 526.359937 20.038594 
" clip-path="url(#p6910ed4a77)" style="fill: none; stroke: #dddddd; stroke-width: 0.25; stroke-linecap: square"/>
     </g>
     <g id="line2d_42">
      <g>
       <use xlink:href="#mc9d64a8a12" x="526.359937" y="668.293712" style="stroke: #000000; stroke-width: 0.6"/>
      </g>
     </g>
    </g>
    <g id="xtick_22">
     <g id="line2d_43">
      <path d="M 555.035419 668.293712 
L 555.035419 20.038594 
" clip-path="url(#p6910ed4a77)" style="fill: none; stroke: #dddddd; stroke-width: 0.25; stroke-linecap: square"/>
     </g>
     <g id="line2d_44">
      <g>
       <use xlink:href="#mc9d64a8a12" x="555.035419" y="668.293712" style="stroke: #000000; stroke-width: 0.6"/>
      </g>
     </g>
    </g>
    <g id="xtick_23">
     <g id="line2d_45">
      <path d="M 612.386385 668.293712 
L 612.386385 20.038594 
" clip-path="url(#p6910ed4a77)" style="fill: none; stroke: #dddddd; stroke-width: 0.25; stroke-linecap: square"/>
     </g>
     <g id="line2d_46">
      <g>
       <use xlink:href="#mc9d64a8a12" x="612.386385" y="668.293712" style="stroke: #000000; stroke-width: 0.6"/>
      </g>
     </g>
    </g>
    <g id="xtick_24">
     <g id="line2d_47">
      <path d="M 641.061868 668.293712 
L 641.061868 20.038594 
" clip-path="url(#p6910ed4a77)" style="fill: none; stroke: #dddddd; stroke-width: 0.25; stroke-linecap: square"/>
     </g>
     <g id="line2d_48">
      <g>
       <use xlink:href="#mc9d64a8a12" x="641.061868" y="668.293712" style="stroke: #000000; stroke-width: 0.6"/>
      </g>
     </g>
    </g>
    <g id="xtick_25">
     <g id="line2d_49">
      <path d="M 669.737351 668.293712 
L 669.737351 20.038594 
" clip-path="url(#p6910ed4a77)" style="fill: none; stroke: #dddddd; stroke-width: 0.25; stroke-linecap: square"/>
     </g>
     <g id="line2d_50">
      <g>
       <use xlink:href="#mc9d64a8a12" x="669.737351" y="668.293712" style="stroke: #000000; stroke-width: 0.6"/>
      </g>
     </g>
    </g>
    <g id="xtick_26">
     <g id="line2d_51">
      <path d="M 698.412834 668.293712 
L 698.412834 20.038594 
" clip-path="url(#p6910ed4a77)" style="fill: none; stroke: #dddddd; stroke-width: 0.25; stroke-linecap: square"/>
     </g>
     <g id="line2d_52">
      <g>
       <use xlink:href="#mc9d64a8a12" x="698.412834" y="668.293712" style="stroke: #000000; stroke-width: 0.6"/>
      </g>
     </g>
    </g>
    <g id="xtick_27">
     <g id="line2d_53">
      <path d="M 755.763799 668.293712 
L 755.763799 20.038594 
" clip-path="url(#p6910ed4a77)" style="fill: none; stroke: #dddddd; stroke-width: 0.25; stroke-linecap: square"/>
     </g>
     <g id="line2d_54">
      <g>
       <use xlink:href="#mc9d64a8a12" x="755.763799" y="668.293712" style="stroke: #000000; stroke-width: 0.6"/>
      </g>
     </g>
    </g>
    <g id="xtick_28">
     <g id="line2d_55">
      <path d="M 784.439282 668.293712 
L 784.439282 20.038594 
" clip-path="url(#p6910ed4a77)" style="fill: none; stroke: #dddddd; stroke-width: 0.25; stroke-linecap: square"/>
     </g>
     <g id="line2d_56">
      <g>
       <use xlink:href="#mc9d64a8a12" x="784.439282" y="668.293712" style="stroke: #000000; stroke-width: 0.6"/>
      </g>
     </g>
    </g>
    <g id="xtick_29">
     <g id="line2d_57">
      <path d="M 813.114765 668.293712 
L 813.114765 20.038594 
" clip-path="url(#p6910ed4a77)" style="fill: none; stroke: #dddddd; stroke-width: 0.25; stroke-linecap: square"/>
     </g>
     <g id="line2d_58">
      <g>
       <use xlink:href="#mc9d64a8a12" x="813.114765" y="668.293712" style="stroke: #000000; stroke-width: 0.6"/>
      </g>
     </g>
    </g>
    <g id="xtick_30">
     <g id="line2d_59">
      <path d="M 841.790248 668.293712 
L 841.790248 20.038594 
" clip-path="url(#p6910ed4a77)" style="fill: none; stroke: #dddddd; stroke-width: 0.25; stroke-linecap: square"/>
     </g>
     <g id="line2d_60">
      <g>
       <use xlink:href="#mc9d64a8a12" x="841.790248" y="668.293712" style="stroke: #000000; stroke-width: 0.6"/>
      </g>
     </g>
    </g>
    <g id="xtick_31">
     <g id="line2d_61">
      <path d="M 899.141214 668.293712 
L 899.141214 20.038594 
" clip-path="url(#p6910ed4a77)" style="fill: none; stroke: #dddddd; stroke-width: 0.25; stroke-linecap: square"/>
     </g>
     <g id="line2d_62">
      <g>
       <use xlink:href="#mc9d64a8a12" x="899.141214" y="668.293712" style="stroke: #000000; stroke-width: 0.6"/>
      </g>
     </g>
    </g>
    <g id="xtick_32">
     <g id="line2d_63">
      <path d="M 927.816696 668.293712 
L 927.816696 20.038594 
" clip-path="url(#p6910ed4a77)" style="fill: none; stroke: #dddddd; stroke-width: 0.25; stroke-linecap: square"/>
     </g>
     <g id="line2d_64">
      <g>
       <use xlink:href="#mc9d64a8a12" x="927.816696" y="668.293712" style="stroke: #000000; stroke-width: 0.6"/>
      </g>
     </g>
    </g>
    <g id="xtick_33">
     <g id="line2d_65">
      <path d="M 956.492179 668.293712 
L 956.492179 20.038594 
" clip-path="url(#p6910ed4a77)" style="fill: none; stroke: #dddddd; stroke-width: 0.25; stroke-linecap: square"/>
     </g>
     <g id="line2d_66">
      <g>
       <use xlink:href="#mc9d64a8a12" x="956.492179" y="668.293712" style="stroke: #000000; stroke-width: 0.6"/>
      </g>
     </g>
    </g>
    <g id="text_7">
     <!-- Avstand fra senterlinje (m) -->
     <g transform="translate(448.376708 690.419493) scale(0.07 -0.07)">
      <defs>
       <path id="DejaVuSans-41" d="M 2188 4044 
L 1331 1722 
L 3047 1722 
L 2188 4044 
z
M 1831 4666 
L 2547 4666 
L 4325 0 
L 3669 0 
L 3244 1197 
L 1141 1197 
L 716 0 
L 50 0 
L 1831 4666 
z
" transform="scale(0.015625)"/>
       <path id="DejaVuSans-76" d="M 191 3500 
L 800 3500 
L 1894 563 
L 2988 3500 
L 3597 3500 
L 2284 0 
L 1503 0 
L 191 3500 
z
" transform="scale(0.015625)"/>
       <path id="DejaVuSans-73" d="M 2834 3397 
L 2834 2853 
Q 2591 2978 2328 3040 
Q 2066 3103 1784 3103 
Q 1356 3103 1142 2972 
Q 928 2841 928 2578 
Q 928 2378 1081 2264 
Q 1234 2150 1697 2047 
L 1894 2003 
Q 2506 1872 2764 1633 
Q 3022 1394 3022 966 
Q 3022 478 2636 193 
Q 2250 -91 1575 -91 
Q 1294 -91 989 -36 
Q 684 19 347 128 
L 347 722 
Q 666 556 975 473 
Q 1284 391 1588 391 
Q 1994 391 2212 530 
Q 2431 669 2431 922 
Q 2431 1156 2273 1281 
Q 2116 1406 1581 1522 
L 1381 1569 
Q 847 1681 609 1914 
Q 372 2147 372 2553 
Q 372 3047 722 3315 
Q 1072 3584 1716 3584 
Q 2034 3584 2315 3537 
Q 2597 3491 2834 3397 
z
" transform="scale(0.015625)"/>
       <path id="DejaVuSans-74" d="M 1172 4494 
L 1172 3500 
L 2356 3500 
L 2356 3053 
L 1172 3053 
L 1172 1153 
Q 1172 725 1289 603 
Q 1406 481 1766 481 
L 2356 481 
L 2356 0 
L 1766 0 
Q 1100 0 847 248 
Q 594 497 594 1153 
L 594 3053 
L 172 3053 
L 172 3500 
L 594 3500 
L 594 4494 
L 1172 4494 
z
" transform="scale(0.015625)"/>
       <path id="DejaVuSans-61" d="M 2194 1759 
Q 1497 1759 1228 1600 
Q 959 1441 959 1056 
Q 959 750 1161 570 
Q 1363 391 1709 391 
Q 2188 391 2477 730 
Q 2766 1069 2766 1631 
L 2766 1759 
L 2194 1759 
z
M 3341 1997 
L 3341 0 
L 2766 0 
L 2766 531 
Q 2569 213 2275 61 
Q 1981 -91 1556 -91 
Q 1019 -91 701 211 
Q 384 513 384 1019 
Q 384 1609 779 1909 
Q 1175 2209 1959 2209 
L 2766 2209 
L 2766 2266 
Q 2766 2663 2505 2880 
Q 2244 3097 1772 3097 
Q 1472 3097 1187 3025 
Q 903 2953 641 2809 
L 641 3341 
Q 956 3463 1253 3523 
Q 1550 3584 1831 3584 
Q 2591 3584 2966 3190 
Q 3341 2797 3341 1997 
z
" transform="scale(0.015625)"/>
       <path id="DejaVuSans-6e" d="M 3513 2113 
L 3513 0 
L 2938 0 
L 2938 2094 
Q 2938 2591 2744 2837 
Q 2550 3084 2163 3084 
Q 1697 3084 1428 2787 
Q 1159 2491 1159 1978 
L 1159 0 
L 581 0 
L 581 3500 
L 1159 3500 
L 1159 2956 
Q 1366 3272 1645 3428 
Q 1925 3584 2291 3584 
Q 2894 3584 3203 3211 
Q 3513 2838 3513 2113 
z
" transform="scale(0.015625)"/>
       <path id="DejaVuSans-64" d="M 2906 2969 
L 2906 4863 
L 3481 4863 
L 3481 0 
L 2906 0 
L 2906 525 
Q 2725 213 2448 61 
Q 2172 -91 1784 -91 
Q 1150 -91 751 415 
Q 353 922 353 1747 
Q 353 2572 751 3078 
Q 1150 3584 1784 3584 
Q 2172 3584 2448 3432 
Q 2725 3281 2906 2969 
z
M 947 1747 
Q 947 1113 1208 752 
Q 1469 391 1925 391 
Q 2381 391 2643 752 
Q 2906 1113 2906 1747 
Q 2906 2381 2643 2742 
Q 2381 3103 1925 3103 
Q 1469 3103 1208 2742 
Q 947 2381 947 1747 
z
" transform="scale(0.015625)"/>
       <path id="DejaVuSans-20" transform="scale(0.015625)"/>
       <path id="DejaVuSans-66" d="M 2375 4863 
L 2375 4384 
L 1825 4384 
Q 1516 4384 1395 4259 
Q 1275 4134 1275 3809 
L 1275 3500 
L 2222 3500 
L 2222 3053 
L 1275 3053 
L 1275 0 
L 697 0 
L 697 3053 
L 147 3053 
L 147 3500 
L 697 3500 
L 697 3744 
Q 697 4328 969 4595 
Q 1241 4863 1831 4863 
L 2375 4863 
z
" transform="scale(0.015625)"/>
       <path id="DejaVuSans-72" d="M 2631 2963 
Q 2534 3019 2420 3045 
Q 2306 3072 2169 3072 
Q 1681 3072 1420 2755 
Q 1159 2438 1159 1844 
L 1159 0 
L 581 0 
L 581 3500 
L 1159 3500 
L 1159 2956 
Q 1341 3275 1631 3429 
Q 1922 3584 2338 3584 
Q 2397 3584 2469 3576 
Q 2541 3569 2628 3553 
L 2631 2963 
z
" transform="scale(0.015625)"/>
       <path id="DejaVuSans-65" d="M 3597 1894 
L 3597 1613 
L 953 1613 
Q 991 1019 1311 708 
Q 1631 397 2203 397 
Q 2534 397 2845 478 
Q 3156 559 3463 722 
L 3463 178 
Q 3153 47 2828 -22 
Q 2503 -91 2169 -91 
Q 1331 -91 842 396 
Q 353 884 353 1716 
Q 353 2575 817 3079 
Q 1281 3584 2069 3584 
Q 2775 3584 3186 3129 
Q 3597 2675 3597 1894 
z
M 3022 2063 
Q 3016 2534 2758 2815 
Q 2500 3097 2075 3097 
Q 1594 3097 1305 2825 
Q 1016 2553 972 2059 
L 3022 2063 
z
" transform="scale(0.015625)"/>
       <path id="DejaVuSans-6c" d="M 603 4863 
L 1178 4863 
L 1178 0 
L 603 0 
L 603 4863 
z
" transform="scale(0.015625)"/>
       <path id="DejaVuSans-69" d="M 603 3500 
L 1178 3500 
L 1178 0 
L 603 0 
L 603 3500 
z
M 603 4863 
L 1178 4863 
L 1178 4134 
L 603 4134 
L 603 4863 
z
" transform="scale(0.015625)"/>
       <path id="DejaVuSans-6a" d="M 603 3500 
L 1178 3500 
L 1178 -63 
Q 1178 -731 923 -1031 
Q 669 -1331 103 -1331 
L -116 -1331 
L -116 -844 
L 38 -844 
Q 366 -844 484 -692 
Q 603 -541 603 -63 
L 603 3500 
z
M 603 4863 
L 1178 4863 
L 1178 4134 
L 603 4134 
L 603 4863 
z
" transform="scale(0.015625)"/>
       <path id="DejaVuSans-28" d="M 1984 4856 
Q 1566 4138 1362 3434 
Q 1159 2731 1159 2009 
Q 1159 1288 1364 580 
Q 1569 -128 1984 -844 
L 1484 -844 
Q 1016 -109 783 600 
Q 550 1309 550 2009 
Q 550 2706 781 3412 
Q 1013 4119 1484 4856 
L 1984 4856 
z
" transform="scale(0.015625)"/>
       <path id="DejaVuSans-6d" d="M 3328 2828 
Q 3544 3216 3844 3400 
Q 4144 3584 4550 3584 
Q 5097 3584 5394 3201 
Q 5691 2819 5691 2113 
L 5691 0 
L 5113 0 
L 5113 2094 
Q 5113 2597 4934 2840 
Q 4756 3084 4391 3084 
Q 3944 3084 3684 2787 
Q 3425 2491 3425 1978 
L 3425 0 
L 2847 0 
L 2847 2094 
Q 2847 2600 2669 2842 
Q 2491 3084 2119 3084 
Q 1678 3084 1418 2786 
Q 1159 2488 1159 1978 
L 1159 0 
L 581 0 
L 581 3500 
L 1159 3500 
L 1159 2956 
Q 1356 3278 1631 3431 
Q 1906 3584 2284 3584 
Q 2666 3584 2933 3390 
Q 3200 3197 3328 2828 
z
" transform="scale(0.015625)"/>
       <path id="DejaVuSans-29" d="M 513 4856 
L 1013 4856 
Q 1481 4119 1714 3412 
Q 1947 2706 1947 2009 
Q 1947 1309 1714 600 
Q 1481 -109 1013 -844 
L 513 -844 
Q 928 -128 1133 580 
Q 1338 1288 1338 2009 
Q 1338 2731 1133 3434 
Q 928 4138 513 4856 
z
" transform="scale(0.015625)"/>
      </defs>
      <use xlink:href="#DejaVuSans-41"/>
      <use xlink:href="#DejaVuSans-76" x="62.533203"/>
      <use xlink:href="#DejaVuSans-73" x="121.712891"/>
      <use xlink:href="#DejaVuSans-74" x="173.8125"/>
      <use xlink:href="#DejaVuSans-61" x="213.021484"/>
      <use xlink:href="#DejaVuSans-6e" x="274.300781"/>
      <use xlink:href="#DejaVuSans-64" x="337.679688"/>
      <use xlink:href="#DejaVuSans-20" x="401.15625"/>
      <use xlink:href="#DejaVuSans-66" x="432.943359"/>
      <use xlink:href="#DejaVuSans-72" x="468.148438"/>
      <use xlink:href="#DejaVuSans-61" x="509.261719"/>
      <use xlink:href="#DejaVuSans-20" x="570.541016"/>
      <use xlink:href="#DejaVuSans-73" x="602.328125"/>
      <use xlink:href="#DejaVuSans-65" x="654.427734"/>
      <use xlink:href="#DejaVuSans-6e" x="715.951172"/>
      <use xlink:href="#DejaVuSans-74" x="779.330078"/>
      <use xlink:href="#DejaVuSans-65" x="818.539062"/>
      <use xlink:href="#DejaVuSans-72" x="880.0625"/>
      <use xlink:href="#DejaVuSans-6c" x="921.175781"/>
      <use xlink:href="#DejaVuSans-69" x="948.958984"/>
      <use xlink:href="#DejaVuSans-6e" x="976.742188"/>
      <use xlink:href="#DejaVuSans-6a" x="1040.121094"/>
      <use xlink:href="#DejaVuSans-65" x="1067.904297"/>
      <use xlink:href="#DejaVuSans-20" x="1129.427734"/>
      <use xlink:href="#DejaVuSans-28" x="1161.214844"/>
      <use xlink:href="#DejaVuSans-6d" x="1200.228516"/>
      <use xlink:href="#DejaVuSans-29" x="1297.640625"/>
     </g>
    </g>
   </g>
   <g id="matplotlib.axis_2">
    <g id="ytick_1">
     <g id="line2d_67">
      <path d="M 33.82 634.764467 
L 956.497165 634.764467 
" clip-path="url(#p6910ed4a77)" style="fill: none; stroke: #aaaaaa; stroke-width: 0.5; stroke-linecap: square"/>
     </g>
     <g id="line2d_68">
      <defs>
       <path id="m3a534fad6a" d="M 0 0 
L -3.5 0 
" style="stroke: #000000; stroke-width: 0.8"/>
      </defs>
      <g>
       <use xlink:href="#m3a534fad6a" x="33.82" y="634.764467" style="stroke: #000000; stroke-width: 0.8"/>
      </g>
     </g>
     <g id="text_8">
      <!-- −4 -->
      <g transform="translate(17.974688 637.043999) scale(0.06 -0.06)">
       <defs>
        <path id="DejaVuSans-34" d="M 2419 4116 
L 825 1625 
L 2419 1625 
L 2419 4116 
z
M 2253 4666 
L 3047 4666 
L 3047 1625 
L 3713 1625 
L 3713 1100 
L 3047 1100 
L 3047 0 
L 2419 0 
L 2419 1100 
L 313 1100 
L 313 1709 
L 2253 4666 
z
" transform="scale(0.015625)"/>
       </defs>
       <use xlink:href="#DejaVuSans-2212"/>
       <use xlink:href="#DejaVuSans-34" x="83.789062"/>
      </g>
     </g>
    </g>
    <g id="ytick_2">
     <g id="line2d_69">
      <path d="M 33.82 598.238211 
L 956.497165 598.238211 
" clip-path="url(#p6910ed4a77)" style="fill: none; stroke: #aaaaaa; stroke-width: 0.5; stroke-linecap: square"/>
     </g>
     <g id="line2d_70">
      <g>
       <use xlink:href="#m3a534fad6a" x="33.82" y="598.238211" style="stroke: #000000; stroke-width: 0.8"/>
      </g>
     </g>
     <g id="text_9">
      <!-- −3 -->
      <g transform="translate(17.974688 600.517743) scale(0.06 -0.06)">
       <defs>
        <path id="DejaVuSans-33" d="M 2597 2516 
Q 3050 2419 3304 2112 
Q 3559 1806 3559 1356 
Q 3559 666 3084 287 
Q 2609 -91 1734 -91 
Q 1441 -91 1130 -33 
Q 819 25 488 141 
L 488 750 
Q 750 597 1062 519 
Q 1375 441 1716 441 
Q 2309 441 2620 675 
Q 2931 909 2931 1356 
Q 2931 1769 2642 2001 
Q 2353 2234 1838 2234 
L 1294 2234 
L 1294 2753 
L 1863 2753 
Q 2328 2753 2575 2939 
Q 2822 3125 2822 3475 
Q 2822 3834 2567 4026 
Q 2313 4219 1838 4219 
Q 1578 4219 1281 4162 
Q 984 4106 628 3988 
L 628 4550 
Q 988 4650 1302 4700 
Q 1616 4750 1894 4750 
Q 2613 4750 3031 4423 
Q 3450 4097 3450 3541 
Q 3450 3153 3228 2886 
Q 3006 2619 2597 2516 
z
" transform="scale(0.015625)"/>
       </defs>
       <use xlink:href="#DejaVuSans-2212"/>
       <use xlink:href="#DejaVuSans-33" x="83.789062"/>
      </g>
     </g>
    </g>
    <g id="ytick_3">
     <g id="line2d_71">
      <path d="M 33.82 561.711955 
L 956.497165 561.711955 
" clip-path="url(#p6910ed4a77)" style="fill: none; stroke: #aaaaaa; stroke-width: 0.5; stroke-linecap: square"/>
     </g>
     <g id="line2d_72">
      <g>
       <use xlink:href="#m3a534fad6a" x="33.82" y="561.711955" style="stroke: #000000; stroke-width: 0.8"/>
      </g>
     </g>
     <g id="text_10">
      <!-- −2 -->
      <g transform="translate(17.974688 563.991486) scale(0.06 -0.06)">
       <defs>
        <path id="DejaVuSans-32" d="M 1228 531 
L 3431 531 
L 3431 0 
L 469 0 
L 469 531 
Q 828 903 1448 1529 
Q 2069 2156 2228 2338 
Q 2531 2678 2651 2914 
Q 2772 3150 2772 3378 
Q 2772 3750 2511 3984 
Q 2250 4219 1831 4219 
Q 1534 4219 1204 4116 
Q 875 4013 500 3803 
L 500 4441 
Q 881 4594 1212 4672 
Q 1544 4750 1819 4750 
Q 2544 4750 2975 4387 
Q 3406 4025 3406 3419 
Q 3406 3131 3298 2873 
Q 3191 2616 2906 2266 
Q 2828 2175 2409 1742 
Q 1991 1309 1228 531 
z
" transform="scale(0.015625)"/>
       </defs>
       <use xlink:href="#DejaVuSans-2212"/>
       <use xlink:href="#DejaVuSans-32" x="83.789062"/>
      </g>
     </g>
    </g>
    <g id="ytick_4">
     <g id="line2d_73">
      <path d="M 33.82 525.185699 
L 956.497165 525.185699 
" clip-path="url(#p6910ed4a77)" style="fill: none; stroke: #aaaaaa; stroke-width: 0.5; stroke-linecap: square"/>
     </g>
     <g id="line2d_74">
      <g>
       <use xlink:href="#m3a534fad6a" x="33.82" y="525.185699" style="stroke: #000000; stroke-width: 0.8"/>
      </g>
     </g>
     <g id="text_11">
      <!-- −1 -->
      <g transform="translate(17.974688 527.46523) scale(0.06 -0.06)">
       <use xlink:href="#DejaVuSans-2212"/>
       <use xlink:href="#DejaVuSans-31" x="83.789062"/>
      </g>
     </g>
    </g>
    <g id="ytick_5">
     <g id="line2d_75">
      <path d="M 33.82 488.659443 
L 956.497165 488.659443 
" clip-path="url(#p6910ed4a77)" style="fill: none; stroke: #aaaaaa; stroke-width: 0.5; stroke-linecap: square"/>
     </g>
     <g id="line2d_76">
      <g>
       <use xlink:href="#m3a534fad6a" x="33.82" y="488.659443" style="stroke: #000000; stroke-width: 0.8"/>
      </g>
     </g>
     <g id="text_12">
      <!-- 0 -->
      <g transform="translate(23.0025 490.938974) scale(0.06 -0.06)">
       <use xlink:href="#DejaVuSans-30"/>
      </g>
     </g>
    </g>
    <g id="ytick_6">
     <g id="line2d_77">
      <path d="M 33.82 452.133187 
L 956.497165 452.133187 
" clip-path="url(#p6910ed4a77)" style="fill: none; stroke: #aaaaaa; stroke-width: 0.5; stroke-linecap: square"/>
     </g>
     <g id="line2d_78">
      <g>
       <use xlink:href="#m3a534fad6a" x="33.82" y="452.133187" style="stroke: #000000; stroke-width: 0.8"/>
      </g>
     </g>
     <g id="text_13">
      <!-- 1 -->
      <g transform="translate(23.0025 454.412718) scale(0.06 -0.06)">
       <use xlink:href="#DejaVuSans-31"/>
      </g>
     </g>
    </g>
    <g id="ytick_7">
     <g id="line2d_79">
      <path d="M 33.82 415.606931 
L 956.497165 415.606931 
" clip-path="url(#p6910ed4a77)" style="fill: none; stroke: #aaaaaa; stroke-width: 0.5; stroke-linecap: square"/>
     </g>
     <g id="line2d_80">
      <g>
       <use xlink:href="#m3a534fad6a" x="33.82" y="415.606931" style="stroke: #000000; stroke-width: 0.8"/>
      </g>
     </g>
     <g id="text_14">
      <!-- 2 -->
      <g transform="translate(23.0025 417.886462) scale(0.06 -0.06)">
       <use xlink:href="#DejaVuSans-32"/>
      </g>
     </g>
    </g>
    <g id="ytick_8">
     <g id="line2d_81">
      <path d="M 33.82 379.080675 
L 956.497165 379.080675 
" clip-path="url(#p6910ed4a77)" style="fill: none; stroke: #aaaaaa; stroke-width: 0.5; stroke-linecap: square"/>
     </g>
     <g id="line2d_82">
      <g>
       <use xlink:href="#m3a534fad6a" x="33.82" y="379.080675" style="stroke: #000000; stroke-width: 0.8"/>
      </g>
     </g>
     <g id="text_15">
      <!-- 3 -->
      <g transform="translate(23.0025 381.360206) scale(0.06 -0.06)">
       <use xlink:href="#DejaVuSans-33"/>
      </g>
     </g>
    </g>
    <g id="ytick_9">
     <g id="line2d_83">
      <path d="M 33.82 342.554419 
L 956.497165 342.554419 
" clip-path="url(#p6910ed4a77)" style="fill: none; stroke: #aaaaaa; stroke-width: 0.5; stroke-linecap: square"/>
     </g>
     <g id="line2d_84">
      <g>
       <use xlink:href="#m3a534fad6a" x="33.82" y="342.554419" style="stroke: #000000; stroke-width: 0.8"/>
      </g>
     </g>
     <g id="text_16">
      <!-- 4 -->
      <g transform="translate(23.0025 344.83395) scale(0.06 -0.06)">
       <use xlink:href="#DejaVuSans-34"/>
      </g>
     </g>
    </g>
    <g id="ytick_10">
     <g id="line2d_85">
      <path d="M 33.82 306.028163 
L 956.497165 306.028163 
" clip-path="url(#p6910ed4a77)" style="fill: none; stroke: #aaaaaa; stroke-width: 0.5; stroke-linecap: square"/>
     </g>
     <g id="line2d_86">
      <g>
       <use xlink:href="#m3a534fad6a" x="33.82" y="306.028163" style="stroke: #000000; stroke-width: 0.8"/>
      </g>
     </g>
     <g id="text_17">
      <!-- 5 -->
      <g transform="translate(23.0025 308.307694) scale(0.06 -0.06)">
       <use xlink:href="#DejaVuSans-35"/>
      </g>
     </g>
    </g>
    <g id="ytick_11">
     <g id="line2d_87">
      <path d="M 33.82 269.501907 
L 956.497165 269.501907 
" clip-path="url(#p6910ed4a77)" style="fill: none; stroke: #aaaaaa; stroke-width: 0.5; stroke-linecap: square"/>
     </g>
     <g id="line2d_88">
      <g>
       <use xlink:href="#m3a534fad6a" x="33.82" y="269.501907" style="stroke: #000000; stroke-width: 0.8"/>
      </g>
     </g>
     <g id="text_18">
      <!-- 6 -->
      <g transform="translate(23.0025 271.781438) scale(0.06 -0.06)">
       <defs>
        <path id="DejaVuSans-36" d="M 2113 2584 
Q 1688 2584 1439 2293 
Q 1191 2003 1191 1497 
Q 1191 994 1439 701 
Q 1688 409 2113 409 
Q 2538 409 2786 701 
Q 3034 994 3034 1497 
Q 3034 2003 2786 2293 
Q 2538 2584 2113 2584 
z
M 3366 4563 
L 3366 3988 
Q 3128 4100 2886 4159 
Q 2644 4219 2406 4219 
Q 1781 4219 1451 3797 
Q 1122 3375 1075 2522 
Q 1259 2794 1537 2939 
Q 1816 3084 2150 3084 
Q 2853 3084 3261 2657 
Q 3669 2231 3669 1497 
Q 3669 778 3244 343 
Q 2819 -91 2113 -91 
Q 1303 -91 875 529 
Q 447 1150 447 2328 
Q 447 3434 972 4092 
Q 1497 4750 2381 4750 
Q 2619 4750 2861 4703 
Q 3103 4656 3366 4563 
z
" transform="scale(0.015625)"/>
       </defs>
       <use xlink:href="#DejaVuSans-36"/>
      </g>
     </g>
    </g>
    <g id="ytick_12">
     <g id="line2d_89">
      <path d="M 33.82 232.975651 
L 956.497165 232.975651 
" clip-path="url(#p6910ed4a77)" style="fill: none; stroke: #aaaaaa; stroke-width: 0.5; stroke-linecap: square"/>
     </g>
     <g id="line2d_90">
      <g>
       <use xlink:href="#m3a534fad6a" x="33.82" y="232.975651" style="stroke: #000000; stroke-width: 0.8"/>
      </g>
     </g>
     <g id="text_19">
      <!-- 7 -->
      <g transform="translate(23.0025 235.255182) scale(0.06 -0.06)">
       <defs>
        <path id="DejaVuSans-37" d="M 525 4666 
L 3525 4666 
L 3525 4397 
L 1831 0 
L 1172 0 
L 2766 4134 
L 525 4134 
L 525 4666 
z
" transform="scale(0.015625)"/>
       </defs>
       <use xlink:href="#DejaVuSans-37"/>
      </g>
     </g>
    </g>
    <g id="ytick_13">
     <g id="line2d_91">
      <path d="M 33.82 196.449395 
L 956.497165 196.449395 
" clip-path="url(#p6910ed4a77)" style="fill: none; stroke: #aaaaaa; stroke-width: 0.5; stroke-linecap: square"/>
     </g>
     <g id="line2d_92">
      <g>
       <use xlink:href="#m3a534fad6a" x="33.82" y="196.449395" style="stroke: #000000; stroke-width: 0.8"/>
      </g>
     </g>
     <g id="text_20">
      <!-- 8 -->
      <g transform="translate(23.0025 198.728926) scale(0.06 -0.06)">
       <defs>
        <path id="DejaVuSans-38" d="M 2034 2216 
Q 1584 2216 1326 1975 
Q 1069 1734 1069 1313 
Q 1069 891 1326 650 
Q 1584 409 2034 409 
Q 2484 409 2743 651 
Q 3003 894 3003 1313 
Q 3003 1734 2745 1975 
Q 2488 2216 2034 2216 
z
M 1403 2484 
Q 997 2584 770 2862 
Q 544 3141 544 3541 
Q 544 4100 942 4425 
Q 1341 4750 2034 4750 
Q 2731 4750 3128 4425 
Q 3525 4100 3525 3541 
Q 3525 3141 3298 2862 
Q 3072 2584 2669 2484 
Q 3125 2378 3379 2068 
Q 3634 1759 3634 1313 
Q 3634 634 3220 271 
Q 2806 -91 2034 -91 
Q 1263 -91 848 271 
Q 434 634 434 1313 
Q 434 1759 690 2068 
Q 947 2378 1403 2484 
z
M 1172 3481 
Q 1172 3119 1398 2916 
Q 1625 2713 2034 2713 
Q 2441 2713 2670 2916 
Q 2900 3119 2900 3481 
Q 2900 3844 2670 4047 
Q 2441 4250 2034 4250 
Q 1625 4250 1398 4047 
Q 1172 3844 1172 3481 
z
" transform="scale(0.015625)"/>
       </defs>
       <use xlink:href="#DejaVuSans-38"/>
      </g>
     </g>
    </g>
    <g id="ytick_14">
     <g id="line2d_93">
      <path d="M 33.82 159.923139 
L 956.497165 159.923139 
" clip-path="url(#p6910ed4a77)" style="fill: none; stroke: #aaaaaa; stroke-width: 0.5; stroke-linecap: square"/>
     </g>
     <g id="line2d_94">
      <g>
       <use xlink:href="#m3a534fad6a" x="33.82" y="159.923139" style="stroke: #000000; stroke-width: 0.8"/>
      </g>
     </g>
     <g id="text_21">
      <!-- 9 -->
      <g transform="translate(23.0025 162.20267) scale(0.06 -0.06)">
       <defs>
        <path id="DejaVuSans-39" d="M 703 97 
L 703 672 
Q 941 559 1184 500 
Q 1428 441 1663 441 
Q 2288 441 2617 861 
Q 2947 1281 2994 2138 
Q 2813 1869 2534 1725 
Q 2256 1581 1919 1581 
Q 1219 1581 811 2004 
Q 403 2428 403 3163 
Q 403 3881 828 4315 
Q 1253 4750 1959 4750 
Q 2769 4750 3195 4129 
Q 3622 3509 3622 2328 
Q 3622 1225 3098 567 
Q 2575 -91 1691 -91 
Q 1453 -91 1209 -44 
Q 966 3 703 97 
z
M 1959 2075 
Q 2384 2075 2632 2365 
Q 2881 2656 2881 3163 
Q 2881 3666 2632 3958 
Q 2384 4250 1959 4250 
Q 1534 4250 1286 3958 
Q 1038 3666 1038 3163 
Q 1038 2656 1286 2365 
Q 1534 2075 1959 2075 
z
" transform="scale(0.015625)"/>
       </defs>
       <use xlink:href="#DejaVuSans-39"/>
      </g>
     </g>
    </g>
    <g id="ytick_15">
     <g id="line2d_95">
      <path d="M 33.82 123.396882 
L 956.497165 123.396882 
" clip-path="url(#p6910ed4a77)" style="fill: none; stroke: #aaaaaa; stroke-width: 0.5; stroke-linecap: square"/>
     </g>
     <g id="line2d_96">
      <g>
       <use xlink:href="#m3a534fad6a" x="33.82" y="123.396882" style="stroke: #000000; stroke-width: 0.8"/>
      </g>
     </g>
     <g id="text_22">
      <!-- 10 -->
      <g transform="translate(19.185 125.676414) scale(0.06 -0.06)">
       <use xlink:href="#DejaVuSans-31"/>
       <use xlink:href="#DejaVuSans-30" x="63.623047"/>
      </g>
     </g>
    </g>
    <g id="ytick_16">
     <g id="line2d_97">
      <path d="M 33.82 86.870626 
L 956.497165 86.870626 
" clip-path="url(#p6910ed4a77)" style="fill: none; stroke: #aaaaaa; stroke-width: 0.5; stroke-linecap: square"/>
     </g>
     <g id="line2d_98">
      <g>
       <use xlink:href="#m3a534fad6a" x="33.82" y="86.870626" style="stroke: #000000; stroke-width: 0.8"/>
      </g>
     </g>
     <g id="text_23">
      <!-- 11 -->
      <g transform="translate(19.185 89.150158) scale(0.06 -0.06)">
       <use xlink:href="#DejaVuSans-31"/>
       <use xlink:href="#DejaVuSans-31" x="63.623047"/>
      </g>
     </g>
    </g>
    <g id="ytick_17">
     <g id="line2d_99">
      <path d="M 33.82 50.34437 
L 956.497165 50.34437 
" clip-path="url(#p6910ed4a77)" style="fill: none; stroke: #aaaaaa; stroke-width: 0.5; stroke-linecap: square"/>
     </g>
     <g id="line2d_100">
      <g>
       <use xlink:href="#m3a534fad6a" x="33.82" y="50.34437" style="stroke: #000000; stroke-width: 0.8"/>
      </g>
     </g>
     <g id="text_24">
      <!-- 12 -->
      <g transform="translate(19.185 52.623902) scale(0.06 -0.06)">
       <use xlink:href="#DejaVuSans-31"/>
       <use xlink:href="#DejaVuSans-32" x="63.623047"/>
      </g>
     </g>
    </g>
    <g id="text_25">
     <!-- Høyde (m) -->
     <g transform="translate(12.518906 362.63959) rotate(-90) scale(0.07 -0.07)">
      <defs>
       <path id="DejaVuSans-48" d="M 628 4666 
L 1259 4666 
L 1259 2753 
L 3553 2753 
L 3553 4666 
L 4184 4666 
L 4184 0 
L 3553 0 
L 3553 2222 
L 1259 2222 
L 1259 0 
L 628 0 
L 628 4666 
z
" transform="scale(0.015625)"/>
       <path id="DejaVuSans-f8" d="M 2828 2503 
L 1306 653 
Q 1434 522 1595 459 
Q 1756 397 1959 397 
Q 2419 397 2687 759 
Q 2956 1122 2956 1747 
Q 2956 1994 2925 2176 
Q 2894 2359 2828 2503 
z
M 2606 2841 
Q 2475 2969 2314 3033 
Q 2153 3097 1959 3097 
Q 1488 3097 1223 2730 
Q 959 2363 959 1703 
Q 959 1478 989 1306 
Q 1019 1134 1081 991 
L 2606 2841 
z
M 691 519 
Q 522 759 437 1067 
Q 353 1375 353 1747 
Q 353 2609 779 3096 
Q 1206 3584 1959 3584 
Q 2250 3584 2498 3504 
Q 2747 3425 2956 3263 
L 3391 3788 
L 3688 3541 
L 3231 2981 
Q 3397 2741 3481 2431 
Q 3566 2122 3566 1747 
Q 3566 888 3137 398 
Q 2709 -91 1959 -91 
Q 1659 -91 1407 -9 
Q 1156 72 959 231 
L 525 -294 
L 225 -50 
L 691 519 
z
" transform="scale(0.015625)"/>
       <path id="DejaVuSans-79" d="M 2059 -325 
Q 1816 -950 1584 -1140 
Q 1353 -1331 966 -1331 
L 506 -1331 
L 506 -850 
L 844 -850 
Q 1081 -850 1212 -737 
Q 1344 -625 1503 -206 
L 1606 56 
L 191 3500 
L 800 3500 
L 1894 763 
L 2988 3500 
L 3597 3500 
L 2059 -325 
z
" transform="scale(0.015625)"/>
      </defs>
      <use xlink:href="#DejaVuSans-48"/>
      <use xlink:href="#DejaVuSans-f8" x="75.195312"/>
      <use xlink:href="#DejaVuSans-79" x="136.376953"/>
      <use xlink:href="#DejaVuSans-64" x="195.556641"/>
      <use xlink:href="#DejaVuSans-65" x="259.033203"/>
      <use xlink:href="#DejaVuSans-20" x="320.556641"/>
      <use xlink:href="#DejaVuSans-28" x="352.34375"/>
      <use xlink:href="#DejaVuSans-6d" x="391.357422"/>
      <use xlink:href="#DejaVuSans-29" x="488.769531"/>
     </g>
    </g>
   </g>
   <g id="line2d_101">
    <path d="M 583.710902 668.293712 
L 583.710902 20.038594 
" clip-path="url(#p6910ed4a77)" style="fill: none; stroke-dasharray: 0.5,0.825; stroke-dashoffset: 0; stroke: #000000; stroke-width: 0.5"/>
   </g>
   <g id="line2d_102">
    <path d="M 33.82 546.869689 
L 956.497165 546.869689 
" clip-path="url(#p6910ed4a77)" style="fill: none; stroke: #000000; stroke-width: 0.8; stroke-linecap: square"/>
   </g>
   <g id="cs:terreng">
    <path d="M -1 471.776845 
L 10.201245 471.990864 
L 67.552211 471.260339 
L 124.903177 470.895076 
L 182.254142 465.050875 
L 239.605108 468.338238 
L 296.956074 471.625601 
L 354.30704 442.039334 
L 411.658005 377.022598 
L 469.008971 350.358431 
L 526.359937 340.861604 
L 583.710902 334.652141 
L 641.061868 325.520577 
L 698.412834 305.796399 
L 755.763799 301.413248 
L 813.114765 297.39536 
L 870.465731 292.281684 
L 927.816696 287.533271 
L 985.167662 286.07222 
L 1042.518628 279.132232 
L 1059.94126 275.914305 
" clip-path="url(#p6910ed4a77)" style="fill: none; stroke: #000000; stroke-width: 0.8; stroke-linecap: square"/>
   </g>
   <g id="line2d_103">
    <path clip-path="url(#p6910ed4a77)" style="fill: none; stroke: #000000; stroke-width: 0.6; stroke-linecap: square"/>
   </g>
   <g id="line2d_104">
    <path clip-path="url(#p6910ed4a77)" style="fill: none; stroke: #000000; stroke-width: 0.6; stroke-linecap: square"/>
   </g>
   <g id="line2d_105">
    <path clip-path="url(#p6910ed4a77)" style="fill: none; stroke: #000000; stroke-width: 0.6; stroke-linecap: square"/>
   </g>
   <g id="line2d_106">
    <path clip-path="url(#p6910ed4a77)" style="fill: none; stroke: #000000; stroke-width: 0.6; stroke-linecap: square"/>
   </g>
   <g id="line2d_107">
    <path clip-path="url(#p6910ed4a77)" style="fill: none; stroke: #000000; stroke-width: 0.6; stroke-linecap: square"/>
   </g>
   <g id="line2d_108">
    <path clip-path="url(#p6910ed4a77)" style="fill: none; stroke: #000000; stroke-width: 0.6; stroke-linecap: square"/>
   </g>
   <g id="line2d_109">
    <path clip-path="url(#p6910ed4a77)" style="fill: none; stroke: #000000; stroke-width: 0.6; stroke-linecap: square"/>
   </g>
   <g id="line2d_110">
    <path clip-path="url(#p6910ed4a77)" style="fill: none; stroke: #000000; stroke-width: 0.6; stroke-linecap: square"/>
   </g>
   <g id="line2d_111">
    <path clip-path="url(#p6910ed4a77)" style="fill: none; stroke: #000000; stroke-width: 0.6; stroke-linecap: square"/>
   </g>
   <g id="line2d_112">
    <path clip-path="url(#p6910ed4a77)" style="fill: none; stroke: #000000; stroke-width: 0.6; stroke-linecap: square"/>
   </g>
   <g id="line2d_113">
    <path clip-path="url(#p6910ed4a77)" style="fill: none; stroke: #000000; stroke-width: 0.6; stroke-linecap: square"/>
   </g>
   <g id="line2d_114">
    <path clip-path="url(#p6910ed4a77)" style="fill: none; stroke: #000000; stroke-width: 0.6; stroke-linecap: square"/>
   </g>
   <g id="line2d_115">
    <path clip-path="url(#p6910ed4a77)" style="fill: none; stroke: #000000; stroke-width: 0.6; stroke-linecap: square"/>
   </g>
   <g id="line2d_116">
    <path clip-path="url(#p6910ed4a77)" style="fill: none; stroke: #000000; stroke-width: 0.6; stroke-linecap: square"/>
   </g>
   <g id="line2d_117">
    <path clip-path="url(#p6910ed4a77)" style="fill: none; stroke: #000000; stroke-width: 0.6; stroke-linecap: square"/>
   </g>
   <g id="line2d_118">
    <path clip-path="url(#p6910ed4a77)" style="fill: none; stroke: #000000; stroke-width: 0.6; stroke-linecap: square"/>
   </g>
   <g id="line2d_119">
    <path clip-path="url(#p6910ed4a77)" style="fill: none; stroke: #000000; stroke-width: 0.6; stroke-linecap: square"/>
   </g>
   <g id="line2d_120">
    <path clip-path="url(#p6910ed4a77)" style="fill: none; stroke: #000000; stroke-width: 0.6; stroke-linecap: square"/>
   </g>
   <g id="line2d_121">
    <path clip-path="url(#p6910ed4a77)" style="fill: none; stroke: #000000; stroke-width: 0.6; stroke-linecap: square"/>
   </g>
   <g id="line2d_122">
    <path clip-path="url(#p6910ed4a77)" style="fill: none; stroke: #000000; stroke-width: 0.6; stroke-linecap: square"/>
   </g>
   <g id="line2d_123">
    <path d="M 22.232848 471.837607 
L 19.78095 463.256744 
" clip-path="url(#p6910ed4a77)" style="fill: none; stroke: #000000; stroke-width: 0.6; stroke-linecap: square"/>
   </g>
   <g id="line2d_124">
    <path d="M 51.056063 471.470463 
L 48.604165 462.8896 
" clip-path="url(#p6910ed4a77)" style="fill: none; stroke: #000000; stroke-width: 0.6; stroke-linecap: square"/>
   </g>
   <g id="line2d_125">
    <path d="M 79.87974 471.181826 
L 77.427842 462.600962 
" clip-path="url(#p6910ed4a77)" style="fill: none; stroke: #000000; stroke-width: 0.6; stroke-linecap: square"/>
   </g>
   <g id="line2d_126">
    <path d="M 108.704036 470.998247 
L 106.252138 462.417383 
" clip-path="url(#p6910ed4a77)" style="fill: none; stroke: #000000; stroke-width: 0.6; stroke-linecap: square"/>
   </g>
   <g id="line2d_127">
    <path d="M 137.488282 469.612624 
L 135.036384 461.03176 
" clip-path="url(#p6910ed4a77)" style="fill: none; stroke: #000000; stroke-width: 0.6; stroke-linecap: square"/>
   </g>
   <g id="line2d_128">
    <path d="M 166.221139 466.684676 
L 163.769241 458.103813 
" clip-path="url(#p6910ed4a77)" style="fill: none; stroke: #000000; stroke-width: 0.6; stroke-linecap: square"/>
   </g>
   <g id="line2d_129">
    <path d="M 194.981692 465.780419 
L 192.529794 457.199556 
" clip-path="url(#p6910ed4a77)" style="fill: none; stroke: #000000; stroke-width: 0.6; stroke-linecap: square"/>
   </g>
   <g id="line2d_130">
    <path d="M 223.777207 467.430981 
L 221.325309 458.850118 
" clip-path="url(#p6910ed4a77)" style="fill: none; stroke: #000000; stroke-width: 0.6; stroke-linecap: square"/>
   </g>
   <g id="line2d_131">
    <path d="M 252.572723 469.081543 
L 250.120825 460.50068 
" clip-path="url(#p6910ed4a77)" style="fill: none; stroke: #000000; stroke-width: 0.6; stroke-linecap: square"/>
   </g>
   <g id="line2d_132">
    <path d="M 281.368238 470.732105 
L 278.91634 462.151241 
" clip-path="url(#p6910ed4a77)" style="fill: none; stroke: #000000; stroke-width: 0.6; stroke-linecap: square"/>
   </g>
   <g id="line2d_133">
    <path d="M 309.210265 465.303898 
L 306.758367 456.723035 
" clip-path="url(#p6910ed4a77)" style="fill: none; stroke: #000000; stroke-width: 0.6; stroke-linecap: square"/>
   </g>
   <g id="line2d_134">
    <path d="M 335.926976 451.521257 
L 333.475077 442.940394 
" clip-path="url(#p6910ed4a77)" style="fill: none; stroke: #000000; stroke-width: 0.6; stroke-linecap: square"/>
   </g>
   <g id="line2d_135">
    <path d="M 361.025835 434.422476 
L 358.573937 425.841613 
" clip-path="url(#p6910ed4a77)" style="fill: none; stroke: #000000; stroke-width: 0.6; stroke-linecap: square"/>
   </g>
   <g id="line2d_136">
    <path d="M 382.557768 410.012495 
L 380.10587 401.431632 
" clip-path="url(#p6910ed4a77)" style="fill: none; stroke: #000000; stroke-width: 0.6; stroke-linecap: square"/>
   </g>
   <g id="line2d_137">
    <path d="M 404.089701 385.602514 
L 401.637802 377.021651 
" clip-path="url(#p6910ed4a77)" style="fill: none; stroke: #000000; stroke-width: 0.6; stroke-linecap: square"/>
   </g>
   <g id="line2d_138">
    <path d="M 429.217876 368.858492 
L 426.765978 360.277629 
" clip-path="url(#p6910ed4a77)" style="fill: none; stroke: #000000; stroke-width: 0.6; stroke-linecap: square"/>
   </g>
   <g id="line2d_139">
    <path d="M 456.29522 356.269431 
L 453.843322 347.688568 
" clip-path="url(#p6910ed4a77)" style="fill: none; stroke: #000000; stroke-width: 0.6; stroke-linecap: square"/>
   </g>
   <g id="line2d_140">
    <path d="M 484.171863 347.847586 
L 481.719965 339.266723 
" clip-path="url(#p6910ed4a77)" style="fill: none; stroke: #000000; stroke-width: 0.6; stroke-linecap: square"/>
   </g>
   <g id="line2d_141">
    <path d="M 512.755996 343.1143 
L 510.304097 334.533437 
" clip-path="url(#p6910ed4a77)" style="fill: none; stroke: #000000; stroke-width: 0.6; stroke-linecap: square"/>
   </g>
   <g id="line2d_142">
    <path d="M 541.411903 339.231908 
L 538.960004 330.651045 
" clip-path="url(#p6910ed4a77)" style="fill: none; stroke: #000000; stroke-width: 0.6; stroke-linecap: square"/>
   </g>
   <g id="line2d_143">
    <path d="M 570.132991 336.122239 
L 567.681092 327.541376 
" clip-path="url(#p6910ed4a77)" style="fill: none; stroke: #000000; stroke-width: 0.6; stroke-linecap: square"/>
   </g>
   <g id="line2d_144">
    <path d="M 598.791326 332.250998 
L 596.339428 323.670135 
" clip-path="url(#p6910ed4a77)" style="fill: none; stroke: #000000; stroke-width: 0.6; stroke-linecap: square"/>
   </g>
   <g id="line2d_145">
    <path d="M 627.393394 327.696905 
L 624.941496 319.116042 
" clip-path="url(#p6910ed4a77)" style="fill: none; stroke: #000000; stroke-width: 0.6; stroke-linecap: square"/>
   </g>
   <g id="line2d_146">
    <path d="M 655.591394 320.523574 
L 653.139496 311.94271 
" clip-path="url(#p6910ed4a77)" style="fill: none; stroke: #000000; stroke-width: 0.6; stroke-linecap: square"/>
   </g>
   <g id="line2d_147">
    <path d="M 683.419555 310.952896 
L 680.967657 302.372032 
" clip-path="url(#p6910ed4a77)" style="fill: none; stroke: #000000; stroke-width: 0.6; stroke-linecap: square"/>
   </g>
   <g id="line2d_148">
    <path d="M 711.683454 304.782168 
L 709.231555 296.201304 
" clip-path="url(#p6910ed4a77)" style="fill: none; stroke: #000000; stroke-width: 0.6; stroke-linecap: square"/>
   </g>
   <g id="line2d_149">
    <path d="M 740.456365 302.583146 
L 738.004467 294.002283 
" clip-path="url(#p6910ed4a77)" style="fill: none; stroke: #000000; stroke-width: 0.6; stroke-linecap: square"/>
   </g>
   <g id="line2d_150">
    <path d="M 769.233136 300.469614 
L 766.781237 291.888751 
" clip-path="url(#p6910ed4a77)" style="fill: none; stroke: #000000; stroke-width: 0.6; stroke-linecap: square"/>
   </g>
   <g id="line2d_151">
    <path d="M 798.014293 298.453267 
L 795.562395 289.872404 
" clip-path="url(#p6910ed4a77)" style="fill: none; stroke: #000000; stroke-width: 0.6; stroke-linecap: square"/>
   </g>
   <g id="line2d_152">
    <path d="M 826.782682 296.176665 
L 824.330784 287.595802 
" clip-path="url(#p6910ed4a77)" style="fill: none; stroke: #000000; stroke-width: 0.6; stroke-linecap: square"/>
   </g>
   <g id="line2d_153">
    <path d="M 855.536976 293.6128 
L 853.085078 285.031937 
" clip-path="url(#p6910ed4a77)" style="fill: none; stroke: #000000; stroke-width: 0.6; stroke-linecap: square"/>
   </g>
   <g id="line2d_154">
    <path d="M 884.295916 291.136604 
L 881.844018 282.555741 
" clip-path="url(#p6910ed4a77)" style="fill: none; stroke: #000000; stroke-width: 0.6; stroke-linecap: square"/>
   </g>
   <g id="line2d_155">
    <path d="M 913.059872 288.755072 
L 910.607974 280.174209 
" clip-path="url(#p6910ed4a77)" style="fill: none; stroke: #000000; stroke-width: 0.6; stroke-linecap: square"/>
   </g>
   <g id="line2d_156">
    <path d="M 941.850581 287.175749 
L 939.398683 278.594886 
" clip-path="url(#p6910ed4a77)" style="fill: none; stroke: #000000; stroke-width: 0.6; stroke-linecap: square"/>
   </g>
   <g id="line2d_157">
    <path d="M 970.669474 286.44157 
L 968.217576 277.860707 
" clip-path="url(#p6910ed4a77)" style="fill: none; stroke: #000000; stroke-width: 0.6; stroke-linecap: square"/>
   </g>
   <g id="line2d_158">
    <path d="M 999.42703 284.346707 
L 996.975132 275.765844 
" clip-path="url(#p6910ed4a77)" style="fill: none; stroke: #000000; stroke-width: 0.6; stroke-linecap: square"/>
   </g>
   <g id="line2d_159">
    <path d="M 1028.122489 280.874295 
L 1025.670591 272.293432 
" clip-path="url(#p6910ed4a77)" style="fill: none; stroke: #000000; stroke-width: 0.6; stroke-linecap: square"/>
   </g>
   <g id="line2d_160">
    <path d="M 1056.73367 276.50674 
L 1054.281772 267.925877 
" clip-path="url(#p6910ed4a77)" style="fill: none; stroke: #000000; stroke-width: 0.6; stroke-linecap: square"/>
   </g>
   <g id="line2d_161">
    <path clip-path="url(#p6910ed4a77)" style="fill: none; stroke: #000000; stroke-width: 0.6; stroke-linecap: square"/>
   </g>
   <g id="line2d_162">
    <path clip-path="url(#p6910ed4a77)" style="fill: none; stroke: #000000; stroke-width: 0.6; stroke-linecap: square"/>
   </g>
   <g id="line2d_163">
    <path clip-path="url(#p6910ed4a77)" style="fill: none; stroke: #000000; stroke-width: 0.6; stroke-linecap: square"/>
   </g>
   <g id="line2d_164">
    <path clip-path="url(#p6910ed4a77)" style="fill: none; stroke: #000000; stroke-width: 0.6; stroke-linecap: square"/>
   </g>
   <g id="line2d_165">
    <path clip-path="url(#p6910ed4a77)" style="fill: none; stroke: #000000; stroke-width: 0.6; stroke-linecap: square"/>
   </g>
   <g id="line2d_166">
    <path clip-path="url(#p6910ed4a77)" style="fill: none; stroke: #000000; stroke-width: 0.6; stroke-linecap: square"/>
   </g>
   <g id="line2d_167">
    <path clip-path="url(#p6910ed4a77)" style="fill: none; stroke: #000000; stroke-width: 0.6; stroke-linecap: square"/>
   </g>
   <g id="line2d_168">
    <path clip-path="url(#p6910ed4a77)" style="fill: none; stroke: #000000; stroke-width: 0.6; stroke-linecap: square"/>
   </g>
   <g id="line2d_169">
    <path clip-path="url(#p6910ed4a77)" style="fill: none; stroke: #000000; stroke-width: 0.6; stroke-linecap: square"/>
   </g>
   <g id="line2d_170">
    <path clip-path="url(#p6910ed4a77)" style="fill: none; stroke: #000000; stroke-width: 0.6; stroke-linecap: square"/>
   </g>
   <g id="line2d_171">
    <path clip-path="url(#p6910ed4a77)" style="fill: none; stroke: #000000; stroke-width: 0.6; stroke-linecap: square"/>
   </g>
   <g id="line2d_172">
    <path clip-path="url(#p6910ed4a77)" style="fill: none; stroke: #000000; stroke-width: 0.6; stroke-linecap: square"/>
   </g>
   <g id="line2d_173">
    <path clip-path="url(#p6910ed4a77)" style="fill: none; stroke: #000000; stroke-width: 0.6; stroke-linecap: square"/>
   </g>
   <g id="line2d_174">
    <path clip-path="url(#p6910ed4a77)" style="fill: none; stroke: #000000; stroke-width: 0.6; stroke-linecap: square"/>
   </g>
   <g id="line2d_175">
    <path clip-path="url(#p6910ed4a77)" style="fill: none; stroke: #000000; stroke-width: 0.6; stroke-linecap: square"/>
   </g>
   <g id="line2d_176">
    <path clip-path="url(#p6910ed4a77)" style="fill: none; stroke: #000000; stroke-width: 0.6; stroke-linecap: square"/>
   </g>
   <g id="line2d_177">
    <path clip-path="url(#p6910ed4a77)" style="fill: none; stroke: #000000; stroke-width: 0.6; stroke-linecap: square"/>
   </g>
   <g id="line2d_178">
    <path clip-path="url(#p6910ed4a77)" style="fill: none; stroke: #000000; stroke-width: 0.6; stroke-linecap: square"/>
   </g>
   <g id="line2d_179">
    <path clip-path="url(#p6910ed4a77)" style="fill: none; stroke: #000000; stroke-width: 0.6; stroke-linecap: square"/>
   </g>
   <g id="line2d_180">
    <path clip-path="url(#p6910ed4a77)" style="fill: none; stroke: #000000; stroke-width: 0.6; stroke-linecap: square"/>
   </g>
   <g id="line2d_181">
    <path clip-path="url(#p6910ed4a77)" style="fill: none; stroke: #000000; stroke-width: 0.6; stroke-linecap: square"/>
   </g>
   <g id="line2d_182">
    <path clip-path="url(#p6910ed4a77)" style="fill: none; stroke: #000000; stroke-width: 0.6; stroke-linecap: square"/>
   </g>
   <g id="line2d_183">
    <path clip-path="url(#p6910ed4a77)" style="fill: none; stroke: #000000; stroke-width: 0.6; stroke-linecap: square"/>
   </g>
   <g id="patch_3">
    <path d="M 33.82 668.293712 
L 33.82 20.038594 
" style="fill: none; stroke: #000000; stroke-width: 0.8; stroke-linejoin: miter; stroke-linecap: square"/>
   </g>
   <g id="patch_4">
    <path d="M 956.497165 668.293712 
L 956.497165 20.038594 
" style="fill: none; stroke: #000000; stroke-width: 0.8; stroke-linejoin: miter; stroke-linecap: square"/>
   </g>
   <g id="patch_5">
    <path d="M 33.82 668.293712 
L 956.497165 668.293712 
" style="fill: none; stroke: #000000; stroke-width: 0.8; stroke-linejoin: miter; stroke-linecap: square"/>
   </g>
   <g id="patch_6">
    <path d="M 33.82 20.038594 
L 956.497165 20.038594 
" style="fill: none; stroke: #000000; stroke-width: 0.8; stroke-linejoin: miter; stroke-linecap: square"/>
   </g>
   <g id="text_26">
    <!-- 88 -->
    <g transform="translate(43.845106 548.819845) scale(0.07 -0.07)">
     <defs>
      <path id="DejaVuSansMono-38" d="M 1925 2216 
Q 1503 2216 1273 1980 
Q 1044 1744 1044 1313 
Q 1044 881 1276 642 
Q 1509 403 1925 403 
Q 2350 403 2579 639 
Q 2809 875 2809 1313 
Q 2809 1741 2576 1978 
Q 2344 2216 1925 2216 
z
M 1375 2478 
Q 972 2581 745 2862 
Q 519 3144 519 3541 
Q 519 4097 897 4423 
Q 1275 4750 1925 4750 
Q 2578 4750 2956 4423 
Q 3334 4097 3334 3541 
Q 3334 3144 3107 2862 
Q 2881 2581 2478 2478 
Q 2947 2375 3195 2062 
Q 3444 1750 3444 1253 
Q 3444 622 3041 265 
Q 2638 -91 1925 -91 
Q 1213 -91 811 264 
Q 409 619 409 1247 
Q 409 1747 657 2061 
Q 906 2375 1375 2478 
z
M 1147 3481 
Q 1147 3106 1347 2909 
Q 1547 2713 1925 2713 
Q 2306 2713 2506 2909 
Q 2706 3106 2706 3481 
Q 2706 3863 2507 4063 
Q 2309 4263 1925 4263 
Q 1547 4263 1347 4061 
Q 1147 3859 1147 3481 
z
" transform="scale(0.015625)"/>
     </defs>
     <use xlink:href="#DejaVuSansMono-38"/>
     <use xlink:href="#DejaVuSansMono-38" x="60.205078"/>
    </g>
   </g>
   <g id="text_27">
    <!-- SL -->
    <g style="fill: #333333" transform="translate(580.134809 51.203537) scale(0.06 -0.06)">
     <defs>
      <path id="DejaVuSans-53" d="M 3425 4513 
L 3425 3897 
Q 3066 4069 2747 4153 
Q 2428 4238 2131 4238 
Q 1616 4238 1336 4038 
Q 1056 3838 1056 3469 
Q 1056 3159 1242 3001 
Q 1428 2844 1947 2747 
L 2328 2669 
Q 3034 2534 3370 2195 
Q 3706 1856 3706 1288 
Q 3706 609 3251 259 
Q 2797 -91 1919 -91 
Q 1588 -91 1214 -16 
Q 841 59 441 206 
L 441 856 
Q 825 641 1194 531 
Q 1563 422 1919 422 
Q 2459 422 2753 634 
Q 3047 847 3047 1241 
Q 3047 1584 2836 1778 
Q 2625 1972 2144 2069 
L 1759 2144 
Q 1053 2284 737 2584 
Q 422 2884 422 3419 
Q 422 4038 858 4394 
Q 1294 4750 2059 4750 
Q 2388 4750 2728 4690 
Q 3069 4631 3425 4513 
z
" transform="scale(0.015625)"/>
      <path id="DejaVuSans-4c" d="M 628 4666 
L 1259 4666 
L 1259 531 
L 3531 531 
L 3531 0 
L 628 0 
L 628 4666 
z
" transform="scale(0.015625)"/>
     </defs>
     <use xlink:href="#DejaVuSans-53"/>
     <use xlink:href="#DejaVuSans-4c" x="63.476562"/>
    </g>
   </g>
   <g id="cs:named">
    <path d="M 522.08631 492.241209 
L 524.939949 491.035076 
L 527.793588 490.924913 
L 530.647227 490.81516 
L 533.500866 490.705408 
L 536.354505 490.595656 
L 539.208144 490.485904 
L 542.061783 490.376151 
L 544.915422 490.266399 
L 547.769061 490.156647 
L 550.6227 490.046894 
L 553.476339 489.937142 
L 556.329978 489.82739 
L 559.183617 489.717638 
L 562.037256 489.607885 
L 564.890895 489.498133 
L 567.744534 489.388381 
L 570.598173 489.278628 
L 573.451812 489.168876 
L 576.305451 489.059124 
L 579.15909 488.949167 
L 582.012729 488.839182 
L 584.866368 488.729197 
L 587.720007 488.619212 
L 590.573646 488.509227 
L 593.427285 488.399242 
L 596.280924 488.289257 
L 599.134563 488.179272 
L 601.988202 488.069287 
L 604.841841 487.959303 
L 607.69548 487.849318 
L 610.549119 487.739333 
L 613.402758 487.629348 
L 616.256397 487.519363 
L 619.110036 487.409378 
L 621.963675 487.299393 
L 624.817314 487.189408 
L 627.670953 487.079686 
L 630.524592 488.066221 
" clip-path="url(#p6910ed4a77)" style="fill: none; stroke: #333333; stroke-width: 1.8; stroke-linecap: square"/>
   </g>
   <g id="cs:named">
    <path d="M 518.424735 494.573401 
L 521.238038 492.781483 
L 524.051342 492.164455 
L 526.864645 492.056254 
L 529.677949 491.948053 
L 532.491252 491.839853 
L 535.304556 491.731652 
L 538.11786 491.623451 
L 540.931163 491.51525 
L 543.744467 491.407049 
L 546.55777 491.298848 
L 549.371074 491.190647 
L 552.184377 491.082446 
L 554.997681 490.974245 
L 557.810984 490.866044 
L 560.624288 490.757843 
L 563.437591 490.649642 
L 566.250895 490.541441 
L 569.064198 490.43324 
L 571.877502 490.325039 
L 574.690805 490.216838 
L 577.504109 490.108509 
L 580.317412 490.000078 
L 583.130716 489.891648 
L 585.94402 489.783218 
L 588.757323 489.674788 
L 591.570627 489.566357 
L 594.38393 489.457927 
L 597.197234 489.349497 
L 600.010537 489.241066 
L 602.823841 489.132636 
L 605.637144 489.024206 
L 608.450448 488.915775 
L 611.263751 488.807345 
L 614.077055 488.698915 
L 616.890358 488.590484 
L 619.703662 488.482054 
L 622.516965 488.373624 
L 625.330269 488.265193 
L 628.143573 488.156763 
L 630.956876 488.34141 
L 633.77018 490.13242 
" clip-path="url(#p6910ed4a77)" style="fill: none; stroke: #555555; stroke-width: 0.5; stroke-linecap: square"/>
   </g>
   <g id="cs:named">
    <path d="M 514.76316 496.905602 
L 517.606244 495.094709 
L 520.449328 494.494219 
L 523.292412 494.384873 
L 526.135496 494.275526 
L 528.97858 494.16618 
L 531.821663 494.056834 
L 534.664747 493.947487 
L 537.507831 493.838141 
L 540.350915 493.728795 
L 543.193999 493.619448 
L 546.037083 493.510102 
L 548.880167 493.400756 
L 551.72325 493.291409 
L 554.566334 493.182063 
L 557.409418 493.072717 
L 560.252502 492.96337 
L 563.095586 492.854024 
L 565.93867 492.744678 
L 568.781754 492.635332 
L 571.624838 492.525985 
L 574.467921 492.416639 
L 577.311005 492.307063 
L 580.154089 492.197484 
L 582.997173 492.087906 
L 585.840257 491.978328 
L 588.683341 491.86875 
L 591.526425 491.759172 
L 594.369508 491.649594 
L 597.212592 491.540016 
L 600.055676 491.430438 
L 602.89876 491.32086 
L 605.741844 491.211281 
L 608.584928 491.101703 
L 611.428012 490.992125 
L 614.271096 490.882547 
L 617.114179 490.772969 
L 619.957263 490.663391 
L 622.800347 490.553813 
L 625.643431 490.444235 
L 628.486515 490.334657 
L 631.329599 490.225078 
L 634.172683 490.388652 
L 637.015766 492.19863 
" clip-path="url(#p6910ed4a77)" style="fill: none; stroke: #555555; stroke-width: 0.5; stroke-linecap: square"/>
   </g>
   <g id="cs:named">
    <path d="M 512.016979 498.654758 
L 514.864019 503.259728 
L 517.71106 507.901569 
L 520.5581 512.54341 
L 523.40514 517.185251 
L 526.25218 521.827092 
L 529.099221 521.917101 
L 531.946261 521.807602 
L 534.793301 521.698104 
L 537.640341 521.588605 
L 540.487382 521.479107 
L 543.334422 521.369608 
L 546.181462 521.26011 
L 549.028502 521.150612 
L 551.875543 521.041113 
L 554.722583 520.931615 
L 557.569623 520.821978 
L 560.416663 520.712179 
L 563.263704 520.602379 
L 566.110744 520.49258 
L 568.957784 520.38278 
L 571.804824 520.272981 
L 574.651865 520.163182 
L 577.498905 520.053895 
L 580.345945 519.944165 
L 583.192985 519.834434 
L 586.040026 519.724703 
L 588.887066 519.614973 
L 591.734106 519.505242 
L 594.581146 519.395512 
L 597.428187 519.285781 
L 600.275227 519.17605 
L 603.122267 519.06632 
L 605.969307 518.956589 
L 608.816348 518.846859 
L 611.663388 518.737128 
L 614.510428 518.627397 
L 617.357468 518.517667 
L 620.204509 518.407936 
L 623.051549 518.298206 
L 625.898589 518.188475 
L 628.745629 518.078744 
L 631.59267 517.969014 
L 634.43971 517.859283 
L 637.28675 517.749553 
L 640.13379 517.639822 
L 642.980831 517.530091 
L 645.827871 517.420361 
L 648.674911 517.31063 
L 651.521951 517.201987 
L 654.368992 517.094253 
" clip-path="url(#p6910ed4a77)" style="fill: none; stroke: #aaaaaa; stroke-width: 0.5; stroke-linecap: square"/>
   </g>
   <g id="cs:named">
    <path d="M 512.033075 498.644506 
L 514.90051 496.900224 
L 517.767945 496.788575 
L 520.63538 496.678292 
L 523.502815 496.568009 
L 526.37025 496.457726 
L 529.237685 496.347443 
L 532.10512 496.23716 
L 534.972555 496.126877 
L 537.83999 496.016595 
L 540.707425 495.906312 
L 543.57486 495.796029 
L 546.442295 495.685746 
L 549.30973 495.575463 
L 552.177165 495.46518 
L 555.0446 495.354897 
L 557.912035 495.244614 
L 560.77947 495.134332 
L 563.646905 495.024049 
L 566.51434 494.913766 
L 569.381775 494.803483 
L 572.24921 494.6932 
L 575.116645 494.582686 
L 577.98408 494.472232 
L 580.851515 494.361715 
L 583.71895 494.251199 
L 586.586385 494.140682 
L 589.45382 494.030165 
L 592.321255 493.919649 
L 595.18869 493.809132 
L 598.056125 493.698615 
L 600.92356 493.588099 
L 603.790995 493.477582 
L 606.65843 493.367066 
L 609.525865 493.256549 
L 612.3933 493.146032 
L 615.260735 493.035516 
L 618.12817 492.924999 
L 620.995605 492.814482 
L 623.86304 492.703966 
L 626.730475 492.593449 
L 629.59791 492.482932 
L 632.465345 492.372416 
L 635.33278 492.262302 
L 638.200215 492.952649 
L 641.06765 494.778055 
L 643.935085 496.603461 
L 646.80252 498.428866 
L 649.669955 500.254272 
L 652.53739 502.079678 
L 655.404825 503.905703 
" clip-path="url(#p6910ed4a77)" style="fill: none; stroke: #888888; stroke-width: 0.5; stroke-linecap: square"/>
   </g>
   <g id="cs:named">
    <path d="M 320.574828 473.817176 
L 349.26162 477.934125 
L 497.671896 498.659546 
" clip-path="url(#p6910ed4a77)" style="fill: none; stroke: #444444; stroke-width: 0.7; stroke-linecap: square"/>
   </g>
   <g id="cs:named">
    <path d="M 526.358147 489.520327 
L 512.571612 498.301129 
" clip-path="url(#p6910ed4a77)" style="fill: none; stroke: #444444; stroke-width: 0.7; stroke-linecap: square"/>
   </g>
   <g id="cs:named">
    <path d="M 498.375063 498.658845 
L 512.016979 498.654758 
" clip-path="url(#p6910ed4a77)" style="fill: none; stroke: #444444; stroke-width: 0.7; stroke-linecap: square"/>
   </g>
   <g id="cs:named">
    <path d="M 668.929183 503.903349 
L 655.407426 503.907358 
" clip-path="url(#p6910ed4a77)" style="fill: none; stroke: #444444; stroke-width: 0.7; stroke-linecap: square"/>
   </g>
   <g id="cs:named">
    <path d="M 626.738074 485.655669 
L 653.977766 502.996268 
" clip-path="url(#p6910ed4a77)" style="fill: none; stroke: #444444; stroke-width: 0.7; stroke-linecap: square"/>
   </g>
   <g id="cs:skjaering">
    <path d="M 684.521305 315.678648 
L 684.080257 321.323825 
L 669.742337 503.903646 
L 655.404825 503.905703 
L 669.742337 503.903646 
L 668.929183 503.903349 
" clip-path="url(#p6910ed4a77)" style="fill: none; stroke: #000000; stroke-linecap: square"/>
   </g>
   <g id="cs:groft">
    <path d="M 349.26162 477.934125 
L 320.574828 473.817176 
" clip-path="url(#p6910ed4a77)" style="fill: none; stroke: #000000; stroke-linecap: square"/>
   </g>
   <g id="cs:groft">
    <path d="M 669.742337 503.903646 
L 668.929183 503.903349 
L 655.407426 503.907358 
L 653.977766 502.996268 
L 626.738074 485.655669 
" clip-path="url(#p6910ed4a77)" style="fill: none; stroke: #000000; stroke-linecap: square"/>
   </g>
   <g id="cs:groft">
    <path d="M 649.97067 517.260689 
L 655.407426 503.907358 
" clip-path="url(#p6910ed4a77)" style="fill: none; stroke: #000000; stroke-linecap: square"/>
   </g>
   <g id="cs:groft">
    <path d="M 649.969593 517.297249 
L 655.407426 503.907358 
" clip-path="url(#p6910ed4a77)" style="fill: none; stroke: #000000; stroke-linecap: square"/>
   </g>
   <g id="cs:groft">
    <path d="M 654.492341 503.324197 
L 655.407426 503.907358 
" clip-path="url(#p6910ed4a77)" style="fill: none; stroke: #000000; stroke-linecap: square"/>
   </g>
   <g id="cs:groft">
    <path d="M 654.492341 503.324197 
L 653.977766 502.996268 
" clip-path="url(#p6910ed4a77)" style="fill: none; stroke: #000000; stroke-linecap: square"/>
   </g>
   <g id="cs:groft">
    <path d="M 655.404825 503.905703 
L 668.929183 503.903349 
" clip-path="url(#p6910ed4a77)" style="fill: none; stroke: #000000; stroke-linecap: square"/>
   </g>
   <g id="cs:groft">
    <path d="M 655.404825 503.905703 
L 655.407426 503.907358 
" clip-path="url(#p6910ed4a77)" style="fill: none; stroke: #000000; stroke-linecap: square"/>
   </g>
   <g id="cs:groft">
    <path d="M 655.404825 503.905703 
L 653.977766 502.996268 
" clip-path="url(#p6910ed4a77)" style="fill: none; stroke: #000000; stroke-linecap: square"/>
   </g>
   <g id="cs:groft">
    <path d="M 655.353594 504.55796 
L 668.929183 503.903349 
" clip-path="url(#p6910ed4a77)" style="fill: none; stroke: #000000; stroke-linecap: square"/>
   </g>
   <g id="cs:groft">
    <path d="M 655.353594 504.55796 
L 653.977766 502.996268 
" clip-path="url(#p6910ed4a77)" style="fill: none; stroke: #000000; stroke-linecap: square"/>
   </g>
   <g id="patch_7">
    <path d="M 680.606039 394.605034 
Q 680.606039 401.198906 680.606039 407.792779 
" style="fill: none; stroke: #444444; stroke-width: 0.5; stroke-linecap: round"/>
   </g>
   <g id="text_28">
    <g id="patch_8">
     <path d="M 662.479672 392.353019 
L 698.732406 392.353019 
Q 699.557406 392.353019 699.557406 391.528019 
L 699.557406 386.20505 
Q 699.557406 385.38005 698.732406 385.38005 
L 662.479672 385.38005 
Q 661.654672 385.38005 661.654672 386.20505 
L 661.654672 391.528019 
Q 661.654672 392.353019 662.479672 392.353019 
z
" style="fill: #ffffff; opacity: 0.9; stroke: #444444; stroke-width: 0.5; stroke-linejoin: miter"/>
    </g>
    <!-- H. Jordskj. 11 -->
    <g style="fill: #444444" transform="translate(662.479672 390.384191) scale(0.055 -0.055)">
     <defs>
      <path id="DejaVuSans-2e" d="M 684 794 
L 1344 794 
L 1344 0 
L 684 0 
L 684 794 
z
" transform="scale(0.015625)"/>
      <path id="DejaVuSans-4a" d="M 628 4666 
L 1259 4666 
L 1259 325 
Q 1259 -519 939 -900 
Q 619 -1281 -91 -1281 
L -331 -1281 
L -331 -750 
L -134 -750 
Q 284 -750 456 -515 
Q 628 -281 628 325 
L 628 4666 
z
" transform="scale(0.015625)"/>
      <path id="DejaVuSans-6f" d="M 1959 3097 
Q 1497 3097 1228 2736 
Q 959 2375 959 1747 
Q 959 1119 1226 758 
Q 1494 397 1959 397 
Q 2419 397 2687 759 
Q 2956 1122 2956 1747 
Q 2956 2369 2687 2733 
Q 2419 3097 1959 3097 
z
M 1959 3584 
Q 2709 3584 3137 3096 
Q 3566 2609 3566 1747 
Q 3566 888 3137 398 
Q 2709 -91 1959 -91 
Q 1206 -91 779 398 
Q 353 888 353 1747 
Q 353 2609 779 3096 
Q 1206 3584 1959 3584 
z
" transform="scale(0.015625)"/>
      <path id="DejaVuSans-6b" d="M 581 4863 
L 1159 4863 
L 1159 1991 
L 2875 3500 
L 3609 3500 
L 1753 1863 
L 3688 0 
L 2938 0 
L 1159 1709 
L 1159 0 
L 581 0 
L 581 4863 
z
" transform="scale(0.015625)"/>
     </defs>
     <use xlink:href="#DejaVuSans-48"/>
     <use xlink:href="#DejaVuSans-2e" x="73.445312"/>
     <use xlink:href="#DejaVuSans-20" x="105.232422"/>
     <use xlink:href="#DejaVuSans-4a" x="137.019531"/>
     <use xlink:href="#DejaVuSans-6f" x="166.511719"/>
     <use xlink:href="#DejaVuSans-72" x="227.693359"/>
     <use xlink:href="#DejaVuSans-64" x="267.056641"/>
     <use xlink:href="#DejaVuSans-73" x="330.533203"/>
     <use xlink:href="#DejaVuSans-6b" x="382.632812"/>
     <use xlink:href="#DejaVuSans-6a" x="440.542969"/>
     <use xlink:href="#DejaVuSans-2e" x="468.326172"/>
     <use xlink:href="#DejaVuSans-20" x="500.113281"/>
     <use xlink:href="#DejaVuSans-31" x="531.900391"/>
     <use xlink:href="#DejaVuSans-31" x="595.523438"/>
    </g>
   </g>
   <g id="patch_9">
    <path d="M 379.192491 471.052248 
Q 379.192491 477.646121 379.192491 484.239993 
" style="fill: none; stroke: #444444; stroke-width: 0.5; stroke-linecap: round"/>
   </g>
   <g id="text_29">
    <g id="patch_10">
     <path d="M 366.35171 468.800233 
L 392.033272 468.800233 
Q 392.858272 468.800233 392.858272 467.975233 
L 392.858272 462.652265 
Q 392.858272 461.827265 392.033272 461.827265 
L 366.35171 461.827265 
Q 365.52671 461.827265 365.52671 462.652265 
L 365.52671 467.975233 
Q 365.52671 468.800233 366.35171 468.800233 
z
" style="fill: #ffffff; opacity: 0.9; stroke: #444444; stroke-width: 0.5; stroke-linejoin: miter"/>
    </g>
    <!-- V.Grøft  3 -->
    <g style="fill: #444444" transform="translate(366.35171 466.831405) scale(0.055 -0.055)">
     <defs>
      <path id="DejaVuSans-56" d="M 1831 0 
L 50 4666 
L 709 4666 
L 2188 738 
L 3669 4666 
L 4325 4666 
L 2547 0 
L 1831 0 
z
" transform="scale(0.015625)"/>
      <path id="DejaVuSans-47" d="M 3809 666 
L 3809 1919 
L 2778 1919 
L 2778 2438 
L 4434 2438 
L 4434 434 
Q 4069 175 3628 42 
Q 3188 -91 2688 -91 
Q 1594 -91 976 548 
Q 359 1188 359 2328 
Q 359 3472 976 4111 
Q 1594 4750 2688 4750 
Q 3144 4750 3555 4637 
Q 3966 4525 4313 4306 
L 4313 3634 
Q 3963 3931 3569 4081 
Q 3175 4231 2741 4231 
Q 1884 4231 1454 3753 
Q 1025 3275 1025 2328 
Q 1025 1384 1454 906 
Q 1884 428 2741 428 
Q 3075 428 3337 486 
Q 3600 544 3809 666 
z
" transform="scale(0.015625)"/>
     </defs>
     <use xlink:href="#DejaVuSans-56"/>
     <use xlink:href="#DejaVuSans-2e" x="55.533203"/>
     <use xlink:href="#DejaVuSans-47" x="87.320312"/>
     <use xlink:href="#DejaVuSans-72" x="164.810547"/>
     <use xlink:href="#DejaVuSans-f8" x="205.923828"/>
     <use xlink:href="#DejaVuSans-66" x="267.105469"/>
     <use xlink:href="#DejaVuSans-74" x="300.560547"/>
     <use xlink:href="#DejaVuSans-20" x="339.769531"/>
     <use xlink:href="#DejaVuSans-20" x="371.556641"/>
     <use xlink:href="#DejaVuSans-33" x="403.34375"/>
    </g>
   </g>
   <g id="patch_11">
    <path d="M 576.37147 474.451053 
Q 576.37147 481.044926 576.37147 487.638799 
" style="fill: none; stroke: #333333; stroke-width: 0.5; stroke-linecap: round"/>
   </g>
   <g id="text_30">
    <g id="patch_12">
     <path d="M 563.413384 472.199039 
L 589.329556 472.199039 
Q 590.154556 472.199039 590.154556 471.374039 
L 590.154556 466.05107 
Q 590.154556 465.22607 589.329556 465.22607 
L 563.413384 465.22607 
Q 562.588384 465.22607 562.588384 466.05107 
L 562.588384 471.374039 
Q 562.588384 472.199039 563.413384 472.199039 
z
" style="fill: #ffffff; opacity: 0.9; stroke: #333333; stroke-width: 0.5; stroke-linejoin: miter"/>
    </g>
    <!-- Bindlag 1 -->
    <g style="fill: #333333" transform="translate(563.413384 470.230211) scale(0.055 -0.055)">
     <defs>
      <path id="DejaVuSans-42" d="M 1259 2228 
L 1259 519 
L 2272 519 
Q 2781 519 3026 730 
Q 3272 941 3272 1375 
Q 3272 1813 3026 2020 
Q 2781 2228 2272 2228 
L 1259 2228 
z
M 1259 4147 
L 1259 2741 
L 2194 2741 
Q 2656 2741 2882 2914 
Q 3109 3088 3109 3444 
Q 3109 3797 2882 3972 
Q 2656 4147 2194 4147 
L 1259 4147 
z
M 628 4666 
L 2241 4666 
Q 2963 4666 3353 4366 
Q 3744 4066 3744 3513 
Q 3744 3084 3544 2831 
Q 3344 2578 2956 2516 
Q 3422 2416 3680 2098 
Q 3938 1781 3938 1306 
Q 3938 681 3513 340 
Q 3088 0 2303 0 
L 628 0 
L 628 4666 
z
" transform="scale(0.015625)"/>
      <path id="DejaVuSans-67" d="M 2906 1791 
Q 2906 2416 2648 2759 
Q 2391 3103 1925 3103 
Q 1463 3103 1205 2759 
Q 947 2416 947 1791 
Q 947 1169 1205 825 
Q 1463 481 1925 481 
Q 2391 481 2648 825 
Q 2906 1169 2906 1791 
z
M 3481 434 
Q 3481 -459 3084 -895 
Q 2688 -1331 1869 -1331 
Q 1566 -1331 1297 -1286 
Q 1028 -1241 775 -1147 
L 775 -588 
Q 1028 -725 1275 -790 
Q 1522 -856 1778 -856 
Q 2344 -856 2625 -561 
Q 2906 -266 2906 331 
L 2906 616 
Q 2728 306 2450 153 
Q 2172 0 1784 0 
Q 1141 0 747 490 
Q 353 981 353 1791 
Q 353 2603 747 3093 
Q 1141 3584 1784 3584 
Q 2172 3584 2450 3431 
Q 2728 3278 2906 2969 
L 2906 3500 
L 3481 3500 
L 3481 434 
z
" transform="scale(0.015625)"/>
     </defs>
     <use xlink:href="#DejaVuSans-42"/>
     <use xlink:href="#DejaVuSans-69" x="68.603516"/>
     <use xlink:href="#DejaVuSans-6e" x="96.386719"/>
     <use xlink:href="#DejaVuSans-64" x="159.765625"/>
     <use xlink:href="#DejaVuSans-6c" x="223.242188"/>
     <use xlink:href="#DejaVuSans-61" x="251.025391"/>
     <use xlink:href="#DejaVuSans-67" x="312.304688"/>
     <use xlink:href="#DejaVuSans-20" x="375.78125"/>
     <use xlink:href="#DejaVuSans-31" x="407.568359"/>
    </g>
   </g>
   <g id="patch_13">
    <path d="M 576.118438 454.216012 
Q 576.118438 471.769207 576.118438 489.322402 
" style="fill: none; stroke: #555555; stroke-width: 0.5; stroke-linecap: round"/>
   </g>
   <g id="text_31">
    <g id="patch_14">
     <path d="M 561.95207 451.965929 
L 590.284805 451.965929 
Q 591.109805 451.965929 591.109805 451.140929 
L 591.109805 445.817961 
Q 591.109805 444.992961 590.284805 444.992961 
L 561.95207 444.992961 
Q 561.12707 444.992961 561.12707 445.817961 
L 561.12707 451.140929 
Q 561.12707 451.965929 561.95207 451.965929 
z
" style="fill: #ffffff; opacity: 0.9; stroke: #555555; stroke-width: 0.5; stroke-linejoin: miter"/>
    </g>
    <!-- Bærelag 1 -->
    <g style="fill: #555555" transform="translate(561.95207 449.997101) scale(0.055 -0.055)">
     <defs>
      <path id="DejaVuSans-e6" d="M 5369 2063 
Q 5366 2534 5108 2815 
Q 4850 3097 4422 3097 
Q 3944 3097 3655 2825 
Q 3366 2553 3322 2059 
L 5369 2063 
z
M 3109 3009 
Q 3341 3291 3672 3437 
Q 4003 3584 4416 3584 
Q 5122 3584 5534 3129 
Q 5947 2675 5947 1894 
L 5947 1613 
L 3303 1613 
Q 3341 1016 3659 703 
Q 3978 391 4550 391 
Q 4875 391 5187 473 
Q 5500 556 5813 722 
L 5813 178 
Q 5500 47 5175 -22 
Q 4850 -91 4519 -91 
Q 3997 -91 3609 98 
Q 3222 288 2981 659 
Q 2753 284 2415 96 
Q 2078 -91 1631 -91 
Q 1041 -91 712 201 
Q 384 494 384 1019 
Q 384 1609 779 1909 
Q 1175 2209 1959 2209 
L 2766 2209 
L 2766 2266 
Q 2766 2663 2505 2880 
Q 2244 3097 1772 3097 
Q 1472 3097 1187 3025 
Q 903 2953 641 2809 
L 641 3341 
Q 956 3463 1253 3523 
Q 1550 3584 1831 3584 
Q 2275 3584 2608 3434 
Q 2941 3284 3109 3009 
z
M 2194 1759 
Q 1497 1759 1228 1600 
Q 959 1441 959 1056 
Q 959 750 1161 570 
Q 1363 391 1709 391 
Q 2188 391 2477 730 
Q 2766 1069 2766 1631 
L 2766 1759 
L 2194 1759 
z
" transform="scale(0.015625)"/>
     </defs>
     <use xlink:href="#DejaVuSans-42"/>
     <use xlink:href="#DejaVuSans-e6" x="68.603516"/>
     <use xlink:href="#DejaVuSans-72" x="166.796875"/>
     <use xlink:href="#DejaVuSans-65" x="205.660156"/>
     <use xlink:href="#DejaVuSans-6c" x="267.183594"/>
     <use xlink:href="#DejaVuSans-61" x="294.966797"/>
     <use xlink:href="#DejaVuSans-67" x="356.246094"/>
     <use xlink:href="#DejaVuSans-20" x="419.722656"/>
     <use xlink:href="#DejaVuSans-31" x="451.509766"/>
    </g>
   </g>
   <g id="patch_15">
    <path d="M 575.819245 434.497929 
Q 575.819245 463.008815 575.819245 491.519701 
" style="fill: none; stroke: #555555; stroke-width: 0.5; stroke-linecap: round"/>
   </g>
   <g id="text_32">
    <g id="patch_16">
     <path d="M 561.652877 432.249376 
L 589.985612 432.249376 
Q 590.810612 432.249376 590.810612 431.424376 
L 590.810612 426.101407 
Q 590.810612 425.276407 589.985612 425.276407 
L 561.652877 425.276407 
Q 560.827877 425.276407 560.827877 426.101407 
L 560.827877 431.424376 
Q 560.827877 432.249376 561.652877 432.249376 
z
" style="fill: #ffffff; opacity: 0.9; stroke: #555555; stroke-width: 0.5; stroke-linejoin: miter"/>
    </g>
    <!-- Bærelag 2 -->
    <g style="fill: #555555" transform="translate(561.652877 430.280548) scale(0.055 -0.055)">
     <use xlink:href="#DejaVuSans-42"/>
     <use xlink:href="#DejaVuSans-e6" x="68.603516"/>
     <use xlink:href="#DejaVuSans-72" x="166.796875"/>
     <use xlink:href="#DejaVuSans-65" x="205.660156"/>
     <use xlink:href="#DejaVuSans-6c" x="267.183594"/>
     <use xlink:href="#DejaVuSans-61" x="294.966797"/>
     <use xlink:href="#DejaVuSans-67" x="356.246094"/>
     <use xlink:href="#DejaVuSans-20" x="419.722656"/>
     <use xlink:href="#DejaVuSans-32" x="451.509766"/>
    </g>
   </g>
   <g id="patch_17">
    <path d="M 515.879588 413.155065 
Q 515.879588 452.621009 515.879588 492.086953 
" style="fill: none; stroke: #444444; stroke-width: 0.5; stroke-linecap: round"/>
   </g>
   <g id="text_33">
    <g id="patch_18">
     <path d="M 503.038806 410.902154 
L 528.720369 410.902154 
Q 529.545369 410.902154 529.545369 410.077154 
L 529.545369 404.754185 
Q 529.545369 403.929185 528.720369 403.929185 
L 503.038806 403.929185 
Q 502.213806 403.929185 502.213806 404.754185 
L 502.213806 410.077154 
Q 502.213806 410.902154 503.038806 410.902154 
z
" style="fill: #ffffff; opacity: 0.9; stroke: #444444; stroke-width: 0.5; stroke-linejoin: miter"/>
    </g>
    <!-- V. Grøft 1 -->
    <g style="fill: #444444" transform="translate(503.038806 408.933325) scale(0.055 -0.055)">
     <use xlink:href="#DejaVuSans-56"/>
     <use xlink:href="#DejaVuSans-2e" x="55.533203"/>
     <use xlink:href="#DejaVuSans-20" x="87.320312"/>
     <use xlink:href="#DejaVuSans-47" x="119.107422"/>
     <use xlink:href="#DejaVuSans-72" x="196.597656"/>
     <use xlink:href="#DejaVuSans-f8" x="237.710938"/>
     <use xlink:href="#DejaVuSans-66" x="298.892578"/>
     <use xlink:href="#DejaVuSans-74" x="332.347656"/>
     <use xlink:href="#DejaVuSans-20" x="371.556641"/>
     <use xlink:href="#DejaVuSans-31" x="403.34375"/>
    </g>
   </g>
   <g id="patch_19">
    <path d="M 647.525258 413.849036 
Q 647.525258 453.31498 647.525258 492.780924 
" style="fill: none; stroke: #444444; stroke-width: 0.5; stroke-linecap: round"/>
   </g>
   <g id="text_34">
    <g id="patch_20">
     <path d="M 633.317641 411.596125 
L 661.732875 411.596125 
Q 662.557875 411.596125 662.557875 410.771125 
L 662.557875 405.448156 
Q 662.557875 404.623156 661.732875 404.623156 
L 633.317641 404.623156 
Q 632.492641 404.623156 632.492641 405.448156 
L 632.492641 410.771125 
Q 632.492641 411.596125 633.317641 411.596125 
z
" style="fill: #ffffff; opacity: 0.9; stroke: #444444; stroke-width: 0.5; stroke-linejoin: miter"/>
    </g>
    <!-- H. Grøft  1 -->
    <g style="fill: #444444" transform="translate(633.317641 409.627297) scale(0.055 -0.055)">
     <use xlink:href="#DejaVuSans-48"/>
     <use xlink:href="#DejaVuSans-2e" x="73.445312"/>
     <use xlink:href="#DejaVuSans-20" x="105.232422"/>
     <use xlink:href="#DejaVuSans-47" x="137.019531"/>
     <use xlink:href="#DejaVuSans-72" x="214.509766"/>
     <use xlink:href="#DejaVuSans-f8" x="255.623047"/>
     <use xlink:href="#DejaVuSans-66" x="316.804688"/>
     <use xlink:href="#DejaVuSans-74" x="350.259766"/>
     <use xlink:href="#DejaVuSans-20" x="389.46875"/>
     <use xlink:href="#DejaVuSans-20" x="421.255859"/>
     <use xlink:href="#DejaVuSans-31" x="453.042969"/>
    </g>
   </g>
   <g id="patch_21">
    <path d="M 501.609751 395.804124 
Q 501.609751 446.230922 501.609751 496.65772 
" style="fill: none; stroke: #444444; stroke-width: 0.5; stroke-linecap: round"/>
   </g>
   <g id="text_35">
    <g id="patch_22">
     <path d="M 488.768969 393.55601 
L 514.450532 393.55601 
Q 515.275532 393.55601 515.275532 392.73101 
L 515.275532 387.408041 
Q 515.275532 386.583041 514.450532 386.583041 
L 488.768969 386.583041 
Q 487.943969 386.583041 487.943969 387.408041 
L 487.943969 392.73101 
Q 487.943969 393.55601 488.768969 393.55601 
z
" style="fill: #ffffff; opacity: 0.9; stroke: #444444; stroke-width: 0.5; stroke-linejoin: miter"/>
    </g>
    <!-- V. Grøft 2 -->
    <g style="fill: #444444" transform="translate(488.768969 391.587181) scale(0.055 -0.055)">
     <use xlink:href="#DejaVuSans-56"/>
     <use xlink:href="#DejaVuSans-2e" x="55.533203"/>
     <use xlink:href="#DejaVuSans-20" x="87.320312"/>
     <use xlink:href="#DejaVuSans-47" x="119.107422"/>
     <use xlink:href="#DejaVuSans-72" x="196.597656"/>
     <use xlink:href="#DejaVuSans-f8" x="237.710938"/>
     <use xlink:href="#DejaVuSans-66" x="298.892578"/>
     <use xlink:href="#DejaVuSans-74" x="332.347656"/>
     <use xlink:href="#DejaVuSans-20" x="371.556641"/>
     <use xlink:href="#DejaVuSans-32" x="403.34375"/>
    </g>
   </g>
   <g id="patch_23">
    <path d="M 665.752032 488.71924 
Q 665.752032 495.313113 665.752032 501.906985 
" style="fill: none; stroke: #444444; stroke-width: 0.5; stroke-linecap: round"/>
   </g>
   <g id="text_36">
    <g id="patch_24">
     <path d="M 651.544415 486.467225 
L 679.959649 486.467225 
Q 680.784649 486.467225 680.784649 485.642225 
L 680.784649 480.319257 
Q 680.784649 479.494257 679.959649 479.494257 
L 651.544415 479.494257 
Q 650.719415 479.494257 650.719415 480.319257 
L 650.719415 485.642225 
Q 650.719415 486.467225 651.544415 486.467225 
z
" style="fill: #ffffff; opacity: 0.9; stroke: #444444; stroke-width: 0.5; stroke-linejoin: miter"/>
    </g>
    <!-- H. Grøft  2 -->
    <g style="fill: #444444" transform="translate(651.544415 484.498397) scale(0.055 -0.055)">
     <use xlink:href="#DejaVuSans-48"/>
     <use xlink:href="#DejaVuSans-2e" x="73.445312"/>
     <use xlink:href="#DejaVuSans-20" x="105.232422"/>
     <use xlink:href="#DejaVuSans-47" x="137.019531"/>
     <use xlink:href="#DejaVuSans-72" x="214.509766"/>
     <use xlink:href="#DejaVuSans-f8" x="255.623047"/>
     <use xlink:href="#DejaVuSans-66" x="316.804688"/>
     <use xlink:href="#DejaVuSans-74" x="350.259766"/>
     <use xlink:href="#DejaVuSans-20" x="389.46875"/>
     <use xlink:href="#DejaVuSans-20" x="421.255859"/>
     <use xlink:href="#DejaVuSans-32" x="453.042969"/>
    </g>
   </g>
   <g id="patch_25">
    <path d="M 579.908369 360.427626 
Q 579.908369 432.768639 579.908369 505.109653 
" style="fill: none; stroke: #888888; stroke-width: 0.5; stroke-linecap: round"/>
   </g>
   <g id="text_37">
    <g id="patch_26">
     <path d="M 554.440791 358.177958 
L 605.375947 358.177958 
Q 606.200947 358.177958 606.200947 357.352958 
L 606.200947 352.02999 
Q 606.200947 351.20499 605.375947 351.20499 
L 554.440791 351.20499 
Q 553.615791 351.20499 553.615791 352.02999 
L 553.615791 357.352958 
Q 553.615791 358.177958 554.440791 358.177958 
z
" style="fill: #ffffff; opacity: 0.9; stroke: #888888; stroke-width: 0.5; stroke-linejoin: miter"/>
    </g>
    <!-- Forsterkningslag 1 -->
    <g style="fill: #888888" transform="translate(554.440791 356.20913) scale(0.055 -0.055)">
     <defs>
      <path id="DejaVuSans-46" d="M 628 4666 
L 3309 4666 
L 3309 4134 
L 1259 4134 
L 1259 2759 
L 3109 2759 
L 3109 2228 
L 1259 2228 
L 1259 0 
L 628 0 
L 628 4666 
z
" transform="scale(0.015625)"/>
     </defs>
     <use xlink:href="#DejaVuSans-46"/>
     <use xlink:href="#DejaVuSans-6f" x="53.894531"/>
     <use xlink:href="#DejaVuSans-72" x="115.076172"/>
     <use xlink:href="#DejaVuSans-73" x="156.189453"/>
     <use xlink:href="#DejaVuSans-74" x="208.289062"/>
     <use xlink:href="#DejaVuSans-65" x="247.498047"/>
     <use xlink:href="#DejaVuSans-72" x="309.021484"/>
     <use xlink:href="#DejaVuSans-6b" x="350.134766"/>
     <use xlink:href="#DejaVuSans-6e" x="408.044922"/>
     <use xlink:href="#DejaVuSans-69" x="471.423828"/>
     <use xlink:href="#DejaVuSans-6e" x="499.207031"/>
     <use xlink:href="#DejaVuSans-67" x="562.585938"/>
     <use xlink:href="#DejaVuSans-73" x="626.0625"/>
     <use xlink:href="#DejaVuSans-6c" x="678.162109"/>
     <use xlink:href="#DejaVuSans-61" x="705.945312"/>
     <use xlink:href="#DejaVuSans-67" x="767.224609"/>
     <use xlink:href="#DejaVuSans-20" x="830.701172"/>
     <use xlink:href="#DejaVuSans-31" x="862.488281"/>
    </g>
   </g>
   <g id="patch_27">
    <path d="M 563.512799 495.165692 
Q 563.512799 501.759565 563.512799 508.353438 
" style="fill: none; stroke: #aaaaaa; stroke-width: 0.5; stroke-linecap: round"/>
   </g>
   <g id="text_38">
    <g id="patch_28">
     <path d="M 552.506784 492.913678 
L 574.518815 492.913678 
Q 575.343815 492.913678 575.343815 492.088678 
L 575.343815 486.765709 
Q 575.343815 485.940709 574.518815 485.940709 
L 552.506784 485.940709 
Q 551.681784 485.940709 551.681784 486.765709 
L 551.681784 492.088678 
Q 551.681784 492.913678 552.506784 492.913678 
z
" style="fill: #ffffff; opacity: 0.9; stroke: #aaaaaa; stroke-width: 0.5; stroke-linejoin: miter"/>
    </g>
    <!-- Filterlag -->
    <g style="fill: #aaaaaa" transform="translate(552.506784 490.94485) scale(0.055 -0.055)">
     <use xlink:href="#DejaVuSans-46"/>
     <use xlink:href="#DejaVuSans-69" x="50.269531"/>
     <use xlink:href="#DejaVuSans-6c" x="78.052734"/>
     <use xlink:href="#DejaVuSans-74" x="105.835938"/>
     <use xlink:href="#DejaVuSans-65" x="145.044922"/>
     <use xlink:href="#DejaVuSans-72" x="206.568359"/>
     <use xlink:href="#DejaVuSans-6c" x="247.681641"/>
     <use xlink:href="#DejaVuSans-61" x="275.464844"/>
     <use xlink:href="#DejaVuSans-67" x="336.744141"/>
    </g>
   </g>
   <g id="text_39">
    <!-- Profil 60.00 -->
    <g transform="translate(33.82 14.038594) scale(0.09 -0.09)">
     <defs>
      <path id="DejaVuSans-Bold-50" d="M 588 4666 
L 2584 4666 
Q 3475 4666 3951 4270 
Q 4428 3875 4428 3144 
Q 4428 2409 3951 2014 
Q 3475 1619 2584 1619 
L 1791 1619 
L 1791 0 
L 588 0 
L 588 4666 
z
M 1791 3794 
L 1791 2491 
L 2456 2491 
Q 2806 2491 2997 2661 
Q 3188 2831 3188 3144 
Q 3188 3456 2997 3625 
Q 2806 3794 2456 3794 
L 1791 3794 
z
" transform="scale(0.015625)"/>
      <path id="DejaVuSans-Bold-72" d="M 3138 2547 
Q 2991 2616 2845 2648 
Q 2700 2681 2553 2681 
Q 2122 2681 1889 2404 
Q 1656 2128 1656 1613 
L 1656 0 
L 538 0 
L 538 3500 
L 1656 3500 
L 1656 2925 
Q 1872 3269 2151 3426 
Q 2431 3584 2822 3584 
Q 2878 3584 2943 3579 
Q 3009 3575 3134 3559 
L 3138 2547 
z
" transform="scale(0.015625)"/>
      <path id="DejaVuSans-Bold-6f" d="M 2203 2784 
Q 1831 2784 1636 2517 
Q 1441 2250 1441 1747 
Q 1441 1244 1636 976 
Q 1831 709 2203 709 
Q 2569 709 2762 976 
Q 2956 1244 2956 1747 
Q 2956 2250 2762 2517 
Q 2569 2784 2203 2784 
z
M 2203 3584 
Q 3106 3584 3614 3096 
Q 4122 2609 4122 1747 
Q 4122 884 3614 396 
Q 3106 -91 2203 -91 
Q 1297 -91 786 396 
Q 275 884 275 1747 
Q 275 2609 786 3096 
Q 1297 3584 2203 3584 
z
" transform="scale(0.015625)"/>
      <path id="DejaVuSans-Bold-66" d="M 2841 4863 
L 2841 4128 
L 2222 4128 
Q 1984 4128 1890 4042 
Q 1797 3956 1797 3744 
L 1797 3500 
L 2753 3500 
L 2753 2700 
L 1797 2700 
L 1797 0 
L 678 0 
L 678 2700 
L 122 2700 
L 122 3500 
L 678 3500 
L 678 3744 
Q 678 4316 997 4589 
Q 1316 4863 1984 4863 
L 2841 4863 
z
" transform="scale(0.015625)"/>
      <path id="DejaVuSans-Bold-69" d="M 538 3500 
L 1656 3500 
L 1656 0 
L 538 0 
L 538 3500 
z
M 538 4863 
L 1656 4863 
L 1656 3950 
L 538 3950 
L 538 4863 
z
" transform="scale(0.015625)"/>
      <path id="DejaVuSans-Bold-6c" d="M 538 4863 
L 1656 4863 
L 1656 0 
L 538 0 
L 538 4863 
z
" transform="scale(0.015625)"/>
      <path id="DejaVuSans-Bold-20" transform="scale(0.015625)"/>
      <path id="DejaVuSans-Bold-36" d="M 2316 2303 
Q 2000 2303 1842 2098 
Q 1684 1894 1684 1484 
Q 1684 1075 1842 870 
Q 2000 666 2316 666 
Q 2634 666 2792 870 
Q 2950 1075 2950 1484 
Q 2950 1894 2792 2098 
Q 2634 2303 2316 2303 
z
M 3803 4544 
L 3803 3681 
Q 3506 3822 3243 3889 
Q 2981 3956 2731 3956 
Q 2194 3956 1894 3657 
Q 1594 3359 1544 2772 
Q 1750 2925 1990 3001 
Q 2231 3078 2516 3078 
Q 3231 3078 3670 2659 
Q 4109 2241 4109 1563 
Q 4109 813 3618 361 
Q 3128 -91 2303 -91 
Q 1394 -91 895 523 
Q 397 1138 397 2266 
Q 397 3422 980 4083 
Q 1563 4744 2578 4744 
Q 2900 4744 3203 4694 
Q 3506 4644 3803 4544 
z
" transform="scale(0.015625)"/>
      <path id="DejaVuSans-Bold-30" d="M 2944 2338 
Q 2944 3213 2780 3570 
Q 2616 3928 2228 3928 
Q 1841 3928 1675 3570 
Q 1509 3213 1509 2338 
Q 1509 1453 1675 1090 
Q 1841 728 2228 728 
Q 2613 728 2778 1090 
Q 2944 1453 2944 2338 
z
M 4147 2328 
Q 4147 1169 3647 539 
Q 3147 -91 2228 -91 
Q 1306 -91 806 539 
Q 306 1169 306 2328 
Q 306 3491 806 4120 
Q 1306 4750 2228 4750 
Q 3147 4750 3647 4120 
Q 4147 3491 4147 2328 
z
" transform="scale(0.015625)"/>
      <path id="DejaVuSans-Bold-2e" d="M 653 1209 
L 1778 1209 
L 1778 0 
L 653 0 
L 653 1209 
z
" transform="scale(0.015625)"/>
     </defs>
     <use xlink:href="#DejaVuSans-Bold-50"/>
     <use xlink:href="#DejaVuSans-Bold-72" x="73.291016"/>
     <use xlink:href="#DejaVuSans-Bold-6f" x="122.607422"/>
     <use xlink:href="#DejaVuSans-Bold-66" x="191.308594"/>
     <use xlink:href="#DejaVuSans-Bold-69" x="234.814453"/>
     <use xlink:href="#DejaVuSans-Bold-6c" x="269.091797"/>
     <use xlink:href="#DejaVuSans-Bold-20" x="303.369141"/>
     <use xlink:href="#DejaVuSans-Bold-36" x="338.183594"/>
     <use xlink:href="#DejaVuSans-Bold-30" x="407.763672"/>
     <use xlink:href="#DejaVuSans-Bold-2e" x="477.34375"/>
     <use xlink:href="#DejaVuSans-Bold-30" x="515.332031"/>
     <use xlink:href="#DejaVuSans-Bold-30" x="584.912109"/>
    </g>
   </g>
   <g id="cs:kjørefelt">
    <path d="M 512.016979 498.654758 
L 514.828506 496.863925 
L 517.640032 495.07314 
L 520.451558 493.28238 
L 523.263085 491.491664 
L 526.074611 490.991025 
L 528.886138 490.882893 
L 531.697664 490.77476 
L 534.50919 490.666627 
L 537.320717 490.558495 
L 540.132243 490.450362 
L 542.94377 490.34223 
L 545.755296 490.234097 
L 548.566822 490.125964 
L 551.378349 490.017832 
L 554.189875 489.909699 
L 557.001402 489.801567 
L 559.812928 489.693434 
L 562.624454 489.585301 
L 565.435981 489.477169 
L 568.247507 489.369036 
L 571.059034 489.260904 
L 573.87056 489.152771 
L 576.682086 489.044636 
L 579.493613 488.936274 
L 582.305139 488.827912 
L 585.116665 488.71955 
L 587.928192 488.611188 
L 590.739718 488.502826 
L 593.551245 488.394465 
L 596.362771 488.286103 
L 599.174297 488.177741 
L 601.985824 488.069379 
L 604.79735 487.961017 
L 607.608877 487.852656 
L 610.420403 487.744294 
L 613.231929 487.635932 
L 616.043456 487.52757 
L 618.854982 487.419208 
L 621.666509 487.310846 
L 624.478035 487.202485 
L 627.289561 487.094123 
L 630.101088 487.796586 
L 632.912614 489.586416 
L 635.724141 491.376287 
L 638.535667 493.166197 
L 641.347193 494.956012 
L 644.15872 496.745826 
L 646.970246 498.53564 
L 649.781773 500.325455 
L 652.593299 502.115269 
L 655.404825 503.905703 
" clip-path="url(#p6910ed4a77)" style="fill: none; stroke: #000000; stroke-width: 2; stroke-linecap: square"/>
   </g>
  </g>
  <g id="text_40">
   <!-- SVV · R700 · 1:200 · Stasjon 60.00 m · xlim=[-19,13] -->
   <g style="fill: #555555" transform="translate(919.630322 743.023947) scale(0.05 -0.05)">
    <defs>
     <path id="DejaVuSans-b7" d="M 684 2619 
L 1344 2619 
L 1344 1825 
L 684 1825 
L 684 2619 
z
" transform="scale(0.015625)"/>
     <path id="DejaVuSans-52" d="M 2841 2188 
Q 3044 2119 3236 1894 
Q 3428 1669 3622 1275 
L 4263 0 
L 3584 0 
L 2988 1197 
Q 2756 1666 2539 1819 
Q 2322 1972 1947 1972 
L 1259 1972 
L 1259 0 
L 628 0 
L 628 4666 
L 2053 4666 
Q 2853 4666 3247 4331 
Q 3641 3997 3641 3322 
Q 3641 2881 3436 2590 
Q 3231 2300 2841 2188 
z
M 1259 4147 
L 1259 2491 
L 2053 2491 
Q 2509 2491 2742 2702 
Q 2975 2913 2975 3322 
Q 2975 3731 2742 3939 
Q 2509 4147 2053 4147 
L 1259 4147 
z
" transform="scale(0.015625)"/>
     <path id="DejaVuSans-3a" d="M 750 794 
L 1409 794 
L 1409 0 
L 750 0 
L 750 794 
z
M 750 3309 
L 1409 3309 
L 1409 2516 
L 750 2516 
L 750 3309 
z
" transform="scale(0.015625)"/>
     <path id="DejaVuSans-78" d="M 3513 3500 
L 2247 1797 
L 3578 0 
L 2900 0 
L 1881 1375 
L 863 0 
L 184 0 
L 1544 1831 
L 300 3500 
L 978 3500 
L 1906 2253 
L 2834 3500 
L 3513 3500 
z
" transform="scale(0.015625)"/>
     <path id="DejaVuSans-3d" d="M 678 2906 
L 4684 2906 
L 4684 2381 
L 678 2381 
L 678 2906 
z
M 678 1631 
L 4684 1631 
L 4684 1100 
L 678 1100 
L 678 1631 
z
" transform="scale(0.015625)"/>
     <path id="DejaVuSans-5b" d="M 550 4863 
L 1875 4863 
L 1875 4416 
L 1125 4416 
L 1125 -397 
L 1875 -397 
L 1875 -844 
L 550 -844 
L 550 4863 
z
" transform="scale(0.015625)"/>
     <path id="DejaVuSans-2d" d="M 313 2009 
L 1997 2009 
L 1997 1497 
L 313 1497 
L 313 2009 
z
" transform="scale(0.015625)"/>
     <path id="DejaVuSans-2c" d="M 750 794 
L 1409 794 
L 1409 256 
L 897 -744 
L 494 -744 
L 750 256 
L 750 794 
z
" transform="scale(0.015625)"/>
     <path id="DejaVuSans-5d" d="M 1947 4863 
L 1947 -844 
L 622 -844 
L 622 -397 
L 1369 -397 
L 1369 4416 
L 622 4416 
L 622 4863 
L 1947 4863 
z
" transform="scale(0.015625)"/>
    </defs>
    <use xlink:href="#DejaVuSans-53"/>
    <use xlink:href="#DejaVuSans-56" x="63.476562"/>
    <use xlink:href="#DejaVuSans-56" x="131.884766"/>
    <use xlink:href="#DejaVuSans-20" x="200.292969"/>
    <use xlink:href="#DejaVuSans-b7" x="232.080078"/>
    <use xlink:href="#DejaVuSans-20" x="263.867188"/>
    <use xlink:href="#DejaVuSans-52" x="295.654297"/>
    <use xlink:href="#DejaVuSans-37" x="365.136719"/>
    <use xlink:href="#DejaVuSans-30" x="428.759766"/>
    <use xlink:href="#DejaVuSans-30" x="492.382812"/>
    <use xlink:href="#DejaVuSans-20" x="556.005859"/>
    <use xlink:href="#DejaVuSans-b7" x="587.792969"/>
    <use xlink:href="#DejaVuSans-20" x="619.580078"/>
    <use xlink:href="#DejaVuSans-31" x="651.367188"/>
    <use xlink:href="#DejaVuSans-3a" x="714.990234"/>
    <use xlink:href="#DejaVuSans-32" x="748.681641"/>
    <use xlink:href="#DejaVuSans-30" x="812.304688"/>
    <use xlink:href="#DejaVuSans-30" x="875.927734"/>
    <use xlink:href="#DejaVuSans-20" x="939.550781"/>
    <use xlink:href="#DejaVuSans-b7" x="971.337891"/>
    <use xlink:href="#DejaVuSans-20" x="1003.125"/>
    <use xlink:href="#DejaVuSans-53" x="1034.912109"/>
    <use xlink:href="#DejaVuSans-74" x="1098.388672"/>
    <use xlink:href="#DejaVuSans-61" x="1137.597656"/>
    <use xlink:href="#DejaVuSans-73" x="1198.876953"/>
    <use xlink:href="#DejaVuSans-6a" x="1250.976562"/>
    <use xlink:href="#DejaVuSans-6f" x="1278.759766"/>
    <use xlink:href="#DejaVuSans-6e" x="1339.941406"/>
    <use xlink:href="#DejaVuSans-20" x="1403.320312"/>
    <use xlink:href="#DejaVuSans-36" x="1435.107422"/>
    <use xlink:href="#DejaVuSans-30" x="1498.730469"/>
    <use xlink:href="#DejaVuSans-2e" x="1562.353516"/>
    <use xlink:href="#DejaVuSans-30" x="1594.140625"/>
    <use xlink:href="#DejaVuSans-30" x="1657.763672"/>
    <use xlink:href="#DejaVuSans-20" x="1721.386719"/>
    <use xlink:href="#DejaVuSans-6d" x="1753.173828"/>
    <use xlink:href="#DejaVuSans-20" x="1850.585938"/>
    <use xlink:href="#DejaVuSans-b7" x="1882.373047"/>
    <use xlink:href="#DejaVuSans-20" x="1914.160156"/>
    <use xlink:href="#DejaVuSans-78" x="1945.947266"/>
    <use xlink:href="#DejaVuSans-6c" x="2005.126953"/>
    <use xlink:href="#DejaVuSans-69" x="2032.910156"/>
    <use xlink:href="#DejaVuSans-6d" x="2060.693359"/>
    <use xlink:href="#DejaVuSans-3d" x="2158.105469"/>
    <use xlink:href="#DejaVuSans-5b" x="2241.894531"/>
    <use xlink:href="#DejaVuSans-2d" x="2280.908203"/>
    <use xlink:href="#DejaVuSans-31" x="2316.992188"/>
    <use xlink:href="#DejaVuSans-39" x="2380.615234"/>
    <use xlink:href="#DejaVuSans-2c" x="2444.238281"/>
    <use xlink:href="#DejaVuSans-31" x="2476.025391"/>
    <use xlink:href="#DejaVuSans-33" x="2539.648438"/>
    <use xlink:href="#DejaVuSans-5d" x="2603.271484"/>
   </g>
  </g>
 </g>
 <defs>
  <clipPath id="p6910ed4a77">
   <rect x="33.82" y="20.038594" width="922.677165" height="648.255118"/>
  </clipPath>
 </defs>
</svg>
