<?xml version="1.0" encoding="utf-8" standalone="no"?>
<!DOCTYPE svg PUBLIC "-//W3C//DTD SVG 1.1//EN"
  "http://www.w3.org/Graphics/SVG/1.1/DTD/svg11.dtd">
<svg xmlns:xlink="http://www.w3.org/1999/xlink" width="1058.94126pt" height="751.263791pt" viewBox="0 0 1058.94126 751.263791" xmlns="http://www.w3.org/2000/svg" version="1.1">
 <metadata>
  <rdf:RDF xmlns:dc="http://purl.org/dc/elements/1.1/" xmlns:cc="http://creativecommons.org/ns#" xmlns:rdf="http://www.w3.org/1999/02/22-rdf-syntax-ns#">
   <cc:Work>
    <dc:type rdf:resource="http://purl.org/dc/dcmitype/StillImage"/>
    <dc:date>2026-05-20T19:03:07.770219</dc:date>
    <dc:format>image/svg+xml</dc:format>
    <dc:creator>
     <cc:Agent>
      <dc:title>Matplotlib v3.9.4, https://matplotlib.org/</dc:title>
     </cc:Agent>
    </dc:creator>
   </cc:Work>
  </rdf:RDF>
 </metadata>
 <defs>
  <style type="text/css">*{stroke-linejoin: round; stroke-linecap: butt}</style>
 </defs>
 <g id="figure_1">
  <g id="patch_1">
   <path d="M 0 751.263791 
L 1058.94126 751.263791 
L 1058.94126 0 
L 0 0 
z
" style="fill: #ffffff"/>
  </g>
  <g id="axes_1">
   <g id="patch_2">
    <path d="M 33.82 668.293712 
L 956.497165 668.293712 
L 956.497165 20.038594 
L 33.82 20.038594 
z
" style="fill: #ffffff"/>
   </g>
   <g id="matplotlib.axis_1">
    <g id="xtick_1">
     <g id="line2d_1">
      <path d="M 119.205136 668.293712 
L 119.205136 20.038594 
" clip-path="url(#p8e2eac0e52)" style="fill: none; stroke: #aaaaaa; stroke-width: 0.5; stroke-linecap: square"/>
     </g>
     <g id="line2d_2">
      <defs>
       <path id="mf9032f610e" d="M 0 0 
L 0 3.5 
" style="stroke: #000000; stroke-width: 0.8"/>
      </defs>
      <g>
       <use xlink:href="#mf9032f610e" x="119.205136" y="668.293712" style="stroke: #000000; stroke-width: 0.8"/>
      </g>
     </g>
     <g id="text_1">
      <!-- −15 -->
      <g transform="translate(112.873729 679.852774) scale(0.06 -0.06)">
       <defs>
        <path id="DejaVuSans-2212" d="M 678 2272 
L 4684 2272 
L 4684 1741 
L 678 1741 
L 678 2272 
z
" transform="scale(0.015625)"/>
        <path id="DejaVuSans-31" d="M 794 531 
L 1825 531 
L 1825 4091 
L 703 3866 
L 703 4441 
L 1819 4666 
L 2450 4666 
L 2450 531 
L 3481 531 
L 3481 0 
L 794 0 
L 794 531 
z
" transform="scale(0.015625)"/>
        <path id="DejaVuSans-35" d="M 691 4666 
L 3169 4666 
L 3169 4134 
L 1269 4134 
L 1269 2991 
Q 1406 3038 1543 3061 
Q 1681 3084 1819 3084 
Q 2600 3084 3056 2656 
Q 3513 2228 3513 1497 
Q 3513 744 3044 326 
Q 2575 -91 1722 -91 
Q 1428 -91 1123 -41 
Q 819 9 494 109 
L 494 744 
Q 775 591 1075 516 
Q 1375 441 1709 441 
Q 2250 441 2565 725 
Q 2881 1009 2881 1497 
Q 2881 1984 2565 2268 
Q 2250 2553 1709 2553 
Q 1456 2553 1204 2497 
Q 953 2441 691 2322 
L 691 4666 
z
" transform="scale(0.015625)"/>
       </defs>
       <use xlink:href="#DejaVuSans-2212"/>
       <use xlink:href="#DejaVuSans-31" x="83.789062"/>
       <use xlink:href="#DejaVuSans-35" x="147.412109"/>
      </g>
     </g>
    </g>
    <g id="xtick_2">
     <g id="line2d_3">
      <path d="M 267.398416 668.293712 
L 267.398416 20.038594 
" clip-path="url(#p8e2eac0e52)" style="fill: none; stroke: #aaaaaa; stroke-width: 0.5; stroke-linecap: square"/>
     </g>
     <g id="line2d_4">
      <g>
       <use xlink:href="#mf9032f610e" x="267.398416" y="668.293712" style="stroke: #000000; stroke-width: 0.8"/>
      </g>
     </g>
     <g id="text_2">
      <!-- −10 -->
      <g transform="translate(261.06701 679.852774) scale(0.06 -0.06)">
       <defs>
        <path id="DejaVuSans-30" d="M 2034 4250 
Q 1547 4250 1301 3770 
Q 1056 3291 1056 2328 
Q 1056 1369 1301 889 
Q 1547 409 2034 409 
Q 2525 409 2770 889 
Q 3016 1369 3016 2328 
Q 3016 3291 2770 3770 
Q 2525 4250 2034 4250 
z
M 2034 4750 
Q 2819 4750 3233 4129 
Q 3647 3509 3647 2328 
Q 3647 1150 3233 529 
Q 2819 -91 2034 -91 
Q 1250 -91 836 529 
Q 422 1150 422 2328 
Q 422 3509 836 4129 
Q 1250 4750 2034 4750 
z
" transform="scale(0.015625)"/>
       </defs>
       <use xlink:href="#DejaVuSans-2212"/>
       <use xlink:href="#DejaVuSans-31" x="83.789062"/>
       <use xlink:href="#DejaVuSans-30" x="147.412109"/>
      </g>
     </g>
    </g>
    <g id="xtick_3">
     <g id="line2d_5">
      <path d="M 415.591696 668.293712 
L 415.591696 20.038594 
" clip-path="url(#p8e2eac0e52)" style="fill: none; stroke: #aaaaaa; stroke-width: 0.5; stroke-linecap: square"/>
     </g>
     <g id="line2d_6">
      <g>
       <use xlink:href="#mf9032f610e" x="415.591696" y="668.293712" style="stroke: #000000; stroke-width: 0.8"/>
      </g>
     </g>
     <g id="text_3">
      <!-- −5 -->
      <g transform="translate(411.16904 679.852774) scale(0.06 -0.06)">
       <use xlink:href="#DejaVuSans-2212"/>
       <use xlink:href="#DejaVuSans-35" x="83.789062"/>
      </g>
     </g>
    </g>
    <g id="xtick_4">
     <g id="line2d_7">
      <path d="M 563.784976 668.293712 
L 563.784976 20.038594 
" clip-path="url(#p8e2eac0e52)" style="fill: none; stroke: #aaaaaa; stroke-width: 0.5; stroke-linecap: square"/>
     </g>
     <g id="line2d_8">
      <g>
       <use xlink:href="#mf9032f610e" x="563.784976" y="668.293712" style="stroke: #000000; stroke-width: 0.8"/>
      </g>
     </g>
     <g id="text_4">
      <!-- 0 -->
      <g transform="translate(561.876226 679.852774) scale(0.06 -0.06)">
       <use xlink:href="#DejaVuSans-30"/>
      </g>
     </g>
    </g>
    <g id="xtick_5">
     <g id="line2d_9">
      <path d="M 711.978256 668.293712 
L 711.978256 20.038594 
" clip-path="url(#p8e2eac0e52)" style="fill: none; stroke: #aaaaaa; stroke-width: 0.5; stroke-linecap: square"/>
     </g>
     <g id="line2d_10">
      <g>
       <use xlink:href="#mf9032f610e" x="711.978256" y="668.293712" style="stroke: #000000; stroke-width: 0.8"/>
      </g>
     </g>
     <g id="text_5">
      <!-- 5 -->
      <g transform="translate(710.069506 679.852774) scale(0.06 -0.06)">
       <use xlink:href="#DejaVuSans-35"/>
      </g>
     </g>
    </g>
    <g id="xtick_6">
     <g id="line2d_11">
      <path d="M 860.171537 668.293712 
L 860.171537 20.038594 
" clip-path="url(#p8e2eac0e52)" style="fill: none; stroke: #aaaaaa; stroke-width: 0.5; stroke-linecap: square"/>
     </g>
     <g id="line2d_12">
      <g>
       <use xlink:href="#mf9032f610e" x="860.171537" y="668.293712" style="stroke: #000000; stroke-width: 0.8"/>
      </g>
     </g>
     <g id="text_6">
      <!-- 10 -->
      <g transform="translate(856.354037 679.852774) scale(0.06 -0.06)">
       <use xlink:href="#DejaVuSans-31"/>
       <use xlink:href="#DejaVuSans-30" x="63.623047"/>
      </g>
     </g>
    </g>
    <g id="xtick_7">
     <g id="line2d_13">
      <path d="M 59.927824 668.293712 
L 59.927824 20.038594 
" clip-path="url(#p8e2eac0e52)" style="fill: none; stroke: #dddddd; stroke-width: 0.25; stroke-linecap: square"/>
     </g>
     <g id="line2d_14">
      <defs>
       <path id="m593d9883d3" d="M 0 0 
L 0 2 
" style="stroke: #000000; stroke-width: 0.6"/>
      </defs>
      <g>
       <use xlink:href="#m593d9883d3" x="59.927824" y="668.293712" style="stroke: #000000; stroke-width: 0.6"/>
      </g>
     </g>
    </g>
    <g id="xtick_8">
     <g id="line2d_15">
      <path d="M 89.56648 668.293712 
L 89.56648 20.038594 
" clip-path="url(#p8e2eac0e52)" style="fill: none; stroke: #dddddd; stroke-width: 0.25; stroke-linecap: square"/>
     </g>
     <g id="line2d_16">
      <g>
       <use xlink:href="#m593d9883d3" x="89.56648" y="668.293712" style="stroke: #000000; stroke-width: 0.6"/>
      </g>
     </g>
    </g>
    <g id="xtick_9">
     <g id="line2d_17">
      <path d="M 148.843792 668.293712 
L 148.843792 20.038594 
" clip-path="url(#p8e2eac0e52)" style="fill: none; stroke: #dddddd; stroke-width: 0.25; stroke-linecap: square"/>
     </g>
     <g id="line2d_18">
      <g>
       <use xlink:href="#m593d9883d3" x="148.843792" y="668.293712" style="stroke: #000000; stroke-width: 0.6"/>
      </g>
     </g>
    </g>
    <g id="xtick_10">
     <g id="line2d_19">
      <path d="M 178.482448 668.293712 
L 178.482448 20.038594 
" clip-path="url(#p8e2eac0e52)" style="fill: none; stroke: #dddddd; stroke-width: 0.25; stroke-linecap: square"/>
     </g>
     <g id="line2d_20">
      <g>
       <use xlink:href="#m593d9883d3" x="178.482448" y="668.293712" style="stroke: #000000; stroke-width: 0.6"/>
      </g>
     </g>
    </g>
    <g id="xtick_11">
     <g id="line2d_21">
      <path d="M 208.121104 668.293712 
L 208.121104 20.038594 
" clip-path="url(#p8e2eac0e52)" style="fill: none; stroke: #dddddd; stroke-width: 0.25; stroke-linecap: square"/>
     </g>
     <g id="line2d_22">
      <g>
       <use xlink:href="#m593d9883d3" x="208.121104" y="668.293712" style="stroke: #000000; stroke-width: 0.6"/>
      </g>
     </g>
    </g>
    <g id="xtick_12">
     <g id="line2d_23">
      <path d="M 237.75976 668.293712 
L 237.75976 20.038594 
" clip-path="url(#p8e2eac0e52)" style="fill: none; stroke: #dddddd; stroke-width: 0.25; stroke-linecap: square"/>
     </g>
     <g id="line2d_24">
      <g>
       <use xlink:href="#m593d9883d3" x="237.75976" y="668.293712" style="stroke: #000000; stroke-width: 0.6"/>
      </g>
     </g>
    </g>
    <g id="xtick_13">
     <g id="line2d_25">
      <path d="M 297.037072 668.293712 
L 297.037072 20.038594 
" clip-path="url(#p8e2eac0e52)" style="fill: none; stroke: #dddddd; stroke-width: 0.25; stroke-linecap: square"/>
     </g>
     <g id="line2d_26">
      <g>
       <use xlink:href="#m593d9883d3" x="297.037072" y="668.293712" style="stroke: #000000; stroke-width: 0.6"/>
      </g>
     </g>
    </g>
    <g id="xtick_14">
     <g id="line2d_27">
      <path d="M 326.675728 668.293712 
L 326.675728 20.038594 
" clip-path="url(#p8e2eac0e52)" style="fill: none; stroke: #dddddd; stroke-width: 0.25; stroke-linecap: square"/>
     </g>
     <g id="line2d_28">
      <g>
       <use xlink:href="#m593d9883d3" x="326.675728" y="668.293712" style="stroke: #000000; stroke-width: 0.6"/>
      </g>
     </g>
    </g>
    <g id="xtick_15">
     <g id="line2d_29">
      <path d="M 356.314384 668.293712 
L 356.314384 20.038594 
" clip-path="url(#p8e2eac0e52)" style="fill: none; stroke: #dddddd; stroke-width: 0.25; stroke-linecap: square"/>
     </g>
     <g id="line2d_30">
      <g>
       <use xlink:href="#m593d9883d3" x="356.314384" y="668.293712" style="stroke: #000000; stroke-width: 0.6"/>
      </g>
     </g>
    </g>
    <g id="xtick_16">
     <g id="line2d_31">
      <path d="M 385.95304 668.293712 
L 385.95304 20.038594 
" clip-path="url(#p8e2eac0e52)" style="fill: none; stroke: #dddddd; stroke-width: 0.25; stroke-linecap: square"/>
     </g>
     <g id="line2d_32">
      <g>
       <use xlink:href="#m593d9883d3" x="385.95304" y="668.293712" style="stroke: #000000; stroke-width: 0.6"/>
      </g>
     </g>
    </g>
    <g id="xtick_17">
     <g id="line2d_33">
      <path d="M 445.230352 668.293712 
L 445.230352 20.038594 
" clip-path="url(#p8e2eac0e52)" style="fill: none; stroke: #dddddd; stroke-width: 0.25; stroke-linecap: square"/>
     </g>
     <g id="line2d_34">
      <g>
       <use xlink:href="#m593d9883d3" x="445.230352" y="668.293712" style="stroke: #000000; stroke-width: 0.6"/>
      </g>
     </g>
    </g>
    <g id="xtick_18">
     <g id="line2d_35">
      <path d="M 474.869008 668.293712 
L 474.869008 20.038594 
" clip-path="url(#p8e2eac0e52)" style="fill: none; stroke: #dddddd; stroke-width: 0.25; stroke-linecap: square"/>
     </g>
     <g id="line2d_36">
      <g>
       <use xlink:href="#m593d9883d3" x="474.869008" y="668.293712" style="stroke: #000000; stroke-width: 0.6"/>
      </g>
     </g>
    </g>
    <g id="xtick_19">
     <g id="line2d_37">
      <path d="M 504.507664 668.293712 
L 504.507664 20.038594 
" clip-path="url(#p8e2eac0e52)" style="fill: none; stroke: #dddddd; stroke-width: 0.25; stroke-linecap: square"/>
     </g>
     <g id="line2d_38">
      <g>
       <use xlink:href="#m593d9883d3" x="504.507664" y="668.293712" style="stroke: #000000; stroke-width: 0.6"/>
      </g>
     </g>
    </g>
    <g id="xtick_20">
     <g id="line2d_39">
      <path d="M 534.14632 668.293712 
L 534.14632 20.038594 
" clip-path="url(#p8e2eac0e52)" style="fill: none; stroke: #dddddd; stroke-width: 0.25; stroke-linecap: square"/>
     </g>
     <g id="line2d_40">
      <g>
       <use xlink:href="#m593d9883d3" x="534.14632" y="668.293712" style="stroke: #000000; stroke-width: 0.6"/>
      </g>
     </g>
    </g>
    <g id="xtick_21">
     <g id="line2d_41">
      <path d="M 593.423632 668.293712 
L 593.423632 20.038594 
" clip-path="url(#p8e2eac0e52)" style="fill: none; stroke: #dddddd; stroke-width: 0.25; stroke-linecap: square"/>
     </g>
     <g id="line2d_42">
      <g>
       <use xlink:href="#m593d9883d3" x="593.423632" y="668.293712" style="stroke: #000000; stroke-width: 0.6"/>
      </g>
     </g>
    </g>
    <g id="xtick_22">
     <g id="line2d_43">
      <path d="M 623.062288 668.293712 
L 623.062288 20.038594 
" clip-path="url(#p8e2eac0e52)" style="fill: none; stroke: #dddddd; stroke-width: 0.25; stroke-linecap: square"/>
     </g>
     <g id="line2d_44">
      <g>
       <use xlink:href="#m593d9883d3" x="623.062288" y="668.293712" style="stroke: #000000; stroke-width: 0.6"/>
      </g>
     </g>
    </g>
    <g id="xtick_23">
     <g id="line2d_45">
      <path d="M 652.700944 668.293712 
L 652.700944 20.038594 
" clip-path="url(#p8e2eac0e52)" style="fill: none; stroke: #dddddd; stroke-width: 0.25; stroke-linecap: square"/>
     </g>
     <g id="line2d_46">
      <g>
       <use xlink:href="#m593d9883d3" x="652.700944" y="668.293712" style="stroke: #000000; stroke-width: 0.6"/>
      </g>
     </g>
    </g>
    <g id="xtick_24">
     <g id="line2d_47">
      <path d="M 682.3396 668.293712 
L 682.3396 20.038594 
" clip-path="url(#p8e2eac0e52)" style="fill: none; stroke: #dddddd; stroke-width: 0.25; stroke-linecap: square"/>
     </g>
     <g id="line2d_48">
      <g>
       <use xlink:href="#m593d9883d3" x="682.3396" y="668.293712" style="stroke: #000000; stroke-width: 0.6"/>
      </g>
     </g>
    </g>
    <g id="xtick_25">
     <g id="line2d_49">
      <path d="M 741.616912 668.293712 
L 741.616912 20.038594 
" clip-path="url(#p8e2eac0e52)" style="fill: none; stroke: #dddddd; stroke-width: 0.25; stroke-linecap: square"/>
     </g>
     <g id="line2d_50">
      <g>
       <use xlink:href="#m593d9883d3" x="741.616912" y="668.293712" style="stroke: #000000; stroke-width: 0.6"/>
      </g>
     </g>
    </g>
    <g id="xtick_26">
     <g id="line2d_51">
      <path d="M 771.255568 668.293712 
L 771.255568 20.038594 
" clip-path="url(#p8e2eac0e52)" style="fill: none; stroke: #dddddd; stroke-width: 0.25; stroke-linecap: square"/>
     </g>
     <g id="line2d_52">
      <g>
       <use xlink:href="#m593d9883d3" x="771.255568" y="668.293712" style="stroke: #000000; stroke-width: 0.6"/>
      </g>
     </g>
    </g>
    <g id="xtick_27">
     <g id="line2d_53">
      <path d="M 800.894224 668.293712 
L 800.894224 20.038594 
" clip-path="url(#p8e2eac0e52)" style="fill: none; stroke: #dddddd; stroke-width: 0.25; stroke-linecap: square"/>
     </g>
     <g id="line2d_54">
      <g>
       <use xlink:href="#m593d9883d3" x="800.894224" y="668.293712" style="stroke: #000000; stroke-width: 0.6"/>
      </g>
     </g>
    </g>
    <g id="xtick_28">
     <g id="line2d_55">
      <path d="M 830.53288 668.293712 
L 830.53288 20.038594 
" clip-path="url(#p8e2eac0e52)" style="fill: none; stroke: #dddddd; stroke-width: 0.25; stroke-linecap: square"/>
     </g>
     <g id="line2d_56">
      <g>
       <use xlink:href="#m593d9883d3" x="830.53288" y="668.293712" style="stroke: #000000; stroke-width: 0.6"/>
      </g>
     </g>
    </g>
    <g id="xtick_29">
     <g id="line2d_57">
      <path d="M 889.810193 668.293712 
L 889.810193 20.038594 
" clip-path="url(#p8e2eac0e52)" style="fill: none; stroke: #dddddd; stroke-width: 0.25; stroke-linecap: square"/>
     </g>
     <g id="line2d_58">
      <g>
       <use xlink:href="#m593d9883d3" x="889.810193" y="668.293712" style="stroke: #000000; stroke-width: 0.6"/>
      </g>
     </g>
    </g>
    <g id="xtick_30">
     <g id="line2d_59">
      <path d="M 919.448849 668.293712 
L 919.448849 20.038594 
" clip-path="url(#p8e2eac0e52)" style="fill: none; stroke: #dddddd; stroke-width: 0.25; stroke-linecap: square"/>
     </g>
     <g id="line2d_60">
      <g>
       <use xlink:href="#m593d9883d3" x="919.448849" y="668.293712" style="stroke: #000000; stroke-width: 0.6"/>
      </g>
     </g>
    </g>
    <g id="xtick_31">
     <g id="line2d_61">
      <path d="M 949.087505 668.293712 
L 949.087505 20.038594 
" clip-path="url(#p8e2eac0e52)" style="fill: none; stroke: #dddddd; stroke-width: 0.25; stroke-linecap: square"/>
     </g>
     <g id="line2d_62">
      <g>
       <use xlink:href="#m593d9883d3" x="949.087505" y="668.293712" style="stroke: #000000; stroke-width: 0.6"/>
      </g>
     </g>
    </g>
    <g id="text_7">
     <!-- Avstand fra senterlinje (m) -->
     <g transform="translate(448.376708 690.419493) scale(0.07 -0.07)">
      <defs>
       <path id="DejaVuSans-41" d="M 2188 4044 
L 1331 1722 
L 3047 1722 
L 2188 4044 
z
M 1831 4666 
L 2547 4666 
L 4325 0 
L 3669 0 
L 3244 1197 
L 1141 1197 
L 716 0 
L 50 0 
L 1831 4666 
z
" transform="scale(0.015625)"/>
       <path id="DejaVuSans-76" d="M 191 3500 
L 800 3500 
L 1894 563 
L 2988 3500 
L 3597 3500 
L 2284 0 
L 1503 0 
L 191 3500 
z
" transform="scale(0.015625)"/>
       <path id="DejaVuSans-73" d="M 2834 3397 
L 2834 2853 
Q 2591 2978 2328 3040 
Q 2066 3103 1784 3103 
Q 1356 3103 1142 2972 
Q 928 2841 928 2578 
Q 928 2378 1081 2264 
Q 1234 2150 1697 2047 
L 1894 2003 
Q 2506 1872 2764 1633 
Q 3022 1394 3022 966 
Q 3022 478 2636 193 
Q 2250 -91 1575 -91 
Q 1294 -91 989 -36 
Q 684 19 347 128 
L 347 722 
Q 666 556 975 473 
Q 1284 391 1588 391 
Q 1994 391 2212 530 
Q 2431 669 2431 922 
Q 2431 1156 2273 1281 
Q 2116 1406 1581 1522 
L 1381 1569 
Q 847 1681 609 1914 
Q 372 2147 372 2553 
Q 372 3047 722 3315 
Q 1072 3584 1716 3584 
Q 2034 3584 2315 3537 
Q 2597 3491 2834 3397 
z
" transform="scale(0.015625)"/>
       <path id="DejaVuSans-74" d="M 1172 4494 
L 1172 3500 
L 2356 3500 
L 2356 3053 
L 1172 3053 
L 1172 1153 
Q 1172 725 1289 603 
Q 1406 481 1766 481 
L 2356 481 
L 2356 0 
L 1766 0 
Q 1100 0 847 248 
Q 594 497 594 1153 
L 594 3053 
L 172 3053 
L 172 3500 
L 594 3500 
L 594 4494 
L 1172 4494 
z
" transform="scale(0.015625)"/>
       <path id="DejaVuSans-61" d="M 2194 1759 
Q 1497 1759 1228 1600 
Q 959 1441 959 1056 
Q 959 750 1161 570 
Q 1363 391 1709 391 
Q 2188 391 2477 730 
Q 2766 1069 2766 1631 
L 2766 1759 
L 2194 1759 
z
M 3341 1997 
L 3341 0 
L 2766 0 
L 2766 531 
Q 2569 213 2275 61 
Q 1981 -91 1556 -91 
Q 1019 -91 701 211 
Q 384 513 384 1019 
Q 384 1609 779 1909 
Q 1175 2209 1959 2209 
L 2766 2209 
L 2766 2266 
Q 2766 2663 2505 2880 
Q 2244 3097 1772 3097 
Q 1472 3097 1187 3025 
Q 903 2953 641 2809 
L 641 3341 
Q 956 3463 1253 3523 
Q 1550 3584 1831 3584 
Q 2591 3584 2966 3190 
Q 3341 2797 3341 1997 
z
" transform="scale(0.015625)"/>
       <path id="DejaVuSans-6e" d="M 3513 2113 
L 3513 0 
L 2938 0 
L 2938 2094 
Q 2938 2591 2744 2837 
Q 2550 3084 2163 3084 
Q 1697 3084 1428 2787 
Q 1159 2491 1159 1978 
L 1159 0 
L 581 0 
L 581 3500 
L 1159 3500 
L 1159 2956 
Q 1366 3272 1645 3428 
Q 1925 3584 2291 3584 
Q 2894 3584 3203 3211 
Q 3513 2838 3513 2113 
z
" transform="scale(0.015625)"/>
       <path id="DejaVuSans-64" d="M 2906 2969 
L 2906 4863 
L 3481 4863 
L 3481 0 
L 2906 0 
L 2906 525 
Q 2725 213 2448 61 
Q 2172 -91 1784 -91 
Q 1150 -91 751 415 
Q 353 922 353 1747 
Q 353 2572 751 3078 
Q 1150 3584 1784 3584 
Q 2172 3584 2448 3432 
Q 2725 3281 2906 2969 
z
M 947 1747 
Q 947 1113 1208 752 
Q 1469 391 1925 391 
Q 2381 391 2643 752 
Q 2906 1113 2906 1747 
Q 2906 2381 2643 2742 
Q 2381 3103 1925 3103 
Q 1469 3103 1208 2742 
Q 947 2381 947 1747 
z
" transform="scale(0.015625)"/>
       <path id="DejaVuSans-20" transform="scale(0.015625)"/>
       <path id="DejaVuSans-66" d="M 2375 4863 
L 2375 4384 
L 1825 4384 
Q 1516 4384 1395 4259 
Q 1275 4134 1275 3809 
L 1275 3500 
L 2222 3500 
L 2222 3053 
L 1275 3053 
L 1275 0 
L 697 0 
L 697 3053 
L 147 3053 
L 147 3500 
L 697 3500 
L 697 3744 
Q 697 4328 969 4595 
Q 1241 4863 1831 4863 
L 2375 4863 
z
" transform="scale(0.015625)"/>
       <path id="DejaVuSans-72" d="M 2631 2963 
Q 2534 3019 2420 3045 
Q 2306 3072 2169 3072 
Q 1681 3072 1420 2755 
Q 1159 2438 1159 1844 
L 1159 0 
L 581 0 
L 581 3500 
L 1159 3500 
L 1159 2956 
Q 1341 3275 1631 3429 
Q 1922 3584 2338 3584 
Q 2397 3584 2469 3576 
Q 2541 3569 2628 3553 
L 2631 2963 
z
" transform="scale(0.015625)"/>
       <path id="DejaVuSans-65" d="M 3597 1894 
L 3597 1613 
L 953 1613 
Q 991 1019 1311 708 
Q 1631 397 2203 397 
Q 2534 397 2845 478 
Q 3156 559 3463 722 
L 3463 178 
Q 3153 47 2828 -22 
Q 2503 -91 2169 -91 
Q 1331 -91 842 396 
Q 353 884 353 1716 
Q 353 2575 817 3079 
Q 1281 3584 2069 3584 
Q 2775 3584 3186 3129 
Q 3597 2675 3597 1894 
z
M 3022 2063 
Q 3016 2534 2758 2815 
Q 2500 3097 2075 3097 
Q 1594 3097 1305 2825 
Q 1016 2553 972 2059 
L 3022 2063 
z
" transform="scale(0.015625)"/>
       <path id="DejaVuSans-6c" d="M 603 4863 
L 1178 4863 
L 1178 0 
L 603 0 
L 603 4863 
z
" transform="scale(0.015625)"/>
       <path id="DejaVuSans-69" d="M 603 3500 
L 1178 3500 
L 1178 0 
L 603 0 
L 603 3500 
z
M 603 4863 
L 1178 4863 
L 1178 4134 
L 603 4134 
L 603 4863 
z
" transform="scale(0.015625)"/>
       <path id="DejaVuSans-6a" d="M 603 3500 
L 1178 3500 
L 1178 -63 
Q 1178 -731 923 -1031 
Q 669 -1331 103 -1331 
L -116 -1331 
L -116 -844 
L 38 -844 
Q 366 -844 484 -692 
Q 603 -541 603 -63 
L 603 3500 
z
M 603 4863 
L 1178 4863 
L 1178 4134 
L 603 4134 
L 603 4863 
z
" transform="scale(0.015625)"/>
       <path id="DejaVuSans-28" d="M 1984 4856 
Q 1566 4138 1362 3434 
Q 1159 2731 1159 2009 
Q 1159 1288 1364 580 
Q 1569 -128 1984 -844 
L 1484 -844 
Q 1016 -109 783 600 
Q 550 1309 550 2009 
Q 550 2706 781 3412 
Q 1013 4119 1484 4856 
L 1984 4856 
z
" transform="scale(0.015625)"/>
       <path id="DejaVuSans-6d" d="M 3328 2828 
Q 3544 3216 3844 3400 
Q 4144 3584 4550 3584 
Q 5097 3584 5394 3201 
Q 5691 2819 5691 2113 
L 5691 0 
L 5113 0 
L 5113 2094 
Q 5113 2597 4934 2840 
Q 4756 3084 4391 3084 
Q 3944 3084 3684 2787 
Q 3425 2491 3425 1978 
L 3425 0 
L 2847 0 
L 2847 2094 
Q 2847 2600 2669 2842 
Q 2491 3084 2119 3084 
Q 1678 3084 1418 2786 
Q 1159 2488 1159 1978 
L 1159 0 
L 581 0 
L 581 3500 
L 1159 3500 
L 1159 2956 
Q 1356 3278 1631 3431 
Q 1906 3584 2284 3584 
Q 2666 3584 2933 3390 
Q 3200 3197 3328 2828 
z
" transform="scale(0.015625)"/>
       <path id="DejaVuSans-29" d="M 513 4856 
L 1013 4856 
Q 1481 4119 1714 3412 
Q 1947 2706 1947 2009 
Q 1947 1309 1714 600 
Q 1481 -109 1013 -844 
L 513 -844 
Q 928 -128 1133 580 
Q 1338 1288 1338 2009 
Q 1338 2731 1133 3434 
Q 928 4138 513 4856 
z
" transform="scale(0.015625)"/>
      </defs>
      <use xlink:href="#DejaVuSans-41"/>
      <use xlink:href="#DejaVuSans-76" x="62.533203"/>
      <use xlink:href="#DejaVuSans-73" x="121.712891"/>
      <use xlink:href="#DejaVuSans-74" x="173.8125"/>
      <use xlink:href="#DejaVuSans-61" x="213.021484"/>
      <use xlink:href="#DejaVuSans-6e" x="274.300781"/>
      <use xlink:href="#DejaVuSans-64" x="337.679688"/>
      <use xlink:href="#DejaVuSans-20" x="401.15625"/>
      <use xlink:href="#DejaVuSans-66" x="432.943359"/>
      <use xlink:href="#DejaVuSans-72" x="468.148438"/>
      <use xlink:href="#DejaVuSans-61" x="509.261719"/>
      <use xlink:href="#DejaVuSans-20" x="570.541016"/>
      <use xlink:href="#DejaVuSans-73" x="602.328125"/>
      <use xlink:href="#DejaVuSans-65" x="654.427734"/>
      <use xlink:href="#DejaVuSans-6e" x="715.951172"/>
      <use xlink:href="#DejaVuSans-74" x="779.330078"/>
      <use xlink:href="#DejaVuSans-65" x="818.539062"/>
      <use xlink:href="#DejaVuSans-72" x="880.0625"/>
      <use xlink:href="#DejaVuSans-6c" x="921.175781"/>
      <use xlink:href="#DejaVuSans-69" x="948.958984"/>
      <use xlink:href="#DejaVuSans-6e" x="976.742188"/>
      <use xlink:href="#DejaVuSans-6a" x="1040.121094"/>
      <use xlink:href="#DejaVuSans-65" x="1067.904297"/>
      <use xlink:href="#DejaVuSans-20" x="1129.427734"/>
      <use xlink:href="#DejaVuSans-28" x="1161.214844"/>
      <use xlink:href="#DejaVuSans-6d" x="1200.228516"/>
      <use xlink:href="#DejaVuSans-29" x="1297.640625"/>
     </g>
    </g>
   </g>
   <g id="matplotlib.axis_2">
    <g id="ytick_1">
     <g id="line2d_63">
      <path d="M 33.82 635.337714 
L 956.497165 635.337714 
" clip-path="url(#p8e2eac0e52)" style="fill: none; stroke: #aaaaaa; stroke-width: 0.5; stroke-linecap: square"/>
     </g>
     <g id="line2d_64">
      <defs>
       <path id="mbb08b843a6" d="M 0 0 
L -3.5 0 
" style="stroke: #000000; stroke-width: 0.8"/>
      </defs>
      <g>
       <use xlink:href="#mbb08b843a6" x="33.82" y="635.337714" style="stroke: #000000; stroke-width: 0.8"/>
      </g>
     </g>
     <g id="text_8">
      <!-- −4 -->
      <g transform="translate(17.974688 637.617246) scale(0.06 -0.06)">
       <defs>
        <path id="DejaVuSans-34" d="M 2419 4116 
L 825 1625 
L 2419 1625 
L 2419 4116 
z
M 2253 4666 
L 3047 4666 
L 3047 1625 
L 3713 1625 
L 3713 1100 
L 3047 1100 
L 3047 0 
L 2419 0 
L 2419 1100 
L 313 1100 
L 313 1709 
L 2253 4666 
z
" transform="scale(0.015625)"/>
       </defs>
       <use xlink:href="#DejaVuSans-2212"/>
       <use xlink:href="#DejaVuSans-34" x="83.789062"/>
      </g>
     </g>
    </g>
    <g id="ytick_2">
     <g id="line2d_65">
      <path d="M 33.82 597.584588 
L 956.497165 597.584588 
" clip-path="url(#p8e2eac0e52)" style="fill: none; stroke: #aaaaaa; stroke-width: 0.5; stroke-linecap: square"/>
     </g>
     <g id="line2d_66">
      <g>
       <use xlink:href="#mbb08b843a6" x="33.82" y="597.584588" style="stroke: #000000; stroke-width: 0.8"/>
      </g>
     </g>
     <g id="text_9">
      <!-- −3 -->
      <g transform="translate(17.974688 599.864119) scale(0.06 -0.06)">
       <defs>
        <path id="DejaVuSans-33" d="M 2597 2516 
Q 3050 2419 3304 2112 
Q 3559 1806 3559 1356 
Q 3559 666 3084 287 
Q 2609 -91 1734 -91 
Q 1441 -91 1130 -33 
Q 819 25 488 141 
L 488 750 
Q 750 597 1062 519 
Q 1375 441 1716 441 
Q 2309 441 2620 675 
Q 2931 909 2931 1356 
Q 2931 1769 2642 2001 
Q 2353 2234 1838 2234 
L 1294 2234 
L 1294 2753 
L 1863 2753 
Q 2328 2753 2575 2939 
Q 2822 3125 2822 3475 
Q 2822 3834 2567 4026 
Q 2313 4219 1838 4219 
Q 1578 4219 1281 4162 
Q 984 4106 628 3988 
L 628 4550 
Q 988 4650 1302 4700 
Q 1616 4750 1894 4750 
Q 2613 4750 3031 4423 
Q 3450 4097 3450 3541 
Q 3450 3153 3228 2886 
Q 3006 2619 2597 2516 
z
" transform="scale(0.015625)"/>
       </defs>
       <use xlink:href="#DejaVuSans-2212"/>
       <use xlink:href="#DejaVuSans-33" x="83.789062"/>
      </g>
     </g>
    </g>
    <g id="ytick_3">
     <g id="line2d_67">
      <path d="M 33.82 559.831461 
L 956.497165 559.831461 
" clip-path="url(#p8e2eac0e52)" style="fill: none; stroke: #aaaaaa; stroke-width: 0.5; stroke-linecap: square"/>
     </g>
     <g id="line2d_68">
      <g>
       <use xlink:href="#mbb08b843a6" x="33.82" y="559.831461" style="stroke: #000000; stroke-width: 0.8"/>
      </g>
     </g>
     <g id="text_10">
      <!-- −2 -->
      <g transform="translate(17.974688 562.110992) scale(0.06 -0.06)">
       <defs>
        <path id="DejaVuSans-32" d="M 1228 531 
L 3431 531 
L 3431 0 
L 469 0 
L 469 531 
Q 828 903 1448 1529 
Q 2069 2156 2228 2338 
Q 2531 2678 2651 2914 
Q 2772 3150 2772 3378 
Q 2772 3750 2511 3984 
Q 2250 4219 1831 4219 
Q 1534 4219 1204 4116 
Q 875 4013 500 3803 
L 500 4441 
Q 881 4594 1212 4672 
Q 1544 4750 1819 4750 
Q 2544 4750 2975 4387 
Q 3406 4025 3406 3419 
Q 3406 3131 3298 2873 
Q 3191 2616 2906 2266 
Q 2828 2175 2409 1742 
Q 1991 1309 1228 531 
z
" transform="scale(0.015625)"/>
       </defs>
       <use xlink:href="#DejaVuSans-2212"/>
       <use xlink:href="#DejaVuSans-32" x="83.789062"/>
      </g>
     </g>
    </g>
    <g id="ytick_4">
     <g id="line2d_69">
      <path d="M 33.82 522.078334 
L 956.497165 522.078334 
" clip-path="url(#p8e2eac0e52)" style="fill: none; stroke: #aaaaaa; stroke-width: 0.5; stroke-linecap: square"/>
     </g>
     <g id="line2d_70">
      <g>
       <use xlink:href="#mbb08b843a6" x="33.82" y="522.078334" style="stroke: #000000; stroke-width: 0.8"/>
      </g>
     </g>
     <g id="text_11">
      <!-- −1 -->
      <g transform="translate(17.974688 524.357865) scale(0.06 -0.06)">
       <use xlink:href="#DejaVuSans-2212"/>
       <use xlink:href="#DejaVuSans-31" x="83.789062"/>
      </g>
     </g>
    </g>
    <g id="ytick_5">
     <g id="line2d_71">
      <path d="M 33.82 484.325207 
L 956.497165 484.325207 
" clip-path="url(#p8e2eac0e52)" style="fill: none; stroke: #aaaaaa; stroke-width: 0.5; stroke-linecap: square"/>
     </g>
     <g id="line2d_72">
      <g>
       <use xlink:href="#mbb08b843a6" x="33.82" y="484.325207" style="stroke: #000000; stroke-width: 0.8"/>
      </g>
     </g>
     <g id="text_12">
      <!-- 0 -->
      <g transform="translate(23.0025 486.604738) scale(0.06 -0.06)">
       <use xlink:href="#DejaVuSans-30"/>
      </g>
     </g>
    </g>
    <g id="ytick_6">
     <g id="line2d_73">
      <path d="M 33.82 446.57208 
L 956.497165 446.57208 
" clip-path="url(#p8e2eac0e52)" style="fill: none; stroke: #aaaaaa; stroke-width: 0.5; stroke-linecap: square"/>
     </g>
     <g id="line2d_74">
      <g>
       <use xlink:href="#mbb08b843a6" x="33.82" y="446.57208" style="stroke: #000000; stroke-width: 0.8"/>
      </g>
     </g>
     <g id="text_13">
      <!-- 1 -->
      <g transform="translate(23.0025 448.851612) scale(0.06 -0.06)">
       <use xlink:href="#DejaVuSans-31"/>
      </g>
     </g>
    </g>
    <g id="ytick_7">
     <g id="line2d_75">
      <path d="M 33.82 408.818954 
L 956.497165 408.818954 
" clip-path="url(#p8e2eac0e52)" style="fill: none; stroke: #aaaaaa; stroke-width: 0.5; stroke-linecap: square"/>
     </g>
     <g id="line2d_76">
      <g>
       <use xlink:href="#mbb08b843a6" x="33.82" y="408.818954" style="stroke: #000000; stroke-width: 0.8"/>
      </g>
     </g>
     <g id="text_14">
      <!-- 2 -->
      <g transform="translate(23.0025 411.098485) scale(0.06 -0.06)">
       <use xlink:href="#DejaVuSans-32"/>
      </g>
     </g>
    </g>
    <g id="ytick_8">
     <g id="line2d_77">
      <path d="M 33.82 371.065827 
L 956.497165 371.065827 
" clip-path="url(#p8e2eac0e52)" style="fill: none; stroke: #aaaaaa; stroke-width: 0.5; stroke-linecap: square"/>
     </g>
     <g id="line2d_78">
      <g>
       <use xlink:href="#mbb08b843a6" x="33.82" y="371.065827" style="stroke: #000000; stroke-width: 0.8"/>
      </g>
     </g>
     <g id="text_15">
      <!-- 3 -->
      <g transform="translate(23.0025 373.345358) scale(0.06 -0.06)">
       <use xlink:href="#DejaVuSans-33"/>
      </g>
     </g>
    </g>
    <g id="ytick_9">
     <g id="line2d_79">
      <path d="M 33.82 333.3127 
L 956.497165 333.3127 
" clip-path="url(#p8e2eac0e52)" style="fill: none; stroke: #aaaaaa; stroke-width: 0.5; stroke-linecap: square"/>
     </g>
     <g id="line2d_80">
      <g>
       <use xlink:href="#mbb08b843a6" x="33.82" y="333.3127" style="stroke: #000000; stroke-width: 0.8"/>
      </g>
     </g>
     <g id="text_16">
      <!-- 4 -->
      <g transform="translate(23.0025 335.592231) scale(0.06 -0.06)">
       <use xlink:href="#DejaVuSans-34"/>
      </g>
     </g>
    </g>
    <g id="ytick_10">
     <g id="line2d_81">
      <path d="M 33.82 295.559573 
L 956.497165 295.559573 
" clip-path="url(#p8e2eac0e52)" style="fill: none; stroke: #aaaaaa; stroke-width: 0.5; stroke-linecap: square"/>
     </g>
     <g id="line2d_82">
      <g>
       <use xlink:href="#mbb08b843a6" x="33.82" y="295.559573" style="stroke: #000000; stroke-width: 0.8"/>
      </g>
     </g>
     <g id="text_17">
      <!-- 5 -->
      <g transform="translate(23.0025 297.839105) scale(0.06 -0.06)">
       <use xlink:href="#DejaVuSans-35"/>
      </g>
     </g>
    </g>
    <g id="ytick_11">
     <g id="line2d_83">
      <path d="M 33.82 257.806446 
L 956.497165 257.806446 
" clip-path="url(#p8e2eac0e52)" style="fill: none; stroke: #aaaaaa; stroke-width: 0.5; stroke-linecap: square"/>
     </g>
     <g id="line2d_84">
      <g>
       <use xlink:href="#mbb08b843a6" x="33.82" y="257.806446" style="stroke: #000000; stroke-width: 0.8"/>
      </g>
     </g>
     <g id="text_18">
      <!-- 6 -->
      <g transform="translate(23.0025 260.085978) scale(0.06 -0.06)">
       <defs>
        <path id="DejaVuSans-36" d="M 2113 2584 
Q 1688 2584 1439 2293 
Q 1191 2003 1191 1497 
Q 1191 994 1439 701 
Q 1688 409 2113 409 
Q 2538 409 2786 701 
Q 3034 994 3034 1497 
Q 3034 2003 2786 2293 
Q 2538 2584 2113 2584 
z
M 3366 4563 
L 3366 3988 
Q 3128 4100 2886 4159 
Q 2644 4219 2406 4219 
Q 1781 4219 1451 3797 
Q 1122 3375 1075 2522 
Q 1259 2794 1537 2939 
Q 1816 3084 2150 3084 
Q 2853 3084 3261 2657 
Q 3669 2231 3669 1497 
Q 3669 778 3244 343 
Q 2819 -91 2113 -91 
Q 1303 -91 875 529 
Q 447 1150 447 2328 
Q 447 3434 972 4092 
Q 1497 4750 2381 4750 
Q 2619 4750 2861 4703 
Q 3103 4656 3366 4563 
z
" transform="scale(0.015625)"/>
       </defs>
       <use xlink:href="#DejaVuSans-36"/>
      </g>
     </g>
    </g>
    <g id="ytick_12">
     <g id="line2d_85">
      <path d="M 33.82 220.05332 
L 956.497165 220.05332 
" clip-path="url(#p8e2eac0e52)" style="fill: none; stroke: #aaaaaa; stroke-width: 0.5; stroke-linecap: square"/>
     </g>
     <g id="line2d_86">
      <g>
       <use xlink:href="#mbb08b843a6" x="33.82" y="220.05332" style="stroke: #000000; stroke-width: 0.8"/>
      </g>
     </g>
     <g id="text_19">
      <!-- 7 -->
      <g transform="translate(23.0025 222.332851) scale(0.06 -0.06)">
       <defs>
        <path id="DejaVuSans-37" d="M 525 4666 
L 3525 4666 
L 3525 4397 
L 1831 0 
L 1172 0 
L 2766 4134 
L 525 4134 
L 525 4666 
z
" transform="scale(0.015625)"/>
       </defs>
       <use xlink:href="#DejaVuSans-37"/>
      </g>
     </g>
    </g>
    <g id="ytick_13">
     <g id="line2d_87">
      <path d="M 33.82 182.300193 
L 956.497165 182.300193 
" clip-path="url(#p8e2eac0e52)" style="fill: none; stroke: #aaaaaa; stroke-width: 0.5; stroke-linecap: square"/>
     </g>
     <g id="line2d_88">
      <g>
       <use xlink:href="#mbb08b843a6" x="33.82" y="182.300193" style="stroke: #000000; stroke-width: 0.8"/>
      </g>
     </g>
     <g id="text_20">
      <!-- 8 -->
      <g transform="translate(23.0025 184.579724) scale(0.06 -0.06)">
       <defs>
        <path id="DejaVuSans-38" d="M 2034 2216 
Q 1584 2216 1326 1975 
Q 1069 1734 1069 1313 
Q 1069 891 1326 650 
Q 1584 409 2034 409 
Q 2484 409 2743 651 
Q 3003 894 3003 1313 
Q 3003 1734 2745 1975 
Q 2488 2216 2034 2216 
z
M 1403 2484 
Q 997 2584 770 2862 
Q 544 3141 544 3541 
Q 544 4100 942 4425 
Q 1341 4750 2034 4750 
Q 2731 4750 3128 4425 
Q 3525 4100 3525 3541 
Q 3525 3141 3298 2862 
Q 3072 2584 2669 2484 
Q 3125 2378 3379 2068 
Q 3634 1759 3634 1313 
Q 3634 634 3220 271 
Q 2806 -91 2034 -91 
Q 1263 -91 848 271 
Q 434 634 434 1313 
Q 434 1759 690 2068 
Q 947 2378 1403 2484 
z
M 1172 3481 
Q 1172 3119 1398 2916 
Q 1625 2713 2034 2713 
Q 2441 2713 2670 2916 
Q 2900 3119 2900 3481 
Q 2900 3844 2670 4047 
Q 2441 4250 2034 4250 
Q 1625 4250 1398 4047 
Q 1172 3844 1172 3481 
z
" transform="scale(0.015625)"/>
       </defs>
       <use xlink:href="#DejaVuSans-38"/>
      </g>
     </g>
    </g>
    <g id="ytick_14">
     <g id="line2d_89">
      <path d="M 33.82 144.547066 
L 956.497165 144.547066 
" clip-path="url(#p8e2eac0e52)" style="fill: none; stroke: #aaaaaa; stroke-width: 0.5; stroke-linecap: square"/>
     </g>
     <g id="line2d_90">
      <g>
       <use xlink:href="#mbb08b843a6" x="33.82" y="144.547066" style="stroke: #000000; stroke-width: 0.8"/>
      </g>
     </g>
     <g id="text_21">
      <!-- 9 -->
      <g transform="translate(23.0025 146.826597) scale(0.06 -0.06)">
       <defs>
        <path id="DejaVuSans-39" d="M 703 97 
L 703 672 
Q 941 559 1184 500 
Q 1428 441 1663 441 
Q 2288 441 2617 861 
Q 2947 1281 2994 2138 
Q 2813 1869 2534 1725 
Q 2256 1581 1919 1581 
Q 1219 1581 811 2004 
Q 403 2428 403 3163 
Q 403 3881 828 4315 
Q 1253 4750 1959 4750 
Q 2769 4750 3195 4129 
Q 3622 3509 3622 2328 
Q 3622 1225 3098 567 
Q 2575 -91 1691 -91 
Q 1453 -91 1209 -44 
Q 966 3 703 97 
z
M 1959 2075 
Q 2384 2075 2632 2365 
Q 2881 2656 2881 3163 
Q 2881 3666 2632 3958 
Q 2384 4250 1959 4250 
Q 1534 4250 1286 3958 
Q 1038 3666 1038 3163 
Q 1038 2656 1286 2365 
Q 1534 2075 1959 2075 
z
" transform="scale(0.015625)"/>
       </defs>
       <use xlink:href="#DejaVuSans-39"/>
      </g>
     </g>
    </g>
    <g id="ytick_15">
     <g id="line2d_91">
      <path d="M 33.82 106.793939 
L 956.497165 106.793939 
" clip-path="url(#p8e2eac0e52)" style="fill: none; stroke: #aaaaaa; stroke-width: 0.5; stroke-linecap: square"/>
     </g>
     <g id="line2d_92">
      <g>
       <use xlink:href="#mbb08b843a6" x="33.82" y="106.793939" style="stroke: #000000; stroke-width: 0.8"/>
      </g>
     </g>
     <g id="text_22">
      <!-- 10 -->
      <g transform="translate(19.185 109.073471) scale(0.06 -0.06)">
       <use xlink:href="#DejaVuSans-31"/>
       <use xlink:href="#DejaVuSans-30" x="63.623047"/>
      </g>
     </g>
    </g>
    <g id="ytick_16">
     <g id="line2d_93">
      <path d="M 33.82 69.040813 
L 956.497165 69.040813 
" clip-path="url(#p8e2eac0e52)" style="fill: none; stroke: #aaaaaa; stroke-width: 0.5; stroke-linecap: square"/>
     </g>
     <g id="line2d_94">
      <g>
       <use xlink:href="#mbb08b843a6" x="33.82" y="69.040813" style="stroke: #000000; stroke-width: 0.8"/>
      </g>
     </g>
     <g id="text_23">
      <!-- 11 -->
      <g transform="translate(19.185 71.320344) scale(0.06 -0.06)">
       <use xlink:href="#DejaVuSans-31"/>
       <use xlink:href="#DejaVuSans-31" x="63.623047"/>
      </g>
     </g>
    </g>
    <g id="ytick_17">
     <g id="line2d_95">
      <path d="M 33.82 31.287686 
L 956.497165 31.287686 
" clip-path="url(#p8e2eac0e52)" style="fill: none; stroke: #aaaaaa; stroke-width: 0.5; stroke-linecap: square"/>
     </g>
     <g id="line2d_96">
      <g>
       <use xlink:href="#mbb08b843a6" x="33.82" y="31.287686" style="stroke: #000000; stroke-width: 0.8"/>
      </g>
     </g>
     <g id="text_24">
      <!-- 12 -->
      <g transform="translate(19.185 33.567217) scale(0.06 -0.06)">
       <use xlink:href="#DejaVuSans-31"/>
       <use xlink:href="#DejaVuSans-32" x="63.623047"/>
      </g>
     </g>
    </g>
    <g id="text_25">
     <!-- Høyde (m) -->
     <g transform="translate(12.518906 362.63959) rotate(-90) scale(0.07 -0.07)">
      <defs>
       <path id="DejaVuSans-48" d="M 628 4666 
L 1259 4666 
L 1259 2753 
L 3553 2753 
L 3553 4666 
L 4184 4666 
L 4184 0 
L 3553 0 
L 3553 2222 
L 1259 2222 
L 1259 0 
L 628 0 
L 628 4666 
z
" transform="scale(0.015625)"/>
       <path id="DejaVuSans-f8" d="M 2828 2503 
L 1306 653 
Q 1434 522 1595 459 
Q 1756 397 1959 397 
Q 2419 397 2687 759 
Q 2956 1122 2956 1747 
Q 2956 1994 2925 2176 
Q 2894 2359 2828 2503 
z
M 2606 2841 
Q 2475 2969 2314 3033 
Q 2153 3097 1959 3097 
Q 1488 3097 1223 2730 
Q 959 2363 959 1703 
Q 959 1478 989 1306 
Q 1019 1134 1081 991 
L 2606 2841 
z
M 691 519 
Q 522 759 437 1067 
Q 353 1375 353 1747 
Q 353 2609 779 3096 
Q 1206 3584 1959 3584 
Q 2250 3584 2498 3504 
Q 2747 3425 2956 3263 
L 3391 3788 
L 3688 3541 
L 3231 2981 
Q 3397 2741 3481 2431 
Q 3566 2122 3566 1747 
Q 3566 888 3137 398 
Q 2709 -91 1959 -91 
Q 1659 -91 1407 -9 
Q 1156 72 959 231 
L 525 -294 
L 225 -50 
L 691 519 
z
" transform="scale(0.015625)"/>
       <path id="DejaVuSans-79" d="M 2059 -325 
Q 1816 -950 1584 -1140 
Q 1353 -1331 966 -1331 
L 506 -1331 
L 506 -850 
L 844 -850 
Q 1081 -850 1212 -737 
Q 1344 -625 1503 -206 
L 1606 56 
L 191 3500 
L 800 3500 
L 1894 763 
L 2988 3500 
L 3597 3500 
L 2059 -325 
z
" transform="scale(0.015625)"/>
      </defs>
      <use xlink:href="#DejaVuSans-48"/>
      <use xlink:href="#DejaVuSans-f8" x="75.195312"/>
      <use xlink:href="#DejaVuSans-79" x="136.376953"/>
      <use xlink:href="#DejaVuSans-64" x="195.556641"/>
      <use xlink:href="#DejaVuSans-65" x="259.033203"/>
      <use xlink:href="#DejaVuSans-20" x="320.556641"/>
      <use xlink:href="#DejaVuSans-28" x="352.34375"/>
      <use xlink:href="#DejaVuSans-6d" x="391.357422"/>
      <use xlink:href="#DejaVuSans-29" x="488.769531"/>
     </g>
    </g>
   </g>
   <g id="line2d_97">
    <path d="M 563.784976 668.293712 
L 563.784976 20.038594 
" clip-path="url(#p8e2eac0e52)" style="fill: none; stroke-dasharray: 0.5,0.825; stroke-dashoffset: 0; stroke: #000000; stroke-width: 0.5"/>
   </g>
   <g id="line2d_98">
    <path d="M 33.82 549.32343 
L 956.497165 549.32343 
" clip-path="url(#p8e2eac0e52)" style="fill: none; stroke: #000000; stroke-width: 0.8; stroke-linecap: square"/>
   </g>
   <g id="cs:terreng">
    <path d="M -1 481.944611 
L 30.289168 481.745333 
L 89.56648 477.97002 
L 148.843792 472.307051 
L 208.121104 462.491238 
L 267.398416 464.378895 
L 326.675728 464.001363 
L 385.95304 468.90927 
L 445.230352 449.655175 
L 504.507664 441.727019 
L 563.784976 430.778612 
L 623.062288 426.625768 
L 682.3396 421.717861 
L 741.616912 402.841298 
L 800.894224 384.719797 
L 860.171536 368.485953 
L 919.448849 356.027421 
L 978.726161 346.589139 
L 1038.003473 342.436295 
L 1059.94126 340.200782 
" clip-path="url(#p8e2eac0e52)" style="fill: none; stroke: #000000; stroke-width: 0.8; stroke-linecap: square"/>
   </g>
   <g id="line2d_99">
    <path clip-path="url(#p8e2eac0e52)" style="fill: none; stroke: #000000; stroke-width: 0.6; stroke-linecap: square"/>
   </g>
   <g id="line2d_100">
    <path clip-path="url(#p8e2eac0e52)" style="fill: none; stroke: #000000; stroke-width: 0.6; stroke-linecap: square"/>
   </g>
   <g id="line2d_101">
    <path clip-path="url(#p8e2eac0e52)" style="fill: none; stroke: #000000; stroke-width: 0.6; stroke-linecap: square"/>
   </g>
   <g id="line2d_102">
    <path clip-path="url(#p8e2eac0e52)" style="fill: none; stroke: #000000; stroke-width: 0.6; stroke-linecap: square"/>
   </g>
   <g id="line2d_103">
    <path clip-path="url(#p8e2eac0e52)" style="fill: none; stroke: #000000; stroke-width: 0.6; stroke-linecap: square"/>
   </g>
   <g id="line2d_104">
    <path clip-path="url(#p8e2eac0e52)" style="fill: none; stroke: #000000; stroke-width: 0.6; stroke-linecap: square"/>
   </g>
   <g id="line2d_105">
    <path clip-path="url(#p8e2eac0e52)" style="fill: none; stroke: #000000; stroke-width: 0.6; stroke-linecap: square"/>
   </g>
   <g id="line2d_106">
    <path clip-path="url(#p8e2eac0e52)" style="fill: none; stroke: #000000; stroke-width: 0.6; stroke-linecap: square"/>
   </g>
   <g id="line2d_107">
    <path clip-path="url(#p8e2eac0e52)" style="fill: none; stroke: #000000; stroke-width: 0.6; stroke-linecap: square"/>
   </g>
   <g id="line2d_108">
    <path clip-path="url(#p8e2eac0e52)" style="fill: none; stroke: #000000; stroke-width: 0.6; stroke-linecap: square"/>
   </g>
   <g id="line2d_109">
    <path clip-path="url(#p8e2eac0e52)" style="fill: none; stroke: #000000; stroke-width: 0.6; stroke-linecap: square"/>
   </g>
   <g id="line2d_110">
    <path clip-path="url(#p8e2eac0e52)" style="fill: none; stroke: #000000; stroke-width: 0.6; stroke-linecap: square"/>
   </g>
   <g id="line2d_111">
    <path clip-path="url(#p8e2eac0e52)" style="fill: none; stroke: #000000; stroke-width: 0.6; stroke-linecap: square"/>
   </g>
   <g id="line2d_112">
    <path clip-path="url(#p8e2eac0e52)" style="fill: none; stroke: #000000; stroke-width: 0.6; stroke-linecap: square"/>
   </g>
   <g id="line2d_113">
    <path clip-path="url(#p8e2eac0e52)" style="fill: none; stroke: #000000; stroke-width: 0.6; stroke-linecap: square"/>
   </g>
   <g id="line2d_114">
    <path clip-path="url(#p8e2eac0e52)" style="fill: none; stroke: #000000; stroke-width: 0.6; stroke-linecap: square"/>
   </g>
   <g id="line2d_115">
    <path clip-path="url(#p8e2eac0e52)" style="fill: none; stroke: #000000; stroke-width: 0.6; stroke-linecap: square"/>
   </g>
   <g id="line2d_116">
    <path clip-path="url(#p8e2eac0e52)" style="fill: none; stroke: #000000; stroke-width: 0.6; stroke-linecap: square"/>
   </g>
   <g id="line2d_117">
    <path clip-path="url(#p8e2eac0e52)" style="fill: none; stroke: #000000; stroke-width: 0.6; stroke-linecap: square"/>
   </g>
   <g id="line2d_118">
    <path clip-path="url(#p8e2eac0e52)" style="fill: none; stroke: #000000; stroke-width: 0.6; stroke-linecap: square"/>
   </g>
   <g id="line2d_119">
    <path clip-path="url(#p8e2eac0e52)" style="fill: none; stroke: #000000; stroke-width: 0.6; stroke-linecap: square"/>
   </g>
   <g id="line2d_120">
    <path d="M 20.208379 481.809537 
L 17.674125 472.940453 
" clip-path="url(#p8e2eac0e52)" style="fill: none; stroke: #000000; stroke-width: 0.6; stroke-linecap: square"/>
   </g>
   <g id="line2d_121">
    <path d="M 50.13324 480.481484 
L 47.598985 471.6124 
" clip-path="url(#p8e2eac0e52)" style="fill: none; stroke: #000000; stroke-width: 0.6; stroke-linecap: square"/>
   </g>
   <g id="line2d_122">
    <path d="M 80.045649 478.576393 
L 77.511394 469.707309 
" clip-path="url(#p8e2eac0e52)" style="fill: none; stroke: #000000; stroke-width: 0.6; stroke-linecap: square"/>
   </g>
   <g id="line2d_123">
    <path d="M 109.926349 476.024971 
L 107.392095 467.155887 
" clip-path="url(#p8e2eac0e52)" style="fill: none; stroke: #000000; stroke-width: 0.6; stroke-linecap: square"/>
   </g>
   <g id="line2d_124">
    <path d="M 139.792245 473.171777 
L 137.257991 464.302694 
" clip-path="url(#p8e2eac0e52)" style="fill: none; stroke: #000000; stroke-width: 0.6; stroke-linecap: square"/>
   </g>
   <g id="line2d_125">
    <path d="M 169.542429 468.879535 
L 167.008175 460.010451 
" clip-path="url(#p8e2eac0e52)" style="fill: none; stroke: #000000; stroke-width: 0.6; stroke-linecap: square"/>
   </g>
   <g id="line2d_126">
    <path d="M 199.242293 463.961493 
L 196.708038 455.092409 
" clip-path="url(#p8e2eac0e52)" style="fill: none; stroke: #000000; stroke-width: 0.6; stroke-linecap: square"/>
   </g>
   <g id="line2d_127">
    <path d="M 229.110799 463.159645 
L 226.576545 454.290561 
" clip-path="url(#p8e2eac0e52)" style="fill: none; stroke: #000000; stroke-width: 0.6; stroke-linecap: square"/>
   </g>
   <g id="line2d_128">
    <path d="M 259.05122 464.113082 
L 256.516966 455.243999 
" clip-path="url(#p8e2eac0e52)" style="fill: none; stroke: #000000; stroke-width: 0.6; stroke-linecap: square"/>
   </g>
   <g id="line2d_129">
    <path d="M 288.998118 464.241328 
L 286.463864 455.372245 
" clip-path="url(#p8e2eac0e52)" style="fill: none; stroke: #000000; stroke-width: 0.6; stroke-linecap: square"/>
   </g>
   <g id="line2d_130">
    <path d="M 318.94752 464.050584 
L 316.413266 455.1815 
" clip-path="url(#p8e2eac0e52)" style="fill: none; stroke: #000000; stroke-width: 0.6; stroke-linecap: square"/>
   </g>
   <g id="line2d_131">
    <path d="M 348.850405 465.837331 
L 346.31615 456.968248 
" clip-path="url(#p8e2eac0e52)" style="fill: none; stroke: #000000; stroke-width: 0.6; stroke-linecap: square"/>
   </g>
   <g id="line2d_132">
    <path d="M 378.737112 468.311822 
L 376.202857 459.442738 
" clip-path="url(#p8e2eac0e52)" style="fill: none; stroke: #000000; stroke-width: 0.6; stroke-linecap: square"/>
   </g>
   <g id="line2d_133">
    <path d="M 407.967197 461.758766 
L 405.432942 452.889682 
" clip-path="url(#p8e2eac0e52)" style="fill: none; stroke: #000000; stroke-width: 0.6; stroke-linecap: square"/>
   </g>
   <g id="line2d_134">
    <path d="M 436.988284 452.332314 
L 434.45403 443.46323 
" clip-path="url(#p8e2eac0e52)" style="fill: none; stroke: #000000; stroke-width: 0.6; stroke-linecap: square"/>
   </g>
   <g id="line2d_135">
    <path d="M 466.557069 446.802793 
L 464.022814 437.933709 
" clip-path="url(#p8e2eac0e52)" style="fill: none; stroke: #000000; stroke-width: 0.6; stroke-linecap: square"/>
   </g>
   <g id="line2d_136">
    <path d="M 496.343099 442.819004 
L 493.808845 433.94992 
" clip-path="url(#p8e2eac0e52)" style="fill: none; stroke: #000000; stroke-width: 0.6; stroke-linecap: square"/>
   </g>
   <g id="line2d_137">
    <path d="M 526.022988 437.753179 
L 523.488734 428.884096 
" clip-path="url(#p8e2eac0e52)" style="fill: none; stroke: #000000; stroke-width: 0.6; stroke-linecap: square"/>
   </g>
   <g id="line2d_138">
    <path d="M 555.662797 432.278763 
L 553.128542 423.409679 
" clip-path="url(#p8e2eac0e52)" style="fill: none; stroke: #000000; stroke-width: 0.6; stroke-linecap: square"/>
   </g>
   <g id="line2d_139">
    <path d="M 585.494821 429.257666 
L 582.960567 420.388582 
" clip-path="url(#p8e2eac0e52)" style="fill: none; stroke: #000000; stroke-width: 0.6; stroke-linecap: square"/>
   </g>
   <g id="line2d_140">
    <path d="M 615.399401 427.162614 
L 612.865146 418.29353 
" clip-path="url(#p8e2eac0e52)" style="fill: none; stroke: #000000; stroke-width: 0.6; stroke-linecap: square"/>
   </g>
   <g id="line2d_141">
    <path d="M 645.290687 424.785352 
L 642.756433 415.916268 
" clip-path="url(#p8e2eac0e52)" style="fill: none; stroke: #000000; stroke-width: 0.6; stroke-linecap: square"/>
   </g>
   <g id="line2d_142">
    <path d="M 675.177394 422.310861 
L 672.64314 413.441778 
" clip-path="url(#p8e2eac0e52)" style="fill: none; stroke: #000000; stroke-width: 0.6; stroke-linecap: square"/>
   </g>
   <g id="line2d_143">
    <path d="M 704.432128 414.682607 
L 701.897873 405.813523 
" clip-path="url(#p8e2eac0e52)" style="fill: none; stroke: #000000; stroke-width: 0.6; stroke-linecap: square"/>
   </g>
   <g id="line2d_144">
    <path d="M 733.487678 405.430012 
L 730.953424 396.560928 
" clip-path="url(#p8e2eac0e52)" style="fill: none; stroke: #000000; stroke-width: 0.6; stroke-linecap: square"/>
   </g>
   <g id="line2d_145">
    <path d="M 762.59165 396.42917 
L 760.057396 387.560086 
" clip-path="url(#p8e2eac0e52)" style="fill: none; stroke: #000000; stroke-width: 0.6; stroke-linecap: square"/>
   </g>
   <g id="line2d_146">
    <path d="M 791.714432 387.526126 
L 789.180178 378.657042 
" clip-path="url(#p8e2eac0e52)" style="fill: none; stroke: #000000; stroke-width: 0.6; stroke-linecap: square"/>
   </g>
   <g id="line2d_147">
    <path d="M 820.945335 379.228546 
L 818.411081 370.359462 
" clip-path="url(#p8e2eac0e52)" style="fill: none; stroke: #000000; stroke-width: 0.6; stroke-linecap: square"/>
   </g>
   <g id="line2d_148">
    <path d="M 850.226007 371.209662 
L 847.691753 362.340579 
" clip-path="url(#p8e2eac0e52)" style="fill: none; stroke: #000000; stroke-width: 0.6; stroke-linecap: square"/>
   </g>
   <g id="line2d_149">
    <path d="M 879.684675 364.384804 
L 877.15042 355.515721 
" clip-path="url(#p8e2eac0e52)" style="fill: none; stroke: #000000; stroke-width: 0.6; stroke-linecap: square"/>
   </g>
   <g id="line2d_150">
    <path d="M 909.2349 358.174124 
L 906.700645 349.305041 
" clip-path="url(#p8e2eac0e52)" style="fill: none; stroke: #000000; stroke-width: 0.6; stroke-linecap: square"/>
   </g>
   <g id="line2d_151">
    <path d="M 938.895236 352.931118 
L 936.360982 344.062035 
" clip-path="url(#p8e2eac0e52)" style="fill: none; stroke: #000000; stroke-width: 0.6; stroke-linecap: square"/>
   </g>
   <g id="line2d_152">
    <path d="M 968.613736 348.199265 
L 966.079482 339.330181 
" clip-path="url(#p8e2eac0e52)" style="fill: none; stroke: #000000; stroke-width: 0.6; stroke-linecap: square"/>
   </g>
   <g id="line2d_153">
    <path d="M 998.454998 345.206978 
L 995.920744 336.337895 
" clip-path="url(#p8e2eac0e52)" style="fill: none; stroke: #000000; stroke-width: 0.6; stroke-linecap: square"/>
   </g>
   <g id="line2d_154">
    <path d="M 1028.359577 343.111926 
L 1025.825323 334.242843 
" clip-path="url(#p8e2eac0e52)" style="fill: none; stroke: #000000; stroke-width: 0.6; stroke-linecap: square"/>
   </g>
   <g id="line2d_155">
    <path d="M 1058.230156 340.375148 
L 1055.695902 331.506064 
" clip-path="url(#p8e2eac0e52)" style="fill: none; stroke: #000000; stroke-width: 0.6; stroke-linecap: square"/>
   </g>
   <g id="line2d_156">
    <path clip-path="url(#p8e2eac0e52)" style="fill: none; stroke: #000000; stroke-width: 0.6; stroke-linecap: square"/>
   </g>
   <g id="line2d_157">
    <path clip-path="url(#p8e2eac0e52)" style="fill: none; stroke: #000000; stroke-width: 0.6; stroke-linecap: square"/>
   </g>
   <g id="line2d_158">
    <path clip-path="url(#p8e2eac0e52)" style="fill: none; stroke: #000000; stroke-width: 0.6; stroke-linecap: square"/>
   </g>
   <g id="line2d_159">
    <path clip-path="url(#p8e2eac0e52)" style="fill: none; stroke: #000000; stroke-width: 0.6; stroke-linecap: square"/>
   </g>
   <g id="line2d_160">
    <path clip-path="url(#p8e2eac0e52)" style="fill: none; stroke: #000000; stroke-width: 0.6; stroke-linecap: square"/>
   </g>
   <g id="line2d_161">
    <path clip-path="url(#p8e2eac0e52)" style="fill: none; stroke: #000000; stroke-width: 0.6; stroke-linecap: square"/>
   </g>
   <g id="line2d_162">
    <path clip-path="url(#p8e2eac0e52)" style="fill: none; stroke: #000000; stroke-width: 0.6; stroke-linecap: square"/>
   </g>
   <g id="line2d_163">
    <path clip-path="url(#p8e2eac0e52)" style="fill: none; stroke: #000000; stroke-width: 0.6; stroke-linecap: square"/>
   </g>
   <g id="line2d_164">
    <path clip-path="url(#p8e2eac0e52)" style="fill: none; stroke: #000000; stroke-width: 0.6; stroke-linecap: square"/>
   </g>
   <g id="line2d_165">
    <path clip-path="url(#p8e2eac0e52)" style="fill: none; stroke: #000000; stroke-width: 0.6; stroke-linecap: square"/>
   </g>
   <g id="line2d_166">
    <path clip-path="url(#p8e2eac0e52)" style="fill: none; stroke: #000000; stroke-width: 0.6; stroke-linecap: square"/>
   </g>
   <g id="line2d_167">
    <path clip-path="url(#p8e2eac0e52)" style="fill: none; stroke: #000000; stroke-width: 0.6; stroke-linecap: square"/>
   </g>
   <g id="line2d_168">
    <path clip-path="url(#p8e2eac0e52)" style="fill: none; stroke: #000000; stroke-width: 0.6; stroke-linecap: square"/>
   </g>
   <g id="line2d_169">
    <path clip-path="url(#p8e2eac0e52)" style="fill: none; stroke: #000000; stroke-width: 0.6; stroke-linecap: square"/>
   </g>
   <g id="line2d_170">
    <path clip-path="url(#p8e2eac0e52)" style="fill: none; stroke: #000000; stroke-width: 0.6; stroke-linecap: square"/>
   </g>
   <g id="line2d_171">
    <path clip-path="url(#p8e2eac0e52)" style="fill: none; stroke: #000000; stroke-width: 0.6; stroke-linecap: square"/>
   </g>
   <g id="line2d_172">
    <path clip-path="url(#p8e2eac0e52)" style="fill: none; stroke: #000000; stroke-width: 0.6; stroke-linecap: square"/>
   </g>
   <g id="line2d_173">
    <path clip-path="url(#p8e2eac0e52)" style="fill: none; stroke: #000000; stroke-width: 0.6; stroke-linecap: square"/>
   </g>
   <g id="line2d_174">
    <path clip-path="url(#p8e2eac0e52)" style="fill: none; stroke: #000000; stroke-width: 0.6; stroke-linecap: square"/>
   </g>
   <g id="line2d_175">
    <path clip-path="url(#p8e2eac0e52)" style="fill: none; stroke: #000000; stroke-width: 0.6; stroke-linecap: square"/>
   </g>
   <g id="line2d_176">
    <path clip-path="url(#p8e2eac0e52)" style="fill: none; stroke: #000000; stroke-width: 0.6; stroke-linecap: square"/>
   </g>
   <g id="line2d_177">
    <path clip-path="url(#p8e2eac0e52)" style="fill: none; stroke: #000000; stroke-width: 0.6; stroke-linecap: square"/>
   </g>
   <g id="line2d_178">
    <path clip-path="url(#p8e2eac0e52)" style="fill: none; stroke: #000000; stroke-width: 0.6; stroke-linecap: square"/>
   </g>
   <g id="patch_3">
    <path d="M 33.82 668.293712 
L 33.82 20.038594 
" style="fill: none; stroke: #000000; stroke-width: 0.8; stroke-linejoin: miter; stroke-linecap: square"/>
   </g>
   <g id="patch_4">
    <path d="M 956.497165 668.293712 
L 956.497165 20.038594 
" style="fill: none; stroke: #000000; stroke-width: 0.8; stroke-linejoin: miter; stroke-linecap: square"/>
   </g>
   <g id="patch_5">
    <path d="M 33.82 668.293712 
L 956.497165 668.293712 
" style="fill: none; stroke: #000000; stroke-width: 0.8; stroke-linejoin: miter; stroke-linecap: square"/>
   </g>
   <g id="patch_6">
    <path d="M 33.82 20.038594 
L 956.497165 20.038594 
" style="fill: none; stroke: #000000; stroke-width: 0.8; stroke-linejoin: miter; stroke-linecap: square"/>
   </g>
   <g id="text_26">
    <!-- 88 -->
    <g transform="translate(43.845106 551.273586) scale(0.07 -0.07)">
     <defs>
      <path id="DejaVuSansMono-38" d="M 1925 2216 
Q 1503 2216 1273 1980 
Q 1044 1744 1044 1313 
Q 1044 881 1276 642 
Q 1509 403 1925 403 
Q 2350 403 2579 639 
Q 2809 875 2809 1313 
Q 2809 1741 2576 1978 
Q 2344 2216 1925 2216 
z
M 1375 2478 
Q 972 2581 745 2862 
Q 519 3144 519 3541 
Q 519 4097 897 4423 
Q 1275 4750 1925 4750 
Q 2578 4750 2956 4423 
Q 3334 4097 3334 3541 
Q 3334 3144 3107 2862 
Q 2881 2581 2478 2478 
Q 2947 2375 3195 2062 
Q 3444 1750 3444 1253 
Q 3444 622 3041 265 
Q 2638 -91 1925 -91 
Q 1213 -91 811 264 
Q 409 619 409 1247 
Q 409 1747 657 2061 
Q 906 2375 1375 2478 
z
M 1147 3481 
Q 1147 3106 1347 2909 
Q 1547 2713 1925 2713 
Q 2306 2713 2506 2909 
Q 2706 3106 2706 3481 
Q 2706 3863 2507 4063 
Q 2309 4263 1925 4263 
Q 1547 4263 1347 4061 
Q 1147 3859 1147 3481 
z
" transform="scale(0.015625)"/>
     </defs>
     <use xlink:href="#DejaVuSansMono-38"/>
     <use xlink:href="#DejaVuSansMono-38" x="60.205078"/>
    </g>
   </g>
   <g id="text_27">
    <!-- SL -->
    <g style="fill: #333333" transform="translate(560.208882 51.203537) scale(0.06 -0.06)">
     <defs>
      <path id="DejaVuSans-53" d="M 3425 4513 
L 3425 3897 
Q 3066 4069 2747 4153 
Q 2428 4238 2131 4238 
Q 1616 4238 1336 4038 
Q 1056 3838 1056 3469 
Q 1056 3159 1242 3001 
Q 1428 2844 1947 2747 
L 2328 2669 
Q 3034 2534 3370 2195 
Q 3706 1856 3706 1288 
Q 3706 609 3251 259 
Q 2797 -91 1919 -91 
Q 1588 -91 1214 -16 
Q 841 59 441 206 
L 441 856 
Q 825 641 1194 531 
Q 1563 422 1919 422 
Q 2459 422 2753 634 
Q 3047 847 3047 1241 
Q 3047 1584 2836 1778 
Q 2625 1972 2144 2069 
L 1759 2144 
Q 1053 2284 737 2584 
Q 422 2884 422 3419 
Q 422 4038 858 4394 
Q 1294 4750 2059 4750 
Q 2388 4750 2728 4690 
Q 3069 4631 3425 4513 
z
" transform="scale(0.015625)"/>
      <path id="DejaVuSans-4c" d="M 628 4666 
L 1259 4666 
L 1259 531 
L 3531 531 
L 3531 0 
L 628 0 
L 628 4666 
z
" transform="scale(0.015625)"/>
     </defs>
     <use xlink:href="#DejaVuSans-53"/>
     <use xlink:href="#DejaVuSans-4c" x="63.476562"/>
    </g>
   </g>
   <g id="cs:named">
    <path d="M 507.503057 493.148863 
L 510.465263 491.903422 
L 513.427469 491.790258 
L 516.389675 491.677093 
L 519.351881 491.563929 
L 522.314087 491.450765 
L 525.276294 491.337601 
L 528.2385 491.224436 
L 531.200706 491.111272 
L 534.162912 490.998108 
L 537.125118 490.884944 
L 540.087324 490.771779 
L 543.04953 490.658615 
L 546.011736 490.545451 
L 548.973942 490.432287 
L 551.936148 490.319122 
L 554.898355 490.205958 
L 557.860561 490.092794 
L 560.822767 489.979629 
L 563.784973 489.866465 
L 566.747179 489.979629 
L 569.709385 490.092794 
L 572.671591 490.205958 
L 575.633797 490.319122 
L 578.596003 490.432287 
L 581.55821 490.545451 
L 584.520416 490.658615 
L 587.482622 490.771779 
L 590.444828 490.884944 
L 593.407034 490.998108 
L 596.36924 491.111272 
L 599.331446 491.224436 
L 602.293652 491.337601 
L 605.255858 491.450765 
L 608.218064 491.563929 
L 611.180271 491.677093 
L 614.142477 491.790258 
L 617.104683 491.903422 
L 620.066889 493.148863 
" clip-path="url(#p8e2eac0e52)" style="fill: none; stroke: #333333; stroke-width: 1.8; stroke-linecap: square"/>
   </g>
   <g id="cs:named">
    <path d="M 503.719399 495.557962 
L 506.649427 493.692379 
L 509.579455 493.069539 
L 512.509483 492.957604 
L 515.439511 492.845669 
L 518.369539 492.733734 
L 521.299567 492.621799 
L 524.229595 492.509864 
L 527.159623 492.397929 
L 530.089651 492.285994 
L 533.019679 492.174059 
L 535.949707 492.062124 
L 538.879735 491.950189 
L 541.809763 491.838254 
L 544.739791 491.726319 
L 547.669819 491.614384 
L 550.599847 491.502449 
L 553.529875 491.390514 
L 556.459903 491.278579 
L 559.389931 491.166644 
L 562.319959 491.054709 
L 565.249987 491.054709 
L 568.180015 491.166644 
L 571.110043 491.278579 
L 574.040071 491.390514 
L 576.970099 491.502449 
L 579.900127 491.614384 
L 582.830155 491.726319 
L 585.760183 491.838254 
L 588.690211 491.950189 
L 591.620239 492.062124 
L 594.550267 492.174059 
L 597.480295 492.285994 
L 600.410323 492.397929 
L 603.340351 492.509864 
L 606.270379 492.621799 
L 609.200407 492.733734 
L 612.130435 492.845669 
L 615.060463 492.957604 
L 617.990491 493.069539 
L 620.920519 493.692379 
L 623.850547 495.557962 
" clip-path="url(#p8e2eac0e52)" style="fill: none; stroke: #555555; stroke-width: 0.5; stroke-linecap: square"/>
   </g>
   <g id="cs:named">
    <path d="M 499.93574 497.967061 
L 502.837978 496.119172 
L 505.740216 495.480761 
L 508.642454 495.369888 
L 511.544692 495.259014 
L 514.44693 495.148141 
L 517.349167 495.037268 
L 520.251405 494.926394 
L 523.153643 494.815521 
L 526.055881 494.704648 
L 528.958119 494.593775 
L 531.860357 494.482901 
L 534.762594 494.372028 
L 537.664832 494.261155 
L 540.56707 494.150281 
L 543.469308 494.039408 
L 546.371546 493.928535 
L 549.273784 493.817661 
L 552.176021 493.706788 
L 555.078259 493.595915 
L 557.980497 493.485041 
L 560.882735 493.374168 
L 563.784973 493.263295 
L 566.687211 493.374168 
L 569.589448 493.485041 
L 572.491686 493.595915 
L 575.393924 493.706788 
L 578.296162 493.817661 
L 581.1984 493.928535 
L 584.100638 494.039408 
L 587.002875 494.150281 
L 589.905113 494.261155 
L 592.807351 494.372028 
L 595.709589 494.482901 
L 598.611827 494.593775 
L 601.514065 494.704648 
L 604.416302 494.815521 
L 607.31854 494.926394 
L 610.220778 495.037268 
L 613.123016 495.148141 
L 616.025254 495.259014 
L 618.927492 495.369888 
L 621.829729 495.480761 
L 624.731967 496.119172 
L 627.634205 497.967061 
" clip-path="url(#p8e2eac0e52)" style="fill: none; stroke: #555555; stroke-width: 0.5; stroke-linecap: square"/>
   </g>
   <g id="cs:named">
    <path d="M 497.097997 499.773885 
L 500.036981 504.534119 
L 502.975966 509.332095 
L 505.91495 514.130071 
L 508.853935 518.928047 
L 511.792919 523.726023 
L 514.731904 523.821594 
L 517.670888 523.709316 
L 520.609873 523.597039 
L 523.548857 523.484762 
L 526.487842 523.372485 
L 529.426826 523.260208 
L 532.365811 523.147931 
L 535.304795 523.035654 
L 538.24378 522.923376 
L 541.182764 522.811099 
L 544.121749 522.698822 
L 547.060733 522.586545 
L 549.999718 522.474268 
L 552.938702 522.361991 
L 555.877687 522.249714 
L 558.816671 522.137437 
L 561.755656 522.025159 
L 564.69464 521.982386 
L 567.633625 522.094663 
L 570.572609 522.20694 
L 573.511594 522.319217 
L 576.450578 522.431494 
L 579.389563 522.543771 
L 582.328547 522.656049 
L 585.267532 522.768326 
L 588.206516 522.880603 
L 591.145501 522.99288 
L 594.084485 523.105157 
L 597.02347 523.217434 
L 599.962454 523.329711 
L 602.901439 523.441988 
L 605.840423 523.554266 
L 608.779408 523.666543 
L 611.718392 523.77882 
L 614.657377 523.891097 
L 617.596361 524.003374 
L 620.535346 524.115651 
L 623.47433 524.227928 
L 626.413315 524.340206 
L 629.352299 524.452483 
L 632.291284 524.56476 
L 635.230268 524.677037 
L 638.169253 524.789314 
L 641.108237 524.901591 
L 644.047222 525.013868 
" clip-path="url(#p8e2eac0e52)" style="fill: none; stroke: #aaaaaa; stroke-width: 0.5; stroke-linecap: square"/>
   </g>
   <g id="cs:named">
    <path d="M 497.114629 499.763295 
L 500.078108 497.961622 
L 503.041587 497.848409 
L 506.005067 497.735196 
L 508.968546 497.621983 
L 511.932025 497.50877 
L 514.895504 497.395557 
L 517.858983 497.282345 
L 520.822463 497.169132 
L 523.785942 497.055919 
L 526.749421 496.942706 
L 529.7129 496.829493 
L 532.676379 496.71628 
L 535.639859 496.603067 
L 538.603338 496.489854 
L 541.566817 496.376641 
L 544.530296 496.263429 
L 547.493775 496.150216 
L 550.457255 496.037003 
L 553.420734 495.92379 
L 556.384213 495.810577 
L 559.347692 495.697364 
L 562.311171 495.584151 
L 565.274651 495.584758 
L 568.23813 495.697971 
L 571.201609 495.811183 
L 574.165088 495.924396 
L 577.128567 496.037609 
L 580.092046 496.150822 
L 583.055526 496.264035 
L 586.019005 496.377248 
L 588.982484 496.490461 
L 591.945963 496.603674 
L 594.909442 496.716887 
L 597.872922 496.830099 
L 600.836401 496.943312 
L 603.79988 497.056525 
L 606.763359 497.169738 
L 609.726838 497.282951 
L 612.690318 497.396164 
L 615.653797 497.509377 
L 618.617276 497.62259 
L 621.580755 497.735803 
L 624.544234 497.849016 
L 627.507714 497.962228 
L 630.471193 499.773404 
L 633.434672 501.660285 
L 636.398151 503.547167 
L 639.36163 505.434048 
L 642.32511 507.32093 
L 645.288589 509.207811 
" clip-path="url(#p8e2eac0e52)" style="fill: none; stroke: #888888; stroke-width: 0.5; stroke-linecap: square"/>
   </g>
   <g id="cs:named">
    <path d="M 482.278669 499.773885 
L 344.106756 476.189587 
L 330.20656 473.817176 
" clip-path="url(#p8e2eac0e52)" style="fill: none; stroke: #444444; stroke-width: 0.7; stroke-linecap: square"/>
   </g>
   <g id="cs:named">
    <path d="M 511.917325 490.338247 
L 497.297512 499.646851 
" clip-path="url(#p8e2eac0e52)" style="fill: none; stroke: #444444; stroke-width: 0.7; stroke-linecap: square"/>
   </g>
   <g id="cs:named">
    <path d="M 482.479264 499.773885 
L 497.097997 499.773885 
" clip-path="url(#p8e2eac0e52)" style="fill: none; stroke: #444444; stroke-width: 0.7; stroke-linecap: square"/>
   </g>
   <g id="cs:named">
    <path d="M 645.572127 509.209523 
L 660.110605 509.209523 
" clip-path="url(#p8e2eac0e52)" style="fill: none; stroke: #444444; stroke-width: 0.7; stroke-linecap: square"/>
   </g>
   <g id="cs:named">
    <path d="M 645.291277 509.209523 
L 615.895939 490.493171 
" clip-path="url(#p8e2eac0e52)" style="fill: none; stroke: #444444; stroke-width: 0.7; stroke-linecap: square"/>
   </g>
   <g id="cs:skjaering">
    <path d="M 667.508086 415.004969 
L 667.228865 418.560827 
L 662.703616 476.18952 
L 660.219063 507.828388 
L 660.110605 509.209523 
L 645.572127 509.209523 
L 660.219063 507.828388 
L 660.110605 509.209523 
" clip-path="url(#p8e2eac0e52)" style="fill: none; stroke: #000000; stroke-linecap: square"/>
   </g>
   <g id="cs:groft">
    <path d="M 482.278669 499.773885 
L 344.106756 476.189587 
L 330.20656 473.817176 
" clip-path="url(#p8e2eac0e52)" style="fill: none; stroke: #000000; stroke-linecap: square"/>
   </g>
   <g id="cs:groft">
    <path d="M 660.110605 509.209523 
L 645.572127 509.209523 
L 645.291277 509.209523 
L 615.895939 490.493171 
" clip-path="url(#p8e2eac0e52)" style="fill: none; stroke: #000000; stroke-linecap: square"/>
   </g>
   <g id="cs:groft">
    <path d="M 645.288589 509.207811 
L 645.572127 509.209523 
" clip-path="url(#p8e2eac0e52)" style="fill: none; stroke: #000000; stroke-linecap: square"/>
   </g>
   <g id="cs:groft">
    <path d="M 645.288589 509.207811 
L 645.291277 509.209523 
" clip-path="url(#p8e2eac0e52)" style="fill: none; stroke: #000000; stroke-linecap: square"/>
   </g>
   <g id="patch_7">
    <path d="M 663.490222 446.308825 
Q 663.490222 453.207135 663.490222 460.105444 
" style="fill: none; stroke: #444444; stroke-width: 0.5; stroke-linecap: round"/>
   </g>
   <g id="text_28">
    <g id="patch_8">
     <path d="M 645.363855 444.055683 
L 681.61659 444.055683 
Q 682.44159 444.055683 682.44159 443.230683 
L 682.44159 437.907714 
Q 682.44159 437.082714 681.61659 437.082714 
L 645.363855 437.082714 
Q 644.538855 437.082714 644.538855 437.907714 
L 644.538855 443.230683 
Q 644.538855 444.055683 645.363855 444.055683 
z
" style="fill: #ffffff; opacity: 0.9; stroke: #444444; stroke-width: 0.5; stroke-linejoin: miter"/>
    </g>
    <!-- H. Jordskj. 11 -->
    <g style="fill: #444444" transform="translate(645.363855 442.086854) scale(0.055 -0.055)">
     <defs>
      <path id="DejaVuSans-2e" d="M 684 794 
L 1344 794 
L 1344 0 
L 684 0 
L 684 794 
z
" transform="scale(0.015625)"/>
      <path id="DejaVuSans-4a" d="M 628 4666 
L 1259 4666 
L 1259 325 
Q 1259 -519 939 -900 
Q 619 -1281 -91 -1281 
L -331 -1281 
L -331 -750 
L -134 -750 
Q 284 -750 456 -515 
Q 628 -281 628 325 
L 628 4666 
z
" transform="scale(0.015625)"/>
      <path id="DejaVuSans-6f" d="M 1959 3097 
Q 1497 3097 1228 2736 
Q 959 2375 959 1747 
Q 959 1119 1226 758 
Q 1494 397 1959 397 
Q 2419 397 2687 759 
Q 2956 1122 2956 1747 
Q 2956 2369 2687 2733 
Q 2419 3097 1959 3097 
z
M 1959 3584 
Q 2709 3584 3137 3096 
Q 3566 2609 3566 1747 
Q 3566 888 3137 398 
Q 2709 -91 1959 -91 
Q 1206 -91 779 398 
Q 353 888 353 1747 
Q 353 2609 779 3096 
Q 1206 3584 1959 3584 
z
" transform="scale(0.015625)"/>
      <path id="DejaVuSans-6b" d="M 581 4863 
L 1159 4863 
L 1159 1991 
L 2875 3500 
L 3609 3500 
L 1753 1863 
L 3688 0 
L 2938 0 
L 1159 1709 
L 1159 0 
L 581 0 
L 581 4863 
z
" transform="scale(0.015625)"/>
     </defs>
     <use xlink:href="#DejaVuSans-48"/>
     <use xlink:href="#DejaVuSans-2e" x="73.445312"/>
     <use xlink:href="#DejaVuSans-20" x="105.232422"/>
     <use xlink:href="#DejaVuSans-4a" x="137.019531"/>
     <use xlink:href="#DejaVuSans-6f" x="166.511719"/>
     <use xlink:href="#DejaVuSans-72" x="227.693359"/>
     <use xlink:href="#DejaVuSans-64" x="267.056641"/>
     <use xlink:href="#DejaVuSans-73" x="330.533203"/>
     <use xlink:href="#DejaVuSans-6b" x="382.632812"/>
     <use xlink:href="#DejaVuSans-6a" x="440.542969"/>
     <use xlink:href="#DejaVuSans-2e" x="468.326172"/>
     <use xlink:href="#DejaVuSans-20" x="500.113281"/>
     <use xlink:href="#DejaVuSans-31" x="531.900391"/>
     <use xlink:href="#DejaVuSans-31" x="595.523438"/>
    </g>
   </g>
   <g id="patch_9">
    <path d="M 375.174685 470.99711 
Q 375.174685 477.895419 375.174685 484.793729 
" style="fill: none; stroke: #444444; stroke-width: 0.5; stroke-linecap: round"/>
   </g>
   <g id="text_29">
    <g id="patch_10">
     <path d="M 362.333904 468.743967 
L 388.015466 468.743967 
Q 388.840466 468.743967 388.840466 467.918967 
L 388.840466 462.595999 
Q 388.840466 461.770999 388.015466 461.770999 
L 362.333904 461.770999 
Q 361.508904 461.770999 361.508904 462.595999 
L 361.508904 467.918967 
Q 361.508904 468.743967 362.333904 468.743967 
z
" style="fill: #ffffff; opacity: 0.9; stroke: #444444; stroke-width: 0.5; stroke-linejoin: miter"/>
    </g>
    <!-- V.Grøft  3 -->
    <g style="fill: #444444" transform="translate(362.333904 466.775139) scale(0.055 -0.055)">
     <defs>
      <path id="DejaVuSans-56" d="M 1831 0 
L 50 4666 
L 709 4666 
L 2188 738 
L 3669 4666 
L 4325 4666 
L 2547 0 
L 1831 0 
z
" transform="scale(0.015625)"/>
      <path id="DejaVuSans-47" d="M 3809 666 
L 3809 1919 
L 2778 1919 
L 2778 2438 
L 4434 2438 
L 4434 434 
Q 4069 175 3628 42 
Q 3188 -91 2688 -91 
Q 1594 -91 976 548 
Q 359 1188 359 2328 
Q 359 3472 976 4111 
Q 1594 4750 2688 4750 
Q 3144 4750 3555 4637 
Q 3966 4525 4313 4306 
L 4313 3634 
Q 3963 3931 3569 4081 
Q 3175 4231 2741 4231 
Q 1884 4231 1454 3753 
Q 1025 3275 1025 2328 
Q 1025 1384 1454 906 
Q 1884 428 2741 428 
Q 3075 428 3337 486 
Q 3600 544 3809 666 
z
" transform="scale(0.015625)"/>
     </defs>
     <use xlink:href="#DejaVuSans-56"/>
     <use xlink:href="#DejaVuSans-2e" x="55.533203"/>
     <use xlink:href="#DejaVuSans-47" x="87.320312"/>
     <use xlink:href="#DejaVuSans-72" x="164.810547"/>
     <use xlink:href="#DejaVuSans-f8" x="205.923828"/>
     <use xlink:href="#DejaVuSans-66" x="267.105469"/>
     <use xlink:href="#DejaVuSans-74" x="300.560547"/>
     <use xlink:href="#DejaVuSans-20" x="339.769531"/>
     <use xlink:href="#DejaVuSans-20" x="371.556641"/>
     <use xlink:href="#DejaVuSans-33" x="403.34375"/>
    </g>
   </g>
   <g id="patch_11">
    <path d="M 552.91403 475.709243 
Q 552.91403 482.607553 552.91403 489.505862 
" style="fill: none; stroke: #333333; stroke-width: 0.5; stroke-linecap: round"/>
   </g>
   <g id="text_30">
    <g id="patch_12">
     <path d="M 539.955944 473.456101 
L 565.872116 473.456101 
Q 566.697116 473.456101 566.697116 472.631101 
L 566.697116 467.308132 
Q 566.697116 466.483132 565.872116 466.483132 
L 539.955944 466.483132 
Q 539.130944 466.483132 539.130944 467.308132 
L 539.130944 472.631101 
Q 539.130944 473.456101 539.955944 473.456101 
z
" style="fill: #ffffff; opacity: 0.9; stroke: #333333; stroke-width: 0.5; stroke-linejoin: miter"/>
    </g>
    <!-- Bindlag 1 -->
    <g style="fill: #333333" transform="translate(539.955944 471.487272) scale(0.055 -0.055)">
     <defs>
      <path id="DejaVuSans-42" d="M 1259 2228 
L 1259 519 
L 2272 519 
Q 2781 519 3026 730 
Q 3272 941 3272 1375 
Q 3272 1813 3026 2020 
Q 2781 2228 2272 2228 
L 1259 2228 
z
M 1259 4147 
L 1259 2741 
L 2194 2741 
Q 2656 2741 2882 2914 
Q 3109 3088 3109 3444 
Q 3109 3797 2882 3972 
Q 2656 4147 2194 4147 
L 1259 4147 
z
M 628 4666 
L 2241 4666 
Q 2963 4666 3353 4366 
Q 3744 4066 3744 3513 
Q 3744 3084 3544 2831 
Q 3344 2578 2956 2516 
Q 3422 2416 3680 2098 
Q 3938 1781 3938 1306 
Q 3938 681 3513 340 
Q 3088 0 2303 0 
L 628 0 
L 628 4666 
z
" transform="scale(0.015625)"/>
      <path id="DejaVuSans-67" d="M 2906 1791 
Q 2906 2416 2648 2759 
Q 2391 3103 1925 3103 
Q 1463 3103 1205 2759 
Q 947 2416 947 1791 
Q 947 1169 1205 825 
Q 1463 481 1925 481 
Q 2391 481 2648 825 
Q 2906 1169 2906 1791 
z
M 3481 434 
Q 3481 -459 3084 -895 
Q 2688 -1331 1869 -1331 
Q 1566 -1331 1297 -1286 
Q 1028 -1241 775 -1147 
L 775 -588 
Q 1028 -725 1275 -790 
Q 1522 -856 1778 -856 
Q 2344 -856 2625 -561 
Q 2906 -266 2906 331 
L 2906 616 
Q 2728 306 2450 153 
Q 2172 0 1784 0 
Q 1141 0 747 490 
Q 353 981 353 1791 
Q 353 2603 747 3093 
Q 1141 3584 1784 3584 
Q 2172 3584 2450 3431 
Q 2728 3278 2906 2969 
L 2906 3500 
L 3481 3500 
L 3481 434 
z
" transform="scale(0.015625)"/>
     </defs>
     <use xlink:href="#DejaVuSans-42"/>
     <use xlink:href="#DejaVuSans-69" x="68.603516"/>
     <use xlink:href="#DejaVuSans-6e" x="96.386719"/>
     <use xlink:href="#DejaVuSans-64" x="159.765625"/>
     <use xlink:href="#DejaVuSans-6c" x="223.242188"/>
     <use xlink:href="#DejaVuSans-61" x="251.025391"/>
     <use xlink:href="#DejaVuSans-67" x="312.304688"/>
     <use xlink:href="#DejaVuSans-20" x="375.78125"/>
     <use xlink:href="#DejaVuSans-31" x="407.568359"/>
    </g>
   </g>
   <g id="patch_13">
    <path d="M 553.970812 454.823969 
Q 553.970812 473.048962 553.970812 491.273955 
" style="fill: none; stroke: #555555; stroke-width: 0.5; stroke-linecap: round"/>
   </g>
   <g id="text_31">
    <g id="patch_14">
     <path d="M 539.804445 452.574912 
L 568.137179 452.574912 
Q 568.962179 452.574912 568.962179 451.749912 
L 568.962179 446.426944 
Q 568.962179 445.601944 568.137179 445.601944 
L 539.804445 445.601944 
Q 538.979445 445.601944 538.979445 446.426944 
L 538.979445 451.749912 
Q 538.979445 452.574912 539.804445 452.574912 
z
" style="fill: #ffffff; opacity: 0.9; stroke: #555555; stroke-width: 0.5; stroke-linejoin: miter"/>
    </g>
    <!-- Bærelag 1 -->
    <g style="fill: #555555" transform="translate(539.804445 450.606084) scale(0.055 -0.055)">
     <defs>
      <path id="DejaVuSans-e6" d="M 5369 2063 
Q 5366 2534 5108 2815 
Q 4850 3097 4422 3097 
Q 3944 3097 3655 2825 
Q 3366 2553 3322 2059 
L 5369 2063 
z
M 3109 3009 
Q 3341 3291 3672 3437 
Q 4003 3584 4416 3584 
Q 5122 3584 5534 3129 
Q 5947 2675 5947 1894 
L 5947 1613 
L 3303 1613 
Q 3341 1016 3659 703 
Q 3978 391 4550 391 
Q 4875 391 5187 473 
Q 5500 556 5813 722 
L 5813 178 
Q 5500 47 5175 -22 
Q 4850 -91 4519 -91 
Q 3997 -91 3609 98 
Q 3222 288 2981 659 
Q 2753 284 2415 96 
Q 2078 -91 1631 -91 
Q 1041 -91 712 201 
Q 384 494 384 1019 
Q 384 1609 779 1909 
Q 1175 2209 1959 2209 
L 2766 2209 
L 2766 2266 
Q 2766 2663 2505 2880 
Q 2244 3097 1772 3097 
Q 1472 3097 1187 3025 
Q 903 2953 641 2809 
L 641 3341 
Q 956 3463 1253 3523 
Q 1550 3584 1831 3584 
Q 2275 3584 2608 3434 
Q 2941 3284 3109 3009 
z
M 2194 1759 
Q 1497 1759 1228 1600 
Q 959 1441 959 1056 
Q 959 750 1161 570 
Q 1363 391 1709 391 
Q 2188 391 2477 730 
Q 2766 1069 2766 1631 
L 2766 1759 
L 2194 1759 
z
" transform="scale(0.015625)"/>
     </defs>
     <use xlink:href="#DejaVuSans-42"/>
     <use xlink:href="#DejaVuSans-e6" x="68.603516"/>
     <use xlink:href="#DejaVuSans-72" x="166.796875"/>
     <use xlink:href="#DejaVuSans-65" x="205.660156"/>
     <use xlink:href="#DejaVuSans-6c" x="267.183594"/>
     <use xlink:href="#DejaVuSans-61" x="294.966797"/>
     <use xlink:href="#DejaVuSans-67" x="356.246094"/>
     <use xlink:href="#DejaVuSans-20" x="419.722656"/>
     <use xlink:href="#DejaVuSans-31" x="451.509766"/>
    </g>
   </g>
   <g id="patch_15">
    <path d="M 500.902586 433.946307 
Q 500.902586 463.499723 500.902586 493.05314 
" style="fill: none; stroke: #444444; stroke-width: 0.5; stroke-linecap: round"/>
   </g>
   <g id="text_32">
    <g id="patch_16">
     <path d="M 488.061805 431.700751 
L 513.743368 431.700751 
Q 514.568368 431.700751 514.568368 430.875751 
L 514.568368 425.552782 
Q 514.568368 424.727782 513.743368 424.727782 
L 488.061805 424.727782 
Q 487.236805 424.727782 487.236805 425.552782 
L 487.236805 430.875751 
Q 487.236805 431.700751 488.061805 431.700751 
z
" style="fill: #ffffff; opacity: 0.9; stroke: #444444; stroke-width: 0.5; stroke-linejoin: miter"/>
    </g>
    <!-- V. Grøft 1 -->
    <g style="fill: #444444" transform="translate(488.061805 429.731922) scale(0.055 -0.055)">
     <use xlink:href="#DejaVuSans-56"/>
     <use xlink:href="#DejaVuSans-2e" x="55.533203"/>
     <use xlink:href="#DejaVuSans-20" x="87.320312"/>
     <use xlink:href="#DejaVuSans-47" x="119.107422"/>
     <use xlink:href="#DejaVuSans-72" x="196.597656"/>
     <use xlink:href="#DejaVuSans-f8" x="237.710938"/>
     <use xlink:href="#DejaVuSans-66" x="298.892578"/>
     <use xlink:href="#DejaVuSans-74" x="332.347656"/>
     <use xlink:href="#DejaVuSans-20" x="371.556641"/>
     <use xlink:href="#DejaVuSans-31" x="403.34375"/>
    </g>
   </g>
   <g id="patch_17">
    <path d="M 553.381114 411.862445 
Q 553.381114 452.738165 553.381114 493.613884 
" style="fill: none; stroke: #555555; stroke-width: 0.5; stroke-linecap: round"/>
   </g>
   <g id="text_33">
    <g id="patch_18">
     <path d="M 539.214747 409.607986 
L 567.547482 409.607986 
Q 568.372482 409.607986 568.372482 408.782986 
L 568.372482 403.460017 
Q 568.372482 402.635017 567.547482 402.635017 
L 539.214747 402.635017 
Q 538.389747 402.635017 538.389747 403.460017 
L 538.389747 408.782986 
Q 538.389747 409.607986 539.214747 409.607986 
z
" style="fill: #ffffff; opacity: 0.9; stroke: #555555; stroke-width: 0.5; stroke-linejoin: miter"/>
    </g>
    <!-- Bærelag 2 -->
    <g style="fill: #555555" transform="translate(539.214747 407.639158) scale(0.055 -0.055)">
     <use xlink:href="#DejaVuSans-42"/>
     <use xlink:href="#DejaVuSans-e6" x="68.603516"/>
     <use xlink:href="#DejaVuSans-72" x="166.796875"/>
     <use xlink:href="#DejaVuSans-65" x="205.660156"/>
     <use xlink:href="#DejaVuSans-6c" x="267.183594"/>
     <use xlink:href="#DejaVuSans-61" x="294.966797"/>
     <use xlink:href="#DejaVuSans-67" x="356.246094"/>
     <use xlink:href="#DejaVuSans-20" x="419.722656"/>
     <use xlink:href="#DejaVuSans-32" x="451.509766"/>
    </g>
   </g>
   <g id="patch_19">
    <path d="M 623.183944 393.363803 
Q 623.183944 445.570275 623.183944 497.776748 
" style="fill: none; stroke: #444444; stroke-width: 0.5; stroke-linecap: round"/>
   </g>
   <g id="text_34">
    <g id="patch_20">
     <path d="M 608.976327 391.114817 
L 637.391561 391.114817 
Q 638.216561 391.114817 638.216561 390.289817 
L 638.216561 384.966849 
Q 638.216561 384.141849 637.391561 384.141849 
L 608.976327 384.141849 
Q 608.151327 384.141849 608.151327 384.966849 
L 608.151327 390.289817 
Q 608.151327 391.114817 608.976327 391.114817 
z
" style="fill: #ffffff; opacity: 0.9; stroke: #444444; stroke-width: 0.5; stroke-linejoin: miter"/>
    </g>
    <!-- H. Grøft  1 -->
    <g style="fill: #444444" transform="translate(608.976327 389.145989) scale(0.055 -0.055)">
     <use xlink:href="#DejaVuSans-48"/>
     <use xlink:href="#DejaVuSans-2e" x="73.445312"/>
     <use xlink:href="#DejaVuSans-20" x="105.232422"/>
     <use xlink:href="#DejaVuSans-47" x="137.019531"/>
     <use xlink:href="#DejaVuSans-72" x="214.509766"/>
     <use xlink:href="#DejaVuSans-f8" x="255.623047"/>
     <use xlink:href="#DejaVuSans-66" x="316.804688"/>
     <use xlink:href="#DejaVuSans-74" x="350.259766"/>
     <use xlink:href="#DejaVuSans-20" x="389.46875"/>
     <use xlink:href="#DejaVuSans-20" x="421.255859"/>
     <use xlink:href="#DejaVuSans-31" x="453.042969"/>
    </g>
   </g>
   <g id="patch_21">
    <path d="M 486.083799 393.363803 
Q 486.083799 445.570275 486.083799 497.776748 
" style="fill: none; stroke: #444444; stroke-width: 0.5; stroke-linecap: round"/>
   </g>
   <g id="text_35">
    <g id="patch_22">
     <path d="M 473.243017 391.114817 
L 498.92458 391.114817 
Q 499.74958 391.114817 499.74958 390.289817 
L 499.74958 384.966849 
Q 499.74958 384.141849 498.92458 384.141849 
L 473.243017 384.141849 
Q 472.418017 384.141849 472.418017 384.966849 
L 472.418017 390.289817 
Q 472.418017 391.114817 473.243017 391.114817 
z
" style="fill: #ffffff; opacity: 0.9; stroke: #444444; stroke-width: 0.5; stroke-linejoin: miter"/>
    </g>
    <!-- V. Grøft 2 -->
    <g style="fill: #444444" transform="translate(473.243017 389.145989) scale(0.055 -0.055)">
     <use xlink:href="#DejaVuSans-56"/>
     <use xlink:href="#DejaVuSans-2e" x="55.533203"/>
     <use xlink:href="#DejaVuSans-20" x="87.320312"/>
     <use xlink:href="#DejaVuSans-47" x="119.107422"/>
     <use xlink:href="#DejaVuSans-72" x="196.597656"/>
     <use xlink:href="#DejaVuSans-f8" x="237.710938"/>
     <use xlink:href="#DejaVuSans-66" x="298.892578"/>
     <use xlink:href="#DejaVuSans-74" x="332.347656"/>
     <use xlink:href="#DejaVuSans-20" x="371.556641"/>
     <use xlink:href="#DejaVuSans-32" x="403.34375"/>
    </g>
   </g>
   <g id="patch_23">
    <path d="M 649.136534 493.411102 
Q 649.136534 500.309412 649.136534 507.207721 
" style="fill: none; stroke: #444444; stroke-width: 0.5; stroke-linecap: round"/>
   </g>
   <g id="text_36">
    <g id="patch_24">
     <path d="M 634.928917 491.15796 
L 663.344151 491.15796 
Q 664.169151 491.15796 664.169151 490.33296 
L 664.169151 485.009991 
Q 664.169151 484.184991 663.344151 484.184991 
L 634.928917 484.184991 
Q 634.103917 484.184991 634.103917 485.009991 
L 634.103917 490.33296 
Q 634.103917 491.15796 634.928917 491.15796 
z
" style="fill: #ffffff; opacity: 0.9; stroke: #444444; stroke-width: 0.5; stroke-linejoin: miter"/>
    </g>
    <!-- H. Grøft  2 -->
    <g style="fill: #444444" transform="translate(634.928917 489.189131) scale(0.055 -0.055)">
     <use xlink:href="#DejaVuSans-48"/>
     <use xlink:href="#DejaVuSans-2e" x="73.445312"/>
     <use xlink:href="#DejaVuSans-20" x="105.232422"/>
     <use xlink:href="#DejaVuSans-47" x="137.019531"/>
     <use xlink:href="#DejaVuSans-72" x="214.509766"/>
     <use xlink:href="#DejaVuSans-f8" x="255.623047"/>
     <use xlink:href="#DejaVuSans-66" x="316.804688"/>
     <use xlink:href="#DejaVuSans-74" x="350.259766"/>
     <use xlink:href="#DejaVuSans-20" x="389.46875"/>
     <use xlink:href="#DejaVuSans-20" x="421.255859"/>
     <use xlink:href="#DejaVuSans-32" x="453.042969"/>
    </g>
   </g>
   <g id="patch_25">
    <path d="M 560.273557 358.558089 
Q 560.273557 433.416729 560.273557 508.275369 
" style="fill: none; stroke: #888888; stroke-width: 0.5; stroke-linecap: round"/>
   </g>
   <g id="text_37">
    <g id="patch_26">
     <path d="M 534.805979 356.308038 
L 585.741135 356.308038 
Q 586.566135 356.308038 586.566135 355.483038 
L 586.566135 350.16007 
Q 586.566135 349.33507 585.741135 349.33507 
L 534.805979 349.33507 
Q 533.980979 349.33507 533.980979 350.16007 
L 533.980979 355.483038 
Q 533.980979 356.308038 534.805979 356.308038 
z
" style="fill: #ffffff; opacity: 0.9; stroke: #888888; stroke-width: 0.5; stroke-linejoin: miter"/>
    </g>
    <!-- Forsterkningslag 1 -->
    <g style="fill: #888888" transform="translate(534.805979 354.33921) scale(0.055 -0.055)">
     <defs>
      <path id="DejaVuSans-46" d="M 628 4666 
L 3309 4666 
L 3309 4134 
L 1259 4134 
L 1259 2759 
L 3109 2759 
L 3109 2228 
L 1259 2228 
L 1259 0 
L 628 0 
L 628 4666 
z
" transform="scale(0.015625)"/>
     </defs>
     <use xlink:href="#DejaVuSans-46"/>
     <use xlink:href="#DejaVuSans-6f" x="53.894531"/>
     <use xlink:href="#DejaVuSans-72" x="115.076172"/>
     <use xlink:href="#DejaVuSans-73" x="156.189453"/>
     <use xlink:href="#DejaVuSans-74" x="208.289062"/>
     <use xlink:href="#DejaVuSans-65" x="247.498047"/>
     <use xlink:href="#DejaVuSans-72" x="309.021484"/>
     <use xlink:href="#DejaVuSans-6b" x="350.134766"/>
     <use xlink:href="#DejaVuSans-6e" x="408.044922"/>
     <use xlink:href="#DejaVuSans-69" x="471.423828"/>
     <use xlink:href="#DejaVuSans-6e" x="499.207031"/>
     <use xlink:href="#DejaVuSans-67" x="562.585938"/>
     <use xlink:href="#DejaVuSans-73" x="626.0625"/>
     <use xlink:href="#DejaVuSans-6c" x="678.162109"/>
     <use xlink:href="#DejaVuSans-61" x="705.945312"/>
     <use xlink:href="#DejaVuSans-67" x="767.224609"/>
     <use xlink:href="#DejaVuSans-20" x="830.701172"/>
     <use xlink:href="#DejaVuSans-31" x="862.488281"/>
    </g>
   </g>
   <g id="patch_27">
    <path d="M 563.946642 338.040492 
Q 563.946642 424.224906 563.946642 510.409321 
" style="fill: none; stroke: #aaaaaa; stroke-width: 0.5; stroke-linecap: round"/>
   </g>
   <g id="text_38">
    <g id="patch_28">
     <path d="M 552.940627 335.792757 
L 574.952658 335.792757 
Q 575.777658 335.792757 575.777658 334.967757 
L 575.777658 329.644788 
Q 575.777658 328.819788 574.952658 328.819788 
L 552.940627 328.819788 
Q 552.115627 328.819788 552.115627 329.644788 
L 552.115627 334.967757 
Q 552.115627 335.792757 552.940627 335.792757 
z
" style="fill: #ffffff; opacity: 0.9; stroke: #aaaaaa; stroke-width: 0.5; stroke-linejoin: miter"/>
    </g>
    <!-- Filterlag -->
    <g style="fill: #aaaaaa" transform="translate(552.940627 333.823929) scale(0.055 -0.055)">
     <use xlink:href="#DejaVuSans-46"/>
     <use xlink:href="#DejaVuSans-69" x="50.269531"/>
     <use xlink:href="#DejaVuSans-6c" x="78.052734"/>
     <use xlink:href="#DejaVuSans-74" x="105.835938"/>
     <use xlink:href="#DejaVuSans-65" x="145.044922"/>
     <use xlink:href="#DejaVuSans-72" x="206.568359"/>
     <use xlink:href="#DejaVuSans-6c" x="247.681641"/>
     <use xlink:href="#DejaVuSans-61" x="275.464844"/>
     <use xlink:href="#DejaVuSans-67" x="336.744141"/>
    </g>
   </g>
   <g id="text_39">
    <!-- Profil 50.00 -->
    <g transform="translate(33.82 14.038594) scale(0.09 -0.09)">
     <defs>
      <path id="DejaVuSans-Bold-50" d="M 588 4666 
L 2584 4666 
Q 3475 4666 3951 4270 
Q 4428 3875 4428 3144 
Q 4428 2409 3951 2014 
Q 3475 1619 2584 1619 
L 1791 1619 
L 1791 0 
L 588 0 
L 588 4666 
z
M 1791 3794 
L 1791 2491 
L 2456 2491 
Q 2806 2491 2997 2661 
Q 3188 2831 3188 3144 
Q 3188 3456 2997 3625 
Q 2806 3794 2456 3794 
L 1791 3794 
z
" transform="scale(0.015625)"/>
      <path id="DejaVuSans-Bold-72" d="M 3138 2547 
Q 2991 2616 2845 2648 
Q 2700 2681 2553 2681 
Q 2122 2681 1889 2404 
Q 1656 2128 1656 1613 
L 1656 0 
L 538 0 
L 538 3500 
L 1656 3500 
L 1656 2925 
Q 1872 3269 2151 3426 
Q 2431 3584 2822 3584 
Q 2878 3584 2943 3579 
Q 3009 3575 3134 3559 
L 3138 2547 
z
" transform="scale(0.015625)"/>
      <path id="DejaVuSans-Bold-6f" d="M 2203 2784 
Q 1831 2784 1636 2517 
Q 1441 2250 1441 1747 
Q 1441 1244 1636 976 
Q 1831 709 2203 709 
Q 2569 709 2762 976 
Q 2956 1244 2956 1747 
Q 2956 2250 2762 2517 
Q 2569 2784 2203 2784 
z
M 2203 3584 
Q 3106 3584 3614 3096 
Q 4122 2609 4122 1747 
Q 4122 884 3614 396 
Q 3106 -91 2203 -91 
Q 1297 -91 786 396 
Q 275 884 275 1747 
Q 275 2609 786 3096 
Q 1297 3584 2203 3584 
z
" transform="scale(0.015625)"/>
      <path id="DejaVuSans-Bold-66" d="M 2841 4863 
L 2841 4128 
L 2222 4128 
Q 1984 4128 1890 4042 
Q 1797 3956 1797 3744 
L 1797 3500 
L 2753 3500 
L 2753 2700 
L 1797 2700 
L 1797 0 
L 678 0 
L 678 2700 
L 122 2700 
L 122 3500 
L 678 3500 
L 678 3744 
Q 678 4316 997 4589 
Q 1316 4863 1984 4863 
L 2841 4863 
z
" transform="scale(0.015625)"/>
      <path id="DejaVuSans-Bold-69" d="M 538 3500 
L 1656 3500 
L 1656 0 
L 538 0 
L 538 3500 
z
M 538 4863 
L 1656 4863 
L 1656 3950 
L 538 3950 
L 538 4863 
z
" transform="scale(0.015625)"/>
      <path id="DejaVuSans-Bold-6c" d="M 538 4863 
L 1656 4863 
L 1656 0 
L 538 0 
L 538 4863 
z
" transform="scale(0.015625)"/>
      <path id="DejaVuSans-Bold-20" transform="scale(0.015625)"/>
      <path id="DejaVuSans-Bold-35" d="M 678 4666 
L 3669 4666 
L 3669 3781 
L 1638 3781 
L 1638 3059 
Q 1775 3097 1914 3117 
Q 2053 3138 2203 3138 
Q 3056 3138 3531 2711 
Q 4006 2284 4006 1522 
Q 4006 766 3489 337 
Q 2972 -91 2053 -91 
Q 1656 -91 1267 -14 
Q 878 63 494 219 
L 494 1166 
Q 875 947 1217 837 
Q 1559 728 1863 728 
Q 2300 728 2551 942 
Q 2803 1156 2803 1522 
Q 2803 1891 2551 2103 
Q 2300 2316 1863 2316 
Q 1603 2316 1309 2248 
Q 1016 2181 678 2041 
L 678 4666 
z
" transform="scale(0.015625)"/>
      <path id="DejaVuSans-Bold-30" d="M 2944 2338 
Q 2944 3213 2780 3570 
Q 2616 3928 2228 3928 
Q 1841 3928 1675 3570 
Q 1509 3213 1509 2338 
Q 1509 1453 1675 1090 
Q 1841 728 2228 728 
Q 2613 728 2778 1090 
Q 2944 1453 2944 2338 
z
M 4147 2328 
Q 4147 1169 3647 539 
Q 3147 -91 2228 -91 
Q 1306 -91 806 539 
Q 306 1169 306 2328 
Q 306 3491 806 4120 
Q 1306 4750 2228 4750 
Q 3147 4750 3647 4120 
Q 4147 3491 4147 2328 
z
" transform="scale(0.015625)"/>
      <path id="DejaVuSans-Bold-2e" d="M 653 1209 
L 1778 1209 
L 1778 0 
L 653 0 
L 653 1209 
z
" transform="scale(0.015625)"/>
     </defs>
     <use xlink:href="#DejaVuSans-Bold-50"/>
     <use xlink:href="#DejaVuSans-Bold-72" x="73.291016"/>
     <use xlink:href="#DejaVuSans-Bold-6f" x="122.607422"/>
     <use xlink:href="#DejaVuSans-Bold-66" x="191.308594"/>
     <use xlink:href="#DejaVuSans-Bold-69" x="234.814453"/>
     <use xlink:href="#DejaVuSans-Bold-6c" x="269.091797"/>
     <use xlink:href="#DejaVuSans-Bold-20" x="303.369141"/>
     <use xlink:href="#DejaVuSans-Bold-35" x="338.183594"/>
     <use xlink:href="#DejaVuSans-Bold-30" x="407.763672"/>
     <use xlink:href="#DejaVuSans-Bold-2e" x="477.34375"/>
     <use xlink:href="#DejaVuSans-Bold-30" x="515.332031"/>
     <use xlink:href="#DejaVuSans-Bold-30" x="584.912109"/>
    </g>
   </g>
   <g id="cs:kjørefelt">
    <path d="M 497.097997 499.773885 
L 500.061809 497.886792 
L 503.025621 495.999698 
L 505.989432 494.112605 
L 508.953244 492.225512 
L 511.917056 491.847959 
L 514.880868 491.734734 
L 517.84468 491.621508 
L 520.808492 491.508283 
L 523.772303 491.395057 
L 526.736115 491.281831 
L 529.699927 491.168606 
L 532.663739 491.05538 
L 535.627551 490.942155 
L 538.591363 490.828929 
L 541.555174 490.715703 
L 544.518986 490.602478 
L 547.482798 490.489252 
L 550.44661 490.376027 
L 553.410422 490.262801 
L 556.374234 490.149575 
L 559.338045 490.03635 
L 562.301857 489.923124 
L 565.265669 489.923032 
L 568.229481 490.036257 
L 571.193293 490.149483 
L 574.157105 490.262709 
L 577.120916 490.375934 
L 580.084728 490.48916 
L 583.04854 490.602385 
L 586.012352 490.715611 
L 588.976164 490.828837 
L 591.939976 490.942062 
L 594.903787 491.055288 
L 597.867599 491.168513 
L 600.831411 491.281739 
L 603.795223 491.394965 
L 606.759035 491.50819 
L 609.722847 491.621416 
L 612.686659 491.734641 
L 615.65047 491.847867 
L 618.614282 492.223971 
L 621.578094 494.111064 
L 624.541906 495.998158 
L 627.505718 497.885251 
L 630.46953 499.772345 
L 633.433341 501.659438 
L 636.397153 503.546531 
L 639.360965 505.433625 
L 642.324777 507.320718 
L 645.288589 509.207811 
" clip-path="url(#p8e2eac0e52)" style="fill: none; stroke: #000000; stroke-width: 2; stroke-linecap: square"/>
   </g>
  </g>
  <g id="text_40">
   <!-- SVV · R700 · 1:200 · Stasjon 50.00 m · xlim=[-18,13] -->
   <g style="fill: #555555" transform="translate(919.630322 743.023947) scale(0.05 -0.05)">
    <defs>
     <path id="DejaVuSans-b7" d="M 684 2619 
L 1344 2619 
L 1344 1825 
L 684 1825 
L 684 2619 
z
" transform="scale(0.015625)"/>
     <path id="DejaVuSans-52" d="M 2841 2188 
Q 3044 2119 3236 1894 
Q 3428 1669 3622 1275 
L 4263 0 
L 3584 0 
L 2988 1197 
Q 2756 1666 2539 1819 
Q 2322 1972 1947 1972 
L 1259 1972 
L 1259 0 
L 628 0 
L 628 4666 
L 2053 4666 
Q 2853 4666 3247 4331 
Q 3641 3997 3641 3322 
Q 3641 2881 3436 2590 
Q 3231 2300 2841 2188 
z
M 1259 4147 
L 1259 2491 
L 2053 2491 
Q 2509 2491 2742 2702 
Q 2975 2913 2975 3322 
Q 2975 3731 2742 3939 
Q 2509 4147 2053 4147 
L 1259 4147 
z
" transform="scale(0.015625)"/>
     <path id="DejaVuSans-3a" d="M 750 794 
L 1409 794 
L 1409 0 
L 750 0 
L 750 794 
z
M 750 3309 
L 1409 3309 
L 1409 2516 
L 750 2516 
L 750 3309 
z
" transform="scale(0.015625)"/>
     <path id="DejaVuSans-78" d="M 3513 3500 
L 2247 1797 
L 3578 0 
L 2900 0 
L 1881 1375 
L 863 0 
L 184 0 
L 1544 1831 
L 300 3500 
L 978 3500 
L 1906 2253 
L 2834 3500 
L 3513 3500 
z
" transform="scale(0.015625)"/>
     <path id="DejaVuSans-3d" d="M 678 2906 
L 4684 2906 
L 4684 2381 
L 678 2381 
L 678 2906 
z
M 678 1631 
L 4684 1631 
L 4684 1100 
L 678 1100 
L 678 1631 
z
" transform="scale(0.015625)"/>
     <path id="DejaVuSans-5b" d="M 550 4863 
L 1875 4863 
L 1875 4416 
L 1125 4416 
L 1125 -397 
L 1875 -397 
L 1875 -844 
L 550 -844 
L 550 4863 
z
" transform="scale(0.015625)"/>
     <path id="DejaVuSans-2d" d="M 313 2009 
L 1997 2009 
L 1997 1497 
L 313 1497 
L 313 2009 
z
" transform="scale(0.015625)"/>
     <path id="DejaVuSans-2c" d="M 750 794 
L 1409 794 
L 1409 256 
L 897 -744 
L 494 -744 
L 750 256 
L 750 794 
z
" transform="scale(0.015625)"/>
     <path id="DejaVuSans-5d" d="M 1947 4863 
L 1947 -844 
L 622 -844 
L 622 -397 
L 1369 -397 
L 1369 4416 
L 622 4416 
L 622 4863 
L 1947 4863 
z
" transform="scale(0.015625)"/>
    </defs>
    <use xlink:href="#DejaVuSans-53"/>
    <use xlink:href="#DejaVuSans-56" x="63.476562"/>
    <use xlink:href="#DejaVuSans-56" x="131.884766"/>
    <use xlink:href="#DejaVuSans-20" x="200.292969"/>
    <use xlink:href="#DejaVuSans-b7" x="232.080078"/>
    <use xlink:href="#DejaVuSans-20" x="263.867188"/>
    <use xlink:href="#DejaVuSans-52" x="295.654297"/>
    <use xlink:href="#DejaVuSans-37" x="365.136719"/>
    <use xlink:href="#DejaVuSans-30" x="428.759766"/>
    <use xlink:href="#DejaVuSans-30" x="492.382812"/>
    <use xlink:href="#DejaVuSans-20" x="556.005859"/>
    <use xlink:href="#DejaVuSans-b7" x="587.792969"/>
    <use xlink:href="#DejaVuSans-20" x="619.580078"/>
    <use xlink:href="#DejaVuSans-31" x="651.367188"/>
    <use xlink:href="#DejaVuSans-3a" x="714.990234"/>
    <use xlink:href="#DejaVuSans-32" x="748.681641"/>
    <use xlink:href="#DejaVuSans-30" x="812.304688"/>
    <use xlink:href="#DejaVuSans-30" x="875.927734"/>
    <use xlink:href="#DejaVuSans-20" x="939.550781"/>
    <use xlink:href="#DejaVuSans-b7" x="971.337891"/>
    <use xlink:href="#DejaVuSans-20" x="1003.125"/>
    <use xlink:href="#DejaVuSans-53" x="1034.912109"/>
    <use xlink:href="#DejaVuSans-74" x="1098.388672"/>
    <use xlink:href="#DejaVuSans-61" x="1137.597656"/>
    <use xlink:href="#DejaVuSans-73" x="1198.876953"/>
    <use xlink:href="#DejaVuSans-6a" x="1250.976562"/>
    <use xlink:href="#DejaVuSans-6f" x="1278.759766"/>
    <use xlink:href="#DejaVuSans-6e" x="1339.941406"/>
    <use xlink:href="#DejaVuSans-20" x="1403.320312"/>
    <use xlink:href="#DejaVuSans-35" x="1435.107422"/>
    <use xlink:href="#DejaVuSans-30" x="1498.730469"/>
    <use xlink:href="#DejaVuSans-2e" x="1562.353516"/>
    <use xlink:href="#DejaVuSans-30" x="1594.140625"/>
    <use xlink:href="#DejaVuSans-30" x="1657.763672"/>
    <use xlink:href="#DejaVuSans-20" x="1721.386719"/>
    <use xlink:href="#DejaVuSans-6d" x="1753.173828"/>
    <use xlink:href="#DejaVuSans-20" x="1850.585938"/>
    <use xlink:href="#DejaVuSans-b7" x="1882.373047"/>
    <use xlink:href="#DejaVuSans-20" x="1914.160156"/>
    <use xlink:href="#DejaVuSans-78" x="1945.947266"/>
    <use xlink:href="#DejaVuSans-6c" x="2005.126953"/>
    <use xlink:href="#DejaVuSans-69" x="2032.910156"/>
    <use xlink:href="#DejaVuSans-6d" x="2060.693359"/>
    <use xlink:href="#DejaVuSans-3d" x="2158.105469"/>
    <use xlink:href="#DejaVuSans-5b" x="2241.894531"/>
    <use xlink:href="#DejaVuSans-2d" x="2280.908203"/>
    <use xlink:href="#DejaVuSans-31" x="2316.992188"/>
    <use xlink:href="#DejaVuSans-38" x="2380.615234"/>
    <use xlink:href="#DejaVuSans-2c" x="2444.238281"/>
    <use xlink:href="#DejaVuSans-31" x="2476.025391"/>
    <use xlink:href="#DejaVuSans-33" x="2539.648438"/>
    <use xlink:href="#DejaVuSans-5d" x="2603.271484"/>
   </g>
  </g>
 </g>
 <defs>
  <clipPath id="p8e2eac0e52">
   <rect x="33.82" y="20.038594" width="922.677165" height="648.255118"/>
  </clipPath>
 </defs>
</svg>
