<?xml version="1.0" encoding="utf-8" standalone="no"?>
<!DOCTYPE svg PUBLIC "-//W3C//DTD SVG 1.1//EN"
  "http://www.w3.org/Graphics/SVG/1.1/DTD/svg11.dtd">
<svg xmlns:xlink="http://www.w3.org/1999/xlink" width="1058.94126pt" height="751.263791pt" viewBox="0 0 1058.94126 751.263791" xmlns="http://www.w3.org/2000/svg" version="1.1">
 <metadata>
  <rdf:RDF xmlns:dc="http://purl.org/dc/elements/1.1/" xmlns:cc="http://creativecommons.org/ns#" xmlns:rdf="http://www.w3.org/1999/02/22-rdf-syntax-ns#">
   <cc:Work>
    <dc:type rdf:resource="http://purl.org/dc/dcmitype/StillImage"/>
    <dc:date>2026-05-20T19:03:05.481765</dc:date>
    <dc:format>image/svg+xml</dc:format>
    <dc:creator>
     <cc:Agent>
      <dc:title>Matplotlib v3.9.4, https://matplotlib.org/</dc:title>
     </cc:Agent>
    </dc:creator>
   </cc:Work>
  </rdf:RDF>
 </metadata>
 <defs>
  <style type="text/css">*{stroke-linejoin: round; stroke-linecap: butt}</style>
 </defs>
 <g id="figure_1">
  <g id="patch_1">
   <path d="M 0 751.263791 
L 1058.94126 751.263791 
L 1058.94126 0 
L 0 0 
z
" style="fill: #ffffff"/>
  </g>
  <g id="axes_1">
   <g id="patch_2">
    <path d="M 33.82 668.293712 
L 956.497165 668.293712 
L 956.497165 20.038594 
L 33.82 20.038594 
z
" style="fill: #ffffff"/>
   </g>
   <g id="matplotlib.axis_1">
    <g id="xtick_1">
     <g id="line2d_1">
      <path d="M 134.956924 668.293712 
L 134.956924 20.038594 
" clip-path="url(#p5611b93b9f)" style="fill: none; stroke: #aaaaaa; stroke-width: 0.5; stroke-linecap: square"/>
     </g>
     <g id="line2d_2">
      <defs>
       <path id="m4c28b0a945" d="M 0 0 
L 0 3.5 
" style="stroke: #000000; stroke-width: 0.8"/>
      </defs>
      <g>
       <use xlink:href="#m4c28b0a945" x="134.956924" y="668.293712" style="stroke: #000000; stroke-width: 0.8"/>
      </g>
     </g>
     <g id="text_1">
      <!-- −10 -->
      <g transform="translate(128.625517 679.852774) scale(0.06 -0.06)">
       <defs>
        <path id="DejaVuSans-2212" d="M 678 2272 
L 4684 2272 
L 4684 1741 
L 678 1741 
L 678 2272 
z
" transform="scale(0.015625)"/>
        <path id="DejaVuSans-31" d="M 794 531 
L 1825 531 
L 1825 4091 
L 703 3866 
L 703 4441 
L 1819 4666 
L 2450 4666 
L 2450 531 
L 3481 531 
L 3481 0 
L 794 0 
L 794 531 
z
" transform="scale(0.015625)"/>
        <path id="DejaVuSans-30" d="M 2034 4250 
Q 1547 4250 1301 3770 
Q 1056 3291 1056 2328 
Q 1056 1369 1301 889 
Q 1547 409 2034 409 
Q 2525 409 2770 889 
Q 3016 1369 3016 2328 
Q 3016 3291 2770 3770 
Q 2525 4250 2034 4250 
z
M 2034 4750 
Q 2819 4750 3233 4129 
Q 3647 3509 3647 2328 
Q 3647 1150 3233 529 
Q 2819 -91 2034 -91 
Q 1250 -91 836 529 
Q 422 1150 422 2328 
Q 422 3509 836 4129 
Q 1250 4750 2034 4750 
z
" transform="scale(0.015625)"/>
       </defs>
       <use xlink:href="#DejaVuSans-2212"/>
       <use xlink:href="#DejaVuSans-31" x="83.789062"/>
       <use xlink:href="#DejaVuSans-30" x="147.412109"/>
      </g>
     </g>
    </g>
    <g id="xtick_2">
     <g id="line2d_3">
      <path d="M 312.394466 668.293712 
L 312.394466 20.038594 
" clip-path="url(#p5611b93b9f)" style="fill: none; stroke: #aaaaaa; stroke-width: 0.5; stroke-linecap: square"/>
     </g>
     <g id="line2d_4">
      <g>
       <use xlink:href="#m4c28b0a945" x="312.394466" y="668.293712" style="stroke: #000000; stroke-width: 0.8"/>
      </g>
     </g>
     <g id="text_2">
      <!-- −5 -->
      <g transform="translate(307.97181 679.852774) scale(0.06 -0.06)">
       <defs>
        <path id="DejaVuSans-35" d="M 691 4666 
L 3169 4666 
L 3169 4134 
L 1269 4134 
L 1269 2991 
Q 1406 3038 1543 3061 
Q 1681 3084 1819 3084 
Q 2600 3084 3056 2656 
Q 3513 2228 3513 1497 
Q 3513 744 3044 326 
Q 2575 -91 1722 -91 
Q 1428 -91 1123 -41 
Q 819 9 494 109 
L 494 744 
Q 775 591 1075 516 
Q 1375 441 1709 441 
Q 2250 441 2565 725 
Q 2881 1009 2881 1497 
Q 2881 1984 2565 2268 
Q 2250 2553 1709 2553 
Q 1456 2553 1204 2497 
Q 953 2441 691 2322 
L 691 4666 
z
" transform="scale(0.015625)"/>
       </defs>
       <use xlink:href="#DejaVuSans-2212"/>
       <use xlink:href="#DejaVuSans-35" x="83.789062"/>
      </g>
     </g>
    </g>
    <g id="xtick_3">
     <g id="line2d_5">
      <path d="M 489.832009 668.293712 
L 489.832009 20.038594 
" clip-path="url(#p5611b93b9f)" style="fill: none; stroke: #aaaaaa; stroke-width: 0.5; stroke-linecap: square"/>
     </g>
     <g id="line2d_6">
      <g>
       <use xlink:href="#m4c28b0a945" x="489.832009" y="668.293712" style="stroke: #000000; stroke-width: 0.8"/>
      </g>
     </g>
     <g id="text_3">
      <!-- 0 -->
      <g transform="translate(487.923259 679.852774) scale(0.06 -0.06)">
       <use xlink:href="#DejaVuSans-30"/>
      </g>
     </g>
    </g>
    <g id="xtick_4">
     <g id="line2d_7">
      <path d="M 667.269552 668.293712 
L 667.269552 20.038594 
" clip-path="url(#p5611b93b9f)" style="fill: none; stroke: #aaaaaa; stroke-width: 0.5; stroke-linecap: square"/>
     </g>
     <g id="line2d_8">
      <g>
       <use xlink:href="#m4c28b0a945" x="667.269552" y="668.293712" style="stroke: #000000; stroke-width: 0.8"/>
      </g>
     </g>
     <g id="text_4">
      <!-- 5 -->
      <g transform="translate(665.360802 679.852774) scale(0.06 -0.06)">
       <use xlink:href="#DejaVuSans-35"/>
      </g>
     </g>
    </g>
    <g id="xtick_5">
     <g id="line2d_9">
      <path d="M 844.707094 668.293712 
L 844.707094 20.038594 
" clip-path="url(#p5611b93b9f)" style="fill: none; stroke: #aaaaaa; stroke-width: 0.5; stroke-linecap: square"/>
     </g>
     <g id="line2d_10">
      <g>
       <use xlink:href="#m4c28b0a945" x="844.707094" y="668.293712" style="stroke: #000000; stroke-width: 0.8"/>
      </g>
     </g>
     <g id="text_5">
      <!-- 10 -->
      <g transform="translate(840.889594 679.852774) scale(0.06 -0.06)">
       <use xlink:href="#DejaVuSans-31"/>
       <use xlink:href="#DejaVuSans-30" x="63.623047"/>
      </g>
     </g>
    </g>
    <g id="xtick_6">
     <g id="line2d_11">
      <path d="M 63.981907 668.293712 
L 63.981907 20.038594 
" clip-path="url(#p5611b93b9f)" style="fill: none; stroke: #dddddd; stroke-width: 0.25; stroke-linecap: square"/>
     </g>
     <g id="line2d_12">
      <defs>
       <path id="mf943480e23" d="M 0 0 
L 0 2 
" style="stroke: #000000; stroke-width: 0.6"/>
      </defs>
      <g>
       <use xlink:href="#mf943480e23" x="63.981907" y="668.293712" style="stroke: #000000; stroke-width: 0.6"/>
      </g>
     </g>
    </g>
    <g id="xtick_7">
     <g id="line2d_13">
      <path d="M 99.469415 668.293712 
L 99.469415 20.038594 
" clip-path="url(#p5611b93b9f)" style="fill: none; stroke: #dddddd; stroke-width: 0.25; stroke-linecap: square"/>
     </g>
     <g id="line2d_14">
      <g>
       <use xlink:href="#mf943480e23" x="99.469415" y="668.293712" style="stroke: #000000; stroke-width: 0.6"/>
      </g>
     </g>
    </g>
    <g id="xtick_8">
     <g id="line2d_15">
      <path d="M 170.444432 668.293712 
L 170.444432 20.038594 
" clip-path="url(#p5611b93b9f)" style="fill: none; stroke: #dddddd; stroke-width: 0.25; stroke-linecap: square"/>
     </g>
     <g id="line2d_16">
      <g>
       <use xlink:href="#mf943480e23" x="170.444432" y="668.293712" style="stroke: #000000; stroke-width: 0.6"/>
      </g>
     </g>
    </g>
    <g id="xtick_9">
     <g id="line2d_17">
      <path d="M 205.931941 668.293712 
L 205.931941 20.038594 
" clip-path="url(#p5611b93b9f)" style="fill: none; stroke: #dddddd; stroke-width: 0.25; stroke-linecap: square"/>
     </g>
     <g id="line2d_18">
      <g>
       <use xlink:href="#mf943480e23" x="205.931941" y="668.293712" style="stroke: #000000; stroke-width: 0.6"/>
      </g>
     </g>
    </g>
    <g id="xtick_10">
     <g id="line2d_19">
      <path d="M 241.419449 668.293712 
L 241.419449 20.038594 
" clip-path="url(#p5611b93b9f)" style="fill: none; stroke: #dddddd; stroke-width: 0.25; stroke-linecap: square"/>
     </g>
     <g id="line2d_20">
      <g>
       <use xlink:href="#mf943480e23" x="241.419449" y="668.293712" style="stroke: #000000; stroke-width: 0.6"/>
      </g>
     </g>
    </g>
    <g id="xtick_11">
     <g id="line2d_21">
      <path d="M 276.906958 668.293712 
L 276.906958 20.038594 
" clip-path="url(#p5611b93b9f)" style="fill: none; stroke: #dddddd; stroke-width: 0.25; stroke-linecap: square"/>
     </g>
     <g id="line2d_22">
      <g>
       <use xlink:href="#mf943480e23" x="276.906958" y="668.293712" style="stroke: #000000; stroke-width: 0.6"/>
      </g>
     </g>
    </g>
    <g id="xtick_12">
     <g id="line2d_23">
      <path d="M 347.881975 668.293712 
L 347.881975 20.038594 
" clip-path="url(#p5611b93b9f)" style="fill: none; stroke: #dddddd; stroke-width: 0.25; stroke-linecap: square"/>
     </g>
     <g id="line2d_24">
      <g>
       <use xlink:href="#mf943480e23" x="347.881975" y="668.293712" style="stroke: #000000; stroke-width: 0.6"/>
      </g>
     </g>
    </g>
    <g id="xtick_13">
     <g id="line2d_25">
      <path d="M 383.369483 668.293712 
L 383.369483 20.038594 
" clip-path="url(#p5611b93b9f)" style="fill: none; stroke: #dddddd; stroke-width: 0.25; stroke-linecap: square"/>
     </g>
     <g id="line2d_26">
      <g>
       <use xlink:href="#mf943480e23" x="383.369483" y="668.293712" style="stroke: #000000; stroke-width: 0.6"/>
      </g>
     </g>
    </g>
    <g id="xtick_14">
     <g id="line2d_27">
      <path d="M 418.856992 668.293712 
L 418.856992 20.038594 
" clip-path="url(#p5611b93b9f)" style="fill: none; stroke: #dddddd; stroke-width: 0.25; stroke-linecap: square"/>
     </g>
     <g id="line2d_28">
      <g>
       <use xlink:href="#mf943480e23" x="418.856992" y="668.293712" style="stroke: #000000; stroke-width: 0.6"/>
      </g>
     </g>
    </g>
    <g id="xtick_15">
     <g id="line2d_29">
      <path d="M 454.3445 668.293712 
L 454.3445 20.038594 
" clip-path="url(#p5611b93b9f)" style="fill: none; stroke: #dddddd; stroke-width: 0.25; stroke-linecap: square"/>
     </g>
     <g id="line2d_30">
      <g>
       <use xlink:href="#mf943480e23" x="454.3445" y="668.293712" style="stroke: #000000; stroke-width: 0.6"/>
      </g>
     </g>
    </g>
    <g id="xtick_16">
     <g id="line2d_31">
      <path d="M 525.319517 668.293712 
L 525.319517 20.038594 
" clip-path="url(#p5611b93b9f)" style="fill: none; stroke: #dddddd; stroke-width: 0.25; stroke-linecap: square"/>
     </g>
     <g id="line2d_32">
      <g>
       <use xlink:href="#mf943480e23" x="525.319517" y="668.293712" style="stroke: #000000; stroke-width: 0.6"/>
      </g>
     </g>
    </g>
    <g id="xtick_17">
     <g id="line2d_33">
      <path d="M 560.807026 668.293712 
L 560.807026 20.038594 
" clip-path="url(#p5611b93b9f)" style="fill: none; stroke: #dddddd; stroke-width: 0.25; stroke-linecap: square"/>
     </g>
     <g id="line2d_34">
      <g>
       <use xlink:href="#mf943480e23" x="560.807026" y="668.293712" style="stroke: #000000; stroke-width: 0.6"/>
      </g>
     </g>
    </g>
    <g id="xtick_18">
     <g id="line2d_35">
      <path d="M 596.294535 668.293712 
L 596.294535 20.038594 
" clip-path="url(#p5611b93b9f)" style="fill: none; stroke: #dddddd; stroke-width: 0.25; stroke-linecap: square"/>
     </g>
     <g id="line2d_36">
      <g>
       <use xlink:href="#mf943480e23" x="596.294535" y="668.293712" style="stroke: #000000; stroke-width: 0.6"/>
      </g>
     </g>
    </g>
    <g id="xtick_19">
     <g id="line2d_37">
      <path d="M 631.782043 668.293712 
L 631.782043 20.038594 
" clip-path="url(#p5611b93b9f)" style="fill: none; stroke: #dddddd; stroke-width: 0.25; stroke-linecap: square"/>
     </g>
     <g id="line2d_38">
      <g>
       <use xlink:href="#mf943480e23" x="631.782043" y="668.293712" style="stroke: #000000; stroke-width: 0.6"/>
      </g>
     </g>
    </g>
    <g id="xtick_20">
     <g id="line2d_39">
      <path d="M 702.75706 668.293712 
L 702.75706 20.038594 
" clip-path="url(#p5611b93b9f)" style="fill: none; stroke: #dddddd; stroke-width: 0.25; stroke-linecap: square"/>
     </g>
     <g id="line2d_40">
      <g>
       <use xlink:href="#mf943480e23" x="702.75706" y="668.293712" style="stroke: #000000; stroke-width: 0.6"/>
      </g>
     </g>
    </g>
    <g id="xtick_21">
     <g id="line2d_41">
      <path d="M 738.244569 668.293712 
L 738.244569 20.038594 
" clip-path="url(#p5611b93b9f)" style="fill: none; stroke: #dddddd; stroke-width: 0.25; stroke-linecap: square"/>
     </g>
     <g id="line2d_42">
      <g>
       <use xlink:href="#mf943480e23" x="738.244569" y="668.293712" style="stroke: #000000; stroke-width: 0.6"/>
      </g>
     </g>
    </g>
    <g id="xtick_22">
     <g id="line2d_43">
      <path d="M 773.732077 668.293712 
L 773.732077 20.038594 
" clip-path="url(#p5611b93b9f)" style="fill: none; stroke: #dddddd; stroke-width: 0.25; stroke-linecap: square"/>
     </g>
     <g id="line2d_44">
      <g>
       <use xlink:href="#mf943480e23" x="773.732077" y="668.293712" style="stroke: #000000; stroke-width: 0.6"/>
      </g>
     </g>
    </g>
    <g id="xtick_23">
     <g id="line2d_45">
      <path d="M 809.219586 668.293712 
L 809.219586 20.038594 
" clip-path="url(#p5611b93b9f)" style="fill: none; stroke: #dddddd; stroke-width: 0.25; stroke-linecap: square"/>
     </g>
     <g id="line2d_46">
      <g>
       <use xlink:href="#mf943480e23" x="809.219586" y="668.293712" style="stroke: #000000; stroke-width: 0.6"/>
      </g>
     </g>
    </g>
    <g id="xtick_24">
     <g id="line2d_47">
      <path d="M 880.194603 668.293712 
L 880.194603 20.038594 
" clip-path="url(#p5611b93b9f)" style="fill: none; stroke: #dddddd; stroke-width: 0.25; stroke-linecap: square"/>
     </g>
     <g id="line2d_48">
      <g>
       <use xlink:href="#mf943480e23" x="880.194603" y="668.293712" style="stroke: #000000; stroke-width: 0.6"/>
      </g>
     </g>
    </g>
    <g id="xtick_25">
     <g id="line2d_49">
      <path d="M 915.682111 668.293712 
L 915.682111 20.038594 
" clip-path="url(#p5611b93b9f)" style="fill: none; stroke: #dddddd; stroke-width: 0.25; stroke-linecap: square"/>
     </g>
     <g id="line2d_50">
      <g>
       <use xlink:href="#mf943480e23" x="915.682111" y="668.293712" style="stroke: #000000; stroke-width: 0.6"/>
      </g>
     </g>
    </g>
    <g id="xtick_26">
     <g id="line2d_51">
      <path d="M 951.16962 668.293712 
L 951.16962 20.038594 
" clip-path="url(#p5611b93b9f)" style="fill: none; stroke: #dddddd; stroke-width: 0.25; stroke-linecap: square"/>
     </g>
     <g id="line2d_52">
      <g>
       <use xlink:href="#mf943480e23" x="951.16962" y="668.293712" style="stroke: #000000; stroke-width: 0.6"/>
      </g>
     </g>
    </g>
    <g id="text_6">
     <!-- Avstand fra senterlinje (m) -->
     <g transform="translate(448.376708 690.419493) scale(0.07 -0.07)">
      <defs>
       <path id="DejaVuSans-41" d="M 2188 4044 
L 1331 1722 
L 3047 1722 
L 2188 4044 
z
M 1831 4666 
L 2547 4666 
L 4325 0 
L 3669 0 
L 3244 1197 
L 1141 1197 
L 716 0 
L 50 0 
L 1831 4666 
z
" transform="scale(0.015625)"/>
       <path id="DejaVuSans-76" d="M 191 3500 
L 800 3500 
L 1894 563 
L 2988 3500 
L 3597 3500 
L 2284 0 
L 1503 0 
L 191 3500 
z
" transform="scale(0.015625)"/>
       <path id="DejaVuSans-73" d="M 2834 3397 
L 2834 2853 
Q 2591 2978 2328 3040 
Q 2066 3103 1784 3103 
Q 1356 3103 1142 2972 
Q 928 2841 928 2578 
Q 928 2378 1081 2264 
Q 1234 2150 1697 2047 
L 1894 2003 
Q 2506 1872 2764 1633 
Q 3022 1394 3022 966 
Q 3022 478 2636 193 
Q 2250 -91 1575 -91 
Q 1294 -91 989 -36 
Q 684 19 347 128 
L 347 722 
Q 666 556 975 473 
Q 1284 391 1588 391 
Q 1994 391 2212 530 
Q 2431 669 2431 922 
Q 2431 1156 2273 1281 
Q 2116 1406 1581 1522 
L 1381 1569 
Q 847 1681 609 1914 
Q 372 2147 372 2553 
Q 372 3047 722 3315 
Q 1072 3584 1716 3584 
Q 2034 3584 2315 3537 
Q 2597 3491 2834 3397 
z
" transform="scale(0.015625)"/>
       <path id="DejaVuSans-74" d="M 1172 4494 
L 1172 3500 
L 2356 3500 
L 2356 3053 
L 1172 3053 
L 1172 1153 
Q 1172 725 1289 603 
Q 1406 481 1766 481 
L 2356 481 
L 2356 0 
L 1766 0 
Q 1100 0 847 248 
Q 594 497 594 1153 
L 594 3053 
L 172 3053 
L 172 3500 
L 594 3500 
L 594 4494 
L 1172 4494 
z
" transform="scale(0.015625)"/>
       <path id="DejaVuSans-61" d="M 2194 1759 
Q 1497 1759 1228 1600 
Q 959 1441 959 1056 
Q 959 750 1161 570 
Q 1363 391 1709 391 
Q 2188 391 2477 730 
Q 2766 1069 2766 1631 
L 2766 1759 
L 2194 1759 
z
M 3341 1997 
L 3341 0 
L 2766 0 
L 2766 531 
Q 2569 213 2275 61 
Q 1981 -91 1556 -91 
Q 1019 -91 701 211 
Q 384 513 384 1019 
Q 384 1609 779 1909 
Q 1175 2209 1959 2209 
L 2766 2209 
L 2766 2266 
Q 2766 2663 2505 2880 
Q 2244 3097 1772 3097 
Q 1472 3097 1187 3025 
Q 903 2953 641 2809 
L 641 3341 
Q 956 3463 1253 3523 
Q 1550 3584 1831 3584 
Q 2591 3584 2966 3190 
Q 3341 2797 3341 1997 
z
" transform="scale(0.015625)"/>
       <path id="DejaVuSans-6e" d="M 3513 2113 
L 3513 0 
L 2938 0 
L 2938 2094 
Q 2938 2591 2744 2837 
Q 2550 3084 2163 3084 
Q 1697 3084 1428 2787 
Q 1159 2491 1159 1978 
L 1159 0 
L 581 0 
L 581 3500 
L 1159 3500 
L 1159 2956 
Q 1366 3272 1645 3428 
Q 1925 3584 2291 3584 
Q 2894 3584 3203 3211 
Q 3513 2838 3513 2113 
z
" transform="scale(0.015625)"/>
       <path id="DejaVuSans-64" d="M 2906 2969 
L 2906 4863 
L 3481 4863 
L 3481 0 
L 2906 0 
L 2906 525 
Q 2725 213 2448 61 
Q 2172 -91 1784 -91 
Q 1150 -91 751 415 
Q 353 922 353 1747 
Q 353 2572 751 3078 
Q 1150 3584 1784 3584 
Q 2172 3584 2448 3432 
Q 2725 3281 2906 2969 
z
M 947 1747 
Q 947 1113 1208 752 
Q 1469 391 1925 391 
Q 2381 391 2643 752 
Q 2906 1113 2906 1747 
Q 2906 2381 2643 2742 
Q 2381 3103 1925 3103 
Q 1469 3103 1208 2742 
Q 947 2381 947 1747 
z
" transform="scale(0.015625)"/>
       <path id="DejaVuSans-20" transform="scale(0.015625)"/>
       <path id="DejaVuSans-66" d="M 2375 4863 
L 2375 4384 
L 1825 4384 
Q 1516 4384 1395 4259 
Q 1275 4134 1275 3809 
L 1275 3500 
L 2222 3500 
L 2222 3053 
L 1275 3053 
L 1275 0 
L 697 0 
L 697 3053 
L 147 3053 
L 147 3500 
L 697 3500 
L 697 3744 
Q 697 4328 969 4595 
Q 1241 4863 1831 4863 
L 2375 4863 
z
" transform="scale(0.015625)"/>
       <path id="DejaVuSans-72" d="M 2631 2963 
Q 2534 3019 2420 3045 
Q 2306 3072 2169 3072 
Q 1681 3072 1420 2755 
Q 1159 2438 1159 1844 
L 1159 0 
L 581 0 
L 581 3500 
L 1159 3500 
L 1159 2956 
Q 1341 3275 1631 3429 
Q 1922 3584 2338 3584 
Q 2397 3584 2469 3576 
Q 2541 3569 2628 3553 
L 2631 2963 
z
" transform="scale(0.015625)"/>
       <path id="DejaVuSans-65" d="M 3597 1894 
L 3597 1613 
L 953 1613 
Q 991 1019 1311 708 
Q 1631 397 2203 397 
Q 2534 397 2845 478 
Q 3156 559 3463 722 
L 3463 178 
Q 3153 47 2828 -22 
Q 2503 -91 2169 -91 
Q 1331 -91 842 396 
Q 353 884 353 1716 
Q 353 2575 817 3079 
Q 1281 3584 2069 3584 
Q 2775 3584 3186 3129 
Q 3597 2675 3597 1894 
z
M 3022 2063 
Q 3016 2534 2758 2815 
Q 2500 3097 2075 3097 
Q 1594 3097 1305 2825 
Q 1016 2553 972 2059 
L 3022 2063 
z
" transform="scale(0.015625)"/>
       <path id="DejaVuSans-6c" d="M 603 4863 
L 1178 4863 
L 1178 0 
L 603 0 
L 603 4863 
z
" transform="scale(0.015625)"/>
       <path id="DejaVuSans-69" d="M 603 3500 
L 1178 3500 
L 1178 0 
L 603 0 
L 603 3500 
z
M 603 4863 
L 1178 4863 
L 1178 4134 
L 603 4134 
L 603 4863 
z
" transform="scale(0.015625)"/>
       <path id="DejaVuSans-6a" d="M 603 3500 
L 1178 3500 
L 1178 -63 
Q 1178 -731 923 -1031 
Q 669 -1331 103 -1331 
L -116 -1331 
L -116 -844 
L 38 -844 
Q 366 -844 484 -692 
Q 603 -541 603 -63 
L 603 3500 
z
M 603 4863 
L 1178 4863 
L 1178 4134 
L 603 4134 
L 603 4863 
z
" transform="scale(0.015625)"/>
       <path id="DejaVuSans-28" d="M 1984 4856 
Q 1566 4138 1362 3434 
Q 1159 2731 1159 2009 
Q 1159 1288 1364 580 
Q 1569 -128 1984 -844 
L 1484 -844 
Q 1016 -109 783 600 
Q 550 1309 550 2009 
Q 550 2706 781 3412 
Q 1013 4119 1484 4856 
L 1984 4856 
z
" transform="scale(0.015625)"/>
       <path id="DejaVuSans-6d" d="M 3328 2828 
Q 3544 3216 3844 3400 
Q 4144 3584 4550 3584 
Q 5097 3584 5394 3201 
Q 5691 2819 5691 2113 
L 5691 0 
L 5113 0 
L 5113 2094 
Q 5113 2597 4934 2840 
Q 4756 3084 4391 3084 
Q 3944 3084 3684 2787 
Q 3425 2491 3425 1978 
L 3425 0 
L 2847 0 
L 2847 2094 
Q 2847 2600 2669 2842 
Q 2491 3084 2119 3084 
Q 1678 3084 1418 2786 
Q 1159 2488 1159 1978 
L 1159 0 
L 581 0 
L 581 3500 
L 1159 3500 
L 1159 2956 
Q 1356 3278 1631 3431 
Q 1906 3584 2284 3584 
Q 2666 3584 2933 3390 
Q 3200 3197 3328 2828 
z
" transform="scale(0.015625)"/>
       <path id="DejaVuSans-29" d="M 513 4856 
L 1013 4856 
Q 1481 4119 1714 3412 
Q 1947 2706 1947 2009 
Q 1947 1309 1714 600 
Q 1481 -109 1013 -844 
L 513 -844 
Q 928 -128 1133 580 
Q 1338 1288 1338 2009 
Q 1338 2731 1133 3434 
Q 928 4138 513 4856 
z
" transform="scale(0.015625)"/>
      </defs>
      <use xlink:href="#DejaVuSans-41"/>
      <use xlink:href="#DejaVuSans-76" x="62.533203"/>
      <use xlink:href="#DejaVuSans-73" x="121.712891"/>
      <use xlink:href="#DejaVuSans-74" x="173.8125"/>
      <use xlink:href="#DejaVuSans-61" x="213.021484"/>
      <use xlink:href="#DejaVuSans-6e" x="274.300781"/>
      <use xlink:href="#DejaVuSans-64" x="337.679688"/>
      <use xlink:href="#DejaVuSans-20" x="401.15625"/>
      <use xlink:href="#DejaVuSans-66" x="432.943359"/>
      <use xlink:href="#DejaVuSans-72" x="468.148438"/>
      <use xlink:href="#DejaVuSans-61" x="509.261719"/>
      <use xlink:href="#DejaVuSans-20" x="570.541016"/>
      <use xlink:href="#DejaVuSans-73" x="602.328125"/>
      <use xlink:href="#DejaVuSans-65" x="654.427734"/>
      <use xlink:href="#DejaVuSans-6e" x="715.951172"/>
      <use xlink:href="#DejaVuSans-74" x="779.330078"/>
      <use xlink:href="#DejaVuSans-65" x="818.539062"/>
      <use xlink:href="#DejaVuSans-72" x="880.0625"/>
      <use xlink:href="#DejaVuSans-6c" x="921.175781"/>
      <use xlink:href="#DejaVuSans-69" x="948.958984"/>
      <use xlink:href="#DejaVuSans-6e" x="976.742188"/>
      <use xlink:href="#DejaVuSans-6a" x="1040.121094"/>
      <use xlink:href="#DejaVuSans-65" x="1067.904297"/>
      <use xlink:href="#DejaVuSans-20" x="1129.427734"/>
      <use xlink:href="#DejaVuSans-28" x="1161.214844"/>
      <use xlink:href="#DejaVuSans-6d" x="1200.228516"/>
      <use xlink:href="#DejaVuSans-29" x="1297.640625"/>
     </g>
    </g>
   </g>
   <g id="matplotlib.axis_2">
    <g id="ytick_1">
     <g id="line2d_53">
      <path d="M 33.82 658.825114 
L 956.497165 658.825114 
" clip-path="url(#p5611b93b9f)" style="fill: none; stroke: #aaaaaa; stroke-width: 0.5; stroke-linecap: square"/>
     </g>
     <g id="line2d_54">
      <defs>
       <path id="m3337631fb1" d="M 0 0 
L -3.5 0 
" style="stroke: #000000; stroke-width: 0.8"/>
      </defs>
      <g>
       <use xlink:href="#m3337631fb1" x="33.82" y="658.825114" style="stroke: #000000; stroke-width: 0.8"/>
      </g>
     </g>
     <g id="text_7">
      <!-- −4 -->
      <g transform="translate(17.974688 661.104646) scale(0.06 -0.06)">
       <defs>
        <path id="DejaVuSans-34" d="M 2419 4116 
L 825 1625 
L 2419 1625 
L 2419 4116 
z
M 2253 4666 
L 3047 4666 
L 3047 1625 
L 3713 1625 
L 3713 1100 
L 3047 1100 
L 3047 0 
L 2419 0 
L 2419 1100 
L 313 1100 
L 313 1709 
L 2253 4666 
z
" transform="scale(0.015625)"/>
       </defs>
       <use xlink:href="#DejaVuSans-2212"/>
       <use xlink:href="#DejaVuSans-34" x="83.789062"/>
      </g>
     </g>
    </g>
    <g id="ytick_2">
     <g id="line2d_55">
      <path d="M 33.82 613.621836 
L 956.497165 613.621836 
" clip-path="url(#p5611b93b9f)" style="fill: none; stroke: #aaaaaa; stroke-width: 0.5; stroke-linecap: square"/>
     </g>
     <g id="line2d_56">
      <g>
       <use xlink:href="#m3337631fb1" x="33.82" y="613.621836" style="stroke: #000000; stroke-width: 0.8"/>
      </g>
     </g>
     <g id="text_8">
      <!-- −3 -->
      <g transform="translate(17.974688 615.901368) scale(0.06 -0.06)">
       <defs>
        <path id="DejaVuSans-33" d="M 2597 2516 
Q 3050 2419 3304 2112 
Q 3559 1806 3559 1356 
Q 3559 666 3084 287 
Q 2609 -91 1734 -91 
Q 1441 -91 1130 -33 
Q 819 25 488 141 
L 488 750 
Q 750 597 1062 519 
Q 1375 441 1716 441 
Q 2309 441 2620 675 
Q 2931 909 2931 1356 
Q 2931 1769 2642 2001 
Q 2353 2234 1838 2234 
L 1294 2234 
L 1294 2753 
L 1863 2753 
Q 2328 2753 2575 2939 
Q 2822 3125 2822 3475 
Q 2822 3834 2567 4026 
Q 2313 4219 1838 4219 
Q 1578 4219 1281 4162 
Q 984 4106 628 3988 
L 628 4550 
Q 988 4650 1302 4700 
Q 1616 4750 1894 4750 
Q 2613 4750 3031 4423 
Q 3450 4097 3450 3541 
Q 3450 3153 3228 2886 
Q 3006 2619 2597 2516 
z
" transform="scale(0.015625)"/>
       </defs>
       <use xlink:href="#DejaVuSans-2212"/>
       <use xlink:href="#DejaVuSans-33" x="83.789062"/>
      </g>
     </g>
    </g>
    <g id="ytick_3">
     <g id="line2d_57">
      <path d="M 33.82 568.418558 
L 956.497165 568.418558 
" clip-path="url(#p5611b93b9f)" style="fill: none; stroke: #aaaaaa; stroke-width: 0.5; stroke-linecap: square"/>
     </g>
     <g id="line2d_58">
      <g>
       <use xlink:href="#m3337631fb1" x="33.82" y="568.418558" style="stroke: #000000; stroke-width: 0.8"/>
      </g>
     </g>
     <g id="text_9">
      <!-- −2 -->
      <g transform="translate(17.974688 570.69809) scale(0.06 -0.06)">
       <defs>
        <path id="DejaVuSans-32" d="M 1228 531 
L 3431 531 
L 3431 0 
L 469 0 
L 469 531 
Q 828 903 1448 1529 
Q 2069 2156 2228 2338 
Q 2531 2678 2651 2914 
Q 2772 3150 2772 3378 
Q 2772 3750 2511 3984 
Q 2250 4219 1831 4219 
Q 1534 4219 1204 4116 
Q 875 4013 500 3803 
L 500 4441 
Q 881 4594 1212 4672 
Q 1544 4750 1819 4750 
Q 2544 4750 2975 4387 
Q 3406 4025 3406 3419 
Q 3406 3131 3298 2873 
Q 3191 2616 2906 2266 
Q 2828 2175 2409 1742 
Q 1991 1309 1228 531 
z
" transform="scale(0.015625)"/>
       </defs>
       <use xlink:href="#DejaVuSans-2212"/>
       <use xlink:href="#DejaVuSans-32" x="83.789062"/>
      </g>
     </g>
    </g>
    <g id="ytick_4">
     <g id="line2d_59">
      <path d="M 33.82 523.21528 
L 956.497165 523.21528 
" clip-path="url(#p5611b93b9f)" style="fill: none; stroke: #aaaaaa; stroke-width: 0.5; stroke-linecap: square"/>
     </g>
     <g id="line2d_60">
      <g>
       <use xlink:href="#m3337631fb1" x="33.82" y="523.21528" style="stroke: #000000; stroke-width: 0.8"/>
      </g>
     </g>
     <g id="text_10">
      <!-- −1 -->
      <g transform="translate(17.974688 525.494812) scale(0.06 -0.06)">
       <use xlink:href="#DejaVuSans-2212"/>
       <use xlink:href="#DejaVuSans-31" x="83.789062"/>
      </g>
     </g>
    </g>
    <g id="ytick_5">
     <g id="line2d_61">
      <path d="M 33.82 478.012002 
L 956.497165 478.012002 
" clip-path="url(#p5611b93b9f)" style="fill: none; stroke: #aaaaaa; stroke-width: 0.5; stroke-linecap: square"/>
     </g>
     <g id="line2d_62">
      <g>
       <use xlink:href="#m3337631fb1" x="33.82" y="478.012002" style="stroke: #000000; stroke-width: 0.8"/>
      </g>
     </g>
     <g id="text_11">
      <!-- 0 -->
      <g transform="translate(23.0025 480.291533) scale(0.06 -0.06)">
       <use xlink:href="#DejaVuSans-30"/>
      </g>
     </g>
    </g>
    <g id="ytick_6">
     <g id="line2d_63">
      <path d="M 33.82 432.808724 
L 956.497165 432.808724 
" clip-path="url(#p5611b93b9f)" style="fill: none; stroke: #aaaaaa; stroke-width: 0.5; stroke-linecap: square"/>
     </g>
     <g id="line2d_64">
      <g>
       <use xlink:href="#m3337631fb1" x="33.82" y="432.808724" style="stroke: #000000; stroke-width: 0.8"/>
      </g>
     </g>
     <g id="text_12">
      <!-- 1 -->
      <g transform="translate(23.0025 435.088255) scale(0.06 -0.06)">
       <use xlink:href="#DejaVuSans-31"/>
      </g>
     </g>
    </g>
    <g id="ytick_7">
     <g id="line2d_65">
      <path d="M 33.82 387.605446 
L 956.497165 387.605446 
" clip-path="url(#p5611b93b9f)" style="fill: none; stroke: #aaaaaa; stroke-width: 0.5; stroke-linecap: square"/>
     </g>
     <g id="line2d_66">
      <g>
       <use xlink:href="#m3337631fb1" x="33.82" y="387.605446" style="stroke: #000000; stroke-width: 0.8"/>
      </g>
     </g>
     <g id="text_13">
      <!-- 2 -->
      <g transform="translate(23.0025 389.884977) scale(0.06 -0.06)">
       <use xlink:href="#DejaVuSans-32"/>
      </g>
     </g>
    </g>
    <g id="ytick_8">
     <g id="line2d_67">
      <path d="M 33.82 342.402168 
L 956.497165 342.402168 
" clip-path="url(#p5611b93b9f)" style="fill: none; stroke: #aaaaaa; stroke-width: 0.5; stroke-linecap: square"/>
     </g>
     <g id="line2d_68">
      <g>
       <use xlink:href="#m3337631fb1" x="33.82" y="342.402168" style="stroke: #000000; stroke-width: 0.8"/>
      </g>
     </g>
     <g id="text_14">
      <!-- 3 -->
      <g transform="translate(23.0025 344.681699) scale(0.06 -0.06)">
       <use xlink:href="#DejaVuSans-33"/>
      </g>
     </g>
    </g>
    <g id="ytick_9">
     <g id="line2d_69">
      <path d="M 33.82 297.19889 
L 956.497165 297.19889 
" clip-path="url(#p5611b93b9f)" style="fill: none; stroke: #aaaaaa; stroke-width: 0.5; stroke-linecap: square"/>
     </g>
     <g id="line2d_70">
      <g>
       <use xlink:href="#m3337631fb1" x="33.82" y="297.19889" style="stroke: #000000; stroke-width: 0.8"/>
      </g>
     </g>
     <g id="text_15">
      <!-- 4 -->
      <g transform="translate(23.0025 299.478421) scale(0.06 -0.06)">
       <use xlink:href="#DejaVuSans-34"/>
      </g>
     </g>
    </g>
    <g id="ytick_10">
     <g id="line2d_71">
      <path d="M 33.82 251.995612 
L 956.497165 251.995612 
" clip-path="url(#p5611b93b9f)" style="fill: none; stroke: #aaaaaa; stroke-width: 0.5; stroke-linecap: square"/>
     </g>
     <g id="line2d_72">
      <g>
       <use xlink:href="#m3337631fb1" x="33.82" y="251.995612" style="stroke: #000000; stroke-width: 0.8"/>
      </g>
     </g>
     <g id="text_16">
      <!-- 5 -->
      <g transform="translate(23.0025 254.275143) scale(0.06 -0.06)">
       <use xlink:href="#DejaVuSans-35"/>
      </g>
     </g>
    </g>
    <g id="ytick_11">
     <g id="line2d_73">
      <path d="M 33.82 206.792334 
L 956.497165 206.792334 
" clip-path="url(#p5611b93b9f)" style="fill: none; stroke: #aaaaaa; stroke-width: 0.5; stroke-linecap: square"/>
     </g>
     <g id="line2d_74">
      <g>
       <use xlink:href="#m3337631fb1" x="33.82" y="206.792334" style="stroke: #000000; stroke-width: 0.8"/>
      </g>
     </g>
     <g id="text_17">
      <!-- 6 -->
      <g transform="translate(23.0025 209.071865) scale(0.06 -0.06)">
       <defs>
        <path id="DejaVuSans-36" d="M 2113 2584 
Q 1688 2584 1439 2293 
Q 1191 2003 1191 1497 
Q 1191 994 1439 701 
Q 1688 409 2113 409 
Q 2538 409 2786 701 
Q 3034 994 3034 1497 
Q 3034 2003 2786 2293 
Q 2538 2584 2113 2584 
z
M 3366 4563 
L 3366 3988 
Q 3128 4100 2886 4159 
Q 2644 4219 2406 4219 
Q 1781 4219 1451 3797 
Q 1122 3375 1075 2522 
Q 1259 2794 1537 2939 
Q 1816 3084 2150 3084 
Q 2853 3084 3261 2657 
Q 3669 2231 3669 1497 
Q 3669 778 3244 343 
Q 2819 -91 2113 -91 
Q 1303 -91 875 529 
Q 447 1150 447 2328 
Q 447 3434 972 4092 
Q 1497 4750 2381 4750 
Q 2619 4750 2861 4703 
Q 3103 4656 3366 4563 
z
" transform="scale(0.015625)"/>
       </defs>
       <use xlink:href="#DejaVuSans-36"/>
      </g>
     </g>
    </g>
    <g id="ytick_12">
     <g id="line2d_75">
      <path d="M 33.82 161.589056 
L 956.497165 161.589056 
" clip-path="url(#p5611b93b9f)" style="fill: none; stroke: #aaaaaa; stroke-width: 0.5; stroke-linecap: square"/>
     </g>
     <g id="line2d_76">
      <g>
       <use xlink:href="#m3337631fb1" x="33.82" y="161.589056" style="stroke: #000000; stroke-width: 0.8"/>
      </g>
     </g>
     <g id="text_18">
      <!-- 7 -->
      <g transform="translate(23.0025 163.868587) scale(0.06 -0.06)">
       <defs>
        <path id="DejaVuSans-37" d="M 525 4666 
L 3525 4666 
L 3525 4397 
L 1831 0 
L 1172 0 
L 2766 4134 
L 525 4134 
L 525 4666 
z
" transform="scale(0.015625)"/>
       </defs>
       <use xlink:href="#DejaVuSans-37"/>
      </g>
     </g>
    </g>
    <g id="ytick_13">
     <g id="line2d_77">
      <path d="M 33.82 116.385778 
L 956.497165 116.385778 
" clip-path="url(#p5611b93b9f)" style="fill: none; stroke: #aaaaaa; stroke-width: 0.5; stroke-linecap: square"/>
     </g>
     <g id="line2d_78">
      <g>
       <use xlink:href="#m3337631fb1" x="33.82" y="116.385778" style="stroke: #000000; stroke-width: 0.8"/>
      </g>
     </g>
     <g id="text_19">
      <!-- 8 -->
      <g transform="translate(23.0025 118.665309) scale(0.06 -0.06)">
       <defs>
        <path id="DejaVuSans-38" d="M 2034 2216 
Q 1584 2216 1326 1975 
Q 1069 1734 1069 1313 
Q 1069 891 1326 650 
Q 1584 409 2034 409 
Q 2484 409 2743 651 
Q 3003 894 3003 1313 
Q 3003 1734 2745 1975 
Q 2488 2216 2034 2216 
z
M 1403 2484 
Q 997 2584 770 2862 
Q 544 3141 544 3541 
Q 544 4100 942 4425 
Q 1341 4750 2034 4750 
Q 2731 4750 3128 4425 
Q 3525 4100 3525 3541 
Q 3525 3141 3298 2862 
Q 3072 2584 2669 2484 
Q 3125 2378 3379 2068 
Q 3634 1759 3634 1313 
Q 3634 634 3220 271 
Q 2806 -91 2034 -91 
Q 1263 -91 848 271 
Q 434 634 434 1313 
Q 434 1759 690 2068 
Q 947 2378 1403 2484 
z
M 1172 3481 
Q 1172 3119 1398 2916 
Q 1625 2713 2034 2713 
Q 2441 2713 2670 2916 
Q 2900 3119 2900 3481 
Q 2900 3844 2670 4047 
Q 2441 4250 2034 4250 
Q 1625 4250 1398 4047 
Q 1172 3844 1172 3481 
z
" transform="scale(0.015625)"/>
       </defs>
       <use xlink:href="#DejaVuSans-38"/>
      </g>
     </g>
    </g>
    <g id="ytick_14">
     <g id="line2d_79">
      <path d="M 33.82 71.1825 
L 956.497165 71.1825 
" clip-path="url(#p5611b93b9f)" style="fill: none; stroke: #aaaaaa; stroke-width: 0.5; stroke-linecap: square"/>
     </g>
     <g id="line2d_80">
      <g>
       <use xlink:href="#m3337631fb1" x="33.82" y="71.1825" style="stroke: #000000; stroke-width: 0.8"/>
      </g>
     </g>
     <g id="text_20">
      <!-- 9 -->
      <g transform="translate(23.0025 73.462031) scale(0.06 -0.06)">
       <defs>
        <path id="DejaVuSans-39" d="M 703 97 
L 703 672 
Q 941 559 1184 500 
Q 1428 441 1663 441 
Q 2288 441 2617 861 
Q 2947 1281 2994 2138 
Q 2813 1869 2534 1725 
Q 2256 1581 1919 1581 
Q 1219 1581 811 2004 
Q 403 2428 403 3163 
Q 403 3881 828 4315 
Q 1253 4750 1959 4750 
Q 2769 4750 3195 4129 
Q 3622 3509 3622 2328 
Q 3622 1225 3098 567 
Q 2575 -91 1691 -91 
Q 1453 -91 1209 -44 
Q 966 3 703 97 
z
M 1959 2075 
Q 2384 2075 2632 2365 
Q 2881 2656 2881 3163 
Q 2881 3666 2632 3958 
Q 2384 4250 1959 4250 
Q 1534 4250 1286 3958 
Q 1038 3666 1038 3163 
Q 1038 2656 1286 2365 
Q 1534 2075 1959 2075 
z
" transform="scale(0.015625)"/>
       </defs>
       <use xlink:href="#DejaVuSans-39"/>
      </g>
     </g>
    </g>
    <g id="ytick_15">
     <g id="line2d_81">
      <path d="M 33.82 25.979222 
L 956.497165 25.979222 
" clip-path="url(#p5611b93b9f)" style="fill: none; stroke: #aaaaaa; stroke-width: 0.5; stroke-linecap: square"/>
     </g>
     <g id="line2d_82">
      <g>
       <use xlink:href="#m3337631fb1" x="33.82" y="25.979222" style="stroke: #000000; stroke-width: 0.8"/>
      </g>
     </g>
     <g id="text_21">
      <!-- 10 -->
      <g transform="translate(19.185 28.258753) scale(0.06 -0.06)">
       <use xlink:href="#DejaVuSans-31"/>
       <use xlink:href="#DejaVuSans-30" x="63.623047"/>
      </g>
     </g>
    </g>
    <g id="text_22">
     <!-- Høyde (m) -->
     <g transform="translate(12.518906 362.63959) rotate(-90) scale(0.07 -0.07)">
      <defs>
       <path id="DejaVuSans-48" d="M 628 4666 
L 1259 4666 
L 1259 2753 
L 3553 2753 
L 3553 4666 
L 4184 4666 
L 4184 0 
L 3553 0 
L 3553 2222 
L 1259 2222 
L 1259 0 
L 628 0 
L 628 4666 
z
" transform="scale(0.015625)"/>
       <path id="DejaVuSans-f8" d="M 2828 2503 
L 1306 653 
Q 1434 522 1595 459 
Q 1756 397 1959 397 
Q 2419 397 2687 759 
Q 2956 1122 2956 1747 
Q 2956 1994 2925 2176 
Q 2894 2359 2828 2503 
z
M 2606 2841 
Q 2475 2969 2314 3033 
Q 2153 3097 1959 3097 
Q 1488 3097 1223 2730 
Q 959 2363 959 1703 
Q 959 1478 989 1306 
Q 1019 1134 1081 991 
L 2606 2841 
z
M 691 519 
Q 522 759 437 1067 
Q 353 1375 353 1747 
Q 353 2609 779 3096 
Q 1206 3584 1959 3584 
Q 2250 3584 2498 3504 
Q 2747 3425 2956 3263 
L 3391 3788 
L 3688 3541 
L 3231 2981 
Q 3397 2741 3481 2431 
Q 3566 2122 3566 1747 
Q 3566 888 3137 398 
Q 2709 -91 1959 -91 
Q 1659 -91 1407 -9 
Q 1156 72 959 231 
L 525 -294 
L 225 -50 
L 691 519 
z
" transform="scale(0.015625)"/>
       <path id="DejaVuSans-79" d="M 2059 -325 
Q 1816 -950 1584 -1140 
Q 1353 -1331 966 -1331 
L 506 -1331 
L 506 -850 
L 844 -850 
Q 1081 -850 1212 -737 
Q 1344 -625 1503 -206 
L 1606 56 
L 191 3500 
L 800 3500 
L 1894 763 
L 2988 3500 
L 3597 3500 
L 2059 -325 
z
" transform="scale(0.015625)"/>
      </defs>
      <use xlink:href="#DejaVuSans-48"/>
      <use xlink:href="#DejaVuSans-f8" x="75.195312"/>
      <use xlink:href="#DejaVuSans-79" x="136.376953"/>
      <use xlink:href="#DejaVuSans-64" x="195.556641"/>
      <use xlink:href="#DejaVuSans-65" x="259.033203"/>
      <use xlink:href="#DejaVuSans-20" x="320.556641"/>
      <use xlink:href="#DejaVuSans-28" x="352.34375"/>
      <use xlink:href="#DejaVuSans-6d" x="391.357422"/>
      <use xlink:href="#DejaVuSans-29" x="488.769531"/>
     </g>
    </g>
   </g>
   <g id="line2d_83">
    <path d="M 489.832009 668.293712 
L 489.832009 20.038594 
" clip-path="url(#p5611b93b9f)" style="fill: none; stroke-dasharray: 0.5,0.825; stroke-dashoffset: 0; stroke: #000000; stroke-width: 0.5"/>
   </g>
   <g id="line2d_84">
    <path d="M 33.82 550.453339 
L 956.497165 550.453339 
" clip-path="url(#p5611b93b9f)" style="fill: none; stroke: #000000; stroke-width: 0.8; stroke-linecap: square"/>
   </g>
   <g id="cs:terreng">
    <path d="M -1 519.562432 
L 63.981907 517.906979 
L 134.956924 517.454946 
L 205.931941 520.167143 
L 276.906958 519.263077 
L 347.881975 493.497209 
L 418.856992 472.703701 
L 489.832009 477.676061 
L 560.807026 470.443537 
L 631.782043 385.461374 
L 702.75706 347.942653 
L 773.732077 314.040195 
L 844.707094 276.973507 
L 915.682111 255.727966 
L 986.657128 236.742589 
L 1057.632145 222.27754 
L 1059.94126 221.718693 
" clip-path="url(#p5611b93b9f)" style="fill: none; stroke: #000000; stroke-width: 0.8; stroke-linecap: square"/>
   </g>
   <g id="line2d_85">
    <path clip-path="url(#p5611b93b9f)" style="fill: none; stroke: #000000; stroke-width: 0.6; stroke-linecap: square"/>
   </g>
   <g id="line2d_86">
    <path clip-path="url(#p5611b93b9f)" style="fill: none; stroke: #000000; stroke-width: 0.6; stroke-linecap: square"/>
   </g>
   <g id="line2d_87">
    <path clip-path="url(#p5611b93b9f)" style="fill: none; stroke: #000000; stroke-width: 0.6; stroke-linecap: square"/>
   </g>
   <g id="line2d_88">
    <path clip-path="url(#p5611b93b9f)" style="fill: none; stroke: #000000; stroke-width: 0.6; stroke-linecap: square"/>
   </g>
   <g id="line2d_89">
    <path clip-path="url(#p5611b93b9f)" style="fill: none; stroke: #000000; stroke-width: 0.6; stroke-linecap: square"/>
   </g>
   <g id="line2d_90">
    <path clip-path="url(#p5611b93b9f)" style="fill: none; stroke: #000000; stroke-width: 0.6; stroke-linecap: square"/>
   </g>
   <g id="line2d_91">
    <path clip-path="url(#p5611b93b9f)" style="fill: none; stroke: #000000; stroke-width: 0.6; stroke-linecap: square"/>
   </g>
   <g id="line2d_92">
    <path clip-path="url(#p5611b93b9f)" style="fill: none; stroke: #000000; stroke-width: 0.6; stroke-linecap: square"/>
   </g>
   <g id="line2d_93">
    <path clip-path="url(#p5611b93b9f)" style="fill: none; stroke: #000000; stroke-width: 0.6; stroke-linecap: square"/>
   </g>
   <g id="line2d_94">
    <path clip-path="url(#p5611b93b9f)" style="fill: none; stroke: #000000; stroke-width: 0.6; stroke-linecap: square"/>
   </g>
   <g id="line2d_95">
    <path clip-path="url(#p5611b93b9f)" style="fill: none; stroke: #000000; stroke-width: 0.6; stroke-linecap: square"/>
   </g>
   <g id="line2d_96">
    <path clip-path="url(#p5611b93b9f)" style="fill: none; stroke: #000000; stroke-width: 0.6; stroke-linecap: square"/>
   </g>
   <g id="line2d_97">
    <path clip-path="url(#p5611b93b9f)" style="fill: none; stroke: #000000; stroke-width: 0.6; stroke-linecap: square"/>
   </g>
   <g id="line2d_98">
    <path clip-path="url(#p5611b93b9f)" style="fill: none; stroke: #000000; stroke-width: 0.6; stroke-linecap: square"/>
   </g>
   <g id="line2d_99">
    <path clip-path="url(#p5611b93b9f)" style="fill: none; stroke: #000000; stroke-width: 0.6; stroke-linecap: square"/>
   </g>
   <g id="line2d_100">
    <path clip-path="url(#p5611b93b9f)" style="fill: none; stroke: #000000; stroke-width: 0.6; stroke-linecap: square"/>
   </g>
   <g id="line2d_101">
    <path clip-path="url(#p5611b93b9f)" style="fill: none; stroke: #000000; stroke-width: 0.6; stroke-linecap: square"/>
   </g>
   <g id="line2d_102">
    <path clip-path="url(#p5611b93b9f)" style="fill: none; stroke: #000000; stroke-width: 0.6; stroke-linecap: square"/>
   </g>
   <g id="line2d_103">
    <path clip-path="url(#p5611b93b9f)" style="fill: none; stroke: #000000; stroke-width: 0.6; stroke-linecap: square"/>
   </g>
   <g id="line2d_104">
    <path clip-path="url(#p5611b93b9f)" style="fill: none; stroke: #000000; stroke-width: 0.6; stroke-linecap: square"/>
   </g>
   <g id="line2d_105">
    <path clip-path="url(#p5611b93b9f)" style="fill: none; stroke: #000000; stroke-width: 0.6; stroke-linecap: square"/>
   </g>
   <g id="line2d_106">
    <path clip-path="url(#p5611b93b9f)" style="fill: none; stroke: #000000; stroke-width: 0.6; stroke-linecap: square"/>
   </g>
   <g id="line2d_107">
    <path clip-path="url(#p5611b93b9f)" style="fill: none; stroke: #000000; stroke-width: 0.6; stroke-linecap: square"/>
   </g>
   <g id="line2d_108">
    <path clip-path="url(#p5611b93b9f)" style="fill: none; stroke: #000000; stroke-width: 0.6; stroke-linecap: square"/>
   </g>
   <g id="line2d_109">
    <path clip-path="url(#p5611b93b9f)" style="fill: none; stroke: #000000; stroke-width: 0.6; stroke-linecap: square"/>
   </g>
   <g id="line2d_110">
    <path clip-path="url(#p5611b93b9f)" style="fill: none; stroke: #000000; stroke-width: 0.6; stroke-linecap: square"/>
   </g>
   <g id="line2d_111">
    <path d="M 16.967927 519.104688 
L 13.933566 508.485391 
" clip-path="url(#p5611b93b9f)" style="fill: none; stroke: #000000; stroke-width: 0.6; stroke-linecap: square"/>
   </g>
   <g id="line2d_112">
    <path d="M 52.856773 518.190398 
L 49.822412 507.571101 
" clip-path="url(#p5611b93b9f)" style="fill: none; stroke: #000000; stroke-width: 0.6; stroke-linecap: square"/>
   </g>
   <g id="line2d_113">
    <path d="M 88.750262 517.749232 
L 85.715901 507.129935 
" clip-path="url(#p5611b93b9f)" style="fill: none; stroke: #000000; stroke-width: 0.6; stroke-linecap: square"/>
   </g>
   <g id="line2d_114">
    <path d="M 124.645836 517.520616 
L 121.611475 506.90132 
" clip-path="url(#p5611b93b9f)" style="fill: none; stroke: #000000; stroke-width: 0.6; stroke-linecap: square"/>
   </g>
   <g id="line2d_115">
    <path d="M 160.530225 518.432189 
L 157.495864 507.812892 
" clip-path="url(#p5611b93b9f)" style="fill: none; stroke: #000000; stroke-width: 0.6; stroke-linecap: square"/>
   </g>
   <g id="line2d_116">
    <path d="M 196.410106 519.803281 
L 193.375745 509.183984 
" clip-path="url(#p5611b93b9f)" style="fill: none; stroke: #000000; stroke-width: 0.6; stroke-linecap: square"/>
   </g>
   <g id="line2d_117">
    <path d="M 232.300526 519.831265 
L 229.266166 509.211968 
" clip-path="url(#p5611b93b9f)" style="fill: none; stroke: #000000; stroke-width: 0.6; stroke-linecap: square"/>
   </g>
   <g id="line2d_118">
    <path d="M 268.194755 519.374051 
L 265.160394 508.754755 
" clip-path="url(#p5611b93b9f)" style="fill: none; stroke: #000000; stroke-width: 0.6; stroke-linecap: square"/>
   </g>
   <g id="line2d_119">
    <path d="M 303.04936 509.772672 
L 300.014999 499.153375 
" clip-path="url(#p5611b93b9f)" style="fill: none; stroke: #000000; stroke-width: 0.6; stroke-linecap: square"/>
   </g>
   <g id="line2d_120">
    <path d="M 337.570752 497.240464 
L 334.536391 486.621167 
" clip-path="url(#p5611b93b9f)" style="fill: none; stroke: #000000; stroke-width: 0.6; stroke-linecap: square"/>
   </g>
   <g id="line2d_121">
    <path d="M 372.415632 486.309598 
L 369.381271 475.690301 
" clip-path="url(#p5611b93b9f)" style="fill: none; stroke: #000000; stroke-width: 0.6; stroke-linecap: square"/>
   </g>
   <g id="line2d_122">
    <path d="M 407.398287 476.06075 
L 404.363927 465.441454 
" clip-path="url(#p5611b93b9f)" style="fill: none; stroke: #000000; stroke-width: 0.6; stroke-linecap: square"/>
   </g>
   <g id="line2d_123">
    <path d="M 442.958707 474.392216 
L 439.924346 463.772919 
" clip-path="url(#p5611b93b9f)" style="fill: none; stroke: #000000; stroke-width: 0.6; stroke-linecap: square"/>
   </g>
   <g id="line2d_124">
    <path d="M 478.80056 476.903221 
L 475.766199 466.283924 
" clip-path="url(#p5611b93b9f)" style="fill: none; stroke: #000000; stroke-width: 0.6; stroke-linecap: square"/>
   </g>
   <g id="line2d_125">
    <path d="M 514.600777 475.152064 
L 511.566416 464.532768 
" clip-path="url(#p5611b93b9f)" style="fill: none; stroke: #000000; stroke-width: 0.6; stroke-linecap: square"/>
   </g>
   <g id="line2d_126">
    <path d="M 550.382481 471.505823 
L 547.348121 460.886526 
" clip-path="url(#p5611b93b9f)" style="fill: none; stroke: #000000; stroke-width: 0.6; stroke-linecap: square"/>
   </g>
   <g id="line2d_127">
    <path d="M 579.341983 448.250647 
L 576.307622 437.631351 
" clip-path="url(#p5611b93b9f)" style="fill: none; stroke: #000000; stroke-width: 0.6; stroke-linecap: square"/>
   </g>
   <g id="line2d_128">
    <path d="M 605.496818 416.934072 
L 602.462458 406.314775 
" clip-path="url(#p5611b93b9f)" style="fill: none; stroke: #000000; stroke-width: 0.6; stroke-linecap: square"/>
   </g>
   <g id="line2d_129">
    <path d="M 631.651654 385.617496 
L 628.617293 374.998199 
" clip-path="url(#p5611b93b9f)" style="fill: none; stroke: #000000; stroke-width: 0.6; stroke-linecap: square"/>
   </g>
   <g id="line2d_130">
    <path d="M 664.771134 368.022724 
L 661.736774 357.403427 
" clip-path="url(#p5611b93b9f)" style="fill: none; stroke: #000000; stroke-width: 0.6; stroke-linecap: square"/>
   </g>
   <g id="line2d_131">
    <path d="M 697.92551 350.496701 
L 694.891149 339.877405 
" clip-path="url(#p5611b93b9f)" style="fill: none; stroke: #000000; stroke-width: 0.6; stroke-linecap: square"/>
   </g>
   <g id="line2d_132">
    <path d="M 731.469534 334.227638 
L 728.435173 323.608341 
" clip-path="url(#p5611b93b9f)" style="fill: none; stroke: #000000; stroke-width: 0.6; stroke-linecap: square"/>
   </g>
   <g id="line2d_133">
    <path d="M 765.080027 318.172998 
L 762.045667 307.553701 
" clip-path="url(#p5611b93b9f)" style="fill: none; stroke: #000000; stroke-width: 0.6; stroke-linecap: square"/>
   </g>
   <g id="line2d_134">
    <path d="M 798.395249 301.159858 
L 795.360889 290.540561 
" clip-path="url(#p5611b93b9f)" style="fill: none; stroke: #000000; stroke-width: 0.6; stroke-linecap: square"/>
   </g>
   <g id="line2d_135">
    <path d="M 831.608113 283.814447 
L 828.573753 273.19515 
" clip-path="url(#p5611b93b9f)" style="fill: none; stroke: #000000; stroke-width: 0.6; stroke-linecap: square"/>
   </g>
   <g id="line2d_136">
    <path d="M 865.86942 270.638812 
L 862.835059 260.019516 
" clip-path="url(#p5611b93b9f)" style="fill: none; stroke: #000000; stroke-width: 0.6; stroke-linecap: square"/>
   </g>
   <g id="line2d_137">
    <path d="M 900.813515 260.178706 
L 897.779154 249.55941 
" clip-path="url(#p5611b93b9f)" style="fill: none; stroke: #000000; stroke-width: 0.6; stroke-linecap: square"/>
   </g>
   <g id="line2d_138">
    <path d="M 935.86428 250.329361 
L 932.829919 239.710064 
" clip-path="url(#p5611b93b9f)" style="fill: none; stroke: #000000; stroke-width: 0.6; stroke-linecap: square"/>
   </g>
   <g id="line2d_139">
    <path d="M 970.994049 240.932366 
L 967.959688 230.313069 
" clip-path="url(#p5611b93b9f)" style="fill: none; stroke: #000000; stroke-width: 0.6; stroke-linecap: square"/>
   </g>
   <g id="line2d_140">
    <path d="M 1006.298605 232.739562 
L 1003.264244 222.120266 
" clip-path="url(#p5611b93b9f)" style="fill: none; stroke: #000000; stroke-width: 0.6; stroke-linecap: square"/>
   </g>
   <g id="line2d_141">
    <path d="M 1041.743796 225.515662 
L 1038.709436 214.896365 
" clip-path="url(#p5611b93b9f)" style="fill: none; stroke: #000000; stroke-width: 0.6; stroke-linecap: square"/>
   </g>
   <g id="line2d_142">
    <path clip-path="url(#p5611b93b9f)" style="fill: none; stroke: #000000; stroke-width: 0.6; stroke-linecap: square"/>
   </g>
   <g id="line2d_143">
    <path clip-path="url(#p5611b93b9f)" style="fill: none; stroke: #000000; stroke-width: 0.6; stroke-linecap: square"/>
   </g>
   <g id="line2d_144">
    <path clip-path="url(#p5611b93b9f)" style="fill: none; stroke: #000000; stroke-width: 0.6; stroke-linecap: square"/>
   </g>
   <g id="line2d_145">
    <path clip-path="url(#p5611b93b9f)" style="fill: none; stroke: #000000; stroke-width: 0.6; stroke-linecap: square"/>
   </g>
   <g id="line2d_146">
    <path clip-path="url(#p5611b93b9f)" style="fill: none; stroke: #000000; stroke-width: 0.6; stroke-linecap: square"/>
   </g>
   <g id="line2d_147">
    <path clip-path="url(#p5611b93b9f)" style="fill: none; stroke: #000000; stroke-width: 0.6; stroke-linecap: square"/>
   </g>
   <g id="line2d_148">
    <path clip-path="url(#p5611b93b9f)" style="fill: none; stroke: #000000; stroke-width: 0.6; stroke-linecap: square"/>
   </g>
   <g id="line2d_149">
    <path clip-path="url(#p5611b93b9f)" style="fill: none; stroke: #000000; stroke-width: 0.6; stroke-linecap: square"/>
   </g>
   <g id="line2d_150">
    <path clip-path="url(#p5611b93b9f)" style="fill: none; stroke: #000000; stroke-width: 0.6; stroke-linecap: square"/>
   </g>
   <g id="line2d_151">
    <path clip-path="url(#p5611b93b9f)" style="fill: none; stroke: #000000; stroke-width: 0.6; stroke-linecap: square"/>
   </g>
   <g id="line2d_152">
    <path clip-path="url(#p5611b93b9f)" style="fill: none; stroke: #000000; stroke-width: 0.6; stroke-linecap: square"/>
   </g>
   <g id="line2d_153">
    <path clip-path="url(#p5611b93b9f)" style="fill: none; stroke: #000000; stroke-width: 0.6; stroke-linecap: square"/>
   </g>
   <g id="line2d_154">
    <path clip-path="url(#p5611b93b9f)" style="fill: none; stroke: #000000; stroke-width: 0.6; stroke-linecap: square"/>
   </g>
   <g id="line2d_155">
    <path clip-path="url(#p5611b93b9f)" style="fill: none; stroke: #000000; stroke-width: 0.6; stroke-linecap: square"/>
   </g>
   <g id="line2d_156">
    <path clip-path="url(#p5611b93b9f)" style="fill: none; stroke: #000000; stroke-width: 0.6; stroke-linecap: square"/>
   </g>
   <g id="line2d_157">
    <path clip-path="url(#p5611b93b9f)" style="fill: none; stroke: #000000; stroke-width: 0.6; stroke-linecap: square"/>
   </g>
   <g id="line2d_158">
    <path clip-path="url(#p5611b93b9f)" style="fill: none; stroke: #000000; stroke-width: 0.6; stroke-linecap: square"/>
   </g>
   <g id="line2d_159">
    <path clip-path="url(#p5611b93b9f)" style="fill: none; stroke: #000000; stroke-width: 0.6; stroke-linecap: square"/>
   </g>
   <g id="line2d_160">
    <path clip-path="url(#p5611b93b9f)" style="fill: none; stroke: #000000; stroke-width: 0.6; stroke-linecap: square"/>
   </g>
   <g id="line2d_161">
    <path clip-path="url(#p5611b93b9f)" style="fill: none; stroke: #000000; stroke-width: 0.6; stroke-linecap: square"/>
   </g>
   <g id="line2d_162">
    <path clip-path="url(#p5611b93b9f)" style="fill: none; stroke: #000000; stroke-width: 0.6; stroke-linecap: square"/>
   </g>
   <g id="line2d_163">
    <path clip-path="url(#p5611b93b9f)" style="fill: none; stroke: #000000; stroke-width: 0.6; stroke-linecap: square"/>
   </g>
   <g id="line2d_164">
    <path clip-path="url(#p5611b93b9f)" style="fill: none; stroke: #000000; stroke-width: 0.6; stroke-linecap: square"/>
   </g>
   <g id="line2d_165">
    <path clip-path="url(#p5611b93b9f)" style="fill: none; stroke: #000000; stroke-width: 0.6; stroke-linecap: square"/>
   </g>
   <g id="patch_3">
    <path d="M 33.82 668.293712 
L 33.82 20.038594 
" style="fill: none; stroke: #000000; stroke-width: 0.8; stroke-linejoin: miter; stroke-linecap: square"/>
   </g>
   <g id="patch_4">
    <path d="M 956.497165 668.293712 
L 956.497165 20.038594 
" style="fill: none; stroke: #000000; stroke-width: 0.8; stroke-linejoin: miter; stroke-linecap: square"/>
   </g>
   <g id="patch_5">
    <path d="M 33.82 668.293712 
L 956.497165 668.293712 
" style="fill: none; stroke: #000000; stroke-width: 0.8; stroke-linejoin: miter; stroke-linecap: square"/>
   </g>
   <g id="patch_6">
    <path d="M 33.82 20.038594 
L 956.497165 20.038594 
" style="fill: none; stroke: #000000; stroke-width: 0.8; stroke-linejoin: miter; stroke-linecap: square"/>
   </g>
   <g id="text_23">
    <!-- 89 -->
    <g transform="translate(43.845106 552.403495) scale(0.07 -0.07)">
     <defs>
      <path id="DejaVuSansMono-38" d="M 1925 2216 
Q 1503 2216 1273 1980 
Q 1044 1744 1044 1313 
Q 1044 881 1276 642 
Q 1509 403 1925 403 
Q 2350 403 2579 639 
Q 2809 875 2809 1313 
Q 2809 1741 2576 1978 
Q 2344 2216 1925 2216 
z
M 1375 2478 
Q 972 2581 745 2862 
Q 519 3144 519 3541 
Q 519 4097 897 4423 
Q 1275 4750 1925 4750 
Q 2578 4750 2956 4423 
Q 3334 4097 3334 3541 
Q 3334 3144 3107 2862 
Q 2881 2581 2478 2478 
Q 2947 2375 3195 2062 
Q 3444 1750 3444 1253 
Q 3444 622 3041 265 
Q 2638 -91 1925 -91 
Q 1213 -91 811 264 
Q 409 619 409 1247 
Q 409 1747 657 2061 
Q 906 2375 1375 2478 
z
M 1147 3481 
Q 1147 3106 1347 2909 
Q 1547 2713 1925 2713 
Q 2306 2713 2506 2909 
Q 2706 3106 2706 3481 
Q 2706 3863 2507 4063 
Q 2309 4263 1925 4263 
Q 1547 4263 1347 4061 
Q 1147 3859 1147 3481 
z
" transform="scale(0.015625)"/>
      <path id="DejaVuSansMono-39" d="M 1863 2069 
Q 2266 2069 2495 2359 
Q 2725 2650 2725 3163 
Q 2725 3675 2495 3965 
Q 2266 4256 1863 4256 
Q 1444 4256 1231 3979 
Q 1019 3703 1019 3163 
Q 1019 2619 1230 2344 
Q 1441 2069 1863 2069 
z
M 738 97 
L 738 678 
Q 934 563 1156 502 
Q 1378 441 1619 441 
Q 2219 441 2526 892 
Q 2834 1344 2834 2222 
Q 2688 1909 2422 1742 
Q 2156 1575 1813 1575 
Q 1138 1575 767 1990 
Q 397 2406 397 3169 
Q 397 3922 776 4336 
Q 1156 4750 1850 4750 
Q 2663 4750 3041 4165 
Q 3419 3581 3419 2328 
Q 3419 1150 2964 529 
Q 2509 -91 1644 -91 
Q 1416 -91 1184 -42 
Q 953 6 738 97 
z
" transform="scale(0.015625)"/>
     </defs>
     <use xlink:href="#DejaVuSansMono-38"/>
     <use xlink:href="#DejaVuSansMono-39" x="60.205078"/>
    </g>
   </g>
   <g id="text_24">
    <!-- SL -->
    <g style="fill: #333333" transform="translate(486.255915 51.203537) scale(0.06 -0.06)">
     <defs>
      <path id="DejaVuSans-53" d="M 3425 4513 
L 3425 3897 
Q 3066 4069 2747 4153 
Q 2428 4238 2131 4238 
Q 1616 4238 1336 4038 
Q 1056 3838 1056 3469 
Q 1056 3159 1242 3001 
Q 1428 2844 1947 2747 
L 2328 2669 
Q 3034 2534 3370 2195 
Q 3706 1856 3706 1288 
Q 3706 609 3251 259 
Q 2797 -91 1919 -91 
Q 1588 -91 1214 -16 
Q 841 59 441 206 
L 441 856 
Q 825 641 1194 531 
Q 1563 422 1919 422 
Q 2459 422 2753 634 
Q 3047 847 3047 1241 
Q 3047 1584 2836 1778 
Q 2625 1972 2144 2069 
L 1759 2144 
Q 1053 2284 737 2584 
Q 422 2884 422 3419 
Q 422 4038 858 4394 
Q 1294 4750 2059 4750 
Q 2388 4750 2728 4690 
Q 3069 4631 3425 4513 
z
" transform="scale(0.015625)"/>
      <path id="DejaVuSans-4c" d="M 628 4666 
L 1259 4666 
L 1259 531 
L 3531 531 
L 3531 0 
L 628 0 
L 628 4666 
z
" transform="scale(0.015625)"/>
     </defs>
     <use xlink:href="#DejaVuSans-53"/>
     <use xlink:href="#DejaVuSans-4c" x="63.476562"/>
    </g>
   </g>
   <g id="cs:named">
    <path d="M 419.493793 476.798945 
L 423.024954 475.579153 
L 426.556115 475.715022 
L 430.087275 475.850891 
L 433.618436 475.986761 
L 437.149597 476.12263 
L 440.680758 476.258499 
L 444.211919 476.394368 
L 447.74308 476.530237 
L 451.27424 476.666107 
L 454.805401 476.801976 
L 458.336562 476.937845 
L 461.867723 477.073714 
L 465.398884 477.209584 
L 468.930045 477.345453 
L 472.461205 477.481322 
L 475.992366 477.617144 
L 479.523527 477.75296 
L 483.054688 477.888776 
L 486.585849 478.024718 
L 490.11701 478.160567 
L 493.64817 478.296416 
L 497.179331 478.432264 
L 500.710492 478.568113 
L 504.241653 478.703961 
L 507.772814 478.83981 
L 511.303975 478.975658 
L 514.835136 479.111507 
L 518.366296 479.247355 
L 521.897457 479.383204 
L 525.428618 479.519053 
L 528.959779 479.654901 
L 532.49094 479.79075 
L 536.022101 479.926598 
L 539.553261 480.062447 
L 543.084422 480.198295 
L 546.615583 480.334144 
L 550.146744 480.469992 
L 553.677905 481.961779 
" clip-path="url(#p5611b93b9f)" style="fill: none; stroke: #333333; stroke-width: 1.8; stroke-linecap: square"/>
   </g>
   <g id="cs:named">
    <path d="M 415.476618 479.35476 
L 418.957862 477.139911 
L 422.439107 476.91173 
L 425.920351 477.045679 
L 429.401596 477.179627 
L 432.882841 477.313576 
L 436.364085 477.447524 
L 439.84533 477.581473 
L 443.326575 477.715422 
L 446.807819 477.84937 
L 450.289064 477.983319 
L 453.770308 478.117267 
L 457.251553 478.251216 
L 460.732798 478.385165 
L 464.214042 478.519113 
L 467.695287 478.653062 
L 471.176532 478.78701 
L 474.657776 478.920959 
L 478.139021 479.054883 
L 481.620265 479.188778 
L 485.10151 479.322674 
L 488.582755 479.456683 
L 492.063999 479.590611 
L 495.545244 479.724539 
L 499.026489 479.858468 
L 502.507733 479.992396 
L 505.988978 480.126324 
L 509.470222 480.260252 
L 512.951467 480.39418 
L 516.432712 480.528109 
L 519.913956 480.662037 
L 523.395201 480.795965 
L 526.876446 480.929893 
L 530.35769 481.063821 
L 533.838935 481.19775 
L 537.320179 481.331678 
L 540.801424 481.465606 
L 544.282669 481.599534 
L 547.763913 481.733463 
L 551.245158 481.867391 
L 554.726403 482.629457 
L 558.207647 484.846349 
" clip-path="url(#p5611b93b9f)" style="fill: none; stroke: #555555; stroke-width: 0.5; stroke-linecap: square"/>
   </g>
   <g id="cs:named">
    <path d="M 411.459442 481.910587 
L 414.977534 479.672284 
L 418.495626 479.470234 
L 422.013718 479.6056 
L 425.531809 479.740967 
L 429.049901 479.876333 
L 432.567993 480.011699 
L 436.086085 480.147066 
L 439.604177 480.282432 
L 443.122268 480.417799 
L 446.64036 480.553165 
L 450.158452 480.688531 
L 453.676544 480.823898 
L 457.194636 480.959264 
L 460.712727 481.09463 
L 464.230819 481.229997 
L 467.748911 481.365363 
L 471.267003 481.500729 
L 474.785095 481.636096 
L 478.303186 481.771462 
L 481.821278 481.906828 
L 485.33937 482.042174 
L 488.857462 482.177533 
L 492.375554 482.312879 
L 495.893645 482.448224 
L 499.411737 482.58357 
L 502.929829 482.718916 
L 506.447921 482.854262 
L 509.966013 482.989608 
L 513.484104 483.124953 
L 517.002196 483.260299 
L 520.520288 483.395645 
L 524.03838 483.530991 
L 527.556472 483.666336 
L 531.074563 483.801682 
L 534.592655 483.937028 
L 538.110747 484.072374 
L 541.628839 484.207719 
L 545.146931 484.343065 
L 548.665022 484.478411 
L 552.183114 484.613757 
L 555.701206 484.749103 
L 559.219298 485.490563 
L 562.73739 487.730916 
" clip-path="url(#p5611b93b9f)" style="fill: none; stroke: #555555; stroke-width: 0.5; stroke-linecap: square"/>
   </g>
   <g id="cs:named">
    <path d="M 406.437973 485.105389 
L 409.956795 490.803138 
L 413.475618 496.546285 
L 416.99444 502.289432 
L 420.513262 508.03258 
L 424.032084 513.775727 
L 427.550906 514.148337 
L 431.069728 514.283731 
L 434.58855 514.419126 
L 438.107373 514.55452 
L 441.626195 514.689915 
L 445.145017 514.825309 
L 448.663839 514.960704 
L 452.182661 515.096098 
L 455.701483 515.231493 
L 459.220305 515.366887 
L 462.739127 515.502281 
L 466.25795 515.637676 
L 469.776772 515.77307 
L 473.295594 515.908465 
L 476.814416 516.043859 
L 480.333238 516.179254 
L 483.85206 516.314648 
L 487.370882 516.449298 
L 490.889704 516.584123 
L 494.408527 516.71957 
L 497.927349 516.855017 
L 501.446171 516.990464 
L 504.964993 517.125912 
L 508.483815 517.261359 
L 512.002637 517.396806 
L 515.521459 517.532253 
L 519.040282 517.6677 
L 522.559104 517.803148 
L 526.077926 517.938595 
L 529.596748 518.074042 
L 533.11557 518.209489 
L 536.634392 518.344937 
L 540.153214 518.480384 
L 543.672036 518.615831 
L 547.190859 518.751278 
L 550.709681 518.886725 
L 554.228503 519.022173 
L 557.747325 519.15762 
L 561.266147 519.293067 
L 564.784969 519.428514 
L 568.303791 519.563961 
L 571.822613 519.699409 
L 575.341436 519.834856 
L 578.860258 519.970297 
L 582.37908 520.105728 
" clip-path="url(#p5611b93b9f)" style="fill: none; stroke: #aaaaaa; stroke-width: 0.5; stroke-linecap: square"/>
   </g>
   <g id="cs:named">
    <path d="M 406.457886 485.092719 
L 410.006188 482.83517 
L 413.55449 481.990351 
L 417.102791 482.12688 
L 420.651093 482.263408 
L 424.199395 482.399937 
L 427.747696 482.536466 
L 431.295998 482.672995 
L 434.8443 482.809523 
L 438.392601 482.946052 
L 441.940903 483.082581 
L 445.489205 483.21911 
L 449.037506 483.355638 
L 452.585808 483.492167 
L 456.13411 483.628696 
L 459.682411 483.765225 
L 463.230713 483.901753 
L 466.779015 484.038282 
L 470.327316 484.174811 
L 473.875618 484.31134 
L 477.423919 484.447868 
L 480.972221 484.584397 
L 484.520523 484.720926 
L 488.068824 484.857414 
L 491.617126 484.993983 
L 495.165428 485.130491 
L 498.713729 485.266999 
L 502.262031 485.403507 
L 505.810333 485.540015 
L 509.358634 485.676523 
L 512.906936 485.81303 
L 516.455238 485.949538 
L 520.003539 486.086046 
L 523.551841 486.222554 
L 527.100143 486.359062 
L 530.648444 486.49557 
L 534.196746 486.632078 
L 537.745047 486.768586 
L 541.293349 486.905094 
L 544.841651 487.041602 
L 548.389952 487.17811 
L 551.938254 487.314618 
L 555.486556 487.451126 
L 559.034857 487.587634 
L 562.583159 487.72487 
L 566.131461 489.892239 
L 569.679762 492.151776 
L 573.228064 494.411313 
L 576.776366 496.67085 
L 580.324667 498.930387 
L 583.872969 501.190123 
" clip-path="url(#p5611b93b9f)" style="fill: none; stroke: #888888; stroke-width: 0.5; stroke-linecap: square"/>
   </g>
   <g id="cs:named">
    <path d="M 388.695085 485.100743 
L 370.241052 473.350188 
" clip-path="url(#p5611b93b9f)" style="fill: none; stroke: #444444; stroke-width: 0.7; stroke-linecap: square"/>
   </g>
   <g id="cs:named">
    <path d="M 424.180498 473.817176 
L 406.78365 484.885237 
" clip-path="url(#p5611b93b9f)" style="fill: none; stroke: #444444; stroke-width: 0.7; stroke-linecap: square"/>
   </g>
   <g id="cs:named">
    <path d="M 389.111281 485.100588 
L 406.437973 485.105389 
" clip-path="url(#p5611b93b9f)" style="fill: none; stroke: #444444; stroke-width: 0.7; stroke-linecap: square"/>
   </g>
   <g id="cs:named">
    <path d="M 601.310632 501.197514 
L 583.876188 501.192172 
" clip-path="url(#p5611b93b9f)" style="fill: none; stroke: #444444; stroke-width: 0.7; stroke-linecap: square"/>
   </g>
   <g id="cs:named">
    <path d="M 548.393205 478.596442 
L 583.416939 500.899394 
" clip-path="url(#p5611b93b9f)" style="fill: none; stroke: #444444; stroke-width: 0.7; stroke-linecap: square"/>
   </g>
   <g id="cs:skjaering">
    <path d="M 369.954304 473.167786 
L 370.241052 473.350188 
L 388.695085 485.100743 
L 406.437973 485.105389 
" clip-path="url(#p5611b93b9f)" style="fill: none; stroke: #000000; stroke-linecap: square"/>
   </g>
   <g id="cs:skjaering">
    <path d="M 608.641901 412.30403 
L 608.133298 418.744238 
L 601.62208 501.197838 
L 601.310632 501.197514 
" clip-path="url(#p5611b93b9f)" style="fill: none; stroke: #000000; stroke-linecap: square"/>
   </g>
   <g id="cs:skjaering">
    <path d="M 389.111281 485.100588 
L 388.695085 485.100743 
" clip-path="url(#p5611b93b9f)" style="fill: none; stroke: #000000; stroke-linecap: square"/>
   </g>
   <g id="cs:groft">
    <path d="M 388.695085 485.100743 
L 389.111281 485.100588 
L 406.437973 485.105389 
L 406.78365 484.885237 
L 424.180498 473.817176 
L 420.305041 476.829617 
L 406.78365 484.885237 
L 419.493793 476.798945 
L 424.180498 473.817176 
L 422.210392 475.547811 
L 406.78365 484.885237 
L 421.502381 475.521042 
L 424.180498 473.817176 
L 419.517643 476.783755 
L 406.78365 484.885237 
L 415.476618 479.35476 
L 406.437973 485.105389 
L 415.533782 479.318353 
L 406.78365 484.885237 
L 416.508786 479.393786 
L 406.437973 485.105389 
L 411.459442 481.910587 
L 406.78365 484.885237 
L 411.526036 481.868176 
L 406.437973 485.105389 
L 412.731752 481.958694 
L 406.78365 484.885237 
L 406.437973 485.105389 
L 389.111281 485.100588 
L 406.791769 485.682598 
L 406.437973 485.105389 
L 406.457886 485.092719 
L 406.78365 484.885237 
L 406.791769 485.682598 
" clip-path="url(#p5611b93b9f)" style="fill: none; stroke: #000000; stroke-linecap: square"/>
   </g>
   <g id="cs:groft">
    <path d="M 601.62208 501.197838 
L 601.310632 501.197514 
L 583.876188 501.192172 
L 583.416939 500.899394 
L 548.393205 478.596442 
" clip-path="url(#p5611b93b9f)" style="fill: none; stroke: #000000; stroke-linecap: square"/>
   </g>
   <g id="cs:groft">
    <path d="M 415.476618 479.35476 
L 424.180498 473.817176 
" clip-path="url(#p5611b93b9f)" style="fill: none; stroke: #000000; stroke-linecap: square"/>
   </g>
   <g id="cs:groft">
    <path d="M 415.533782 479.318353 
L 424.180498 473.817176 
" clip-path="url(#p5611b93b9f)" style="fill: none; stroke: #000000; stroke-linecap: square"/>
   </g>
   <g id="cs:groft">
    <path d="M 416.508786 479.393786 
L 424.180498 473.817176 
" clip-path="url(#p5611b93b9f)" style="fill: none; stroke: #000000; stroke-linecap: square"/>
   </g>
   <g id="cs:groft">
    <path d="M 411.459442 481.910587 
L 424.180498 473.817176 
" clip-path="url(#p5611b93b9f)" style="fill: none; stroke: #000000; stroke-linecap: square"/>
   </g>
   <g id="cs:groft">
    <path d="M 411.526036 481.868176 
L 424.180498 473.817176 
" clip-path="url(#p5611b93b9f)" style="fill: none; stroke: #000000; stroke-linecap: square"/>
   </g>
   <g id="cs:groft">
    <path d="M 412.731752 481.958694 
L 424.180498 473.817176 
" clip-path="url(#p5611b93b9f)" style="fill: none; stroke: #000000; stroke-linecap: square"/>
   </g>
   <g id="cs:groft">
    <path d="M 583.853581 501.435598 
L 601.310632 501.197514 
" clip-path="url(#p5611b93b9f)" style="fill: none; stroke: #000000; stroke-linecap: square"/>
   </g>
   <g id="cs:groft">
    <path d="M 583.853581 501.435598 
L 583.416939 500.899394 
" clip-path="url(#p5611b93b9f)" style="fill: none; stroke: #000000; stroke-linecap: square"/>
   </g>
   <g id="cs:groft">
    <path d="M 583.872969 501.190123 
L 601.310632 501.197514 
" clip-path="url(#p5611b93b9f)" style="fill: none; stroke: #000000; stroke-linecap: square"/>
   </g>
   <g id="cs:groft">
    <path d="M 583.872969 501.190123 
L 583.876188 501.192172 
" clip-path="url(#p5611b93b9f)" style="fill: none; stroke: #000000; stroke-linecap: square"/>
   </g>
   <g id="cs:groft">
    <path d="M 583.872969 501.190123 
L 583.416939 500.899394 
" clip-path="url(#p5611b93b9f)" style="fill: none; stroke: #000000; stroke-linecap: square"/>
   </g>
   <g id="cs:groft">
    <path d="M 406.457886 485.092719 
L 389.111281 485.100588 
" clip-path="url(#p5611b93b9f)" style="fill: none; stroke: #000000; stroke-linecap: square"/>
   </g>
   <g id="cs:groft">
    <path d="M 406.811067 485.668925 
L 406.437973 485.105389 
" clip-path="url(#p5611b93b9f)" style="fill: none; stroke: #000000; stroke-linecap: square"/>
   </g>
   <g id="cs:groft">
    <path d="M 406.811067 485.668925 
L 389.111281 485.100588 
" clip-path="url(#p5611b93b9f)" style="fill: none; stroke: #000000; stroke-linecap: square"/>
   </g>
   <g id="cs:groft">
    <path d="M 583.597664 501.014612 
L 601.310632 501.197514 
" clip-path="url(#p5611b93b9f)" style="fill: none; stroke: #000000; stroke-linecap: square"/>
   </g>
   <g id="cs:groft">
    <path d="M 583.597664 501.014612 
L 583.876188 501.192172 
" clip-path="url(#p5611b93b9f)" style="fill: none; stroke: #000000; stroke-linecap: square"/>
   </g>
   <g id="cs:groft">
    <path d="M 583.597664 501.014612 
L 583.416939 500.899394 
" clip-path="url(#p5611b93b9f)" style="fill: none; stroke: #000000; stroke-linecap: square"/>
   </g>
   <g id="cs:groft">
    <path d="M 406.555338 485.030656 
L 406.437973 485.105389 
" clip-path="url(#p5611b93b9f)" style="fill: none; stroke: #000000; stroke-linecap: square"/>
   </g>
   <g id="cs:groft">
    <path d="M 406.555338 485.030656 
L 406.78365 484.885237 
" clip-path="url(#p5611b93b9f)" style="fill: none; stroke: #000000; stroke-linecap: square"/>
   </g>
   <g id="cs:groft">
    <path d="M 406.555338 485.030656 
L 389.111281 485.100588 
" clip-path="url(#p5611b93b9f)" style="fill: none; stroke: #000000; stroke-linecap: square"/>
   </g>
   <g id="patch_7">
    <path d="M 606.632644 437.222291 
Q 606.632644 445.987772 606.632644 454.753253 
" style="fill: none; stroke: #444444; stroke-width: 0.5; stroke-linecap: round"/>
   </g>
   <g id="text_25">
    <g id="patch_8">
     <path d="M 588.506277 434.974295 
L 624.759011 434.974295 
Q 625.584011 434.974295 625.584011 434.149295 
L 625.584011 428.826326 
Q 625.584011 428.001326 624.759011 428.001326 
L 588.506277 428.001326 
Q 587.681277 428.001326 587.681277 428.826326 
L 587.681277 434.149295 
Q 587.681277 434.974295 588.506277 434.974295 
z
" style="fill: #ffffff; opacity: 0.9; stroke: #444444; stroke-width: 0.5; stroke-linejoin: miter"/>
    </g>
    <!-- H. Jordskj. 11 -->
    <g style="fill: #444444" transform="translate(588.506277 433.005467) scale(0.055 -0.055)">
     <defs>
      <path id="DejaVuSans-2e" d="M 684 794 
L 1344 794 
L 1344 0 
L 684 0 
L 684 794 
z
" transform="scale(0.015625)"/>
      <path id="DejaVuSans-4a" d="M 628 4666 
L 1259 4666 
L 1259 325 
Q 1259 -519 939 -900 
Q 619 -1281 -91 -1281 
L -331 -1281 
L -331 -750 
L -134 -750 
Q 284 -750 456 -515 
Q 628 -281 628 325 
L 628 4666 
z
" transform="scale(0.015625)"/>
      <path id="DejaVuSans-6f" d="M 1959 3097 
Q 1497 3097 1228 2736 
Q 959 2375 959 1747 
Q 959 1119 1226 758 
Q 1494 397 1959 397 
Q 2419 397 2687 759 
Q 2956 1122 2956 1747 
Q 2956 2369 2687 2733 
Q 2419 3097 1959 3097 
z
M 1959 3584 
Q 2709 3584 3137 3096 
Q 3566 2609 3566 1747 
Q 3566 888 3137 398 
Q 2709 -91 1959 -91 
Q 1206 -91 779 398 
Q 353 888 353 1747 
Q 353 2609 779 3096 
Q 1206 3584 1959 3584 
z
" transform="scale(0.015625)"/>
      <path id="DejaVuSans-6b" d="M 581 4863 
L 1159 4863 
L 1159 1991 
L 2875 3500 
L 3609 3500 
L 1753 1863 
L 3688 0 
L 2938 0 
L 1159 1709 
L 1159 0 
L 581 0 
L 581 4863 
z
" transform="scale(0.015625)"/>
     </defs>
     <use xlink:href="#DejaVuSans-48"/>
     <use xlink:href="#DejaVuSans-2e" x="73.445312"/>
     <use xlink:href="#DejaVuSans-20" x="105.232422"/>
     <use xlink:href="#DejaVuSans-4a" x="137.019531"/>
     <use xlink:href="#DejaVuSans-6f" x="166.511719"/>
     <use xlink:href="#DejaVuSans-72" x="227.693359"/>
     <use xlink:href="#DejaVuSans-64" x="267.056641"/>
     <use xlink:href="#DejaVuSans-73" x="330.533203"/>
     <use xlink:href="#DejaVuSans-6b" x="382.632812"/>
     <use xlink:href="#DejaVuSans-6a" x="440.542969"/>
     <use xlink:href="#DejaVuSans-2e" x="468.326172"/>
     <use xlink:href="#DejaVuSans-20" x="500.113281"/>
     <use xlink:href="#DejaVuSans-31" x="531.900391"/>
     <use xlink:href="#DejaVuSans-31" x="595.523438"/>
    </g>
   </g>
   <g id="patch_9">
    <path d="M 489.291166 459.212768 
Q 489.291166 467.978249 489.291166 476.743729 
" style="fill: none; stroke: #333333; stroke-width: 0.5; stroke-linecap: round"/>
   </g>
   <g id="text_26">
    <g id="patch_10">
     <path d="M 476.33308 456.964771 
L 502.249252 456.964771 
Q 503.074252 456.964771 503.074252 456.139771 
L 503.074252 450.816803 
Q 503.074252 449.991803 502.249252 449.991803 
L 476.33308 449.991803 
Q 475.50808 449.991803 475.50808 450.816803 
L 475.50808 456.139771 
Q 475.50808 456.964771 476.33308 456.964771 
z
" style="fill: #ffffff; opacity: 0.9; stroke: #333333; stroke-width: 0.5; stroke-linejoin: miter"/>
    </g>
    <!-- Bindlag 1 -->
    <g style="fill: #333333" transform="translate(476.33308 454.995943) scale(0.055 -0.055)">
     <defs>
      <path id="DejaVuSans-42" d="M 1259 2228 
L 1259 519 
L 2272 519 
Q 2781 519 3026 730 
Q 3272 941 3272 1375 
Q 3272 1813 3026 2020 
Q 2781 2228 2272 2228 
L 1259 2228 
z
M 1259 4147 
L 1259 2741 
L 2194 2741 
Q 2656 2741 2882 2914 
Q 3109 3088 3109 3444 
Q 3109 3797 2882 3972 
Q 2656 4147 2194 4147 
L 1259 4147 
z
M 628 4666 
L 2241 4666 
Q 2963 4666 3353 4366 
Q 3744 4066 3744 3513 
Q 3744 3084 3544 2831 
Q 3344 2578 2956 2516 
Q 3422 2416 3680 2098 
Q 3938 1781 3938 1306 
Q 3938 681 3513 340 
Q 3088 0 2303 0 
L 628 0 
L 628 4666 
z
" transform="scale(0.015625)"/>
      <path id="DejaVuSans-67" d="M 2906 1791 
Q 2906 2416 2648 2759 
Q 2391 3103 1925 3103 
Q 1463 3103 1205 2759 
Q 947 2416 947 1791 
Q 947 1169 1205 825 
Q 1463 481 1925 481 
Q 2391 481 2648 825 
Q 2906 1169 2906 1791 
z
M 3481 434 
Q 3481 -459 3084 -895 
Q 2688 -1331 1869 -1331 
Q 1566 -1331 1297 -1286 
Q 1028 -1241 775 -1147 
L 775 -588 
Q 1028 -725 1275 -790 
Q 1522 -856 1778 -856 
Q 2344 -856 2625 -561 
Q 2906 -266 2906 331 
L 2906 616 
Q 2728 306 2450 153 
Q 2172 0 1784 0 
Q 1141 0 747 490 
Q 353 981 353 1791 
Q 353 2603 747 3093 
Q 1141 3584 1784 3584 
Q 2172 3584 2450 3431 
Q 2728 3278 2906 2969 
L 2906 3500 
L 3481 3500 
L 3481 434 
z
" transform="scale(0.015625)"/>
     </defs>
     <use xlink:href="#DejaVuSans-42"/>
     <use xlink:href="#DejaVuSans-69" x="68.603516"/>
     <use xlink:href="#DejaVuSans-6e" x="96.386719"/>
     <use xlink:href="#DejaVuSans-64" x="159.765625"/>
     <use xlink:href="#DejaVuSans-6c" x="223.242188"/>
     <use xlink:href="#DejaVuSans-61" x="251.025391"/>
     <use xlink:href="#DejaVuSans-67" x="312.304688"/>
     <use xlink:href="#DejaVuSans-20" x="375.78125"/>
     <use xlink:href="#DejaVuSans-31" x="407.568359"/>
    </g>
   </g>
   <g id="patch_11">
    <path d="M 374.782873 459.605622 
Q 374.782873 468.371103 374.782873 477.136584 
" style="fill: none; stroke: #444444; stroke-width: 0.5; stroke-linecap: round"/>
   </g>
   <g id="text_27">
    <g id="patch_12">
     <path d="M 357.149358 457.357626 
L 392.416389 457.357626 
Q 393.241389 457.357626 393.241389 456.532626 
L 393.241389 451.209657 
Q 393.241389 450.384657 392.416389 450.384657 
L 357.149358 450.384657 
Q 356.324358 450.384657 356.324358 451.209657 
L 356.324358 456.532626 
Q 356.324358 457.357626 357.149358 457.357626 
z
" style="fill: #ffffff; opacity: 0.9; stroke: #444444; stroke-width: 0.5; stroke-linejoin: miter"/>
    </g>
    <!-- V. Jordskj. 11 -->
    <g style="fill: #444444" transform="translate(357.149358 455.388798) scale(0.055 -0.055)">
     <defs>
      <path id="DejaVuSans-56" d="M 1831 0 
L 50 4666 
L 709 4666 
L 2188 738 
L 3669 4666 
L 4325 4666 
L 2547 0 
L 1831 0 
z
" transform="scale(0.015625)"/>
     </defs>
     <use xlink:href="#DejaVuSans-56"/>
     <use xlink:href="#DejaVuSans-2e" x="55.533203"/>
     <use xlink:href="#DejaVuSans-20" x="87.320312"/>
     <use xlink:href="#DejaVuSans-4a" x="119.107422"/>
     <use xlink:href="#DejaVuSans-6f" x="148.599609"/>
     <use xlink:href="#DejaVuSans-72" x="209.78125"/>
     <use xlink:href="#DejaVuSans-64" x="249.144531"/>
     <use xlink:href="#DejaVuSans-73" x="312.621094"/>
     <use xlink:href="#DejaVuSans-6b" x="364.720703"/>
     <use xlink:href="#DejaVuSans-6a" x="422.630859"/>
     <use xlink:href="#DejaVuSans-2e" x="450.414062"/>
     <use xlink:href="#DejaVuSans-20" x="482.201172"/>
     <use xlink:href="#DejaVuSans-31" x="513.988281"/>
     <use xlink:href="#DejaVuSans-31" x="577.611328"/>
    </g>
   </g>
   <g id="patch_13">
    <path d="M 411.046443 432.812147 
Q 411.046443 455.135911 411.046443 477.459675 
" style="fill: none; stroke: #444444; stroke-width: 0.5; stroke-linecap: round"/>
   </g>
   <g id="text_28">
    <g id="patch_14">
     <path d="M 398.205661 430.562677 
L 423.887224 430.562677 
Q 424.712224 430.562677 424.712224 429.737677 
L 424.712224 424.414708 
Q 424.712224 423.589708 423.887224 423.589708 
L 398.205661 423.589708 
Q 397.380661 423.589708 397.380661 424.414708 
L 397.380661 429.737677 
Q 397.380661 430.562677 398.205661 430.562677 
z
" style="fill: #ffffff; opacity: 0.9; stroke: #444444; stroke-width: 0.5; stroke-linejoin: miter"/>
    </g>
    <!-- V. Grøft 1 -->
    <g style="fill: #444444" transform="translate(398.205661 428.593849) scale(0.055 -0.055)">
     <defs>
      <path id="DejaVuSans-47" d="M 3809 666 
L 3809 1919 
L 2778 1919 
L 2778 2438 
L 4434 2438 
L 4434 434 
Q 4069 175 3628 42 
Q 3188 -91 2688 -91 
Q 1594 -91 976 548 
Q 359 1188 359 2328 
Q 359 3472 976 4111 
Q 1594 4750 2688 4750 
Q 3144 4750 3555 4637 
Q 3966 4525 4313 4306 
L 4313 3634 
Q 3963 3931 3569 4081 
Q 3175 4231 2741 4231 
Q 1884 4231 1454 3753 
Q 1025 3275 1025 2328 
Q 1025 1384 1454 906 
Q 1884 428 2741 428 
Q 3075 428 3337 486 
Q 3600 544 3809 666 
z
" transform="scale(0.015625)"/>
     </defs>
     <use xlink:href="#DejaVuSans-56"/>
     <use xlink:href="#DejaVuSans-2e" x="55.533203"/>
     <use xlink:href="#DejaVuSans-20" x="87.320312"/>
     <use xlink:href="#DejaVuSans-47" x="119.107422"/>
     <use xlink:href="#DejaVuSans-72" x="196.597656"/>
     <use xlink:href="#DejaVuSans-f8" x="237.710938"/>
     <use xlink:href="#DejaVuSans-66" x="298.892578"/>
     <use xlink:href="#DejaVuSans-74" x="332.347656"/>
     <use xlink:href="#DejaVuSans-20" x="371.556641"/>
     <use xlink:href="#DejaVuSans-31" x="403.34375"/>
    </g>
   </g>
   <g id="patch_15">
    <path d="M 485.751573 407.049943 
Q 485.751573 442.934438 485.751573 478.818933 
" style="fill: none; stroke: #555555; stroke-width: 0.5; stroke-linecap: round"/>
   </g>
   <g id="text_29">
    <g id="patch_16">
     <path d="M 471.585205 404.802074 
L 499.91794 404.802074 
Q 500.74294 404.802074 500.74294 403.977074 
L 500.74294 398.654106 
Q 500.74294 397.829106 499.91794 397.829106 
L 471.585205 397.829106 
Q 470.760205 397.829106 470.760205 398.654106 
L 470.760205 403.977074 
Q 470.760205 404.802074 471.585205 404.802074 
z
" style="fill: #ffffff; opacity: 0.9; stroke: #555555; stroke-width: 0.5; stroke-linejoin: miter"/>
    </g>
    <!-- Bærelag 1 -->
    <g style="fill: #555555" transform="translate(471.585205 402.833246) scale(0.055 -0.055)">
     <defs>
      <path id="DejaVuSans-e6" d="M 5369 2063 
Q 5366 2534 5108 2815 
Q 4850 3097 4422 3097 
Q 3944 3097 3655 2825 
Q 3366 2553 3322 2059 
L 5369 2063 
z
M 3109 3009 
Q 3341 3291 3672 3437 
Q 4003 3584 4416 3584 
Q 5122 3584 5534 3129 
Q 5947 2675 5947 1894 
L 5947 1613 
L 3303 1613 
Q 3341 1016 3659 703 
Q 3978 391 4550 391 
Q 4875 391 5187 473 
Q 5500 556 5813 722 
L 5813 178 
Q 5500 47 5175 -22 
Q 4850 -91 4519 -91 
Q 3997 -91 3609 98 
Q 3222 288 2981 659 
Q 2753 284 2415 96 
Q 2078 -91 1631 -91 
Q 1041 -91 712 201 
Q 384 494 384 1019 
Q 384 1609 779 1909 
Q 1175 2209 1959 2209 
L 2766 2209 
L 2766 2266 
Q 2766 2663 2505 2880 
Q 2244 3097 1772 3097 
Q 1472 3097 1187 3025 
Q 903 2953 641 2809 
L 641 3341 
Q 956 3463 1253 3523 
Q 1550 3584 1831 3584 
Q 2275 3584 2608 3434 
Q 2941 3284 3109 3009 
z
M 2194 1759 
Q 1497 1759 1228 1600 
Q 959 1441 959 1056 
Q 959 750 1161 570 
Q 1363 391 1709 391 
Q 2188 391 2477 730 
Q 2766 1069 2766 1631 
L 2766 1759 
L 2194 1759 
z
" transform="scale(0.015625)"/>
     </defs>
     <use xlink:href="#DejaVuSans-42"/>
     <use xlink:href="#DejaVuSans-e6" x="68.603516"/>
     <use xlink:href="#DejaVuSans-72" x="166.796875"/>
     <use xlink:href="#DejaVuSans-65" x="205.660156"/>
     <use xlink:href="#DejaVuSans-6c" x="267.183594"/>
     <use xlink:href="#DejaVuSans-61" x="294.966797"/>
     <use xlink:href="#DejaVuSans-67" x="356.246094"/>
     <use xlink:href="#DejaVuSans-20" x="419.722656"/>
     <use xlink:href="#DejaVuSans-31" x="451.509766"/>
    </g>
   </g>
   <g id="patch_17">
    <path d="M 486.960308 382.652881 
Q 486.960308 432.098751 486.960308 481.54462 
" style="fill: none; stroke: #555555; stroke-width: 0.5; stroke-linecap: round"/>
   </g>
   <g id="text_30">
    <g id="patch_18">
     <path d="M 472.793941 380.400298 
L 501.126675 380.400298 
Q 501.951675 380.400298 501.951675 379.575298 
L 501.951675 374.252329 
Q 501.951675 373.427329 501.126675 373.427329 
L 472.793941 373.427329 
Q 471.968941 373.427329 471.968941 374.252329 
L 471.968941 379.575298 
Q 471.968941 380.400298 472.793941 380.400298 
z
" style="fill: #ffffff; opacity: 0.9; stroke: #555555; stroke-width: 0.5; stroke-linejoin: miter"/>
    </g>
    <!-- Bærelag 2 -->
    <g style="fill: #555555" transform="translate(472.793941 378.43147) scale(0.055 -0.055)">
     <use xlink:href="#DejaVuSans-42"/>
     <use xlink:href="#DejaVuSans-e6" x="68.603516"/>
     <use xlink:href="#DejaVuSans-72" x="166.796875"/>
     <use xlink:href="#DejaVuSans-65" x="205.660156"/>
     <use xlink:href="#DejaVuSans-6c" x="267.183594"/>
     <use xlink:href="#DejaVuSans-61" x="294.966797"/>
     <use xlink:href="#DejaVuSans-67" x="356.246094"/>
     <use xlink:href="#DejaVuSans-20" x="419.722656"/>
     <use xlink:href="#DejaVuSans-32" x="451.509766"/>
    </g>
   </g>
   <g id="patch_19">
    <path d="M 393.338905 357.090533 
Q 393.338905 420.098617 393.338905 483.1067 
" style="fill: none; stroke: #444444; stroke-width: 0.5; stroke-linecap: round"/>
   </g>
   <g id="text_31">
    <g id="patch_20">
     <path d="M 380.498124 354.838482 
L 406.179686 354.838482 
Q 407.004686 354.838482 407.004686 354.013482 
L 407.004686 348.690513 
Q 407.004686 347.865513 406.179686 347.865513 
L 380.498124 347.865513 
Q 379.673124 347.865513 379.673124 348.690513 
L 379.673124 354.013482 
Q 379.673124 354.838482 380.498124 354.838482 
z
" style="fill: #ffffff; opacity: 0.9; stroke: #444444; stroke-width: 0.5; stroke-linejoin: miter"/>
    </g>
    <!-- V. Grøft 2 -->
    <g style="fill: #444444" transform="translate(380.498124 352.869654) scale(0.055 -0.055)">
     <use xlink:href="#DejaVuSans-56"/>
     <use xlink:href="#DejaVuSans-2e" x="55.533203"/>
     <use xlink:href="#DejaVuSans-20" x="87.320312"/>
     <use xlink:href="#DejaVuSans-47" x="119.107422"/>
     <use xlink:href="#DejaVuSans-72" x="196.597656"/>
     <use xlink:href="#DejaVuSans-f8" x="237.710938"/>
     <use xlink:href="#DejaVuSans-66" x="298.892578"/>
     <use xlink:href="#DejaVuSans-74" x="332.347656"/>
     <use xlink:href="#DejaVuSans-20" x="371.556641"/>
     <use xlink:href="#DejaVuSans-32" x="403.34375"/>
    </g>
   </g>
   <g id="patch_21">
    <path d="M 574.775818 361.881852 
Q 574.775818 424.889935 574.775818 487.898019 
" style="fill: none; stroke: #444444; stroke-width: 0.5; stroke-linecap: round"/>
   </g>
   <g id="text_32">
    <g id="patch_22">
     <path d="M 560.5682 359.629801 
L 588.983435 359.629801 
Q 589.808435 359.629801 589.808435 358.804801 
L 589.808435 353.481832 
Q 589.808435 352.656832 588.983435 352.656832 
L 560.5682 352.656832 
Q 559.7432 352.656832 559.7432 353.481832 
L 559.7432 358.804801 
Q 559.7432 359.629801 560.5682 359.629801 
z
" style="fill: #ffffff; opacity: 0.9; stroke: #444444; stroke-width: 0.5; stroke-linejoin: miter"/>
    </g>
    <!-- H. Grøft  1 -->
    <g style="fill: #444444" transform="translate(560.5682 357.660972) scale(0.055 -0.055)">
     <use xlink:href="#DejaVuSans-48"/>
     <use xlink:href="#DejaVuSans-2e" x="73.445312"/>
     <use xlink:href="#DejaVuSans-20" x="105.232422"/>
     <use xlink:href="#DejaVuSans-47" x="137.019531"/>
     <use xlink:href="#DejaVuSans-72" x="214.509766"/>
     <use xlink:href="#DejaVuSans-f8" x="255.623047"/>
     <use xlink:href="#DejaVuSans-66" x="316.804688"/>
     <use xlink:href="#DejaVuSans-74" x="350.259766"/>
     <use xlink:href="#DejaVuSans-20" x="389.46875"/>
     <use xlink:href="#DejaVuSans-20" x="421.255859"/>
     <use xlink:href="#DejaVuSans-31" x="453.042969"/>
    </g>
   </g>
   <g id="patch_23">
    <path d="M 497.600007 481.479515 
Q 497.600007 490.244996 497.600007 499.010477 
" style="fill: none; stroke: #888888; stroke-width: 0.5; stroke-linecap: round"/>
   </g>
   <g id="text_33">
    <g id="patch_24">
     <path d="M 472.132428 479.231518 
L 523.067585 479.231518 
Q 523.892585 479.231518 523.892585 478.406518 
L 523.892585 473.08355 
Q 523.892585 472.25855 523.067585 472.25855 
L 472.132428 472.25855 
Q 471.307428 472.25855 471.307428 473.08355 
L 471.307428 478.406518 
Q 471.307428 479.231518 472.132428 479.231518 
z
" style="fill: #ffffff; opacity: 0.9; stroke: #888888; stroke-width: 0.5; stroke-linejoin: miter"/>
    </g>
    <!-- Forsterkningslag 1 -->
    <g style="fill: #888888" transform="translate(472.132428 477.26269) scale(0.055 -0.055)">
     <defs>
      <path id="DejaVuSans-46" d="M 628 4666 
L 3309 4666 
L 3309 4134 
L 1259 4134 
L 1259 2759 
L 3109 2759 
L 3109 2228 
L 1259 2228 
L 1259 0 
L 628 0 
L 628 4666 
z
" transform="scale(0.015625)"/>
     </defs>
     <use xlink:href="#DejaVuSans-46"/>
     <use xlink:href="#DejaVuSans-6f" x="53.894531"/>
     <use xlink:href="#DejaVuSans-72" x="115.076172"/>
     <use xlink:href="#DejaVuSans-73" x="156.189453"/>
     <use xlink:href="#DejaVuSans-74" x="208.289062"/>
     <use xlink:href="#DejaVuSans-65" x="247.498047"/>
     <use xlink:href="#DejaVuSans-72" x="309.021484"/>
     <use xlink:href="#DejaVuSans-6b" x="350.134766"/>
     <use xlink:href="#DejaVuSans-6e" x="408.044922"/>
     <use xlink:href="#DejaVuSans-69" x="471.423828"/>
     <use xlink:href="#DejaVuSans-6e" x="499.207031"/>
     <use xlink:href="#DejaVuSans-67" x="562.585938"/>
     <use xlink:href="#DejaVuSans-73" x="626.0625"/>
     <use xlink:href="#DejaVuSans-6c" x="678.162109"/>
     <use xlink:href="#DejaVuSans-61" x="705.945312"/>
     <use xlink:href="#DejaVuSans-67" x="767.224609"/>
     <use xlink:href="#DejaVuSans-20" x="830.701172"/>
     <use xlink:href="#DejaVuSans-31" x="862.488281"/>
    </g>
   </g>
   <g id="patch_25">
    <path d="M 597.029883 400.305048 
Q 597.029883 449.750918 597.029883 499.196788 
" style="fill: none; stroke: #444444; stroke-width: 0.5; stroke-linecap: round"/>
   </g>
   <g id="text_34">
    <g id="patch_26">
     <path d="M 582.822266 398.052465 
L 611.2375 398.052465 
Q 612.0625 398.052465 612.0625 397.227465 
L 612.0625 391.904497 
Q 612.0625 391.079497 611.2375 391.079497 
L 582.822266 391.079497 
Q 581.997266 391.079497 581.997266 391.904497 
L 581.997266 397.227465 
Q 581.997266 398.052465 582.822266 398.052465 
z
" style="fill: #ffffff; opacity: 0.9; stroke: #444444; stroke-width: 0.5; stroke-linejoin: miter"/>
    </g>
    <!-- H. Grøft  2 -->
    <g style="fill: #444444" transform="translate(582.822266 396.083637) scale(0.055 -0.055)">
     <use xlink:href="#DejaVuSans-48"/>
     <use xlink:href="#DejaVuSans-2e" x="73.445312"/>
     <use xlink:href="#DejaVuSans-20" x="105.232422"/>
     <use xlink:href="#DejaVuSans-47" x="137.019531"/>
     <use xlink:href="#DejaVuSans-72" x="214.509766"/>
     <use xlink:href="#DejaVuSans-f8" x="255.623047"/>
     <use xlink:href="#DejaVuSans-66" x="316.804688"/>
     <use xlink:href="#DejaVuSans-74" x="350.259766"/>
     <use xlink:href="#DejaVuSans-20" x="389.46875"/>
     <use xlink:href="#DejaVuSans-20" x="421.255859"/>
     <use xlink:href="#DejaVuSans-32" x="453.042969"/>
    </g>
   </g>
   <g id="patch_27">
    <path d="M 505.407999 320.363643 
Q 505.407999 410.492942 505.407999 500.622241 
" style="fill: none; stroke: #aaaaaa; stroke-width: 0.5; stroke-linecap: round"/>
   </g>
   <g id="text_35">
    <g id="patch_28">
     <path d="M 494.401984 318.113368 
L 516.414015 318.113368 
Q 517.239015 318.113368 517.239015 317.288368 
L 517.239015 311.965399 
Q 517.239015 311.140399 516.414015 311.140399 
L 494.401984 311.140399 
Q 493.576984 311.140399 493.576984 311.965399 
L 493.576984 317.288368 
Q 493.576984 318.113368 494.401984 318.113368 
z
" style="fill: #ffffff; opacity: 0.9; stroke: #aaaaaa; stroke-width: 0.5; stroke-linejoin: miter"/>
    </g>
    <!-- Filterlag -->
    <g style="fill: #aaaaaa" transform="translate(494.401984 316.14454) scale(0.055 -0.055)">
     <use xlink:href="#DejaVuSans-46"/>
     <use xlink:href="#DejaVuSans-69" x="50.269531"/>
     <use xlink:href="#DejaVuSans-6c" x="78.052734"/>
     <use xlink:href="#DejaVuSans-74" x="105.835938"/>
     <use xlink:href="#DejaVuSans-65" x="145.044922"/>
     <use xlink:href="#DejaVuSans-72" x="206.568359"/>
     <use xlink:href="#DejaVuSans-6c" x="247.681641"/>
     <use xlink:href="#DejaVuSans-61" x="275.464844"/>
     <use xlink:href="#DejaVuSans-67" x="336.744141"/>
    </g>
   </g>
   <g id="text_36">
    <!-- Profil 10.00 -->
    <g transform="translate(33.82 14.038594) scale(0.09 -0.09)">
     <defs>
      <path id="DejaVuSans-Bold-50" d="M 588 4666 
L 2584 4666 
Q 3475 4666 3951 4270 
Q 4428 3875 4428 3144 
Q 4428 2409 3951 2014 
Q 3475 1619 2584 1619 
L 1791 1619 
L 1791 0 
L 588 0 
L 588 4666 
z
M 1791 3794 
L 1791 2491 
L 2456 2491 
Q 2806 2491 2997 2661 
Q 3188 2831 3188 3144 
Q 3188 3456 2997 3625 
Q 2806 3794 2456 3794 
L 1791 3794 
z
" transform="scale(0.015625)"/>
      <path id="DejaVuSans-Bold-72" d="M 3138 2547 
Q 2991 2616 2845 2648 
Q 2700 2681 2553 2681 
Q 2122 2681 1889 2404 
Q 1656 2128 1656 1613 
L 1656 0 
L 538 0 
L 538 3500 
L 1656 3500 
L 1656 2925 
Q 1872 3269 2151 3426 
Q 2431 3584 2822 3584 
Q 2878 3584 2943 3579 
Q 3009 3575 3134 3559 
L 3138 2547 
z
" transform="scale(0.015625)"/>
      <path id="DejaVuSans-Bold-6f" d="M 2203 2784 
Q 1831 2784 1636 2517 
Q 1441 2250 1441 1747 
Q 1441 1244 1636 976 
Q 1831 709 2203 709 
Q 2569 709 2762 976 
Q 2956 1244 2956 1747 
Q 2956 2250 2762 2517 
Q 2569 2784 2203 2784 
z
M 2203 3584 
Q 3106 3584 3614 3096 
Q 4122 2609 4122 1747 
Q 4122 884 3614 396 
Q 3106 -91 2203 -91 
Q 1297 -91 786 396 
Q 275 884 275 1747 
Q 275 2609 786 3096 
Q 1297 3584 2203 3584 
z
" transform="scale(0.015625)"/>
      <path id="DejaVuSans-Bold-66" d="M 2841 4863 
L 2841 4128 
L 2222 4128 
Q 1984 4128 1890 4042 
Q 1797 3956 1797 3744 
L 1797 3500 
L 2753 3500 
L 2753 2700 
L 1797 2700 
L 1797 0 
L 678 0 
L 678 2700 
L 122 2700 
L 122 3500 
L 678 3500 
L 678 3744 
Q 678 4316 997 4589 
Q 1316 4863 1984 4863 
L 2841 4863 
z
" transform="scale(0.015625)"/>
      <path id="DejaVuSans-Bold-69" d="M 538 3500 
L 1656 3500 
L 1656 0 
L 538 0 
L 538 3500 
z
M 538 4863 
L 1656 4863 
L 1656 3950 
L 538 3950 
L 538 4863 
z
" transform="scale(0.015625)"/>
      <path id="DejaVuSans-Bold-6c" d="M 538 4863 
L 1656 4863 
L 1656 0 
L 538 0 
L 538 4863 
z
" transform="scale(0.015625)"/>
      <path id="DejaVuSans-Bold-20" transform="scale(0.015625)"/>
      <path id="DejaVuSans-Bold-31" d="M 750 831 
L 1813 831 
L 1813 3847 
L 722 3622 
L 722 4441 
L 1806 4666 
L 2950 4666 
L 2950 831 
L 4013 831 
L 4013 0 
L 750 0 
L 750 831 
z
" transform="scale(0.015625)"/>
      <path id="DejaVuSans-Bold-30" d="M 2944 2338 
Q 2944 3213 2780 3570 
Q 2616 3928 2228 3928 
Q 1841 3928 1675 3570 
Q 1509 3213 1509 2338 
Q 1509 1453 1675 1090 
Q 1841 728 2228 728 
Q 2613 728 2778 1090 
Q 2944 1453 2944 2338 
z
M 4147 2328 
Q 4147 1169 3647 539 
Q 3147 -91 2228 -91 
Q 1306 -91 806 539 
Q 306 1169 306 2328 
Q 306 3491 806 4120 
Q 1306 4750 2228 4750 
Q 3147 4750 3647 4120 
Q 4147 3491 4147 2328 
z
" transform="scale(0.015625)"/>
      <path id="DejaVuSans-Bold-2e" d="M 653 1209 
L 1778 1209 
L 1778 0 
L 653 0 
L 653 1209 
z
" transform="scale(0.015625)"/>
     </defs>
     <use xlink:href="#DejaVuSans-Bold-50"/>
     <use xlink:href="#DejaVuSans-Bold-72" x="73.291016"/>
     <use xlink:href="#DejaVuSans-Bold-6f" x="122.607422"/>
     <use xlink:href="#DejaVuSans-Bold-66" x="191.308594"/>
     <use xlink:href="#DejaVuSans-Bold-69" x="234.814453"/>
     <use xlink:href="#DejaVuSans-Bold-6c" x="269.091797"/>
     <use xlink:href="#DejaVuSans-Bold-20" x="303.369141"/>
     <use xlink:href="#DejaVuSans-Bold-31" x="338.183594"/>
     <use xlink:href="#DejaVuSans-Bold-30" x="407.763672"/>
     <use xlink:href="#DejaVuSans-Bold-2e" x="477.34375"/>
     <use xlink:href="#DejaVuSans-Bold-30" x="515.332031"/>
     <use xlink:href="#DejaVuSans-Bold-30" x="584.912109"/>
    </g>
   </g>
   <g id="cs:kjørefelt">
    <path d="M 406.437973 485.105389 
L 409.986673 482.847565 
L 413.535373 480.589795 
L 417.084073 478.332033 
L 420.632773 476.074297 
L 424.181473 475.623653 
L 427.730173 475.760197 
L 431.278873 475.896741 
L 434.827573 476.033285 
L 438.376273 476.169829 
L 441.924972 476.306373 
L 445.473672 476.442917 
L 449.022372 476.579461 
L 452.571072 476.716005 
L 456.119772 476.852549 
L 459.668472 476.989093 
L 463.217172 477.125637 
L 466.765872 477.262181 
L 470.314572 477.398726 
L 473.863272 477.535254 
L 477.411972 477.671745 
L 480.960671 477.808235 
L 484.509371 477.944726 
L 488.058071 478.081357 
L 491.606771 478.21788 
L 495.155471 478.354403 
L 498.704171 478.490927 
L 502.252871 478.62745 
L 505.801571 478.763973 
L 509.350271 478.900497 
L 512.898971 479.03702 
L 516.447671 479.173543 
L 519.99637 479.310067 
L 523.54507 479.44659 
L 527.09377 479.583113 
L 530.64247 479.719637 
L 534.19117 479.85616 
L 537.73987 479.992683 
L 541.28857 480.129206 
L 544.83727 480.26573 
L 548.38597 480.402253 
L 551.93467 480.851668 
L 555.48337 483.111473 
L 559.03207 485.371303 
L 562.580769 487.631128 
L 566.129469 489.890971 
L 569.678169 492.150762 
L 573.226869 494.410552 
L 576.775569 496.670343 
L 580.324269 498.930133 
L 583.872969 501.190123 
" clip-path="url(#p5611b93b9f)" style="fill: none; stroke: #000000; stroke-width: 2; stroke-linecap: square"/>
   </g>
  </g>
  <g id="text_37">
   <!-- SVV · R700 · 1:200 · Stasjon 10.00 m · xlim=[-13,13] -->
   <g style="fill: #555555" transform="translate(919.630322 743.023947) scale(0.05 -0.05)">
    <defs>
     <path id="DejaVuSans-b7" d="M 684 2619 
L 1344 2619 
L 1344 1825 
L 684 1825 
L 684 2619 
z
" transform="scale(0.015625)"/>
     <path id="DejaVuSans-52" d="M 2841 2188 
Q 3044 2119 3236 1894 
Q 3428 1669 3622 1275 
L 4263 0 
L 3584 0 
L 2988 1197 
Q 2756 1666 2539 1819 
Q 2322 1972 1947 1972 
L 1259 1972 
L 1259 0 
L 628 0 
L 628 4666 
L 2053 4666 
Q 2853 4666 3247 4331 
Q 3641 3997 3641 3322 
Q 3641 2881 3436 2590 
Q 3231 2300 2841 2188 
z
M 1259 4147 
L 1259 2491 
L 2053 2491 
Q 2509 2491 2742 2702 
Q 2975 2913 2975 3322 
Q 2975 3731 2742 3939 
Q 2509 4147 2053 4147 
L 1259 4147 
z
" transform="scale(0.015625)"/>
     <path id="DejaVuSans-3a" d="M 750 794 
L 1409 794 
L 1409 0 
L 750 0 
L 750 794 
z
M 750 3309 
L 1409 3309 
L 1409 2516 
L 750 2516 
L 750 3309 
z
" transform="scale(0.015625)"/>
     <path id="DejaVuSans-78" d="M 3513 3500 
L 2247 1797 
L 3578 0 
L 2900 0 
L 1881 1375 
L 863 0 
L 184 0 
L 1544 1831 
L 300 3500 
L 978 3500 
L 1906 2253 
L 2834 3500 
L 3513 3500 
z
" transform="scale(0.015625)"/>
     <path id="DejaVuSans-3d" d="M 678 2906 
L 4684 2906 
L 4684 2381 
L 678 2381 
L 678 2906 
z
M 678 1631 
L 4684 1631 
L 4684 1100 
L 678 1100 
L 678 1631 
z
" transform="scale(0.015625)"/>
     <path id="DejaVuSans-5b" d="M 550 4863 
L 1875 4863 
L 1875 4416 
L 1125 4416 
L 1125 -397 
L 1875 -397 
L 1875 -844 
L 550 -844 
L 550 4863 
z
" transform="scale(0.015625)"/>
     <path id="DejaVuSans-2d" d="M 313 2009 
L 1997 2009 
L 1997 1497 
L 313 1497 
L 313 2009 
z
" transform="scale(0.015625)"/>
     <path id="DejaVuSans-2c" d="M 750 794 
L 1409 794 
L 1409 256 
L 897 -744 
L 494 -744 
L 750 256 
L 750 794 
z
" transform="scale(0.015625)"/>
     <path id="DejaVuSans-5d" d="M 1947 4863 
L 1947 -844 
L 622 -844 
L 622 -397 
L 1369 -397 
L 1369 4416 
L 622 4416 
L 622 4863 
L 1947 4863 
z
" transform="scale(0.015625)"/>
    </defs>
    <use xlink:href="#DejaVuSans-53"/>
    <use xlink:href="#DejaVuSans-56" x="63.476562"/>
    <use xlink:href="#DejaVuSans-56" x="131.884766"/>
    <use xlink:href="#DejaVuSans-20" x="200.292969"/>
    <use xlink:href="#DejaVuSans-b7" x="232.080078"/>
    <use xlink:href="#DejaVuSans-20" x="263.867188"/>
    <use xlink:href="#DejaVuSans-52" x="295.654297"/>
    <use xlink:href="#DejaVuSans-37" x="365.136719"/>
    <use xlink:href="#DejaVuSans-30" x="428.759766"/>
    <use xlink:href="#DejaVuSans-30" x="492.382812"/>
    <use xlink:href="#DejaVuSans-20" x="556.005859"/>
    <use xlink:href="#DejaVuSans-b7" x="587.792969"/>
    <use xlink:href="#DejaVuSans-20" x="619.580078"/>
    <use xlink:href="#DejaVuSans-31" x="651.367188"/>
    <use xlink:href="#DejaVuSans-3a" x="714.990234"/>
    <use xlink:href="#DejaVuSans-32" x="748.681641"/>
    <use xlink:href="#DejaVuSans-30" x="812.304688"/>
    <use xlink:href="#DejaVuSans-30" x="875.927734"/>
    <use xlink:href="#DejaVuSans-20" x="939.550781"/>
    <use xlink:href="#DejaVuSans-b7" x="971.337891"/>
    <use xlink:href="#DejaVuSans-20" x="1003.125"/>
    <use xlink:href="#DejaVuSans-53" x="1034.912109"/>
    <use xlink:href="#DejaVuSans-74" x="1098.388672"/>
    <use xlink:href="#DejaVuSans-61" x="1137.597656"/>
    <use xlink:href="#DejaVuSans-73" x="1198.876953"/>
    <use xlink:href="#DejaVuSans-6a" x="1250.976562"/>
    <use xlink:href="#DejaVuSans-6f" x="1278.759766"/>
    <use xlink:href="#DejaVuSans-6e" x="1339.941406"/>
    <use xlink:href="#DejaVuSans-20" x="1403.320312"/>
    <use xlink:href="#DejaVuSans-31" x="1435.107422"/>
    <use xlink:href="#DejaVuSans-30" x="1498.730469"/>
    <use xlink:href="#DejaVuSans-2e" x="1562.353516"/>
    <use xlink:href="#DejaVuSans-30" x="1594.140625"/>
    <use xlink:href="#DejaVuSans-30" x="1657.763672"/>
    <use xlink:href="#DejaVuSans-20" x="1721.386719"/>
    <use xlink:href="#DejaVuSans-6d" x="1753.173828"/>
    <use xlink:href="#DejaVuSans-20" x="1850.585938"/>
    <use xlink:href="#DejaVuSans-b7" x="1882.373047"/>
    <use xlink:href="#DejaVuSans-20" x="1914.160156"/>
    <use xlink:href="#DejaVuSans-78" x="1945.947266"/>
    <use xlink:href="#DejaVuSans-6c" x="2005.126953"/>
    <use xlink:href="#DejaVuSans-69" x="2032.910156"/>
    <use xlink:href="#DejaVuSans-6d" x="2060.693359"/>
    <use xlink:href="#DejaVuSans-3d" x="2158.105469"/>
    <use xlink:href="#DejaVuSans-5b" x="2241.894531"/>
    <use xlink:href="#DejaVuSans-2d" x="2280.908203"/>
    <use xlink:href="#DejaVuSans-31" x="2316.992188"/>
    <use xlink:href="#DejaVuSans-33" x="2380.615234"/>
    <use xlink:href="#DejaVuSans-2c" x="2444.238281"/>
    <use xlink:href="#DejaVuSans-31" x="2476.025391"/>
    <use xlink:href="#DejaVuSans-33" x="2539.648438"/>
    <use xlink:href="#DejaVuSans-5d" x="2603.271484"/>
   </g>
  </g>
 </g>
 <defs>
  <clipPath id="p5611b93b9f">
   <rect x="33.82" y="20.038594" width="922.677165" height="648.255118"/>
  </clipPath>
 </defs>
</svg>
